<?xml version="1.0" encoding="utf-8"?>
<!-- Generator: Adobe Illustrator 17.0.2, SVG Export Plug-In . SVG Version: 6.00 Build 0)  -->
<!DOCTYPE svg PUBLIC "-//W3C//DTD SVG 1.1//EN" "http://www.w3.org/Graphics/SVG/1.1/DTD/svg11.dtd">
<svg version="1.1" id="Layer_1" xmlns="http://www.w3.org/2000/svg" xmlns:xlink="http://www.w3.org/1999/xlink" x="0px" y="0px"
	 width="50px" height="20px" viewBox="0 0 50 20" enable-background="new 0 0 50 20" xml:space="preserve">
<g>
	<path fill="#CCD3DC" d="M25.825,17.917c0-0.203-0.078-0.414-0.234-0.57L2.457,1.457C2.145,1.129,1.621,1.121,1.293,1.434
		S0.957,2.27,1.27,2.598l23.134,15.89c0.312,0.328,0.836,0.336,1.164,0.023C25.747,18.347,25.825,18.136,25.825,17.917z"/>
	<path fill="#CCD3DC" d="M49.013,2.081c0-0.219-0.086-0.43-0.25-0.594c-0.328-0.312-0.852-0.305-1.164,0.023L24.411,17.347
		c-0.312,0.328-0.305,0.852,0.023,1.164s0.852,0.305,1.164-0.023L48.786,2.651C48.935,2.495,49.013,2.284,49.013,2.081z"/>
</g>
</svg>
