<?xml version="1.0" encoding="utf-8"?>
<!-- Generator: Adobe Illustrator 17.0.2, SVG Export Plug-In . SVG Version: 6.00 Build 0)  -->
<!DOCTYPE svg PUBLIC "-//W3C//DTD SVG 1.1//EN" "http://www.w3.org/Graphics/SVG/1.1/DTD/svg11.dtd">
<svg version="1.1" id="Layer_1" xmlns="http://www.w3.org/2000/svg" xmlns:xlink="http://www.w3.org/1999/xlink" x="0px" y="0px"
	 width="500px" height="300px" viewBox="0 0 500 300" enable-background="new 0 0 500 300" xml:space="preserve">
<g id="HzgJ30.tif" display="none">
	
		<image display="inline" overflow="visible" width="400" height="300" id="Layer_0_1_" xlink:href="EDBED891D6A3DD6E.png"  transform="matrix(1 0 0 1 50 0)">
	</image>
</g>
<path fill="#FFFFFF" d="M162.583,144.083c5.292-13.042,6.542-14.375,7.333-15.917c0,0,0.626-1.382,1.673-1.382
	c1.003,0,31.911,5.841,43.824-24.906c0.481-1.242,0.628-2.316,0.628-4.378c0-1.469-0.516-2.378-0.917-3.542
	c-2.486-7.23-13.857-17.155-34.625-3.083c0,0-13.167,11.375-18.083,24.292c-0.229,0.458-0.458,2.375-2.979,0.99
	C156.884,114.753,138.417,103.667,138,80v-2c0,0,0.188-1.547-1.75-1.167c-2.617,0.513-12.917,7.917-5.75,25.333
	c7.167,17.417,26.917,21.917,26.917,21.917s-5.083,11.917-7.167,17.833c-2.083,5.917-6.833,15.667-6.833,15.667s-1.25,1-2.667,0
	s-26.083-18.667-42.5-8c-10.333,8.75-2.245,22.189,2.833,25.75c5.229,3.667,26,12,42.667-1.167c0,0,1.708-0.875,2.542,0.333
	c0.833,1.208,9.552,10.781,10.708,12s8.656,12.281,23.562,16.625c0,0,25.812,4.375,25.938-15.875c0,0,0.046-2.45-2.938-0.812
	c-7.062,3.875-20.125,4-27,0.188c0,0-6.625-2.125-23.5-19.312c0,0-1.167-1.667,0.104-2.938
	C154.708,161.792,157.217,157.605,162.583,144.083z M174.583,118.833c0,0,16.667-30.25,31.083-23.333c4.333,4,1.25,10.583-3.167,15
	c-6.336,5.662-8.708,8.958-26.667,10.333C175.833,120.833,173.243,121.105,174.583,118.833z M135.917,167
	c-1.917,1.917-7.333,6-13.75,6.833c-6.417,0.833-11.917-1.833-13.917-3.083s-5.438-5.688-4.667-9.833
	c5.542-17.542,32.333,2.417,32.333,2.417C137.562,164.667,137.833,165.083,135.917,167z"/>
<path fill="#FFFFFF" d="M185.755,138.583c0,0,0.828-2.583,1.745-2.583s10.5,0,10.5,0s1.667-0.005,0.583,1.917l-8.75,22.75
	c0,0-2.745,9,2.544,11.167c5.289,2.167,9.956-4.333,11.123-6.75c1.167-2.417,10.25-27.25,10.25-27.25s0.406-1.833,1.417-1.833H226
	c0,0,0.688,0.125,0.312,0.938s-9.417,24.188-10.271,27.5c0,0-1.771,3.375,0,5.375s8.583-0.562,13.521-5l2.188,2.125
	c0,0-11.812,15.312-20.625,11.062c-3.542-1.417-4.625-2.875-5.708-4.542c-0.75-0.708-1-0.583-1.542-0.375
	c-0.527,0.203-15.227,14.381-25.539-3.003c-0.282-0.475-0.663-1.446-0.938-1.969c0,0-0.689-2.737,0.103-6.195
	C178.259,158.602,185.755,138.583,185.755,138.583z"/>
<path fill="#FFFFFF" d="M245.958,146.625c0,0,8.542-10.75,12-3.042c0.458,1.208,0.458,2.667-0.458,3.375c0,0-1.208,1.625-1.958,2.25
	c-0.75,0.625-1.792,1.625-1,2.708c0.792,1.083,1.958,1.5,1.958,1.5s0.958,0.917,3.333,0.458s4.5-3.708,4.667-6.042
	c0.167-2.333-0.292-9.333-8.917-12.583c0,0-16.833-5.917-25.583,15.542c0,0-4.917,14.375,2.667,22.708
	c7.583,8.333,21.083,6.312,30.208-3.438l7.792-7.312L268.25,161c0,0-20.333,20.083-28.25,6.417
	C237.438,160,243.808,149.538,245.958,146.625z"/>
<path fill="#FFFFFF" d="M290.042,102.104c0,0,0.25-1.104,0.917-1.104c0.667,0,11.042,0,11.042,0s1.292,0.083,1,1
	s-13.062,33.438-13.062,33.438l-0.438,1.188c0,0,0.312,0.562,1.125,0.312s6.125-5.021,13.75-2.396s8.688,17.146-7.438,23.208
	c-1.625,0.688-4.188,2.688-4.188,2.688s-0.354,0.359-0.5,1.938c-0.107,2.063-0.812,6.438,4,8.75c0,0,4.188,3.812,14.562-5.625
	l1.688-1.188l1.438,1.938c0,0-12.021,18.057-24.396,12.466c-6.333-3.216-6.542-9.383-6.542-12.049c0-2.667,0-4.667,0-4.667
	s0.333-2.667,1.667-3.417c1.333-0.75,15.167-7.167,15.167-12.417s-8.75-4.25-13.583,2.167c-4.833,6.417-2.292,3.271-12.125,28.938
	c0,0-0.125,0.729-1.167,0.729c-1.042,0-9.958,0-9.958,0l-1.333-0.042c0,0-1-0.208,0-2.208S290.042,102.104,290.042,102.104z"/>
<path fill="#FFFFFF" d="M351.25,161c0,0-20.333,20.083-28.25,6.417c-1.124-3.253-1.09-5.317,0.114-8.848l0.595-1.465
	c0.844,0.172,1.833,0.271,1.833,0.271c12.75,0.859,16.708-2.25,16.708-2.25c2.884-1.963,4.75-3.75,5.25-7.292
	c0.327-2.316-0.292-9.333-8.917-12.583c0,0-16.833-5.917-25.583,15.542c0,0-4.917,14.375,2.667,22.708
	c7.583,8.333,21.083,6.312,30.208-3.438l7.792-7.312L351.25,161z M324.792,153.947c1.459-3.3,3.221-6.041,4.167-7.322
	c0,0,7.167-10.062,11.354-3c0.458,1.208,0.012,2.606-0.312,3.375c0,0-0.708,1.583-1.458,2.208c0,0-4.417,4.792-12.917,5.292
	c0,0-0.703,0.094-1-0.078L324.792,153.947z"/>
<path fill="#FFFFFF" d="M389.583,161c0,0-20.333,20.083-28.25,6.417c-1.124-3.253-1.09-5.317,0.114-8.848l0.595-1.465
	c0.844,0.172,1.833,0.271,1.833,0.271c12.75,0.859,16.708-2.25,16.708-2.25c2.884-1.963,4.75-3.75,5.25-7.292
	c0.327-2.316-0.292-9.333-8.917-12.583c0,0-16.833-5.917-25.583,15.542c0,0-4.917,14.375,2.667,22.708
	c7.583,8.333,21.083,6.312,30.208-3.438L392,162.75L389.583,161z M363.125,153.947c1.459-3.3,3.221-6.041,4.167-7.322
	c0,0,7.167-10.062,11.354-3c0.458,1.208,0.012,2.606-0.312,3.375c0,0-0.708,1.583-1.458,2.208c0,0-4.417,4.792-12.917,5.292
	c0,0-0.703,0.094-1-0.078L363.125,153.947z"/>
</svg>
