<?xml version="1.0" encoding="utf-8"?>
<!-- Generator: Adobe Illustrator 17.0.2, SVG Export Plug-In . SVG Version: 6.00 Build 0)  -->
<!DOCTYPE svg PUBLIC "-//W3C//DTD SVG 1.1//EN" "http://www.w3.org/Graphics/SVG/1.1/DTD/svg11.dtd">
<svg version="1.1" id="Layer_1" xmlns="http://www.w3.org/2000/svg" xmlns:xlink="http://www.w3.org/1999/xlink" x="0px" y="0px"
	 width="100px" height="40px" viewBox="0 0 100 40" enable-background="new 0 0 100 40" xml:space="preserve">
<path fill="#817BDF" d="M26.531,21.138c1.548-3.815,1.913-4.205,2.145-4.656c0,0,0.183-0.404,0.489-0.404
	c0.293,0,9.334,1.708,12.818-7.285c0.141-0.363,0.184-0.677,0.184-1.281c0-0.43-0.151-0.695-0.268-1.036
	c-0.727-2.115-4.053-5.018-10.128-0.902c0,0-3.851,3.327-5.289,7.105c-0.067,0.134-0.304,0.695-1.042,0.289
	C24.694,12.559,19,9.316,19,2.394V1.809c0,0,0.225-0.452-0.342-0.341c-0.765,0.15-3.693,2.316-1.597,7.41
	c2.096,5.094,7.915,6.41,7.915,6.41s-1.466,3.486-2.075,5.216c-0.609,1.731-1.988,4.582-1.988,4.582s-0.36,0.292-0.775,0
	s-7.627-5.46-12.428-2.34c-3.022,2.559-0.655,6.49,0.83,7.532c1.529,1.072,7.605,3.51,12.48-0.341c0,0,0.5-0.256,0.744,0.098
	c0.244,0.353,2.794,3.153,3.132,3.51c0.338,0.356,2.532,3.592,6.892,4.863c0,0,7.55,1.28,7.587-4.643c0,0,0.014-0.716-0.859-0.238
	c-2.066,1.133-5.886,1.17-7.897,0.055c0,0-1.938-0.622-6.874-5.649c0,0-0.341-0.487,0.03-0.859
	C24.227,26.317,24.961,25.092,26.531,21.138z M30.041,13.752c0,0,4.875-8.848,9.092-6.825c1.267,1.17,0.366,3.096-0.926,4.387
	c-1.853,1.656-2.547,2.62-7.8,3.022C30.406,14.337,29.649,14.417,30.041,13.752z M18.731,27.841
	c-0.561,0.561-2.145,1.755-4.022,1.999c-1.877,0.244-3.486-0.536-4.071-0.902c-0.585-0.366-1.59-1.664-1.365-2.876
	c1.621-5.131,9.457,0.707,9.457,0.707C19.212,27.158,19.292,27.28,18.731,27.841z"/>
<path fill="#817BDF" d="M33.308,19.142c0,0,0.242-1.142,0.51-1.142c0.268,0,3.071,0,3.071,0s0.487,0.385,0.171,0.947l-2.559,6.848
	c0,0-0.803,2.729,0.744,3.363c1.547,0.634,2.912-1.219,3.253-1.926c0.341-0.707,2.998-8.333,2.998-8.333S41.615,18,41.911,18h3.169
	c0,0,0.201,0.423,0.091,0.661s-2.754,7.268-3.004,8.237c0,0-0.518,1.084,0,1.669s2.511-0.116,3.955-1.414l0.64,0.646
	c0,0-3.455,4.491-6.033,3.248c-1.036-0.414-1.353-0.835-1.67-1.322c-0.219-0.207-0.292-0.168-0.451-0.107
	c-0.154,0.059-4.454,4.208-7.47-0.877c-0.082-0.139-0.194-0.422-0.274-0.575c0,0-0.201-0.993,0.03-2.005
	C31.116,25.191,33.308,19.142,33.308,19.142z"/>
<path fill="#817BDF" d="M50.917,21.881c0,0,2.498-3.144,3.51-0.89c0.134,0.353,0.134,0.78-0.134,0.987c0,0-0.353,0.475-0.573,0.658
	s-0.524,0.475-0.292,0.792c0.232,0.317,0.573,0.439,0.573,0.439s0.28,0.268,0.975,0.134c0.695-0.134,1.316-1.085,1.365-1.767
	c0.049-0.682-0.085-2.73-2.608-3.681c0,0-4.924-1.731-7.483,4.546c0,0-1.438,4.205,0.78,6.642c2.218,2.437,6.167,1.846,8.836-1.005
	l2.279-2.139l-0.707-0.512c0,0-5.947,5.874-8.263,1.877C48.425,25.793,50.288,22.733,50.917,21.881z"/>
<path fill="#817BDF" d="M63.811,8.591c0,0,0.073-0.591,0.268-0.591c0.195,0,3.23,0,3.23,0s0.378,0.292,0.292,0.561
	s-3.821,9.914-3.821,9.914l-0.128,0.414c0,0,0.091,0.198,0.329,0.125c0.238-0.073,1.792-1.452,4.022-0.684
	c2.23,0.768,2.541,5.023-2.175,6.797c-0.475,0.201-1.225,0.79-1.225,0.79s-0.104,0.107-0.146,0.569
	c-0.031,0.604-0.238,1.884,1.17,2.56c0,0,1.225,1.116,4.259-1.645l0.494-0.347l0.42,0.567c0,0-3.892,5.282-7.511,3.646
	C61.437,30.327,61,28.523,61,27.743c0-0.78,0-1.365,0-1.365s0.473-0.78,0.863-0.999c0.39-0.219,4.624-2.096,4.624-3.632
	s-2.465-1.243-3.879,0.634c-1.414,1.877-0.623,0.928-3.499,8.435c0,0,0.01,0.184-0.294,0.184s-2.913,0-2.913,0l-0.39,0.017
	c0,0-0.292-0.18,0-0.765S63.811,8.591,63.811,8.591z"/>
<path fill="#817BDF" d="M81.714,26.086c0,0-5.947,5.874-8.263,1.877c-0.329-0.951-0.319-1.555,0.033-2.588l0.174-0.428
	c0.247,0.05,0.536,0.079,0.536,0.079c3.729,0.251,4.887-0.658,4.887-0.658c0.844-0.574,1.389-1.097,1.536-2.133
	c0.096-0.677-0.085-2.73-2.608-3.681c0,0-4.924-1.731-7.483,4.546c0,0-1.438,4.205,0.78,6.642c2.218,2.437,6.167,1.846,8.836-1.005
	l2.279-2.139L81.714,26.086z M73.975,24.023c0.427-0.965,0.942-1.767,1.219-2.142c0,0,2.096-2.943,3.321-0.877
	c0.134,0.353,0.004,0.762-0.091,0.987c0,0-0.207,0.463-0.427,0.646c0,0-1.292,1.402-3.778,1.548c0,0-0.206,0.027-0.292-0.023
	L73.975,24.023z"/>
<path fill="#817BDF" d="M92.926,26.086c0,0-5.947,5.874-8.263,1.877c-0.329-0.951-0.319-1.555,0.033-2.588l0.174-0.428
	c0.247,0.05,0.536,0.079,0.536,0.079c3.729,0.251,4.887-0.658,4.887-0.658c0.844-0.574,1.389-1.097,1.536-2.133
	c0.096-0.677-0.085-2.73-2.608-3.681c0,0-4.924-1.731-7.483,4.546c0,0-1.438,4.205,0.78,6.642c2.218,2.437,6.167,1.846,8.836-1.005
	l2.279-2.139L92.926,26.086z M85.187,24.023c0.427-0.965,0.942-1.767,1.219-2.142c0,0,2.096-2.943,3.321-0.877
	c0.134,0.353,0.004,0.762-0.091,0.987c0,0-0.207,0.463-0.427,0.646c0,0-1.292,1.402-3.778,1.548c0,0-0.206,0.027-0.292-0.023
	L85.187,24.023z"/>
</svg>
