<?xml version="1.0" encoding="utf-8"?>
<!-- Generator: Adobe Illustrator 17.0.2, SVG Export Plug-In . SVG Version: 6.00 Build 0)  -->
<!DOCTYPE svg PUBLIC "-//W3C//DTD SVG 1.1//EN" "http://www.w3.org/Graphics/SVG/1.1/DTD/svg11.dtd">
<svg version="1.1" id="Layer_1" xmlns="http://www.w3.org/2000/svg" xmlns:xlink="http://www.w3.org/1999/xlink" x="0px" y="0px"
	 width="150px" height="100px" viewBox="0 0 150 100" enable-background="new 0 0 150 100" xml:space="preserve">
<polyline fill="none" stroke="#505059" stroke-width="0.9605" stroke-miterlimit="10" points="28.604,86.227 13,86.227 13,9.115 
	64.892,9.115 "/>
<polyline fill="none" stroke="#505059" stroke-width="0.9605" stroke-miterlimit="10" points="123.859,62.458 123.859,86.227 
	59.992,86.227 "/>
<rect x="25.338" y="49.758" fill="none" stroke="#505059" stroke-width="0.9605" stroke-miterlimit="10" width="5.806" height="5.806"/>
<rect x="25.338" y="37.783" fill="none" stroke="#505059" stroke-width="0.9605" stroke-miterlimit="10" width="5.806" height="5.806"/>
<line fill="none" stroke="#505059" stroke-width="0.9605" stroke-miterlimit="10" x1="39.127" y1="29.799" x2="59.448" y2="29.799"/>
<line fill="none" stroke="#505059" stroke-width="0.9605" stroke-miterlimit="10" x1="39.127" y1="52.116" x2="59.448" y2="52.116"/>
<line fill="none" stroke="#505059" stroke-width="0.9605" stroke-miterlimit="10" x1="39.127" y1="40.686" x2="59.448" y2="40.686"/>
<polygon fill="none" stroke="#817BDF" stroke-width="0.9605" stroke-miterlimit="10" points="81.947,57.559 134.746,57.559 
	134.746,1.495 70.153,1.495 70.153,57.559 70.153,67.72 "/>
<line fill="none" stroke="#817BDF" stroke-width="0.9605" stroke-miterlimit="10" x1="82.673" y1="39.053" x2="107.348" y2="39.053"/>
<line fill="none" stroke="#817BDF" stroke-width="0.9605" stroke-miterlimit="10" x1="82.673" y1="33.065" x2="123.496" y2="33.065"/>
<line fill="none" stroke="#817BDF" stroke-width="0.9605" stroke-miterlimit="10" x1="82.673" y1="27.078" x2="123.496" y2="27.078"/>
<line fill="none" stroke="#817BDF" stroke-width="0.9605" stroke-miterlimit="10" x1="82.673" y1="20.727" x2="123.496" y2="20.727"/>
<path fill="none" stroke="#817BDF" stroke-width="0.9605" stroke-linejoin="round" stroke-miterlimit="10" d="M44.026,81.509
	c0,0,0.272-4.763,3.674-6.396s6.94,1.089,6.94,1.089s4.445-1.089,4.808-2.858c0,0-0.318,3.266-2.903,4.763
	c-2.586,1.497,4.082-1.361,4.355-2.449c0,0-1.565,3.81-4.332,5.241c0,0,0.93,9.047-6.736,14.626
	c-11.93,7.484-22.816-1.905-22.816-1.905s5.851,2.177,11.022-0.68c0,0-4.037-0.045-4.717-4.536l2.132,0.318
	c0,0-3.447-0.408-4.309-6.532l2.404,1.225c0,0-3.946-2.223-0.816-9.072C32.732,74.343,35.725,80.693,44.026,81.509z"/>
<path fill="none" stroke="#505059" stroke-width="0.9605" stroke-miterlimit="10" d="M21.46,20.479h-2.563v3.056h2.563v7.639h3.121
	v-7.688h2.579l0.411-3.006h-2.99v-1.807c0,0-0.197-1.544,1.429-1.544c1.626,0,1.626,0,1.626,0v-2.694c0,0-2.875-0.427-4.271,0.312
	c-1.396,0.739-1.906,2.021-1.906,3.647C21.46,20.019,21.46,20.479,21.46,20.479z"/>
</svg>
