<?xml version="1.0" encoding="utf-8"?>
<!-- Generator: Adobe Illustrator 17.0.2, SVG Export Plug-In . SVG Version: 6.00 Build 0)  -->
<!DOCTYPE svg PUBLIC "-//W3C//DTD SVG 1.1//EN" "http://www.w3.org/Graphics/SVG/1.1/DTD/svg11.dtd">
<svg version="1.1" id="Layer_1" xmlns="http://www.w3.org/2000/svg" xmlns:xlink="http://www.w3.org/1999/xlink" x="0px" y="0px"
	 width="150px" height="100px" viewBox="0 0 150 100" enable-background="new 0 0 150 100" xml:space="preserve">
<circle fill="none" stroke="#505059" stroke-width="1.0378" stroke-miterlimit="10" cx="32.743" cy="60.726" r="8.614"/>
<path fill="none" stroke="#505059" stroke-width="1.0378" stroke-miterlimit="10" d="M32.743,73.447
	c-10.059,0-18.214,9.617-18.214,21.481h36.428C50.957,83.064,42.802,73.447,32.743,73.447z"/>
<polygon fill="none" stroke="#817BDF" stroke-width="1.0378" stroke-miterlimit="10" points="53.843,36.933 85.056,36.933 
	85.056,3.789 46.871,3.789 46.871,36.933 46.871,42.939 "/>
<line fill="none" stroke="#817BDF" stroke-width="1.0378" stroke-miterlimit="10" x1="54.272" y1="25.992" x2="68.86" y2="25.992"/>
<line fill="none" stroke="#817BDF" stroke-width="1.0378" stroke-miterlimit="10" x1="54.272" y1="22.453" x2="78.406" y2="22.453"/>
<line fill="none" stroke="#817BDF" stroke-width="1.0378" stroke-miterlimit="10" x1="54.272" y1="18.913" x2="78.406" y2="18.913"/>
<line fill="none" stroke="#817BDF" stroke-width="1.0378" stroke-miterlimit="10" x1="54.272" y1="15.159" x2="78.406" y2="15.159"/>
<polyline fill="none" stroke="#817BDF" stroke-width="1.0378" stroke-miterlimit="10" points="89.263,13.648 100.172,13.648 
	100.172,46.791 100.172,52.798 93.2,46.791 61.988,46.791 61.988,39.827 "/>
<path fill="none" stroke="#817BDF" stroke-width="1.0378" stroke-miterlimit="10" d="M75.21,51.306"/>
<path fill="none" stroke="#817BDF" stroke-width="1.0378" stroke-miterlimit="10" d="M99.344,51.306"/>
<circle fill="none" stroke="#505059" stroke-width="1.0378" stroke-miterlimit="10" cx="119.193" cy="60.653" r="8.614"/>
<path fill="none" stroke="#505059" stroke-width="1.0378" stroke-miterlimit="10" d="M119.193,73.374
	c-10.059,0-18.214,9.617-18.214,21.481h36.428C137.407,82.991,129.253,73.374,119.193,73.374z"/>
</svg>
