<?xml version="1.0" encoding="utf-8"?>
<!-- Generator: Adobe Illustrator 17.0.2, SVG Export Plug-In . SVG Version: 6.00 Build 0)  -->
<!DOCTYPE svg PUBLIC "-//W3C//DTD SVG 1.1//EN" "http://www.w3.org/Graphics/SVG/1.1/DTD/svg11.dtd">
<svg version="1.1" xmlns="http://www.w3.org/2000/svg" xmlns:xlink="http://www.w3.org/1999/xlink" x="0px" y="0px" width="300px"
	 height="300px" viewBox="0 0 300 300" enable-background="new 0 0 300 300" xml:space="preserve">
<g id="Layer_1">
	<circle fill="#817BDF" cx="149.653" cy="149.653" r="147.653"/>
</g>
<g id="Stars">
	<path opacity="0.6" fill="#FFFFFF" d="M252.794,164h-1.351c-0.858,0-0.443-0.688-0.443-0.688v-1.031c0-0.88-0.672-1.594-1.5-1.594
		s-1.5,0.714-1.5,1.594v1.047c0,0.984-1.44,0.672-1.44,0.672h-1.203c-0.88,0-1.594,0.672-1.594,1.5s0.714,1.5,1.594,1.5h1.222
		c0.837,0,1.421,1.025,1.421,1.245v1.473c0,0.88,0.672,1.594,1.5,1.594s1.5-0.714,1.5-1.594v-1.568c0-0.833,0.794-0.988,0.794-0.988
		l-0.72-0.163h1.72c0.88,0,1.594-0.672,1.594-1.5S253.674,164,252.794,164z M247.57,167.312h0.006v0.499L247.57,167.312z"/>
	<path opacity="0.7" fill="#FFFFFF" d="M78.677,112h-0.298C76.3,112,76,110.194,76,109.603v-0.2c0-1.12-0.946-2.028-2-2.028
		s-2,0.908-2,2.028v0.748c0,0.763-0.62,1.849-2.328,1.849h-0.457c-1.12,0-2.028,0.946-2.028,2s0.908,2,2.028,2h0.417
		c1.85,0,2.367,1.244,2.367,2.212v0.653c0,0.039,0,0.075,0,0.114v0.091c0,0,0.026-0.018,0.029-0.046
		c0.078,1.044,0.976,1.868,1.978,1.868c1.054,0,1.993-0.908,1.993-2.028v-0.102c0,0.061-0.062,0.102-0.062,0.102l0.034-0.755
		c-0.003,0.03,0.028,0.058,0.028,0.086v-1.326c0-0.005-0.07-0.008-0.069-0.013l-0.032,1.253c0.093-0.907,0.577-2.306,2.796-2.306
		c1.12,0,2.019-0.848,2.019-1.902S79.797,112,78.677,112z"/>
	<circle opacity="0.3" fill="#FFFFFF" cx="216.364" cy="80.017" r="2.066"/>
	<path opacity="0.7" fill="#FFFFFF" d="M250.677,97h-0.298C248.3,97,248,95.194,248,94.603v-0.2c0-1.12-0.946-2.028-2-2.028
		s-2,0.908-2,2.028v0.748c0,0.763-0.62,1.849-2.328,1.849h-0.457c-1.12,0-2.028,0.946-2.028,2s0.908,2,2.028,2h0.417
		c1.85,0,2.367,1.244,2.367,2.212v0.653c0,0.039,0,0.075,0,0.114v0.091c0,0,0.026-0.018,0.029-0.046
		c0.078,1.044,0.976,1.868,1.978,1.868c1.054,0,1.993-0.908,1.993-2.028v-0.102c0,0.061-0.062,0.102-0.062,0.102l0.034-0.755
		c-0.003,0.03,0.028,0.058,0.028,0.086v-1.326c0-0.005-0.07-0.008-0.069-0.013l-0.032,1.253c0.093-0.907,0.577-2.306,2.796-2.306
		c1.12,0,2.019-0.848,2.019-1.902S251.797,97,250.677,97z"/>
	<path opacity="0.4" fill="#FFFFFF" d="M221.529,181h-1.876c-1.192,0-0.653-1.038-0.653-1.038v-1.432c0-1.223-1.349-2.214-2.5-2.214
		s-2.5,0.991-2.5,2.214v1.454c0,1.367-1.13,1.017-1.13,1.017h-1.671c-1.223,0-2.214,0.849-2.214,2s0.991,2,2.214,2h1.698
		c1.162,0,1.104,1.507,1.104,1.813v2.046c0,1.223,1.349,2.214,2.5,2.214s2.5-0.991,2.5-2.214v-2.177
		c0-1.157,1.122-1.414,1.122-1.414L219.14,185h2.389c1.223,0,2.214-0.849,2.214-2S222.751,181,221.529,181z M214.272,185.517h0.008
		v0.694L214.272,185.517z"/>
	<circle opacity="0.7" fill="#FFFFFF" cx="223.364" cy="128.017" r="2.066"/>
	<path opacity="0.3" fill="#FFFFFF" d="M269.461,124h-1.351c-0.858,0-1.11-0.688-1.11-0.688v-1.031c0-0.88-0.672-1.594-1.5-1.594
		s-1.5,0.714-1.5,1.594v1.047c0,0.984-0.773,0.672-0.773,0.672h-1.203c-0.88,0-1.594,0.672-1.594,1.5s0.714,1.5,1.594,1.5h1.222
		c0.837,0,0.754,1.025,0.754,1.246v1.473c0,0.88,0.672,1.594,1.5,1.594s1.5-0.714,1.5-1.594v-1.568c0-0.833,1.128-0.988,1.128-0.988
		L267.741,127h1.72c0.88,0,1.594-0.672,1.594-1.5S270.341,124,269.461,124z M264.237,127.312h0.006v0.499L264.237,127.312z"/>
	<circle opacity="0.4" fill="#FFFFFF" cx="279.364" cy="146.017" r="2.066"/>
	<circle opacity="0.7" fill="#FFFFFF" cx="237.364" cy="218.017" r="2.066"/>
	<circle opacity="0.7" fill="#FFFFFF" cx="96.364" cy="92.017" r="2.066"/>
	<path opacity="0.4" fill="#FFFFFF" d="M92.677,158h-0.298C90.3,158,90,156.194,90,155.603v-0.2c0-1.12-0.946-2.028-2-2.028
		s-2,0.908-2,2.028v0.748c0,0.763-0.62,1.849-2.328,1.849h-0.457c-1.12,0-2.028,0.946-2.028,2s0.908,2,2.028,2h0.417
		c1.85,0,2.367,1.244,2.367,2.212v0.653c0,0.039,0,0.075,0,0.114v0.091c0,0,0.026-0.018,0.029-0.046
		c0.078,1.044,0.976,1.868,1.978,1.868c1.054,0,1.993-0.908,1.993-2.028v-0.102c0,0.061-0.062,0.102-0.062,0.102l0.034-0.755
		c-0.003,0.03,0.028,0.058,0.028,0.086v-1.326c0-0.005-0.07-0.008-0.069-0.013l-0.032,1.253c0.093-0.907,0.577-2.306,2.796-2.306
		c1.12,0,2.019-0.848,2.019-1.902C94.714,158.848,93.797,158,92.677,158z"/>
	<path opacity="0.7" fill="#FFFFFF" d="M44.28,141h-0.21c-1.465,0-2.07-1.643-2.07-2.059V138.8c0-0.789-0.258-1.428-1-1.428
		s-1,0.639-1,1.428v0.527c0,0.538-0.86,1.673-2.062,1.673h-0.322c-0.789,0-1.428,0.258-1.428,1s0.639,1,1.428,1h0.294
		c1.303,0,2.09,1.323,2.09,2.005v0.46c0,0.027,0,0.053,0,0.08v0.064c0,0-0.193-0.012-0.191-0.032
		c0.055,0.735,0.384,1.316,1.09,1.316c0.742,0,1.101-0.639,1.101-1.428v-0.072c0,0.043,0.153,0.072,0.153,0.072l-0.075-0.532
		c-0.002,0.021-0.079,0.041-0.079,0.061v-0.934c0-0.004,0.148-0.006,0.148-0.009l0.076,0.882c0.066-0.638,0.456-1.624,2.019-1.624
		c0.789,0,1.446-0.412,1.446-1.154S45.068,141,44.28,141z"/>
	<circle opacity="0.7" fill="#FFFFFF" cx="38.364" cy="171.017" r="2.066"/>
	<circle opacity="0.3" fill="#FFFFFF" cx="69.364" cy="191.017" r="2.066"/>
	<path opacity="0.7" fill="#FFFFFF" d="M85.677,218h-0.298C83.3,218,83,216.194,83,215.603v-0.2c0-1.12-0.946-2.028-2-2.028
		s-2,0.908-2,2.028v0.748c0,0.763-0.62,1.849-2.328,1.849h-0.457c-1.12,0-2.028,0.946-2.028,2s0.908,2,2.028,2h0.417
		c1.85,0,2.367,1.244,2.367,2.212v0.653c0,0.039,0,0.075,0,0.114v0.091c0,0,0.026-0.018,0.029-0.046
		c0.078,1.044,0.976,1.868,1.978,1.868c1.054,0,1.993-0.908,1.993-2.028v-0.102c0,0.061-0.062,0.102-0.062,0.102l0.034-0.755
		c-0.003,0.03,0.028,0.058,0.028,0.086v-1.326c0-0.005-0.07-0.008-0.069-0.013l-0.032,1.253c0.093-0.907,0.577-2.306,2.796-2.306
		c1.12,0,2.019-0.848,2.019-1.902C87.714,218.848,86.797,218,85.677,218z"/>
</g>
<g id="Layer_3">
	<path fill="#333333" d="M224,168.316c0,7.326-0.356,7.684-7.682,7.684H88.114c-7.326,0-8.114-0.358-8.114-7.684V85.9
		c0-6.639,1.094-6.9,8.114-6.9h128.203c5.952,0,7.682,0.49,7.682,6.9V168.316z"/>
	<path fill="#222222" d="M224,165.024c0,7.057-0.357,6.976-7.677,6.976H88.209c-7.321,0-8.209,0.081-8.209-6.976V85.631
		C80,79.236,81.194,79,88.209,79h128.113c5.948,0,7.677,0.456,7.677,6.631V165.024z"/>
	<path fill="none" stroke="#AAAAAA" stroke-miterlimit="10" d="M224.5,168.316c0,7.326-0.856,7.184-8.198,7.184H87.825
		c-7.342,0-8.325,0.142-8.325-7.184V85.9c0-6.639,1.289-7.4,8.325-7.4h128.477c5.965,0,8.198,0.99,8.198,7.4V168.316z"/>
	<rect x="85" y="84" fill="#444444" width="133" height="83"/>
	<path opacity="0.1" fill="#FFFFFF" d="M189.772,175h26.53c7.342,0,7.698,0.032,7.698-7.294V85.29c0-6.41-1.733-6.29-7.698-6.29
		h-69.639L189.772,175z"/>
	<circle fill="#444444" cx="152.063" cy="81.576" r="0.763"/>
	<rect x="64" y="175" fill="#CCCCCC" width="176" height="2"/>
	<path fill="#AAAAAA" d="M64,177h175.822c0,0-1.221,2-7.529,2s-159.745,0-159.745,0S66.645,179,64,177z"/>
	<path fill="#AAAAAA" d="M139.121,175c0.149,0,1.03,1,2.106,1h20.757c1.076,0,1.957-1,2.106-1H139.121z"/>
</g>
<g id="L2">
	<path fill="#4A8048" d="M140.43,106.523c0,0,0.312-0.686,3.398-0.935c3.087-0.249,3.983-0.218,5.499-0.281s4.01,0.156,4.789,0.218
		s3.18,0.436,3.492,0.873c0.312,0.436-0.655,12.19-0.655,12.19h-15.651L140.43,106.523z"/>
	<circle fill="#DD9071" cx="138.027" cy="126.719" r="2.274"/>
	<circle fill="#DD9071" cx="160.601" cy="126.719" r="2.274"/>
	<path fill="#F6CBB9" d="M140.288,119.117c0,0-1.461,1.093-1.192,7.426c0,0-2.528,2.824-0.034,6.196c0,0,2.941,3.234,6.25,0.456
		h7.736c0,0,3.622,2.642,6.26-0.456c0,0,2.772-3.007,0-6.105c0,0,0.492-5.877-1.252-7.517H140.288z"/>
	<circle fill="#ECA18F" cx="142.759" cy="127.712" r="1.836"/>
	<circle fill="#ECA18F" cx="155.896" cy="127.712" r="1.836"/>
	<path fill="#4E2615" d="M147.422,128.499h3.774c0,0,0.245,0.048,0.245,0.279c0,0,0.111,0.056-0.262,0.429
		c-0.373,0.373-1.771,2.199-3.757,0C147.422,129.208,146.832,128.618,147.422,128.499z"/>
	<path fill="#FFFFFF" d="M147.443,128.495h3.765c0,0,0.245,0.047,0.245,0.273c0,0,0.024,0.21-0.2,0.28c-0.224,0.07-3.809,0-3.809,0
		s-0.279,0.018-0.279-0.261S147.443,128.495,147.443,128.495z"/>
	<path fill="#804128" d="M144.875,124.688c-0.007,0.007-0.054-1.251-1.36-1.251c-1.305,0-1.353,1.258-1.36,1.251
		c-0.007-0.007-0.041,0.462,0.333,0.462s0.34-0.462,0.34-0.462c0-0.592,0.687-0.578,0.687-0.578s0.687-0.014,0.687,0.578
		c0,0-0.034,0.462,0.34,0.462S144.882,124.681,144.875,124.688z"/>
	<path fill="#BB693E" d="M162.935,129.145l-3.924-3.924l-0.487,0.514c2.138,3.464,0,5.52,0,5.52c-2.977,2.977-5.845,0.46-5.845,0.46
		h-3.468h-3.468c0,0-2.868,2.517-5.845-0.46c0,0-2.138-2.057,0-5.52l-0.487-0.514l-3.924,3.924c0,0-1.434,0.785,0.189,5.114
		c1.624,4.33,6.522,5.033,6.982,5.033s6.552,0,6.552,0s6.092,0,6.552,0s5.358-0.704,6.982-5.033
		C164.37,129.93,162.935,129.145,162.935,129.145z"/>
	<path fill="#804128" d="M156.013,124.688c-0.007,0.007-0.054-1.251-1.36-1.251s-1.353,1.258-1.36,1.251
		c-0.007-0.007-0.041,0.462,0.333,0.462c0.374,0,0.34-0.462,0.34-0.462c0-0.592,0.687-0.578,0.687-0.578s0.687-0.014,0.687,0.578
		c0,0-0.034,0.462,0.34,0.462C156.054,125.15,156.02,124.681,156.013,124.688z"/>
	<path fill="#DD8974" d="M151.4,124.933v-5.208h-2.152h-2.152v5.208c0,0-0.196,2.543,2.152,2.543S151.4,124.933,151.4,124.933z"/>
	<path fill="#9F5433" d="M160.051,126.976c-0.166,0.166-0.434,0.168-0.597,0.005l0,0c-0.164-0.164-0.162-0.431,0.004-0.597
		l0.835-0.835c0.166-0.166,0.434-0.168,0.597-0.005l0,0c0.164,0.164,0.162,0.431-0.004,0.597L160.051,126.976z"/>
	<path fill="#9F5433" d="M138.281,126.976c0.166,0.166,0.434,0.168,0.597,0.005l0,0c0.164-0.164,0.162-0.431-0.004-0.597
		l-0.835-0.835c-0.166-0.166-0.434-0.168-0.597-0.005l0,0c-0.164,0.164-0.162,0.431,0.004,0.597L138.281,126.976z"/>
	<path fill="#9F5433" d="M157.105,135.513h-1.587c-0.448,2.17-2.644,1.878-2.644,1.878h-0.344v-1.265
		c0-0.231-0.193-0.417-0.431-0.417c-0.238,0-0.431,0.187-0.431,0.417v1.265h-0.608v-1.265c0-0.231-0.193-0.417-0.431-0.417
		c-0.238,0-0.431,0.187-0.431,0.417v1.265h-0.689v-1.265c0-0.231-0.193-0.417-0.431-0.417c-0.238,0-0.431,0.187-0.431,0.417v1.265
		h-0.58v-1.265c0-0.231-0.193-0.417-0.431-0.417c-0.238,0-0.431,0.187-0.431,0.417v1.265h-0.689v-1.265
		c0-0.231-0.193-0.417-0.431-0.417c-0.238,0-0.431,0.187-0.431,0.417v1.265h-0.116c0,0-2.197,0.292-2.644-1.878h-1.587
		c0,0-3.978,1.415-6.285-3.498c0,0,0.436,1.915,1.075,3.167c2.138,4.19,6.115,4.276,6.573,4.276c0.459,0,6.534,0,6.534,0
		s6.076,0,6.534,0c0.459,0,4.745-0.648,6.883-4.838c0.639-1.252,0.852-3.112,0.852-3.112
		C161.169,136.421,157.105,135.513,157.105,135.513z"/>
	<polygon fill="#2D1811" points="157.088,118.397 157.356,113.91 140.903,113.91 141.144,118.397 	"/>
	<path fill="#D89A38" d="M152.344,112.959c0,0-5.276,0-6.473,0s-1.088,1.115-1.088,1.115v4.352h1.061v-4.488h6.555v2.189h-0.87
		c-0.248,0-0.449,0.201-0.449,0.449s0.201,0.449,0.449,0.449h0.87v1.401h1.034c0,0,0-3.237,0-4.433
		C153.432,112.796,152.344,112.959,152.344,112.959z"/>
	<path fill="#9F5433" d="M157.24,123.688l-5.072-1.142l0.204-0.993c0,0,0.286-1.319,1.904-0.952l1.843,0.388
		c0,0,1.475,0.313,1.346,1.625L157.24,123.688z"/>
	<path fill="#9F5433" d="M141.038,123.688l5.072-1.142l-0.204-0.993c0,0-0.286-1.319-1.904-0.952l-1.843,0.388
		c0,0-1.475,0.313-1.346,1.625L141.038,123.688z"/>
	<path fill="#9F5433" d="M139.36,118.749c-3.177,0.677-1.081,4.954-0.818,5.465l-0.581-0.56c-0.165-0.159-0.428-0.154-0.587,0.011
		c-0.027,0.028-0.047,0.059-0.064,0.091c-0.041,0.065-0.054,0.131-0.051,0.193c-0.001,0.11,0.041,0.22,0.126,0.303l0.557,0.537
		c0.476,0.467,1.087,1.067,1.185,1.165c0.163,0.163,0.418,0.143,0.622,0.051c0.054-0.024,0.082-0.075,0.099-0.129
		c0.037-0.124,0.02-0.252,0.009-0.379c-0.011-0.138-0.017-0.276-0.018-0.414c-0.007-0.565,0.016-1.133,0.04-1.698
		c0.018-0.439,0.044-0.877,0.089-1.314c0.036-0.353,0.084-0.706,0.158-1.053c0.056-0.262,0.126-0.522,0.223-0.773
		c0.071-0.183,0.157-0.36,0.263-0.525c0.077-0.12,0.166-0.233,0.265-0.336c0.071-0.074,0.147-0.142,0.229-0.204
		c0.054-0.041,0.111-0.08,0.17-0.113c0.036-0.02,0.073-0.039,0.111-0.054c0.021-0.008,0.058-0.011,0.075-0.024
		C141.462,118.987,142.74,118.028,139.36,118.749z"/>
	<path fill="#9F5433" d="M159.065,118.749c3.177,0.677,1.081,4.954,0.818,5.465l0.581-0.56c0.165-0.159,0.428-0.154,0.587,0.011
		c0.027,0.028,0.047,0.059,0.064,0.091c0.041,0.065,0.054,0.131,0.051,0.193c0.001,0.11-0.041,0.22-0.126,0.303l-0.557,0.537
		c-0.476,0.467-1.087,1.067-1.185,1.165c-0.163,0.163-0.418,0.143-0.622,0.051c-0.054-0.024-0.082-0.075-0.099-0.129
		c-0.037-0.124-0.02-0.252-0.009-0.379c0.011-0.138,0.017-0.276,0.018-0.414c0.007-0.565-0.016-1.133-0.04-1.698
		c-0.018-0.439-0.044-0.877-0.089-1.314c-0.036-0.353-0.084-0.706-0.158-1.053c-0.056-0.262-0.126-0.522-0.223-0.773
		c-0.071-0.183-0.157-0.36-0.263-0.525c-0.077-0.12-0.165-0.233-0.265-0.336c-0.071-0.074-0.147-0.142-0.229-0.204
		c-0.054-0.041-0.111-0.08-0.17-0.113c-0.036-0.02-0.073-0.039-0.111-0.054c-0.021-0.008-0.058-0.011-0.075-0.024
		C156.963,118.987,155.685,118.028,159.065,118.749z"/>
	<path opacity="0.2" d="M149.053,119.202c7.67,0,9.764-1.476,9.764-1.476l0.19,0.357l-0.258,0.598
		c1.034,0.163,1.464,0.632,1.464,0.632s-0.336,0.487-3.627,1.33c0,0-2.094,0.816-7.561,0.816s-8.769-0.581-10.999-1.941
		c0,0,0.501-0.66,1.333-0.77C140.301,118.625,149.053,119.202,149.053,119.202z"/>
	<path fill="#75B763" d="M138.717,116.085c0,0,4.363,2.099,10.335,1.904c7.67,0,10.553-2.23,10.553-2.23s1.108-0.632,1.598,0.224
		c0.49,0.857,0,1.428-0.122,1.489c0,0-1.203,1.115-4.494,1.958c0,0-2.094,0.816-7.561,0.816c-5.467,0-9.247-0.87-11.477-2.23
		c0,0-1.139-0.3-0.734-1.703C136.813,116.313,137.284,115.202,138.717,116.085z"/>
	<path fill="#FBD591" d="M151.46,113.222c0,0-0.367-0.082-0.367,0.231s0.367,0.218,0.367,0.218l1.156,0.014v1.387
		c0,0,0.027,0.299,0.313,0.299c0.286,0,0.19-0.299,0.19-0.299l0.015-1.292c0,0,0.026-0.618-0.614-0.567L151.46,113.222z"/>
</g>
<g id="Phone">
	<path fill="#F7F7F7" d="M135,188.886c0,5.031-0.625,6.114-6.066,6.114h-24.116c-5.312,0-6.818-1-6.818-6.114v-64.181
		c0-3.565,1.704-4.705,6.818-4.705h24.116c4.989,0,6.066,1.056,6.066,4.705V188.886z"/>
	<rect x="99.5" y="129.5" fill="#444444" stroke="#A0A0A0" stroke-miterlimit="10" width="34" height="56"/>
	<path fill="#9E9E9E" d="M120,124.718c0,0.156-0.126,0.282-0.282,0.282h-6.436c-0.156,0-0.282-0.126-0.282-0.282v-0.436
		c0-0.156,0.126-0.282,0.282-0.282h6.436c0.156,0,0.282,0.126,0.282,0.282V124.718z"/>
	<ellipse fill="#9E9E9E" cx="111.025" cy="125.072" rx="0.473" ry="0.48"/>
	<circle fill="#E5E5E5" stroke="#D6D6D6" stroke-width="0.4999" stroke-miterlimit="10" cx="116.309" cy="189.938" r="3.562"/>
	<path opacity="0.1" fill="#FFFFFF" d="M128.934,120h-23.336l28.695,73.447c0.585-0.93,0.707-2.366,0.707-4.562v-64.181
		C135,121.056,133.923,120,128.934,120z"/>
</g>
<g id="LUCKEE">
	<path fill="#4A8048" d="M110.757,147.383c0,0,0.203-0.447,2.214-0.609c2.011-0.163,2.595-0.142,3.583-0.183
		c0.988-0.041,2.613,0.102,3.12,0.142c0.508,0.041,2.072,0.284,2.275,0.569c0.203,0.284-0.427,7.942-0.427,7.942h-10.197
		L110.757,147.383z"/>
	<circle fill="#DD9071" cx="109.192" cy="160.541" r="1.482"/>
	<circle fill="#DD9071" cx="123.899" cy="160.541" r="1.482"/>
	<path fill="#F6CBB9" d="M110.665,155.588c0,0-0.952,0.712-0.777,4.838c0,0-1.647,1.84-0.022,4.037c0,0,1.916,2.107,4.072,0.297
		h5.04c0,0,2.36,1.721,4.079-0.297c0,0,1.806-1.959,0-3.977c0,0,0.32-3.829-0.816-4.897H110.665z"/>
	<circle fill="#ECA18F" cx="112.275" cy="161.188" r="1.196"/>
	<circle fill="#ECA18F" cx="120.834" cy="161.188" r="1.196"/>
	<path fill="#4E2615" d="M115.313,161.701h2.459c0,0,0.16,0.031,0.16,0.182c0,0,0.072,0.037-0.171,0.28
		c-0.243,0.243-1.154,1.432-2.448,0C115.313,162.163,114.929,161.779,115.313,161.701z"/>
	<path fill="#FFFFFF" d="M115.327,161.698h2.453c0,0,0.159,0.03,0.159,0.178c0,0,0.015,0.137-0.131,0.182s-2.482,0-2.482,0
		s-0.182,0.012-0.182-0.17S115.327,161.698,115.327,161.698z"/>
	<path fill="#804128" d="M113.654,159.218c-0.004,0.004-0.035-0.815-0.886-0.815c-0.851,0-0.882,0.82-0.886,0.815
		c-0.004-0.004-0.027,0.301,0.217,0.301c0.244,0,0.222-0.301,0.222-0.301c0-0.385,0.447-0.377,0.447-0.377s0.447-0.009,0.447,0.377
		c0,0-0.022,0.301,0.222,0.301C113.68,159.519,113.658,159.213,113.654,159.218z"/>
	<path fill="#BB693E" d="M125.42,162.122l-2.556-2.556l-0.317,0.335c1.393,2.257,0,3.597,0,3.597c-1.939,1.939-3.808,0.3-3.808,0.3
		h-2.259h-2.259c0,0-1.869,1.64-3.808-0.3c0,0-1.393-1.34,0-3.597l-0.317-0.335l-2.556,2.556c0,0-0.934,0.511,0.123,3.332
		c1.058,2.821,4.249,3.279,4.549,3.279s4.269,0,4.269,0s3.969,0,4.269,0s3.491-0.458,4.549-3.279
		C126.355,162.633,125.42,162.122,125.42,162.122z"/>
	<path fill="#804128" d="M120.91,159.218c-0.004,0.004-0.035-0.815-0.886-0.815c-0.851,0-0.882,0.82-0.886,0.815
		c-0.004-0.004-0.027,0.301,0.217,0.301c0.244,0,0.222-0.301,0.222-0.301c0-0.385,0.447-0.377,0.447-0.377s0.447-0.009,0.447,0.377
		c0,0-0.022,0.301,0.222,0.301C120.937,159.519,120.914,159.213,120.91,159.218z"/>
	<path fill="#DD8974" d="M117.905,159.377v-3.393h-1.402H115.1v3.393c0,0-0.128,1.657,1.402,1.657S117.905,159.377,117.905,159.377z
		"/>
	<path fill="#9F5433" d="M123.541,160.708c-0.108,0.108-0.283,0.11-0.389,0.003l0,0c-0.107-0.107-0.105-0.281,0.003-0.389
		l0.544-0.544c0.108-0.108,0.283-0.11,0.389-0.003l0,0c0.107,0.107,0.105,0.281-0.003,0.389L123.541,160.708z"/>
	<path fill="#9F5433" d="M109.357,160.708c0.108,0.108,0.283,0.11,0.389,0.003l0,0c0.107-0.107,0.105-0.281-0.003-0.389
		l-0.544-0.544c-0.108-0.108-0.283-0.11-0.389-0.003l0,0c-0.107,0.107-0.105,0.281,0.003,0.389L109.357,160.708z"/>
	<path fill="#9F5433" d="M121.622,166.271h-1.034c-0.292,1.414-1.723,1.223-1.723,1.223h-0.224v-0.824
		c0-0.15-0.126-0.272-0.281-0.272s-0.281,0.122-0.281,0.272v0.824h-0.396v-0.824c0-0.15-0.126-0.272-0.281-0.272
		c-0.155,0-0.281,0.122-0.281,0.272v0.824h-0.449v-0.824c0-0.15-0.126-0.272-0.281-0.272c-0.155,0-0.281,0.122-0.281,0.272v0.824
		h-0.378v-0.824c0-0.15-0.126-0.272-0.281-0.272c-0.155,0-0.281,0.122-0.281,0.272v0.824h-0.449v-0.824
		c0-0.15-0.126-0.272-0.281-0.272s-0.281,0.122-0.281,0.272v0.824h-0.076c0,0-1.431,0.19-1.723-1.223h-1.034
		c0,0-2.592,0.922-4.095-2.279c0,0,0.284,1.248,0.7,2.063c1.393,2.73,3.984,2.786,4.283,2.786c0.299,0,4.257,0,4.257,0
		s3.958,0,4.257,0s3.091-0.422,4.484-3.152c0.416-0.816,0.555-2.028,0.555-2.028C124.269,166.862,121.622,166.271,121.622,166.271z"
		/>
	<polygon fill="#2D1811" points="121.61,155.119 121.785,152.196 111.065,152.196 111.223,155.119 	"/>
	<path fill="#D89A38" d="M118.52,151.576c0,0-3.438,0-4.217,0s-0.709,0.727-0.709,0.727v2.835h0.691v-2.924h4.27v1.426h-0.567
		c-0.161,0-0.292,0.131-0.292,0.292c0,0.161,0.131,0.292,0.292,0.292h0.567v0.913h0.673c0,0,0-2.109,0-2.888
		C119.229,151.47,118.52,151.576,118.52,151.576z"/>
	<path fill="#9F5433" d="M121.71,158.567l-3.305-0.744l0.133-0.647c0,0,0.186-0.859,1.24-0.62l1.201,0.253
		c0,0,0.961,0.204,0.877,1.059L121.71,158.567z"/>
	<path fill="#9F5433" d="M111.154,158.567l3.305-0.744l-0.133-0.647c0,0-0.186-0.859-1.24-0.62l-1.201,0.253
		c0,0-0.961,0.204-0.877,1.059L111.154,158.567z"/>
	<path fill="#9F5433" d="M110.06,155.349c-2.07,0.441-0.705,3.227-0.533,3.56l-0.379-0.365c-0.108-0.104-0.279-0.1-0.382,0.007
		c-0.017,0.018-0.031,0.038-0.042,0.059c-0.027,0.042-0.035,0.086-0.033,0.126c-0.001,0.072,0.026,0.143,0.082,0.197l0.363,0.35
		c0.31,0.305,0.708,0.695,0.772,0.759c0.106,0.106,0.272,0.093,0.405,0.033c0.035-0.016,0.054-0.049,0.064-0.084
		c0.024-0.081,0.013-0.164,0.006-0.247c-0.007-0.09-0.011-0.18-0.012-0.27c-0.004-0.368,0.011-0.738,0.026-1.106
		c0.012-0.286,0.029-0.571,0.058-0.856c0.024-0.23,0.055-0.46,0.103-0.686c0.036-0.171,0.082-0.34,0.145-0.503
		c0.046-0.119,0.102-0.235,0.172-0.342c0.05-0.078,0.108-0.152,0.172-0.219c0.046-0.048,0.096-0.092,0.149-0.133
		c0.035-0.027,0.072-0.052,0.111-0.074c0.023-0.013,0.047-0.026,0.073-0.035c0.013-0.005,0.038-0.007,0.049-0.016
		C111.43,155.504,112.262,154.879,110.06,155.349z"/>
	<path fill="#9F5433" d="M122.898,155.349c2.07,0.441,0.705,3.227,0.533,3.56l0.379-0.365c0.108-0.104,0.279-0.1,0.382,0.007
		c0.017,0.018,0.031,0.038,0.042,0.059c0.027,0.042,0.035,0.086,0.033,0.126c0.001,0.072-0.026,0.143-0.082,0.197l-0.363,0.35
		c-0.31,0.305-0.708,0.695-0.772,0.759c-0.106,0.106-0.272,0.093-0.405,0.033c-0.035-0.016-0.054-0.049-0.064-0.084
		c-0.024-0.081-0.013-0.164-0.006-0.247c0.007-0.09,0.011-0.18,0.012-0.27c0.004-0.368-0.011-0.738-0.026-1.106
		c-0.012-0.286-0.029-0.571-0.058-0.856c-0.024-0.23-0.055-0.46-0.103-0.686c-0.036-0.171-0.082-0.34-0.145-0.503
		c-0.046-0.119-0.102-0.235-0.172-0.342c-0.05-0.078-0.108-0.152-0.172-0.219c-0.046-0.048-0.096-0.092-0.149-0.133
		c-0.035-0.027-0.072-0.052-0.111-0.074c-0.023-0.013-0.047-0.026-0.073-0.035c-0.013-0.005-0.038-0.007-0.049-0.016
		C121.529,155.504,120.696,154.879,122.898,155.349z"/>
	<path opacity="0.2" d="M116.376,155.644c4.997,0,6.361-0.962,6.361-0.962l0.124,0.233l-0.168,0.39
		c0.673,0.106,0.954,0.411,0.954,0.411s-0.219,0.317-2.363,0.867c0,0-1.364,0.532-4.926,0.532s-5.713-0.379-7.166-1.265
		c0,0,0.326-0.43,0.868-0.501C110.674,155.268,116.376,155.644,116.376,155.644z"/>
	<path fill="#75B763" d="M109.641,153.613c0,0,2.843,1.367,6.734,1.24c4.997,0,6.875-1.453,6.875-1.453s0.722-0.412,1.041,0.146
		c0.319,0.558,0,0.93-0.08,0.97c0,0-0.784,0.727-2.928,1.276c0,0-1.364,0.532-4.926,0.532c-3.562,0-6.025-0.567-7.478-1.453
		c0,0-0.742-0.195-0.478-1.109C108.401,153.761,108.708,153.037,109.641,153.613z"/>
	<path fill="#FBD591" d="M117.944,151.747c0,0-0.239-0.053-0.239,0.151s0.239,0.142,0.239,0.142l0.753,0.009v0.904
		c0,0,0.018,0.195,0.204,0.195s0.124-0.195,0.124-0.195l0.01-0.842c0,0,0.017-0.402-0.4-0.37L117.944,151.747z"/>
</g>
<g id="iPad">
	<path fill="#EEEEEE" d="M243,222.226c0,1.537-0.77,2.774-2.297,2.774h-71.862c-1.526,0-2.841-1.237-2.841-2.774v-94.863
		c0-1.537,1.315-2.363,2.841-2.363h71.862c1.526,0,2.297,0.826,2.297,2.363V222.226z"/>
	<rect x="174" y="133" fill="#444444" width="62" height="82"/>
	<circle fill="#DDDDDD" stroke="#D3D3D3" stroke-width="0.2319" stroke-miterlimit="10" cx="204.734" cy="220.254" r="2.319"/>
	<circle fill="#444444" cx="204.772" cy="129.103" r="0.657"/>
	<path opacity="0.1" fill="#EEEEEE" d="M240.471,125h-39.072l39.906,100.046c1.057-0.391,1.695-1.621,1.695-2.821v-94.863
		C243,125.826,241.998,125,240.471,125z"/>
</g>
<g id="L3">
	<path fill="#4A8048" d="M198.675,162.213c0,0,0.24-0.528,2.614-0.719c2.374-0.192,3.063-0.168,4.229-0.216
		c1.166-0.048,3.084,0.12,3.683,0.168c0.599,0.048,2.446,0.336,2.686,0.671s-0.504,9.375-0.504,9.375h-12.037L198.675,162.213z"/>
	<circle fill="#DD9071" cx="196.827" cy="177.745" r="1.749"/>
	<circle fill="#DD9071" cx="214.188" cy="177.745" r="1.749"/>
	<path fill="#F6CBB9" d="M198.566,171.899c0,0-1.123,0.841-0.917,5.711c0,0-1.944,2.172-0.027,4.765c0,0,2.262,2.488,4.807,0.35
		h5.949c0,0,2.786,2.032,4.815-0.35c0,0,2.132-2.312,0-4.695c0,0,0.378-4.52-0.963-5.781H198.566z"/>
	<circle fill="#ECA18F" cx="200.467" cy="178.509" r="1.412"/>
	<circle fill="#ECA18F" cx="210.57" cy="178.509" r="1.412"/>
	<path fill="#4E2615" d="M204.052,179.114h2.902c0,0,0.189,0.037,0.189,0.215c0,0,0.085,0.043-0.202,0.33
		c-0.287,0.287-1.362,1.691-2.889,0C204.052,179.659,203.599,179.206,204.052,179.114z"/>
	<path fill="#FFFFFF" d="M204.069,179.111h2.896c0,0,0.188,0.036,0.188,0.21c0,0,0.018,0.161-0.154,0.215
		c-0.172,0.054-2.93,0-2.93,0s-0.214,0.014-0.214-0.201S204.069,179.111,204.069,179.111z"/>
	<path fill="#804128" d="M202.094,176.183c-0.005,0.005-0.042-0.962-1.046-0.962c-1.004,0-1.041,0.967-1.046,0.962
		c-0.005-0.005-0.031,0.356,0.256,0.356s0.261-0.356,0.261-0.356c0-0.455,0.528-0.444,0.528-0.444s0.528-0.01,0.528,0.444
		c0,0-0.026,0.356,0.261,0.356S202.099,176.178,202.094,176.183z"/>
	<path fill="#BB693E" d="M215.984,179.611l-3.018-3.018l-0.375,0.395c1.644,2.664,0,4.246,0,4.246
		c-2.289,2.289-4.495,0.354-4.495,0.354h-2.667h-2.667c0,0-2.206,1.935-4.495-0.354c0,0-1.644-1.582,0-4.246l-0.375-0.395
		l-3.018,3.018c0,0-1.103,0.604,0.146,3.933c1.249,3.33,5.016,3.871,5.369,3.871c0.354,0,5.039,0,5.039,0s4.686,0,5.039,0
		s4.121-0.541,5.369-3.871C217.087,180.215,215.984,179.611,215.984,179.611z"/>
	<path fill="#804128" d="M210.66,176.183c-0.005,0.005-0.042-0.962-1.046-0.962s-1.041,0.967-1.046,0.962
		c-0.005-0.005-0.031,0.356,0.256,0.356c0.288,0,0.261-0.356,0.261-0.356c0-0.455,0.528-0.444,0.528-0.444s0.528-0.01,0.528,0.444
		c0,0-0.026,0.356,0.261,0.356C210.691,176.539,210.665,176.178,210.66,176.183z"/>
	<path fill="#DD8974" d="M207.112,176.371v-4.006h-1.655h-1.655v4.006c0,0-0.151,1.956,1.655,1.956
		C207.263,178.327,207.112,176.371,207.112,176.371z"/>
	<path fill="#9F5433" d="M213.765,177.943c-0.128,0.128-0.334,0.129-0.46,0.003l0,0c-0.126-0.126-0.124-0.332,0.003-0.46
		l0.642-0.642c0.128-0.128,0.334-0.129,0.46-0.003l0,0c0.126,0.126,0.124,0.332-0.003,0.46L213.765,177.943z"/>
	<path fill="#9F5433" d="M197.023,177.943c0.128,0.128,0.334,0.129,0.46,0.003l0,0c0.126-0.126,0.124-0.332-0.003-0.46l-0.642-0.642
		c-0.128-0.128-0.334-0.129-0.46-0.003l0,0c-0.126,0.126-0.124,0.332,0.003,0.46L197.023,177.943z"/>
	<path fill="#9F5433" d="M211.5,184.509h-1.22c-0.344,1.669-2.034,1.444-2.034,1.444h-0.264v-0.973c0-0.177-0.148-0.321-0.331-0.321
		s-0.331,0.144-0.331,0.321v0.973h-0.467v-0.973c0-0.177-0.148-0.321-0.331-0.321s-0.331,0.144-0.331,0.321v0.973h-0.53v-0.973
		c0-0.177-0.148-0.321-0.331-0.321s-0.331,0.144-0.331,0.321v0.973h-0.446v-0.973c0-0.177-0.148-0.321-0.331-0.321
		c-0.183,0-0.331,0.144-0.331,0.321v0.973h-0.53v-0.973c0-0.177-0.148-0.321-0.331-0.321s-0.331,0.144-0.331,0.321v0.973h-0.09
		c0,0-1.69,0.225-2.034-1.444h-1.22c0,0-3.059,1.088-4.834-2.69c0,0,0.335,1.473,0.827,2.436c1.644,3.223,4.703,3.288,5.055,3.288
		c0.353,0,5.025,0,5.025,0s4.673,0,5.025,0c0.353,0,3.649-0.498,5.293-3.721c0.491-0.963,0.655-2.393,0.655-2.393
		C214.625,185.207,211.5,184.509,211.5,184.509z"/>
	<polygon fill="#2D1811" points="211.486,171.345 211.693,167.894 199.039,167.894 199.224,171.345 	"/>
	<path fill="#D89A38" d="M207.838,167.163c0,0-4.058,0-4.978,0s-0.837,0.858-0.837,0.858v3.347h0.816v-3.451h5.041v1.684h-0.669
		c-0.191,0-0.345,0.155-0.345,0.345s0.155,0.345,0.345,0.345h0.669v1.077h0.795c0,0,0-2.489,0-3.409
		S207.838,167.163,207.838,167.163z"/>
	<path fill="#9F5433" d="M211.604,175.414l-3.901-0.879l0.157-0.763c0,0,0.22-1.014,1.464-0.732l1.417,0.298
		c0,0,1.135,0.241,1.035,1.25L211.604,175.414z"/>
	<path fill="#9F5433" d="M199.143,175.414l3.901-0.879l-0.157-0.763c0,0-0.22-1.014-1.464-0.732l-1.417,0.298
		c0,0-1.135,0.241-1.035,1.25L199.143,175.414z"/>
	<path fill="#9F5433" d="M197.852,171.616c-2.444,0.521-0.832,3.81-0.629,4.203l-0.447-0.431c-0.127-0.122-0.329-0.119-0.451,0.008
		c-0.02,0.021-0.036,0.045-0.049,0.07c-0.032,0.05-0.042,0.101-0.039,0.149c-0.001,0.085,0.031,0.169,0.097,0.233l0.428,0.413
		c0.366,0.359,0.836,0.821,0.911,0.896c0.126,0.126,0.322,0.11,0.478,0.039c0.042-0.019,0.063-0.058,0.076-0.099
		c0.028-0.095,0.015-0.194,0.007-0.291c-0.009-0.106-0.013-0.212-0.014-0.319c-0.005-0.435,0.013-0.872,0.031-1.306
		c0.014-0.337,0.034-0.675,0.068-1.01c0.028-0.272,0.065-0.543,0.121-0.81c0.043-0.202,0.097-0.402,0.172-0.594
		c0.055-0.141,0.121-0.277,0.202-0.404c0.059-0.092,0.127-0.18,0.204-0.259c0.055-0.057,0.113-0.109,0.176-0.157
		c0.042-0.032,0.085-0.061,0.131-0.087c0.028-0.016,0.056-0.03,0.086-0.042c0.016-0.006,0.045-0.009,0.058-0.019
		C199.469,171.799,200.452,171.062,197.852,171.616z"/>
	<path fill="#9F5433" d="M213.007,171.616c2.444,0.521,0.832,3.81,0.629,4.203l0.447-0.431c0.127-0.122,0.329-0.119,0.451,0.008
		c0.02,0.021,0.036,0.045,0.049,0.07c0.032,0.05,0.042,0.101,0.039,0.149c0.001,0.085-0.031,0.169-0.097,0.233l-0.428,0.413
		c-0.366,0.359-0.836,0.821-0.911,0.896c-0.126,0.126-0.322,0.11-0.478,0.039c-0.042-0.019-0.063-0.058-0.076-0.099
		c-0.028-0.095-0.015-0.194-0.007-0.291c0.009-0.106,0.013-0.212,0.014-0.319c0.005-0.435-0.013-0.872-0.031-1.306
		c-0.014-0.337-0.034-0.675-0.068-1.01c-0.028-0.272-0.065-0.543-0.121-0.81c-0.043-0.202-0.097-0.402-0.172-0.594
		c-0.055-0.141-0.121-0.277-0.202-0.404c-0.059-0.092-0.127-0.18-0.204-0.259c-0.055-0.057-0.113-0.109-0.176-0.157
		c-0.042-0.032-0.085-0.061-0.131-0.087c-0.028-0.016-0.056-0.03-0.086-0.042c-0.016-0.006-0.045-0.009-0.058-0.019
		C211.39,171.799,210.407,171.062,213.007,171.616z"/>
	<path opacity="0.2" d="M205.307,171.964c5.899,0,7.509-1.135,7.509-1.135l0.146,0.275l-0.199,0.46
		c0.795,0.126,1.126,0.486,1.126,0.486s-0.258,0.375-2.789,1.023c0,0-1.611,0.628-5.815,0.628c-4.204,0-6.744-0.447-8.459-1.493
		c0,0,0.385-0.507,1.025-0.592C198.576,171.52,205.307,171.964,205.307,171.964z"/>
	<path fill="#75B763" d="M197.358,169.567c0,0,3.356,1.614,7.948,1.464c5.899,0,8.116-1.715,8.116-1.715s0.852-0.486,1.229,0.173
		c0.376,0.659,0,1.098-0.094,1.145c0,0-0.926,0.858-3.457,1.506c0,0-1.611,0.628-5.815,0.628s-7.112-0.669-8.827-1.715
		c0,0-0.876-0.231-0.564-1.31C195.894,169.742,196.256,168.888,197.358,169.567z"/>
	<path fill="#FBD591" d="M207.158,167.365c0,0-0.282-0.063-0.282,0.178c0,0.241,0.282,0.167,0.282,0.167l0.889,0.01v1.067
		c0,0,0.021,0.23,0.241,0.23c0.22,0,0.146-0.23,0.146-0.23l0.012-0.994c0,0,0.02-0.475-0.472-0.436L207.158,167.365z"/>
</g>
</svg>
