<?xml version="1.0" encoding="utf-8"?>
<!-- Generator: Adobe Illustrator 17.0.2, SVG Export Plug-In . SVG Version: 6.00 Build 0)  -->
<!DOCTYPE svg PUBLIC "-//W3C//DTD SVG 1.1//EN" "http://www.w3.org/Graphics/SVG/1.1/DTD/svg11.dtd">
<svg version="1.1" xmlns="http://www.w3.org/2000/svg" xmlns:xlink="http://www.w3.org/1999/xlink" x="0px" y="0px" width="300px"
	 height="300px" viewBox="0 0 300 300" enable-background="new 0 0 300 300" xml:space="preserve">
<g id="Layer_1">
	<circle fill="#817BDF" cx="149.653" cy="149.653" r="147.653"/>
</g>
<g id="Stars">
	<path opacity="0.6" fill="#FFFFFF" d="M252.794,164h-1.351c-0.858,0-0.443-0.688-0.443-0.688v-1.031c0-0.88-0.672-1.594-1.5-1.594
		s-1.5,0.714-1.5,1.594v1.047c0,0.984-1.44,0.672-1.44,0.672h-1.203c-0.88,0-1.594,0.672-1.594,1.5s0.714,1.5,1.594,1.5h1.222
		c0.837,0,1.421,1.025,1.421,1.245v1.473c0,0.88,0.672,1.594,1.5,1.594s1.5-0.714,1.5-1.594v-1.568c0-0.833,0.794-0.988,0.794-0.988
		l-0.72-0.163h1.72c0.88,0,1.594-0.672,1.594-1.5S253.674,164,252.794,164z M247.57,167.312h0.006v0.499L247.57,167.312z"/>
	<path opacity="0.7" fill="#FFFFFF" d="M64.677,95h-0.298C62.3,95,62,93.194,62,92.603v-0.2c0-1.12-0.946-2.028-2-2.028
		s-2,0.908-2,2.028v0.748C58,93.914,57.38,95,55.672,95h-0.457c-1.12,0-2.028,0.946-2.028,2s0.908,2,2.028,2h0.417
		c1.85,0,2.367,1.244,2.367,2.212v0.653c0,0.039,0,0.075,0,0.114v0.091c0,0,0.026-0.018,0.029-0.046
		c0.078,1.044,0.976,1.868,1.978,1.868c1.054,0,1.993-0.908,1.993-2.028v-0.102c0,0.061-0.062,0.102-0.062,0.102l0.034-0.755
		c-0.003,0.03,0.028,0.058,0.028,0.086v-1.326c0-0.005-0.07-0.008-0.069-0.013l-0.032,1.253c0.093-0.907,0.577-2.306,2.796-2.306
		c1.12,0,2.019-0.848,2.019-1.902S65.797,95,64.677,95z"/>
	<circle opacity="0.3" fill="#FFFFFF" cx="216.364" cy="80.017" r="2.066"/>
	<path opacity="0.7" fill="#FFFFFF" d="M250.677,97h-0.298C248.3,97,248,95.194,248,94.603v-0.2c0-1.12-0.946-2.028-2-2.028
		s-2,0.908-2,2.028v0.748c0,0.763-0.62,1.849-2.328,1.849h-0.457c-1.12,0-2.028,0.946-2.028,2s0.908,2,2.028,2h0.417
		c1.85,0,2.367,1.244,2.367,2.212v0.653c0,0.039,0,0.075,0,0.114v0.091c0,0,0.026-0.018,0.029-0.046
		c0.078,1.044,0.976,1.868,1.978,1.868c1.054,0,1.993-0.908,1.993-2.028v-0.102c0,0.061-0.062,0.102-0.062,0.102l0.034-0.755
		c-0.003,0.03,0.028,0.058,0.028,0.086v-1.326c0-0.005-0.07-0.008-0.069-0.013l-0.032,1.253c0.093-0.907,0.577-2.306,2.796-2.306
		c1.12,0,2.019-0.848,2.019-1.902S251.797,97,250.677,97z"/>
	<path opacity="0.4" fill="#FFFFFF" d="M221.529,181h-1.876c-1.192,0-0.653-1.038-0.653-1.038v-1.432c0-1.223-1.349-2.214-2.5-2.214
		s-2.5,0.991-2.5,2.214v1.454c0,1.367-1.13,1.017-1.13,1.017h-1.671c-1.223,0-2.214,0.849-2.214,2s0.991,2,2.214,2h1.698
		c1.162,0,1.104,1.507,1.104,1.813v2.046c0,1.223,1.349,2.214,2.5,2.214s2.5-0.991,2.5-2.214v-2.177
		c0-1.157,1.122-1.414,1.122-1.414L219.14,185h2.389c1.223,0,2.214-0.849,2.214-2S222.751,181,221.529,181z M214.272,185.517h0.008
		v0.694L214.272,185.517z"/>
	<circle opacity="0.7" fill="#FFFFFF" cx="223.364" cy="121.017" r="2.066"/>
	<path opacity="0.3" fill="#FFFFFF" d="M269.461,124h-1.351c-0.858,0-1.11-0.688-1.11-0.688v-1.031c0-0.88-0.672-1.594-1.5-1.594
		s-1.5,0.714-1.5,1.594v1.047c0,0.984-0.773,0.672-0.773,0.672h-1.203c-0.88,0-1.594,0.672-1.594,1.5s0.714,1.5,1.594,1.5h1.222
		c0.837,0,0.754,1.025,0.754,1.246v1.473c0,0.88,0.672,1.594,1.5,1.594s1.5-0.714,1.5-1.594v-1.568c0-0.833,1.128-0.988,1.128-0.988
		L267.741,127h1.72c0.88,0,1.594-0.672,1.594-1.5S270.341,124,269.461,124z M264.237,127.312h0.006v0.499L264.237,127.312z"/>
	<circle opacity="0.4" fill="#FFFFFF" cx="279.364" cy="146.017" r="2.066"/>
	<circle opacity="0.7" fill="#FFFFFF" cx="237.364" cy="218.017" r="2.066"/>
	<circle opacity="0.7" fill="#FFFFFF" cx="96.364" cy="92.017" r="2.066"/>
	<path opacity="0.4" fill="#FFFFFF" d="M50.677,200h-0.298C48.3,200,48,198.194,48,197.603v-0.2c0-1.12-0.946-2.028-2-2.028
		s-2,0.908-2,2.028v0.748c0,0.763-0.62,1.849-2.328,1.849h-0.457c-1.12,0-2.028,0.946-2.028,2s0.908,2,2.028,2h0.417
		c1.85,0,2.367,1.244,2.367,2.212v0.653c0,0.039,0,0.075,0,0.114v0.091c0,0,0.026-0.018,0.029-0.046
		c0.078,1.044,0.976,1.868,1.978,1.868c1.054,0,1.993-0.908,1.993-2.028v-0.102c0,0.061-0.062,0.102-0.062,0.102l0.034-0.755
		c-0.003,0.03,0.028,0.058,0.028,0.086v-1.326c0-0.005-0.07-0.008-0.069-0.013l-0.032,1.253c0.093-0.907,0.577-2.306,2.796-2.306
		c1.12,0,2.019-0.848,2.019-1.902C52.714,200.848,51.797,200,50.677,200z"/>
	<path opacity="0.7" fill="#FFFFFF" d="M25.28,131h-0.21c-1.465,0-2.07-1.643-2.07-2.059V128.8c0-0.789-0.258-1.428-1-1.428
		s-1,0.639-1,1.428v0.527c0,0.538-0.86,1.673-2.062,1.673h-0.322c-0.789,0-1.428,0.258-1.428,1s0.639,1,1.428,1h0.294
		c1.303,0,2.09,1.323,2.09,2.005v0.46c0,0.027,0,0.053,0,0.08v0.064c0,0-0.193-0.012-0.191-0.032
		c0.055,0.735,0.384,1.316,1.09,1.316c0.742,0,1.101-0.639,1.101-1.428v-0.072c0,0.043,0.153,0.072,0.153,0.072l-0.075-0.532
		c-0.002,0.021-0.079,0.041-0.079,0.061v-0.934c0-0.004,0.148-0.006,0.148-0.009l0.076,0.882c0.066-0.638,0.456-1.624,2.019-1.624
		c0.789,0,1.446-0.412,1.446-1.154S26.068,131,25.28,131z"/>
	<circle opacity="0.7" fill="#FFFFFF" cx="58.364" cy="221.017" r="2.066"/>
	<circle opacity="0.3" fill="#FFFFFF" cx="60.364" cy="116.017" r="2.066"/>
	<path opacity="0.7" fill="#FFFFFF" d="M85.677,218h-0.298C83.3,218,83,216.194,83,215.603v-0.2c0-1.12-0.946-2.028-2-2.028
		s-2,0.908-2,2.028v0.748c0,0.763-0.62,1.849-2.328,1.849h-0.457c-1.12,0-2.028,0.946-2.028,2s0.908,2,2.028,2h0.417
		c1.85,0,2.367,1.244,2.367,2.212v0.653c0,0.039,0,0.075,0,0.114v0.091c0,0,0.026-0.018,0.029-0.046
		c0.078,1.044,0.976,1.868,1.978,1.868c1.054,0,1.993-0.908,1.993-2.028v-0.102c0,0.061-0.062,0.102-0.062,0.102l0.034-0.755
		c-0.003,0.03,0.028,0.058,0.028,0.086v-1.326c0-0.005-0.07-0.008-0.069-0.013l-0.032,1.253c0.093-0.907,0.577-2.306,2.796-2.306
		c1.12,0,2.019-0.848,2.019-1.902C87.714,218.848,86.797,218,85.677,218z"/>
</g>
<g id="Mac">
	<path fill="#222222" d="M230,170.398c0,3.094-2.508,5.602-5.602,5.602H78.602c-3.094,0-5.602-2.508-5.602-5.602V73.602
		C73,70.508,75.508,68,78.602,68h145.796c3.094,0,5.602,2.508,5.602,5.602V170.398z"/>
	<path fill="#CCCCCC" d="M73,162v8.707c0,3.094,2.508,5.293,5.602,5.293h146.124c3.094,0,5.274-2.199,5.274-5.293V162H73z"/>
	<rect x="80" y="75" fill="#444444" width="144" height="80"/>
	<circle fill="#444444" cx="151.236" cy="71.346" r="0.739"/>
	<path fill="#CCCCCC" d="M173.188,192.469c-5.836-1.478-4.865-4.452-5.427-9.499l-0.408-6.97h-15.455h-15.406l-0.408,6.982
		c-0.562,5.047,0.408,7.931-5.427,9.409c-7.921,2.007,5.369,1.609,5.369,1.609h15.873h15.921
		C167.819,194,181.109,194.475,173.188,192.469z"/>
	<polygon fill="#AAAAAA" points="136.492,176 167.304,176 167.555,180 136.296,180 	"/>
	<path fill="#A6A7A9" d="M176.174,181.211"/>
	<path opacity="0.1" fill="#FFFFFF" d="M187.281,162h36.511c3.094,0,6.208,0,6.208,0V73.602c0-3.094-2.18-5.602-5.274-5.602h-77.262
		L187.281,162z"/>
</g>
<g id="Mac_Luckee">
	<path fill="#4A8048" d="M143.39,106.768c0,0,0.222-0.489,2.424-0.667c2.201-0.178,2.841-0.156,3.922-0.2
		c1.081-0.044,2.86,0.111,3.416,0.156s2.268,0.311,2.49,0.623c0.222,0.311-0.467,8.694-0.467,8.694h-11.162L143.39,106.768z"/>
	<circle fill="#DD9071" cx="141.676" cy="121.171" r="1.622"/>
	<circle fill="#DD9071" cx="157.775" cy="121.171" r="1.622"/>
	<path fill="#F6CBB9" d="M143.288,115.75c0,0-1.042,0.78-0.85,5.296c0,0-1.803,2.014-0.025,4.419c0,0,2.097,2.307,4.457,0.325h5.517
		c0,0,2.583,1.884,4.465-0.325c0,0,1.977-2.144,0-4.354c0,0,0.351-4.191-0.893-5.361H143.288z"/>
	<circle fill="#ECA18F" cx="145.051" cy="121.879" r="1.309"/>
	<circle fill="#ECA18F" cx="154.42" cy="121.879" r="1.309"/>
	<path fill="#4E2615" d="M148.376,122.441h2.691c0,0,0.175,0.034,0.175,0.199c0,0,0.079,0.04-0.187,0.306
		c-0.266,0.266-1.263,1.568-2.679,0C148.376,122.946,147.956,122.526,148.376,122.441z"/>
	<path fill="#FFFFFF" d="M148.391,122.438h2.685c0,0,0.174,0.033,0.174,0.195c0,0,0.017,0.15-0.143,0.2s-2.717,0-2.717,0
		s-0.199,0.013-0.199-0.186C148.193,122.447,148.391,122.438,148.391,122.438z"/>
	<path fill="#804128" d="M146.56,119.722c-0.005,0.005-0.039-0.892-0.97-0.892s-0.965,0.897-0.97,0.892
		c-0.005-0.005-0.029,0.33,0.238,0.33s0.242-0.33,0.242-0.33c0-0.422,0.49-0.412,0.49-0.412s0.49-0.01,0.49,0.412
		c0,0-0.024,0.33,0.242,0.33S146.565,119.718,146.56,119.722z"/>
	<path fill="#BB693E" d="M159.44,122.901l-2.798-2.798l-0.347,0.367c1.525,2.47,0,3.937,0,3.937
		c-2.123,2.123-4.169,0.328-4.169,0.328h-2.473h-2.473c0,0-2.046,1.795-4.169-0.328c0,0-1.525-1.467,0-3.937l-0.347-0.367
		l-2.798,2.798c0,0-1.023,0.56,0.135,3.648c1.158,3.088,4.651,3.59,4.979,3.59c0.328,0,4.673,0,4.673,0s4.345,0,4.673,0
		c0.328,0,3.821-0.502,4.979-3.59C160.463,123.461,159.44,122.901,159.44,122.901z"/>
	<path fill="#804128" d="M154.503,119.722c-0.005,0.005-0.039-0.892-0.97-0.892s-0.965,0.897-0.97,0.892
		c-0.005-0.005-0.029,0.33,0.238,0.33s0.242-0.33,0.242-0.33c0-0.422,0.49-0.412,0.49-0.412s0.49-0.01,0.49,0.412
		c0,0-0.024,0.33,0.242,0.33S154.508,119.718,154.503,119.722z"/>
	<path fill="#DD8974" d="M151.213,119.897v-3.715h-1.535h-1.535v3.715c0,0-0.14,1.814,1.535,1.814
		C151.353,121.711,151.213,119.897,151.213,119.897z"/>
	<path fill="#9F5433" d="M157.383,121.354c-0.119,0.119-0.309,0.12-0.426,0.003l0,0c-0.117-0.117-0.115-0.308,0.003-0.426
		l0.595-0.595c0.119-0.119,0.309-0.12,0.426-0.003l0,0c0.117,0.117,0.115,0.308-0.003,0.426L157.383,121.354z"/>
	<path fill="#9F5433" d="M141.857,121.354c0.119,0.119,0.309,0.12,0.426,0.003l0,0c0.117-0.117,0.115-0.308-0.003-0.426
		l-0.595-0.595c-0.119-0.119-0.309-0.12-0.426-0.003l0,0c-0.117,0.117-0.115,0.308,0.003,0.426L141.857,121.354z"/>
	<path fill="#9F5433" d="M155.282,127.443h-1.132c-0.319,1.547-1.886,1.339-1.886,1.339h-0.245v-0.902
		c0-0.164-0.137-0.298-0.307-0.298s-0.307,0.133-0.307,0.298v0.902h-0.433v-0.902c0-0.164-0.137-0.298-0.307-0.298
		c-0.17,0-0.307,0.133-0.307,0.298v0.902h-0.491v-0.902c0-0.164-0.137-0.298-0.307-0.298s-0.307,0.133-0.307,0.298v0.902h-0.414
		v-0.902c0-0.164-0.137-0.298-0.307-0.298c-0.17,0-0.307,0.133-0.307,0.298v0.902h-0.491v-0.902c0-0.164-0.137-0.298-0.307-0.298
		c-0.17,0-0.307,0.133-0.307,0.298v0.902h-0.083c0,0-1.567,0.208-1.886-1.339h-1.132c0,0-2.837,1.009-4.483-2.495
		c0,0,0.311,1.366,0.766,2.259c1.524,2.989,4.361,3.049,4.688,3.049s4.66,0,4.66,0s4.333,0,4.66,0c0.327,0,3.384-0.462,4.909-3.45
		c0.455-0.893,0.608-2.22,0.608-2.22C158.181,128.09,155.282,127.443,155.282,127.443z"/>
	<polygon fill="#2D1811" points="155.27,115.236 155.461,112.036 143.727,112.036 143.899,115.236 	"/>
	<path fill="#D89A38" d="M151.887,111.358c0,0-3.763,0-4.616,0c-0.853,0-0.776,0.795-0.776,0.795v3.104h0.756v-3.201h4.675v1.561
		h-0.621c-0.177,0-0.32,0.143-0.32,0.32c0,0.177,0.143,0.32,0.32,0.32h0.621v0.999h0.737c0,0,0-2.308,0-3.162
		C152.663,111.241,151.887,111.358,151.887,111.358z"/>
	<path fill="#9F5433" d="M155.379,119.01l-3.618-0.815l0.145-0.708c0,0,0.204-0.941,1.358-0.679l1.314,0.276
		c0,0,1.052,0.223,0.96,1.159L155.379,119.01z"/>
	<path fill="#9F5433" d="M143.824,119.01l3.618-0.815l-0.145-0.708c0,0-0.204-0.941-1.358-0.679l-1.314,0.276
		c0,0-1.052,0.223-0.96,1.159L143.824,119.01z"/>
	<path fill="#9F5433" d="M142.626,115.487c-2.266,0.483-0.771,3.533-0.584,3.897l-0.414-0.399c-0.118-0.113-0.305-0.11-0.418,0.008
		c-0.019,0.02-0.033,0.042-0.046,0.065c-0.029,0.046-0.039,0.094-0.036,0.138c-0.001,0.078,0.029,0.157,0.09,0.216l0.397,0.383
		c0.34,0.333,0.775,0.761,0.845,0.831c0.116,0.116,0.298,0.102,0.444,0.036c0.039-0.017,0.059-0.054,0.07-0.092
		c0.026-0.088,0.014-0.18,0.007-0.27c-0.008-0.098-0.012-0.197-0.013-0.296c-0.005-0.403,0.012-0.808,0.029-1.211
		c0.013-0.313,0.032-0.626,0.063-0.937c0.026-0.252,0.06-0.503,0.113-0.751c0.04-0.187,0.09-0.373,0.159-0.551
		c0.051-0.13,0.112-0.257,0.188-0.375c0.055-0.086,0.118-0.167,0.189-0.24c0.051-0.052,0.105-0.101,0.163-0.145
		c0.039-0.029,0.079-0.057,0.121-0.081c0.026-0.015,0.052-0.028,0.079-0.039c0.015-0.006,0.041-0.008,0.054-0.017
		C144.126,115.657,145.037,114.973,142.626,115.487z"/>
	<path fill="#9F5433" d="M156.68,115.487c2.266,0.483,0.771,3.533,0.584,3.897l0.414-0.399c0.118-0.113,0.305-0.11,0.418,0.008
		c0.019,0.02,0.033,0.042,0.046,0.065c0.029,0.046,0.039,0.094,0.036,0.138c0.001,0.078-0.029,0.157-0.09,0.216l-0.397,0.383
		c-0.34,0.333-0.775,0.761-0.845,0.831c-0.116,0.116-0.298,0.102-0.444,0.036c-0.039-0.017-0.059-0.054-0.07-0.092
		c-0.026-0.088-0.014-0.18-0.007-0.27c0.008-0.098,0.012-0.197,0.013-0.296c0.005-0.403-0.012-0.808-0.029-1.211
		c-0.013-0.313-0.032-0.626-0.063-0.937c-0.026-0.252-0.06-0.503-0.113-0.751c-0.04-0.187-0.09-0.373-0.159-0.551
		c-0.051-0.13-0.112-0.257-0.188-0.375c-0.055-0.086-0.118-0.167-0.189-0.24c-0.051-0.052-0.105-0.101-0.163-0.145
		c-0.039-0.029-0.079-0.057-0.121-0.081c-0.026-0.015-0.052-0.028-0.079-0.039c-0.015-0.006-0.041-0.008-0.054-0.017
		C155.18,115.657,154.269,114.973,156.68,115.487z"/>
	<path opacity="0.2" d="M149.54,115.81c5.47,0,6.964-1.053,6.964-1.053l0.136,0.255l-0.184,0.427c0.737,0.116,1.044,0.45,1.044,0.45
		s-0.239,0.347-2.587,0.949c0,0-1.494,0.582-5.392,0.582s-6.254-0.414-7.844-1.384c0,0,0.357-0.471,0.95-0.549
		C143.298,115.398,149.54,115.81,149.54,115.81z"/>
	<path fill="#75B763" d="M142.168,113.587c0,0,3.112,1.497,7.371,1.358c5.47,0,7.526-1.591,7.526-1.591s0.79-0.451,1.14,0.16
		c0.349,0.611,0,1.018-0.087,1.062c0,0-0.858,0.795-3.205,1.397c0,0-1.494,0.582-5.392,0.582c-3.899,0-6.595-0.621-8.186-1.591
		c0,0-0.812-0.214-0.523-1.214C140.81,113.75,141.146,112.957,142.168,113.587z"/>
	<path fill="#FBD591" d="M151.256,111.545c0,0-0.262-0.058-0.262,0.165s0.262,0.155,0.262,0.155l0.824,0.01v0.989
		c0,0,0.019,0.213,0.223,0.213c0.204,0,0.136-0.213,0.136-0.213l0.011-0.921c0,0,0.018-0.44-0.438-0.404L151.256,111.545z"/>
</g>
<g id="Macbook">
	<path fill="#333333" d="M141,198.381c0,5.225-0.144,5.619-5.369,5.619H44.198c-5.225,0-6.198-0.395-6.198-5.619v-58.778
		c0-4.735,1.191-4.602,6.198-4.602h91.433c4.245,0,5.369,0.031,5.369,4.602V198.381z"/>
	<path fill="#222222" d="M141,196.032c0,5.033-0.144,4.968-5.365,4.968H44.266c-5.221,0-6.266,0.066-6.266-4.968V139.41
		c0-4.561,1.262-4.41,6.266-4.41h91.369c4.242,0,5.365,0.007,5.365,4.41V196.032z"/>
	<path fill="none" stroke="#AAAAAA" stroke-miterlimit="10" d="M141.5,198.381c0,5.225-0.644,5.119-5.88,5.119H43.992
		c-5.236,0-6.492,0.105-6.492-5.119v-58.778c0-4.735,1.474-5.102,6.492-5.102h91.628c4.254,0,5.88,0.531,5.88,5.102V198.381z"/>
	<rect x="42" y="138" fill="#444444" width="95" height="59"/>
	<path opacity="0.1" fill="#FFFFFF" d="M116.699,203h18.921c5.236,0,5.38,0.17,5.38-5.055v-58.778c0-4.572-1.126-4.167-5.38-4.167
		H85.954L116.699,203z"/>
	<circle fill="#444444" cx="89.806" cy="136.518" r="0.544"/>
	<rect x="27" y="203" fill="#CCCCCC" width="126" height="1"/>
	<path fill="#AAAAAA" d="M27,204h125.394c0,0-0.871,2-5.37,2c-4.499,0-113.929,0-113.929,0S28.887,206,27,204z"/>
	<path fill="#AAAAAA" d="M80.576,203c0.106,0,0.735,1,1.502,1h14.803c0.767,0,1.395-1,1.502-1H80.576z"/>
</g>
<g id="L2">
	<path fill="#4A8048" d="M83.939,157.71c0,0,0.19-0.418,2.073-0.571c1.883-0.152,2.43-0.133,3.354-0.171
		c0.925-0.038,2.446,0.095,2.921,0.133s1.94,0.266,2.13,0.532c0.19,0.266-0.399,7.436-0.399,7.436h-9.547L83.939,157.71z"/>
	<circle fill="#DD9071" cx="82.473" cy="170.029" r="1.387"/>
	<circle fill="#DD9071" cx="96.242" cy="170.029" r="1.387"/>
	<path fill="#F6CBB9" d="M83.852,165.392c0,0-0.891,0.667-0.727,4.529c0,0-1.542,1.723-0.021,3.779c0,0,1.794,1.973,3.812,0.278
		h4.719c0,0,2.209,1.612,3.819-0.278c0,0,1.691-1.834,0-3.724c0,0,0.3-3.585-0.764-4.585H83.852z"/>
	<circle fill="#ECA18F" cx="85.359" cy="170.634" r="1.12"/>
	<circle fill="#ECA18F" cx="93.372" cy="170.634" r="1.12"/>
	<path fill="#4E2615" d="M88.203,171.114h2.302c0,0,0.15,0.029,0.15,0.17c0,0,0.068,0.034-0.16,0.262
		c-0.227,0.228-1.08,1.341-2.291,0C88.203,171.547,87.844,171.187,88.203,171.114z"/>
	<path fill="#FFFFFF" d="M88.217,171.112h2.297c0,0,0.149,0.028,0.149,0.167c0,0,0.015,0.128-0.122,0.171
		c-0.137,0.043-2.324,0-2.324,0s-0.17,0.011-0.17-0.159S88.217,171.112,88.217,171.112z"/>
	<path fill="#804128" d="M86.65,168.79c-0.004,0.004-0.033-0.763-0.829-0.763c-0.796,0-0.825,0.767-0.829,0.763
		c-0.004-0.004-0.025,0.282,0.203,0.282c0.228,0,0.207-0.282,0.207-0.282c0-0.361,0.419-0.353,0.419-0.353s0.419-0.008,0.419,0.353
		c0,0-0.021,0.282,0.207,0.282S86.654,168.786,86.65,168.79z"/>
	<path fill="#BB693E" d="M97.666,171.509l-2.393-2.393l-0.297,0.314c1.304,2.113,0,3.367,0,3.367
		c-1.816,1.816-3.565,0.281-3.565,0.281h-2.115H87.18c0,0-1.75,1.535-3.565-0.281c0,0-1.304-1.254,0-3.367l-0.297-0.314
		l-2.393,2.393c0,0-0.875,0.479,0.116,3.12c0.99,2.641,3.978,3.07,4.259,3.07s3.997,0,3.997,0s3.716,0,3.997,0
		c0.281,0,3.268-0.429,4.259-3.07C98.541,171.987,97.666,171.509,97.666,171.509z"/>
	<path fill="#804128" d="M93.444,168.79c-0.004,0.004-0.033-0.763-0.829-0.763s-0.825,0.767-0.829,0.763
		c-0.004-0.004-0.025,0.282,0.203,0.282c0.228,0,0.207-0.282,0.207-0.282c0-0.361,0.419-0.353,0.419-0.353s0.419-0.008,0.419,0.353
		c0,0-0.021,0.282,0.207,0.282C93.469,169.072,93.448,168.786,93.444,168.79z"/>
	<path fill="#DD8974" d="M90.63,168.939v-3.177h-1.313h-1.313v3.177c0,0-0.12,1.551,1.313,1.551S90.63,168.939,90.63,168.939z"/>
	<path fill="#9F5433" d="M95.907,170.185c-0.101,0.101-0.265,0.103-0.364,0.003l0,0c-0.1-0.1-0.099-0.263,0.003-0.364l0.509-0.509
		c0.101-0.101,0.265-0.103,0.364-0.003l0,0c0.1,0.1,0.099,0.263-0.003,0.364L95.907,170.185z"/>
	<path fill="#9F5433" d="M82.628,170.185c0.101,0.101,0.265,0.103,0.364,0.003l0,0c0.1-0.1,0.099-0.263-0.003-0.364l-0.509-0.509
		c-0.101-0.101-0.265-0.103-0.364-0.003l0,0c-0.1,0.1-0.099,0.263,0.003,0.364L82.628,170.185z"/>
	<path fill="#9F5433" d="M94.11,175.393h-0.968c-0.273,1.323-1.613,1.145-1.613,1.145h-0.21v-0.772c0-0.141-0.118-0.255-0.263-0.255
		s-0.263,0.114-0.263,0.255v0.772h-0.371v-0.772c0-0.141-0.118-0.255-0.263-0.255c-0.145,0-0.263,0.114-0.263,0.255v0.772h-0.42
		v-0.772c0-0.141-0.118-0.255-0.263-0.255c-0.145,0-0.263,0.114-0.263,0.255v0.772h-0.354v-0.772c0-0.141-0.118-0.255-0.263-0.255
		s-0.263,0.114-0.263,0.255v0.772h-0.42v-0.772c0-0.141-0.118-0.255-0.263-0.255s-0.263,0.114-0.263,0.255v0.772h-0.071
		c0,0-1.34,0.178-1.613-1.145h-0.968c0,0-2.426,0.863-3.834-2.134c0,0,0.266,1.168,0.656,1.932c1.304,2.556,3.73,2.608,4.01,2.608
		s3.986,0,3.986,0s3.706,0,3.986,0s2.894-0.395,4.198-2.951c0.39-0.764,0.52-1.898,0.52-1.898
		C96.589,175.946,94.11,175.393,94.11,175.393z"/>
	<polygon fill="#2D1811" points="94.099,164.953 94.263,162.215 84.227,162.215 84.374,164.953 	"/>
	<path fill="#D89A38" d="M91.206,161.635c0,0-3.218,0-3.948,0s-0.664,0.68-0.664,0.68v2.654h0.647v-2.737h3.998v1.335h-0.531
		c-0.151,0-0.274,0.123-0.274,0.274c0,0.151,0.123,0.274,0.274,0.274h0.531v0.854h0.63c0,0,0-1.974,0-2.704
		S91.206,161.635,91.206,161.635z"/>
	<path fill="#9F5433" d="M94.192,168.18l-3.094-0.697l0.124-0.606c0,0,0.174-0.805,1.161-0.581l1.124,0.236
		c0,0,0.9,0.191,0.821,0.991L94.192,168.18z"/>
	<path fill="#9F5433" d="M84.31,168.18l3.094-0.697l-0.124-0.606c0,0-0.174-0.805-1.161-0.581l-1.124,0.236
		c0,0-0.9,0.191-0.821,0.991L84.31,168.18z"/>
	<path fill="#9F5433" d="M83.286,165.167c-1.938,0.413-0.66,3.022-0.499,3.333l-0.354-0.342c-0.101-0.097-0.261-0.094-0.358,0.007
		c-0.016,0.017-0.029,0.036-0.039,0.055c-0.025,0.04-0.033,0.08-0.031,0.118c-0.001,0.067,0.025,0.134,0.077,0.185l0.34,0.327
		c0.29,0.285,0.663,0.651,0.723,0.711c0.1,0.1,0.255,0.087,0.379,0.031c0.033-0.015,0.05-0.046,0.06-0.079
		c0.022-0.076,0.012-0.154,0.006-0.231c-0.007-0.084-0.01-0.168-0.011-0.253c-0.004-0.345,0.01-0.691,0.025-1.036
		c0.011-0.268,0.027-0.535,0.054-0.801c0.022-0.215,0.051-0.431,0.096-0.642c0.034-0.16,0.077-0.319,0.136-0.471
		c0.043-0.111,0.096-0.22,0.161-0.32c0.047-0.073,0.101-0.142,0.161-0.205c0.043-0.045,0.09-0.087,0.14-0.124
		c0.033-0.025,0.068-0.048,0.104-0.069c0.022-0.012,0.044-0.024,0.068-0.033c0.013-0.005,0.035-0.007,0.046-0.015
		C84.568,165.312,85.348,164.728,83.286,165.167z"/>
	<path fill="#9F5433" d="M95.305,165.167c1.938,0.413,0.66,3.022,0.499,3.333l0.354-0.342c0.101-0.097,0.261-0.094,0.358,0.007
		c0.016,0.017,0.029,0.036,0.039,0.055c0.025,0.04,0.033,0.08,0.031,0.118c0.001,0.067-0.025,0.134-0.077,0.185l-0.34,0.327
		c-0.29,0.285-0.663,0.651-0.723,0.711c-0.1,0.1-0.255,0.087-0.38,0.031c-0.033-0.015-0.05-0.046-0.06-0.079
		c-0.022-0.076-0.012-0.154-0.006-0.231c0.007-0.084,0.01-0.168,0.011-0.253c0.004-0.345-0.01-0.691-0.025-1.036
		c-0.011-0.268-0.027-0.535-0.054-0.801c-0.022-0.215-0.051-0.431-0.096-0.642c-0.034-0.16-0.077-0.319-0.136-0.471
		c-0.043-0.111-0.096-0.22-0.161-0.32c-0.047-0.073-0.101-0.142-0.161-0.205c-0.043-0.045-0.09-0.087-0.14-0.124
		c-0.033-0.025-0.068-0.048-0.104-0.069c-0.022-0.012-0.044-0.024-0.068-0.033c-0.013-0.005-0.035-0.007-0.046-0.015
		C94.023,165.312,93.243,164.728,95.305,165.167z"/>
	<path opacity="0.2" d="M89.198,165.444c4.678,0,5.956-0.9,5.956-0.9l0.116,0.218l-0.158,0.365c0.63,0.1,0.893,0.385,0.893,0.385
		s-0.205,0.297-2.212,0.811c0,0-1.277,0.498-4.612,0.498c-3.335,0-5.349-0.355-6.709-1.184c0,0,0.305-0.403,0.813-0.469
		C83.86,165.091,89.198,165.444,89.198,165.444z"/>
	<path fill="#75B763" d="M82.893,163.542c0,0,2.662,1.28,6.304,1.161c4.678,0,6.437-1.36,6.437-1.36s0.676-0.386,0.975,0.137
		c0.299,0.523,0,0.871-0.075,0.908c0,0-0.734,0.68-2.741,1.194c0,0-1.277,0.498-4.612,0.498c-3.335,0-5.641-0.531-7.001-1.36
		c0,0-0.695-0.183-0.448-1.039C81.733,163.681,82.02,163.003,82.893,163.542z"/>
	<path fill="#FBD591" d="M90.667,161.796c0,0-0.224-0.05-0.224,0.141s0.224,0.133,0.224,0.133l0.705,0.008v0.846
		c0,0,0.017,0.182,0.191,0.182c0.174,0,0.116-0.182,0.116-0.182l0.009-0.788c0,0,0.016-0.377-0.374-0.346L90.667,161.796z"/>
</g>
<g id="iPad">
	<path fill="#EEEEEE" d="M233,203.851c0,1.197-0.662,2.149-1.851,2.149h-55.938c-1.188,0-2.212-0.953-2.212-2.149v-73.841
		c0-1.197,1.023-2.009,2.212-2.009h55.938c1.188,0,1.851,0.813,1.851,2.009V203.851z"/>
	<rect x="179" y="134" fill="#444444" width="48" height="64"/>
	<circle fill="#DDDDDD" stroke="#D3D3D3" stroke-width="0.1805" stroke-miterlimit="10" cx="203.15" cy="202.316" r="1.805"/>
	<circle fill="#444444" cx="203.18" cy="131.363" r="0.512"/>
	<path opacity="0.1" fill="#EEEEEE" d="M230.969,128h-30.414l31.094,77.961c0.823-0.304,1.351-1.176,1.351-2.111v-73.841
		C233,128.813,232.157,128,230.969,128z"/>
</g>
<g id="L3">
	<path fill="#4A8048" d="M198.435,157.137c0,0,0.187-0.411,2.034-0.56c1.848-0.149,2.385-0.131,3.292-0.168
		c0.907-0.037,2.401,0.093,2.867,0.131c0.467,0.037,1.904,0.261,2.09,0.523c0.187,0.261-0.392,7.298-0.392,7.298h-9.37
		L198.435,157.137z"/>
	<circle fill="#DD9071" cx="196.996" cy="169.227" r="1.362"/>
	<circle fill="#DD9071" cx="210.51" cy="169.227" r="1.362"/>
	<path fill="#F6CBB9" d="M198.349,164.676c0,0-0.874,0.655-0.714,4.445c0,0-1.514,1.691-0.021,3.709c0,0,1.761,1.936,3.742,0.273
		h4.631c0,0,2.168,1.582,3.748-0.273c0,0,1.66-1.8,0-3.654c0,0,0.294-3.518-0.75-4.5H198.349z"/>
	<circle fill="#ECA18F" cx="199.829" cy="169.821" r="1.099"/>
	<circle fill="#ECA18F" cx="207.693" cy="169.821" r="1.099"/>
	<path fill="#4E2615" d="M202.62,170.293h2.259c0,0,0.147,0.029,0.147,0.167c0,0,0.066,0.034-0.157,0.257s-1.06,1.316-2.249,0
		C202.62,170.717,202.267,170.364,202.62,170.293z"/>
	<path fill="#FFFFFF" d="M202.633,170.29h2.254c0,0,0.146,0.028,0.146,0.164c0,0,0.014,0.126-0.12,0.168s-2.28,0-2.28,0
		s-0.167,0.011-0.167-0.156S202.633,170.29,202.633,170.29z"/>
	<path fill="#804128" d="M201.096,168.011c-0.004,0.004-0.033-0.749-0.814-0.749s-0.81,0.753-0.814,0.749
		c-0.004-0.004-0.024,0.277,0.199,0.277s0.204-0.277,0.204-0.277c0-0.354,0.411-0.346,0.411-0.346s0.411-0.008,0.411,0.346
		c0,0-0.02,0.277,0.204,0.277S201.1,168.007,201.096,168.011z"/>
	<path fill="#BB693E" d="M211.908,170.68l-2.349-2.349l-0.292,0.308c1.28,2.074,0,3.305,0,3.305
		c-1.782,1.782-3.499,0.275-3.499,0.275h-2.076h-2.076c0,0-1.717,1.507-3.499-0.275c0,0-1.28-1.231,0-3.305l-0.292-0.308
		l-2.349,2.349c0,0-0.859,0.47,0.113,3.062c0.972,2.592,3.904,3.013,4.18,3.013s3.923,0,3.923,0s3.647,0,3.923,0
		c0.275,0,3.208-0.421,4.18-3.013C212.766,171.149,211.908,170.68,211.908,170.68z"/>
	<path fill="#804128" d="M207.763,168.011c-0.004,0.004-0.033-0.749-0.814-0.749c-0.782,0-0.81,0.753-0.814,0.749
		c-0.004-0.004-0.024,0.277,0.199,0.277c0.224,0,0.204-0.277,0.204-0.277c0-0.354,0.411-0.346,0.411-0.346s0.411-0.008,0.411,0.346
		c0,0-0.02,0.277,0.204,0.277S207.767,168.007,207.763,168.011z"/>
	<path fill="#DD8974" d="M205.002,168.158v-3.118h-1.289h-1.289v3.118c0,0-0.118,1.522,1.289,1.522
		C205.119,169.68,205.002,168.158,205.002,168.158z"/>
	<path fill="#9F5433" d="M210.18,169.381c-0.099,0.1-0.26,0.101-0.358,0.003l0,0c-0.098-0.098-0.097-0.258,0.003-0.358l0.5-0.5
		c0.099-0.1,0.26-0.101,0.358-0.003l0,0c0.098,0.098,0.097,0.258-0.003,0.358L210.18,169.381z"/>
	<path fill="#9F5433" d="M197.148,169.381c0.099,0.1,0.26,0.101,0.358,0.003l0,0c0.098-0.098,0.097-0.258-0.003-0.358l-0.5-0.5
		c-0.099-0.1-0.26-0.101-0.358-0.003l0,0c-0.098,0.098-0.097,0.258,0.003,0.358L197.148,169.381z"/>
	<path fill="#9F5433" d="M208.417,174.492h-0.95c-0.268,1.299-1.583,1.124-1.583,1.124h-0.206v-0.758c0-0.138-0.115-0.25-0.258-0.25
		c-0.142,0-0.258,0.112-0.258,0.25v0.758h-0.364v-0.758c0-0.138-0.115-0.25-0.258-0.25c-0.142,0-0.258,0.112-0.258,0.25v0.758
		h-0.413v-0.758c0-0.138-0.115-0.25-0.258-0.25s-0.258,0.112-0.258,0.25v0.758h-0.347v-0.758c0-0.138-0.115-0.25-0.258-0.25
		c-0.142,0-0.258,0.112-0.258,0.25v0.758h-0.413v-0.758c0-0.138-0.115-0.25-0.258-0.25c-0.142,0-0.258,0.112-0.258,0.25v0.758h-0.07
		c0,0-1.315,0.175-1.583-1.124h-0.95c0,0-2.381,0.847-3.763-2.094c0,0,0.261,1.146,0.643,1.896c1.28,2.509,3.661,2.56,3.935,2.56
		c0.275,0,3.912,0,3.912,0s3.637,0,3.912,0s2.841-0.388,4.12-2.896c0.382-0.749,0.51-1.863,0.51-1.863
		C210.85,175.035,208.417,174.492,208.417,174.492z"/>
	<polygon fill="#2D1811" points="208.407,164.245 208.567,161.559 198.718,161.559 198.862,164.245 	"/>
	<path fill="#D89A38" d="M205.567,160.99c0,0-3.159,0-3.875,0c-0.716,0-0.651,0.668-0.651,0.668v2.605h0.635v-2.687h3.924v1.311
		h-0.521c-0.148,0-0.269,0.12-0.269,0.269s0.12,0.269,0.269,0.269h0.521v0.839h0.619c0,0,0-1.938,0-2.654
		S205.567,160.99,205.567,160.99z"/>
	<path fill="#9F5433" d="M208.498,167.413l-3.037-0.684l0.122-0.594c0,0,0.171-0.79,1.14-0.57l1.103,0.232
		c0,0,0.883,0.187,0.806,0.973L208.498,167.413z"/>
	<path fill="#9F5433" d="M198.799,167.413l3.037-0.684l-0.122-0.594c0,0-0.171-0.79-1.14-0.57l-1.103,0.232
		c0,0-0.883,0.187-0.806,0.973L198.799,167.413z"/>
	<path fill="#9F5433" d="M197.794,164.456c-1.902,0.406-0.647,2.965-0.49,3.271l-0.348-0.335c-0.099-0.095-0.256-0.092-0.351,0.007
		c-0.016,0.017-0.028,0.035-0.038,0.054c-0.025,0.039-0.032,0.079-0.03,0.116c-0.001,0.066,0.024,0.132,0.075,0.181l0.334,0.321
		c0.285,0.28,0.651,0.639,0.709,0.697c0.098,0.098,0.25,0.085,0.372,0.031c0.032-0.015,0.049-0.045,0.059-0.077
		c0.022-0.074,0.012-0.151,0.006-0.227c-0.007-0.083-0.01-0.165-0.011-0.248c-0.004-0.338,0.01-0.678,0.024-1.017
		c0.011-0.263,0.027-0.525,0.053-0.787c0.022-0.211,0.05-0.423,0.094-0.631c0.033-0.157,0.075-0.313,0.134-0.462
		c0.043-0.109,0.094-0.216,0.158-0.315c0.046-0.072,0.099-0.14,0.158-0.201c0.042-0.044,0.088-0.085,0.137-0.122
		c0.033-0.025,0.066-0.048,0.102-0.068c0.021-0.012,0.044-0.024,0.067-0.033c0.012-0.005,0.035-0.007,0.045-0.015
		C199.052,164.598,199.817,164.024,197.794,164.456z"/>
	<path fill="#9F5433" d="M209.59,164.456c1.902,0.406,0.647,2.965,0.49,3.271l0.348-0.335c0.099-0.095,0.256-0.092,0.351,0.007
		c0.016,0.017,0.028,0.035,0.038,0.054c0.025,0.039,0.032,0.079,0.03,0.116c0.001,0.066-0.024,0.132-0.075,0.181l-0.334,0.321
		c-0.285,0.28-0.651,0.639-0.709,0.697c-0.098,0.098-0.25,0.085-0.372,0.031c-0.032-0.015-0.049-0.045-0.059-0.077
		c-0.022-0.074-0.012-0.151-0.006-0.227c0.007-0.083,0.01-0.165,0.011-0.248c0.004-0.338-0.01-0.678-0.024-1.017
		c-0.011-0.263-0.027-0.525-0.053-0.787c-0.022-0.211-0.05-0.423-0.094-0.631c-0.033-0.157-0.075-0.313-0.134-0.462
		c-0.043-0.109-0.094-0.216-0.158-0.315c-0.046-0.072-0.099-0.14-0.158-0.201c-0.042-0.044-0.088-0.085-0.137-0.122
		c-0.033-0.025-0.066-0.048-0.102-0.068c-0.022-0.012-0.044-0.024-0.067-0.033c-0.012-0.005-0.035-0.007-0.045-0.015
		C208.332,164.598,207.567,164.024,209.59,164.456z"/>
	<path opacity="0.2" d="M203.597,164.727c4.591,0,5.845-0.884,5.845-0.884l0.114,0.214l-0.155,0.358
		c0.619,0.098,0.877,0.378,0.877,0.378s-0.201,0.292-2.171,0.796c0,0-1.254,0.488-4.526,0.488s-5.249-0.348-6.585-1.162
		c0,0,0.3-0.395,0.798-0.461C198.357,164.382,203.597,164.727,203.597,164.727z"/>
	<path fill="#75B763" d="M197.409,162.861c0,0,2.612,1.256,6.187,1.14c4.591,0,6.317-1.335,6.317-1.335s0.663-0.379,0.957,0.134
		c0.293,0.513,0,0.855-0.073,0.891c0,0-0.72,0.668-2.691,1.172c0,0-1.254,0.488-4.526,0.488s-5.536-0.521-6.871-1.335
		c0,0-0.682-0.18-0.439-1.019C196.27,162.997,196.551,162.332,197.409,162.861z"/>
	<path fill="#FBD591" d="M205.038,161.147c0,0-0.22-0.049-0.22,0.138s0.22,0.13,0.22,0.13l0.692,0.008v0.83
		c0,0,0.016,0.179,0.187,0.179s0.114-0.179,0.114-0.179l0.009-0.773c0,0,0.015-0.37-0.367-0.34L205.038,161.147z"/>
</g>
<g id="Phone">
	<path fill="#F7F7F7" d="M243,208.774c0,3.477-0.861,4.226-4.622,4.226h-16.667c-3.671,0-4.712-0.691-4.712-4.226v-44.355
		c0-2.464,1.178-3.419,4.712-3.419h16.667c3.448,0,4.622,0.897,4.622,3.419V208.774z"/>
	<rect x="218.5" y="167.5" fill="#444444" stroke="#A0A0A0" stroke-miterlimit="10" width="23" height="39"/>
	<path fill="#9E9E9E" d="M232,164.805c0,0.108-0.087,0.195-0.195,0.195h-4.61c-0.108,0-0.195-0.087-0.195-0.195v-0.61
		c0-0.108,0.087-0.195,0.195-0.195h4.61c0.108,0,0.195,0.087,0.195,0.195V164.805z"/>
	<ellipse fill="#9E9E9E" cx="226.001" cy="164.673" rx="0.327" ry="0.332"/>
	<circle fill="#E5E5E5" stroke="#D6D6D6" stroke-width="0.2702" stroke-miterlimit="10" cx="230.117" cy="210.039" r="1.925"/>
	<path opacity="0.1" fill="#FFFFFF" d="M238.378,161h-16.127l20.046,50.843c0.404-0.643,0.703-1.551,0.703-3.069v-44.355
		C243,161.897,241.826,161,238.378,161z"/>
</g>
<g id="LUCKEE">
	<path fill="#4A8048" d="M225.817,180.092c0,0,0.14-0.309,1.53-0.421c1.39-0.112,1.794-0.098,2.476-0.126
		c0.683-0.028,1.806,0.07,2.157,0.098s1.432,0.197,1.572,0.393s-0.295,5.489-0.295,5.489h-7.047L225.817,180.092z"/>
	<circle fill="#DD9071" cx="224.735" cy="189.186" r="1.024"/>
	<circle fill="#DD9071" cx="234.899" cy="189.186" r="1.024"/>
	<path fill="#F6CBB9" d="M225.753,185.763c0,0-0.658,0.492-0.537,3.344c0,0-1.138,1.272-0.016,2.79c0,0,1.324,1.456,2.814,0.205
		h3.483c0,0,1.631,1.19,2.819-0.205c0,0,1.248-1.354,0-2.749c0,0,0.221-2.646-0.564-3.385H225.753z"/>
	<circle fill="#ECA18F" cx="226.865" cy="189.632" r="0.827"/>
	<circle fill="#ECA18F" cx="232.78" cy="189.632" r="0.827"/>
	<path fill="#4E2615" d="M228.965,189.987h1.699c0,0,0.11,0.021,0.11,0.126c0,0,0.05,0.025-0.118,0.193
		c-0.168,0.168-0.797,0.99-1.692,0C228.965,190.306,228.699,190.041,228.965,189.987z"/>
	<path fill="#FFFFFF" d="M228.975,189.985h1.695c0,0,0.11,0.021,0.11,0.123c0,0,0.011,0.094-0.09,0.126
		c-0.101,0.031-1.715,0-1.715,0s-0.125,0.008-0.125-0.117S228.975,189.985,228.975,189.985z"/>
	<path fill="#804128" d="M227.818,188.271c-0.003,0.003-0.024-0.563-0.612-0.563s-0.609,0.566-0.612,0.563
		c-0.003-0.003-0.018,0.208,0.15,0.208s0.153-0.208,0.153-0.208c0-0.266,0.309-0.26,0.309-0.26s0.309-0.006,0.309,0.26
		c0,0-0.015,0.208,0.153,0.208C227.837,188.479,227.821,188.268,227.818,188.271z"/>
	<path fill="#BB693E" d="M235.95,190.278l-1.767-1.767l-0.219,0.231c0.963,1.56,0,2.486,0,2.486c-1.34,1.34-2.632,0.207-2.632,0.207
		h-1.561h-1.561c0,0-1.292,1.133-2.632-0.207c0,0-0.963-0.926,0-2.486l-0.219-0.231l-1.767,1.767c0,0-0.646,0.353,0.085,2.303
		c0.731,1.949,2.936,2.266,3.144,2.266s2.95,0,2.95,0s2.743,0,2.95,0c0.207,0,2.413-0.317,3.144-2.266
		C236.596,190.631,235.95,190.278,235.95,190.278z"/>
	<path fill="#804128" d="M232.833,188.271c-0.003,0.003-0.024-0.563-0.612-0.563s-0.609,0.566-0.612,0.563
		c-0.003-0.003-0.018,0.208,0.15,0.208s0.153-0.208,0.153-0.208c0-0.266,0.309-0.26,0.309-0.26s0.309-0.006,0.309,0.26
		c0,0-0.015,0.208,0.153,0.208C232.852,188.479,232.836,188.268,232.833,188.271z"/>
	<path fill="#DD8974" d="M230.756,188.381v-2.345h-0.969h-0.969v2.345c0,0-0.088,1.145,0.969,1.145
		C230.844,189.526,230.756,188.381,230.756,188.381z"/>
	<path fill="#9F5433" d="M234.651,189.301c-0.075,0.075-0.195,0.076-0.269,0.002l0,0c-0.074-0.074-0.073-0.194,0.002-0.269
		l0.376-0.376c0.075-0.075,0.195-0.076,0.269-0.002l0,0c0.074,0.074,0.073,0.194-0.002,0.269L234.651,189.301z"/>
	<path fill="#9F5433" d="M224.849,189.301c0.075,0.075,0.195,0.076,0.269,0.002l0,0c0.074-0.074,0.073-0.194-0.002-0.269
		l-0.376-0.376c-0.075-0.075-0.195-0.076-0.269-0.002l0,0c-0.074,0.074-0.073,0.194,0.002,0.269L224.849,189.301z"/>
	<path fill="#9F5433" d="M233.325,193.145h-0.714c-0.202,0.977-1.191,0.845-1.191,0.845h-0.155v-0.57
		c0-0.104-0.087-0.188-0.194-0.188c-0.107,0-0.194,0.084-0.194,0.188v0.57h-0.274v-0.57c0-0.104-0.087-0.188-0.194-0.188
		s-0.194,0.084-0.194,0.188v0.57h-0.31v-0.57c0-0.104-0.087-0.188-0.194-0.188s-0.194,0.084-0.194,0.188v0.57h-0.261v-0.57
		c0-0.104-0.087-0.188-0.194-0.188s-0.194,0.084-0.194,0.188v0.57h-0.31v-0.57c0-0.104-0.087-0.188-0.194-0.188
		s-0.194,0.084-0.194,0.188v0.57h-0.052c0,0-0.989,0.132-1.191-0.845h-0.714c0,0-1.791,0.637-2.83-1.575
		c0,0,0.196,0.862,0.484,1.426c0.962,1.887,2.753,1.925,2.96,1.925c0.207,0,2.942,0,2.942,0s2.736,0,2.942,0
		c0.207,0,2.137-0.292,3.099-2.178c0.288-0.564,0.384-1.401,0.384-1.401C235.155,193.554,233.325,193.145,233.325,193.145z"/>
	<polygon fill="#2D1811" points="233.317,185.439 233.438,183.418 226.029,183.418 226.138,185.439 	"/>
	<path fill="#D89A38" d="M231.181,182.99c0,0-2.376,0-2.915,0s-0.49,0.502-0.49,0.502v1.959h0.478v-2.021h2.951v0.986h-0.392
		c-0.112,0-0.202,0.09-0.202,0.202c0,0.112,0.09,0.202,0.202,0.202h0.392v0.631h0.465c0,0,0-1.457,0-1.996
		S231.181,182.99,231.181,182.99z"/>
	<path fill="#9F5433" d="M233.386,187.821l-2.284-0.514l0.092-0.447c0,0,0.129-0.594,0.857-0.429l0.83,0.175
		c0,0,0.664,0.141,0.606,0.732L233.386,187.821z"/>
	<path fill="#9F5433" d="M226.091,187.821l2.284-0.514l-0.092-0.447c0,0-0.129-0.594-0.857-0.429l-0.83,0.175
		c0,0-0.664,0.141-0.606,0.732L226.091,187.821z"/>
	<path fill="#9F5433" d="M225.335,185.597c-1.431,0.305-0.487,2.23-0.368,2.461l-0.262-0.252c-0.074-0.072-0.193-0.069-0.264,0.005
		c-0.012,0.012-0.021,0.026-0.029,0.041c-0.018,0.029-0.024,0.059-0.023,0.087c0,0.05,0.018,0.099,0.057,0.136l0.251,0.242
		c0.214,0.21,0.489,0.481,0.533,0.524c0.073,0.073,0.188,0.064,0.28,0.023c0.024-0.011,0.037-0.034,0.044-0.058
		c0.017-0.056,0.009-0.114,0.004-0.17c-0.005-0.062-0.007-0.124-0.008-0.187c-0.003-0.255,0.007-0.51,0.018-0.765
		c0.008-0.197,0.02-0.395,0.04-0.592c0.016-0.159,0.038-0.318,0.071-0.474c0.025-0.118,0.057-0.235,0.101-0.348
		c0.032-0.082,0.071-0.162,0.119-0.237c0.035-0.054,0.075-0.105,0.119-0.151c0.032-0.033,0.066-0.064,0.103-0.092
		c0.024-0.018,0.05-0.036,0.077-0.051c0.016-0.009,0.033-0.018,0.05-0.024c0.009-0.004,0.026-0.005,0.034-0.011
		C226.281,185.704,226.857,185.272,225.335,185.597z"/>
	<path fill="#9F5433" d="M234.207,185.597c1.431,0.305,0.487,2.23,0.368,2.461l0.262-0.252c0.074-0.072,0.193-0.069,0.264,0.005
		c0.012,0.012,0.021,0.026,0.029,0.041c0.018,0.029,0.024,0.059,0.023,0.087c0,0.05-0.018,0.099-0.057,0.136l-0.251,0.242
		c-0.214,0.21-0.489,0.481-0.533,0.524c-0.073,0.073-0.188,0.064-0.28,0.023c-0.024-0.011-0.037-0.034-0.044-0.058
		c-0.017-0.056-0.009-0.114-0.004-0.17c0.005-0.062,0.007-0.124,0.008-0.187c0.003-0.255-0.007-0.51-0.018-0.765
		c-0.008-0.197-0.02-0.395-0.04-0.592c-0.016-0.159-0.038-0.318-0.071-0.474c-0.025-0.118-0.057-0.235-0.101-0.348
		c-0.032-0.082-0.071-0.162-0.119-0.237c-0.035-0.054-0.075-0.105-0.119-0.151c-0.032-0.033-0.066-0.064-0.103-0.092
		c-0.024-0.018-0.05-0.036-0.077-0.051c-0.016-0.009-0.033-0.018-0.05-0.024c-0.009-0.004-0.026-0.005-0.034-0.011
		C233.261,185.704,232.685,185.272,234.207,185.597z"/>
	<path opacity="0.2" d="M229.699,185.801c3.453,0,4.396-0.665,4.396-0.665l0.086,0.161l-0.116,0.269
		c0.465,0.073,0.659,0.284,0.659,0.284s-0.151,0.219-1.633,0.599c0,0-0.943,0.367-3.404,0.367c-2.461,0-3.948-0.262-4.952-0.874
		c0,0,0.225-0.297,0.6-0.347C225.759,185.541,229.699,185.801,229.699,185.801z"/>
	<path fill="#75B763" d="M225.045,184.397c0,0,1.965,0.945,4.654,0.857c3.453,0,4.752-1.004,4.752-1.004s0.499-0.285,0.719,0.101
		c0.22,0.386,0,0.643-0.055,0.67c0,0-0.542,0.502-2.024,0.882c0,0-0.943,0.367-3.404,0.367s-4.164-0.392-5.168-1.004
		c0,0-0.513-0.135-0.33-0.767C224.188,184.5,224.4,184,225.045,184.397z"/>
	<path fill="#FBD591" d="M230.783,183.108c0,0-0.165-0.037-0.165,0.104c0,0.141,0.165,0.098,0.165,0.098l0.52,0.006v0.625
		c0,0,0.012,0.135,0.141,0.135s0.086-0.135,0.086-0.135l0.007-0.582c0,0,0.012-0.278-0.276-0.255L230.783,183.108z"/>
</g>
</svg>
