<?xml version="1.0" encoding="utf-8"?>
<!-- Generator: Adobe Illustrator 17.0.2, SVG Export Plug-In . SVG Version: 6.00 Build 0)  -->
<!DOCTYPE svg PUBLIC "-//W3C//DTD SVG 1.1//EN" "http://www.w3.org/Graphics/SVG/1.1/DTD/svg11.dtd">
<svg version="1.1" xmlns="http://www.w3.org/2000/svg" xmlns:xlink="http://www.w3.org/1999/xlink" x="0px" y="0px" width="1920px"
	 height="1080px" viewBox="0 0 1920 1080" enable-background="new 0 0 1920 1080" xml:space="preserve">
<g id="Sky">
	<linearGradient id="SVGID_1_" gradientUnits="userSpaceOnUse" x1="960" y1="1080" x2="960" y2="-4.310004e-08">
		<stop  offset="0" style="stop-color:#AA929F"/>
		<stop  offset="0.2801" style="stop-color:#988594"/>
		<stop  offset="0.8394" style="stop-color:#6A6479"/>
		<stop  offset="1" style="stop-color:#5B5970"/>
	</linearGradient>
	<rect display="none" fill="url(#SVGID_1_)" width="1920" height="1080"/>
	<linearGradient id="SVGID_2_" gradientUnits="userSpaceOnUse" x1="961.4254" y1="1079.5166" x2="961.4254" y2="-0.4834">
		<stop  offset="0" style="stop-color:#AA929F"/>
		<stop  offset="0.1289" style="stop-color:#B69EB1"/>
		<stop  offset="0.1776" style="stop-color:#BBA3B9"/>
		<stop  offset="0.3695" style="stop-color:#B2ACC6"/>
		<stop  offset="0.7094" style="stop-color:#817D95"/>
		<stop  offset="1" style="stop-color:#5B5970"/>
	</linearGradient>
	<rect x="1.425" y="-0.483" fill="url(#SVGID_2_)" width="1920" height="1080"/>
</g>
<g id="Stars">
	<path fill="#ACE0F9" d="M224.223,102.645c0,0.971-0.856,1.759-1.913,1.759c-1.055,0-1.914-0.788-1.914-1.759
		c0-0.97,0.858-1.758,1.914-1.758C223.367,100.887,224.223,101.675,224.223,102.645"/>
	<path fill="#ACE0F9" d="M428.461,156.68c-0.626-0.343-1.616-0.143-1.798,0.616c-0.004,0.015-0.007,0.031-0.011,0.046
		c-0.424,0.546-0.38,1.259,0.143,1.833c0.245,0.268,0.612,0.408,0.979,0.492c1.049,0.439,2.489-0.162,2.489-1.421
		C430.263,157.248,429.358,156.663,428.461,156.68"/>
	<path fill="#ACE0F9" d="M541.36,100.491c-0.002-0.012-0.004-0.023-0.004-0.032c-0.007-0.077-0.013-0.155-0.018-0.231
		c-0.083-1.062-1.711-1.062-1.794,0c-0.005,0.057-0.008,0.113-0.012,0.172c-0.002,0.021-0.009,0.063-0.016,0.108
		c-0.252,0.535,0.263,1.249,0.924,1.249C541.109,101.756,541.628,101.029,541.36,100.491"/>
	<path fill="#ACE0F9" d="M202.541,351.582c-1.155,0-1.155,1.648,0,1.648C203.699,353.23,203.699,351.582,202.541,351.582"/>
	<path opacity="0.5" fill="#ACE0F9" d="M43.996,350.78c-1.821,0-1.821,2.599,0,2.599C45.817,353.378,45.817,350.78,43.996,350.78"/>
	<path fill="#ACE0F9" d="M36.821,34.844c-1.44,0-1.996,1.646-1.088,2.453c0.335,0.911,1.84,0.911,2.175,0
		C38.819,36.49,38.262,34.844,36.821,34.844"/>
	<path fill="#ACE0F9" d="M39.95,210.157c-0.145-0.044-0.374-0.044-0.518,0c-0.415,0.127-0.717,0.449-0.717,0.865
		c0,0.274,0.085,0.567,0.131,0.839c0.139,0.771,1.55,0.771,1.688,0c0.046-0.272,0.13-0.565,0.13-0.839
		C40.666,210.606,40.365,210.284,39.95,210.157"/>
	<path fill="#ACE0F9" d="M96.365,195.176c-1.834,0-1.834,2.617,0,2.617C98.202,197.793,98.202,195.176,96.365,195.176"/>
	<path fill="#ACE0F9" d="M325.629,382.424c-1.33,0-1.33,1.895,0,1.895C326.959,384.319,326.959,382.424,325.629,382.424"/>
	<path fill="#ACE0F9" d="M323.752,481.181c-0.227-0.01-0.455-0.019-0.683-0.029c-1.256-0.057-1.256,1.845,0,1.791
		c0.228-0.012,0.456-0.02,0.683-0.031C324.966,482.858,324.966,481.235,323.752,481.181"/>
	<path fill="#ACE0F9" d="M439.679,374.173c-0.221-0.016-0.422-0.005-0.643,0.019c-0.882,0.095-0.882,1.167,0,1.262
		c0.221,0.022,0.422,0.034,0.643,0.019C440.59,375.407,440.59,374.239,439.679,374.173"/>
	<path opacity="0.5" fill="#ACE0F9" d="M80.452,417.167c-0.006-0.039-0.011-0.075-0.017-0.115l-0.027-0.162
		c-0.124-0.77-1.565-0.77-1.687,0l-0.027,0.162c-0.006,0.04-0.012,0.076-0.019,0.115c-0.193,0.24-0.285,0.535-0.188,0.859
		c0.132,0.439,0.581,0.752,1.076,0.752c0.499,0,0.946-0.312,1.078-0.752C80.736,417.702,80.646,417.407,80.452,417.167"/>
	<path fill="#ACE0F9" d="M43.313,612.345c-1.241,0-1.241,1.769,0,1.769C44.553,614.113,44.553,612.345,43.313,612.345"/>
	<path fill="#ACE0F9" d="M559.094,201.265c-1.621,0-1.621,2.308,0,2.308C560.713,203.573,560.713,201.265,559.094,201.265"/>
	<path fill="#ACE0F9" d="M280.022,38.264c-1.835,0-1.835,2.617,0,2.617C281.858,40.881,281.858,38.264,280.022,38.264"/>
	<path fill="#ACE0F9" d="M847.74,276.799c-1.835,0-1.835,2.617,0,2.617C849.576,279.416,849.576,276.799,847.74,276.799"/>
	<path fill="#ACE0F9" d="M90.627,253.854c-1.836,0-1.836,2.616,0,2.616C92.462,256.47,92.462,253.854,90.627,253.854"/>
	<path fill="#ACE0F9" d="M303.695,91.008c-1.835,0-1.835,2.617,0,2.617C305.531,93.624,305.531,91.008,303.695,91.008"/>
	<path fill="#ACE0F9" d="M68.386,9.915c-1.835,0-1.835,2.616,0,2.616C70.222,12.531,70.222,9.915,68.386,9.915"/>
	<path fill="#ACE0F9" d="M21.059,618.42c-1.42,0-1.42,2.021,0,2.021C22.478,620.441,22.478,618.42,21.059,618.42"/>
	<path fill="#ACE0F9" d="M564.833,11.893c-1.836,0-1.836,2.616,0,2.616C566.669,14.509,566.669,11.893,564.833,11.893"/>
	<path fill="#ACE0F9" d="M703.273,102.646c0,0.971-0.856,1.759-1.914,1.759c-1.055,0-1.913-0.788-1.913-1.759
		c0-0.971,0.858-1.758,1.913-1.758C702.417,100.888,703.273,101.675,703.273,102.646"/>
	<path fill="#ACE0F9" d="M907.511,156.681c-0.625-0.343-1.616-0.143-1.798,0.616c-0.004,0.015-0.007,0.031-0.011,0.046
		c-0.424,0.546-0.38,1.258,0.144,1.833c0.244,0.267,0.612,0.408,0.978,0.491c1.049,0.44,2.489-0.162,2.489-1.42
		C909.313,157.249,908.408,156.664,907.511,156.681"/>
	<path fill="#ACE0F9" d="M1020.41,100.492c-0.002-0.011-0.003-0.023-0.004-0.032c-0.006-0.076-0.014-0.154-0.018-0.231
		c-0.084-1.062-1.713-1.062-1.795,0c-0.005,0.056-0.008,0.113-0.013,0.171c-0.003,0.021-0.009,0.063-0.016,0.108
		c-0.251,0.536,0.263,1.249,0.925,1.249C1020.16,101.758,1020.678,101.029,1020.41,100.492"/>
	<path fill="#ACE0F9" d="M281.398,611.324c-1.155,0-1.155,1.647,0,1.647C282.555,612.972,282.555,611.324,281.398,611.324"/>
	<path fill="#ACE0F9" d="M201.675,457.8c-1.515,0-1.515,2.161,0,2.161C203.19,459.961,203.19,457.8,201.675,457.8"/>
	<path fill="#ACE0F9" d="M515.871,34.845c-1.44,0-1.997,1.646-1.087,2.453c0.335,0.911,1.84,0.911,2.175,0
		C517.869,36.491,517.311,34.845,515.871,34.845"/>
	<path fill="#ACE0F9" d="M519,210.158c-0.145-0.045-0.374-0.045-0.518,0c-0.415,0.127-0.716,0.449-0.716,0.865
		c0,0.274,0.084,0.567,0.131,0.839c0.139,0.771,1.55,0.771,1.688,0c0.047-0.272,0.131-0.565,0.131-0.839
		C519.716,210.607,519.415,210.286,519,210.158"/>
	<path fill="#ACE0F9" d="M575.415,195.177c-1.835,0-1.835,2.616,0,2.616C577.251,197.793,577.251,195.177,575.415,195.177"/>
	<path fill="#ACE0F9" d="M544.637,284.65c-1.33,0-1.33,1.895,0,1.895C545.967,286.545,545.967,284.65,544.637,284.65"/>
	<path fill="#ACE0F9" d="M660.14,453.843c-0.227-0.01-0.456-0.018-0.684-0.028c-1.256-0.057-1.256,1.845,0,1.789
		c0.228-0.011,0.457-0.018,0.684-0.03C661.352,455.522,661.352,453.897,660.14,453.843"/>
	<path fill="#ACE0F9" d="M1008.729,374.175c-0.221-0.016-0.422-0.006-0.643,0.019c-0.882,0.094-0.882,1.167,0,1.262
		c0.221,0.022,0.422,0.034,0.643,0.018C1009.64,375.408,1009.64,374.239,1008.729,374.175"/>
	<path fill="#ACE0F9" d="M577.808,380.601c-0.006-0.038-0.011-0.074-0.018-0.114l-0.027-0.164c-0.123-0.771-1.565-0.771-1.687,0
		l-0.027,0.164c-0.005,0.04-0.011,0.076-0.018,0.114c-0.192,0.241-0.284,0.535-0.188,0.858c0.133,0.441,0.58,0.754,1.075,0.754
		c0.5,0,0.946-0.312,1.078-0.754C578.092,381.136,578.002,380.842,577.808,380.601"/>
	<path fill="#ACE0F9" d="M1038.144,201.266c-1.62,0-1.62,2.307,0,2.307C1039.763,203.573,1039.763,201.266,1038.144,201.266"/>
	<path fill="#ACE0F9" d="M759.072,38.265c-1.835,0-1.835,2.617,0,2.617C760.908,40.882,760.908,38.265,759.072,38.265"/>
	<path fill="#ACE0F9" d="M1119.984,340.637c-1.835,0-1.835,2.619,0,2.619C1121.821,343.256,1121.821,340.637,1119.984,340.637"/>
	<path fill="#ACE0F9" d="M569.677,253.855c-1.836,0-1.836,2.616,0,2.616C571.513,256.471,571.513,253.855,569.677,253.855"/>
	<path fill="#ACE0F9" d="M782.746,91.009c-1.836,0-1.836,2.617,0,2.617C784.581,93.626,784.581,91.009,782.746,91.009"/>
	<path fill="#ACE0F9" d="M547.436,29.915c-1.835,0-1.835,2.617,0,2.617C549.272,32.532,549.272,29.915,547.436,29.915"/>
	<path fill="#ACE0F9" d="M1043.883,31.893c-1.836,0-1.836,2.617,0,2.617S1045.719,31.893,1043.883,31.893"/>
	<path fill="#ACE0F9" d="M1277.199,102.646c0,0.971-0.857,1.759-1.915,1.759c-1.055,0-1.913-0.788-1.913-1.759
		s0.858-1.758,1.913-1.758C1276.342,100.888,1277.199,101.675,1277.199,102.646"/>
	<path fill="#ACE0F9" d="M1481.436,156.681c-0.625-0.343-1.615-0.144-1.797,0.616c-0.004,0.015-0.008,0.031-0.012,0.046
		c-0.423,0.546-0.38,1.258,0.145,1.833c0.244,0.268,0.611,0.408,0.979,0.492c1.048,0.439,2.488-0.162,2.488-1.421
		C1483.238,157.248,1482.334,156.663,1481.436,156.681"/>
	<path fill="#ACE0F9" d="M1594.336,100.491c-0.002-0.012-0.004-0.023-0.004-0.032c-0.008-0.076-0.014-0.155-0.019-0.232
		c-0.084-1.061-1.712-1.061-1.794,0c-0.005,0.057-0.009,0.114-0.013,0.172c-0.002,0.021-0.009,0.063-0.016,0.108
		c-0.251,0.535,0.264,1.249,0.925,1.249C1594.085,101.757,1594.604,101.029,1594.336,100.491"/>
	<path fill="#ACE0F9" d="M1255.517,351.584c-1.154,0-1.154,1.647,0,1.647C1256.674,353.231,1256.674,351.584,1255.517,351.584"/>
	<path fill="#ACE0F9" d="M1326.923,374.657c-1.154,0-1.154,1.647,0,1.647C1328.08,376.304,1328.08,374.657,1326.923,374.657"/>
	<path fill="#ACE0F9" d="M1096.971,320.781c-1.821,0-1.821,2.599,0,2.599C1098.793,323.38,1098.793,320.781,1096.971,320.781"/>
	<path fill="#ACE0F9" d="M1089.796,34.845c-1.439,0-1.995,1.646-1.088,2.452c0.337,0.911,1.841,0.911,2.176,0
		C1091.795,36.491,1091.236,34.845,1089.796,34.845"/>
	<path fill="#ACE0F9" d="M1092.927,210.158c-0.146-0.045-0.375-0.045-0.519,0c-0.415,0.127-0.717,0.449-0.717,0.865
		c0,0.275,0.084,0.568,0.131,0.84c0.14,0.77,1.551,0.77,1.688,0c0.048-0.272,0.131-0.565,0.131-0.84
		C1093.641,210.606,1093.341,210.285,1092.927,210.158"/>
	<path fill="#ACE0F9" d="M1149.341,195.177c-1.834,0-1.834,2.616,0,2.616C1151.177,197.793,1151.177,195.177,1149.341,195.177"/>
	<path fill="#ACE0F9" d="M1298.562,304.65c-1.329,0-1.329,1.895,0,1.895C1299.893,306.545,1299.893,304.65,1298.562,304.65"/>
	<path opacity="0.6" fill="#ACE0F9" d="M1424.064,393.843c-0.227-0.01-0.456-0.018-0.683-0.028c-1.256-0.057-1.256,1.845,0,1.789
		c0.227-0.011,0.456-0.018,0.683-0.03C1425.278,395.522,1425.278,393.897,1424.064,393.843"/>
	<path opacity="0.6" fill="#ACE0F9" d="M1582.654,404.175c-0.221-0.016-0.423-0.006-0.644,0.019c-0.881,0.094-0.881,1.167,0,1.262
		c0.221,0.022,0.423,0.034,0.644,0.018C1583.564,405.408,1583.564,404.239,1582.654,404.175"/>
	<path opacity="0.6" fill="#ACE0F9" d="M1627.784,345.035c-0.221-0.016-0.423-0.006-0.644,0.018c-0.881,0.094-0.881,1.167,0,1.262
		c0.221,0.022,0.423,0.034,0.644,0.018C1628.694,346.268,1628.694,345.099,1627.784,345.035"/>
	<path fill="#ACE0F9" d="M1331.733,430.601c-0.006-0.038-0.011-0.074-0.017-0.114l-0.027-0.164c-0.124-0.771-1.565-0.771-1.687,0
		l-0.027,0.164c-0.007,0.04-0.012,0.076-0.019,0.114c-0.192,0.241-0.285,0.535-0.188,0.858c0.131,0.441,0.58,0.754,1.075,0.754
		c0.5,0,0.946-0.312,1.077-0.754C1332.018,431.136,1331.927,430.842,1331.733,430.601"/>
	<path opacity="0.6" fill="#ACE0F9" d="M1140.733,499.279c-1.604,0-1.604,2.287,0,2.287
		C1142.337,501.566,1142.337,499.279,1140.733,499.279"/>
	<path fill="#ACE0F9" d="M1612.069,201.266c-1.62,0-1.62,2.307,0,2.307C1613.688,203.573,1613.688,201.266,1612.069,201.266"/>
	<path fill="#ACE0F9" d="M1332.996,38.265c-1.834,0-1.834,2.616,0,2.616C1334.834,40.881,1334.834,38.265,1332.996,38.265"/>
	<path fill="#ACE0F9" d="M1580.591,484.607c-1.835,0-1.835,2.617,0,2.617C1582.427,487.225,1582.427,484.607,1580.591,484.607"/>
	<path opacity="0.6" fill="#ACE0F9" d="M1543.198,330.658c-1.835,0-1.835,2.619,0,2.619
		C1545.035,333.277,1545.035,330.658,1543.198,330.658"/>
	<path fill="#ACE0F9" d="M1143.603,253.854c-1.836,0-1.836,2.616,0,2.616C1145.437,256.47,1145.437,253.854,1143.603,253.854"/>
	<path fill="#ACE0F9" d="M1356.671,91.008c-1.835,0-1.835,2.617,0,2.617S1358.506,91.008,1356.671,91.008"/>
	<path fill="#ACE0F9" d="M1121.362,29.915c-1.836,0-1.836,2.617,0,2.617S1123.198,29.915,1121.362,29.915"/>
	<path fill="#ACE0F9" d="M1091.948,497.136c-1.835,0-1.835,2.616,0,2.616C1093.785,499.752,1093.785,497.136,1091.948,497.136"/>
	<path fill="#ACE0F9" d="M1617.809,31.893c-1.836,0-1.836,2.616,0,2.616S1619.645,31.893,1617.809,31.893"/>
	<path fill="#ACE0F9" d="M1570.299,102.646c0,0.971-0.856,1.759-1.914,1.759c-1.055,0-1.913-0.788-1.913-1.759
		c0-0.971,0.858-1.758,1.913-1.758C1569.442,100.888,1570.299,101.675,1570.299,102.646"/>
	<path fill="#ACE0F9" d="M1774.535,156.681c-0.625-0.343-1.615-0.143-1.797,0.616c-0.004,0.015-0.007,0.031-0.011,0.046
		c-0.424,0.546-0.381,1.258,0.144,1.833c0.244,0.267,0.611,0.408,0.979,0.491c1.049,0.44,2.489-0.162,2.489-1.42
		C1776.339,157.249,1775.433,156.664,1774.535,156.681"/>
	<path fill="#ACE0F9" d="M1887.436,100.492c-0.002-0.011-0.003-0.023-0.005-0.032c-0.007-0.076-0.013-0.154-0.018-0.231
		c-0.084-1.062-1.71-1.062-1.794,0c-0.004,0.056-0.007,0.113-0.012,0.171c-0.003,0.021-0.01,0.063-0.017,0.108
		c-0.251,0.536,0.264,1.249,0.925,1.249C1887.186,101.758,1887.704,101.029,1887.436,100.492"/>
	<path opacity="0.6" fill="#ACE0F9" d="M1548.616,351.584c-1.153,0-1.153,1.647,0,1.647
		C1549.774,353.231,1549.774,351.584,1548.616,351.584"/>
	<path fill="#ACE0F9" d="M1390.07,330.781c-1.822,0-1.822,2.599,0,2.599S1391.893,330.781,1390.07,330.781"/>
	<path fill="#ACE0F9" d="M1382.896,34.845c-1.438,0-1.996,1.646-1.087,2.453c0.336,0.911,1.84,0.911,2.175,0
		C1384.895,36.491,1384.337,34.845,1382.896,34.845"/>
	<path fill="#ACE0F9" d="M1386.025,210.158c-0.145-0.045-0.374-0.045-0.518,0c-0.416,0.127-0.717,0.449-0.717,0.865
		c0,0.274,0.085,0.567,0.131,0.839c0.14,0.771,1.551,0.771,1.689,0c0.047-0.272,0.13-0.565,0.13-0.839
		C1386.741,210.607,1386.44,210.286,1386.025,210.158"/>
	<path fill="#ACE0F9" d="M1442.44,195.177c-1.835,0-1.835,2.616,0,2.616C1444.277,197.793,1444.277,195.177,1442.44,195.177"/>
	<path fill="#ACE0F9" d="M1591.662,304.65c-1.331,0-1.331,1.895,0,1.895C1592.991,306.545,1592.991,304.65,1591.662,304.65"/>
	<path opacity="0.6" fill="#ACE0F9" d="M1707.165,473.843c-0.228-0.01-0.457-0.018-0.684-0.028c-1.257-0.057-1.257,1.845,0,1.789
		c0.227-0.011,0.456-0.018,0.684-0.03C1708.378,475.522,1708.378,473.897,1707.165,473.843"/>
	<path opacity="0.6" fill="#ACE0F9" d="M1875.755,404.175c-0.222-0.016-0.424-0.006-0.643,0.019c-0.882,0.094-0.882,1.167,0,1.262
		c0.219,0.022,0.421,0.034,0.643,0.018C1876.666,405.408,1876.666,404.239,1875.755,404.175"/>
	<path opacity="0.6" fill="#ACE0F9" d="M1624.833,430.601c-0.007-0.038-0.011-0.074-0.017-0.114l-0.027-0.164
		c-0.123-0.771-1.564-0.771-1.687,0l-0.028,0.164c-0.005,0.04-0.01,0.076-0.017,0.114c-0.193,0.241-0.284,0.535-0.188,0.858
		c0.132,0.441,0.581,0.754,1.075,0.754c0.5,0,0.946-0.312,1.078-0.754C1625.118,431.136,1625.027,430.842,1624.833,430.601"/>
	<path opacity="0.6" fill="#ACE0F9" d="M1433.834,439.279c-1.605,0-1.605,2.287,0,2.287
		C1435.437,441.566,1435.437,439.279,1433.834,439.279"/>
	<path fill="#ACE0F9" d="M1905.169,201.266c-1.62,0-1.62,2.307,0,2.307S1906.789,201.266,1905.169,201.266"/>
	<path fill="#ACE0F9" d="M1626.098,38.265c-1.835,0-1.835,2.617,0,2.617S1627.933,38.265,1626.098,38.265"/>
	<path opacity="0.6" fill="#ACE0F9" d="M1893.689,484.607c-1.835,0-1.835,2.617,0,2.617
		C1895.526,487.225,1895.526,484.607,1893.689,484.607"/>
	<path opacity="0.6" fill="#ACE0F9" d="M1836.299,350.658c-1.836,0-1.836,2.619,0,2.619
		C1838.134,353.277,1838.134,350.658,1836.299,350.658"/>
	<path fill="#ACE0F9" d="M1436.703,253.855c-1.837,0-1.837,2.616,0,2.616C1438.537,256.471,1438.537,253.855,1436.703,253.855"/>
	<path fill="#ACE0F9" d="M1649.77,91.009c-1.834,0-1.834,2.617,0,2.617C1651.606,93.626,1651.606,91.009,1649.77,91.009"/>
	<path fill="#ACE0F9" d="M1414.462,9.915c-1.835,0-1.835,2.617,0,2.617C1416.298,12.532,1416.298,9.915,1414.462,9.915"/>
	<path opacity="0.6" fill="#ACE0F9" d="M1385.049,457.136c-1.836,0-1.836,2.616,0,2.616S1386.885,457.136,1385.049,457.136"/>
	<path fill="#ACE0F9" d="M1910.908,11.893c-1.836,0-1.836,2.617,0,2.617C1912.745,14.51,1912.745,11.893,1910.908,11.893"/>
	<g id="North_Star" display="none">
		<g display="inline">
			<defs>
				<filter id="Adobe_OpacityMaskFilter" filterUnits="userSpaceOnUse" x="1265.026" y="270.961" width="13.061" height="13.064">
					<feFlood  style="flood-color:white;flood-opacity:1" result="back"/>
					<feBlend  in="SourceGraphic" in2="back" mode="normal"/>
				</filter>
			</defs>
			<mask maskUnits="userSpaceOnUse" x="1265.026" y="270.961" width="13.061" height="13.064" id="SVGID_3_">
				<g filter="url(#Adobe_OpacityMaskFilter)">
					
						<image overflow="visible" width="18" height="19" xlink:href="59C58FA03CB2248E.jpg"  transform="matrix(1 0 0 1 1262.9531 267.9717)">
					</image>
				</g>
			</mask>
			<g mask="url(#SVGID_3_)">
				<radialGradient id="SVGID_4_" cx="1271.5571" cy="277.4932" r="6.5315" gradientUnits="userSpaceOnUse">
					<stop  offset="0" style="stop-color:#FFFFFF"/>
					<stop  offset="1" style="stop-color:#000000"/>
				</radialGradient>
				<circle fill="url(#SVGID_4_)" cx="1271.557" cy="277.493" r="6.531"/>
			</g>
		</g>
		<g display="inline">
			<defs>
				<filter id="Adobe_OpacityMaskFilter_1_" filterUnits="userSpaceOnUse" x="1256.305" y="276.88" width="30.507" height="1.227">
					<feFlood  style="flood-color:white;flood-opacity:1" result="back"/>
					<feBlend  in="SourceGraphic" in2="back" mode="normal"/>
				</filter>
			</defs>
			<mask maskUnits="userSpaceOnUse" x="1256.305" y="276.88" width="30.507" height="1.227" id="SVGID_5_">
				<g filter="url(#Adobe_OpacityMaskFilter_1_)">
					
						<image overflow="visible" width="35" height="7" xlink:href="59C58FA03CB22489.jpg"  transform="matrix(1 0 0 1 1253.9531 273.9717)">
					</image>
				</g>
			</mask>
			<g mask="url(#SVGID_5_)">
				
					<radialGradient id="SVGID_6_" cx="1271.5581" cy="277.4937" r="15.1513" gradientTransform="matrix(1 0 0 0.0405 0 266.2432)" gradientUnits="userSpaceOnUse">
					<stop  offset="0" style="stop-color:#FFFFFF"/>
					<stop  offset="1" style="stop-color:#000000"/>
				</radialGradient>
				<ellipse fill="url(#SVGID_6_)" cx="1271.558" cy="277.493" rx="15.253" ry="0.613"/>
			</g>
		</g>
		<g display="inline">
			<defs>
				<filter id="Adobe_OpacityMaskFilter_2_" filterUnits="userSpaceOnUse" x="1270.943" y="262.24" width="1.229" height="30.507">
					<feFlood  style="flood-color:white;flood-opacity:1" result="back"/>
					<feBlend  in="SourceGraphic" in2="back" mode="normal"/>
				</filter>
			</defs>
			<mask maskUnits="userSpaceOnUse" x="1270.943" y="262.24" width="1.229" height="30.507" id="SVGID_7_">
				<g filter="url(#Adobe_OpacityMaskFilter_2_)">
					
						<image overflow="visible" width="7" height="35" xlink:href="59C58FA03CB2248B.jpg"  transform="matrix(1 0 0 1 1267.9531 259.9717)">
					</image>
				</g>
			</mask>
			<g mask="url(#SVGID_7_)">
				
					<radialGradient id="SVGID_8_" cx="-16.5161" cy="1286.5107" r="15.1514" gradientTransform="matrix(0 1 -0.0405 0 1323.7167 294.0098)" gradientUnits="userSpaceOnUse">
					<stop  offset="0" style="stop-color:#FFFFFF"/>
					<stop  offset="1" style="stop-color:#000000"/>
				</radialGradient>
				<ellipse fill="url(#SVGID_8_)" cx="1271.559" cy="277.494" rx="0.613" ry="15.253"/>
			</g>
		</g>
	</g>
	<g>
		<path fill="#ACE0F9" d="M727.642,403.549c-0.001-0.011-0.003-0.021-0.004-0.03c-0.007-0.074-0.013-0.15-0.018-0.225
			c-0.081-1.03-1.661-1.03-1.741,0c-0.005,0.055-0.008,0.11-0.012,0.167c-0.003,0.02-0.009,0.061-0.016,0.105
			c-0.244,0.52,0.256,1.212,0.897,1.212C727.398,404.778,727.902,404.071,727.642,403.549"/>
	</g>
	<g opacity="0.6">
		<path fill="#ACE0F9" d="M1137.989,542.848c-0.214-0.016-0.41-0.006-0.624,0.017c-0.856,0.092-0.856,1.133,0,1.225
			c0.214,0.023,0.41,0.033,0.624,0.018C1138.873,544.045,1138.873,542.91,1137.989,542.848"/>
	</g>
	<g>
		<path fill="#ACE0F9" d="M1046.401,482.047c-1.573,0-1.573,2.239,0,2.239C1047.974,484.286,1047.974,482.047,1046.401,482.047"/>
	</g>
	<g>
		<path fill="#ACE0F9" d="M652.955,498.842c-1.398,0-1.398,1.995,0,1.995C654.354,500.837,654.354,498.842,652.955,498.842"/>
	</g>
	<g>
		<path fill="#ACE0F9" d="M798.218,333.319c-1.782,0-1.782,2.539,0,2.539C800,335.858,800,333.319,798.218,333.319"/>
	</g>
	<g opacity="0.6">
		<path fill="#ACE0F9" d="M1226.914,485.641c0,0.941-0.831,1.707-1.857,1.707c-1.024,0-1.857-0.766-1.857-1.707
			c0-0.943,0.833-1.707,1.857-1.707C1226.083,483.934,1226.914,484.697,1226.914,485.641"/>
	</g>
	<g opacity="0.6">
		<path fill="#ACE0F9" d="M1325.174,548.094c-0.607-0.334-1.568-0.14-1.745,0.598c-0.004,0.015-0.007,0.029-0.011,0.045
			c-0.411,0.53-0.369,1.222,0.14,1.779c0.237,0.26,0.594,0.396,0.95,0.478c1.018,0.427,2.416-0.157,2.416-1.38
			C1326.924,548.644,1326.045,548.076,1325.174,548.094"/>
	</g>
	<g opacity="0.6">
		
			<image overflow="visible" opacity="0.3" width="21" height="21" xlink:href="59C58FA03CB2248A.png"  transform="matrix(1 0 0 1 1453 483)">
		</image>
		<g>
			<path fill="#ACE0F9" d="M1464.769,493.549c-0.001-0.012-0.003-0.022-0.004-0.031c-0.007-0.074-0.013-0.15-0.018-0.225
				c-0.081-1.03-1.661-1.03-1.741,0c-0.005,0.055-0.008,0.11-0.012,0.167c-0.003,0.021-0.009,0.062-0.016,0.105
				c-0.244,0.52,0.256,1.212,0.897,1.212C1464.525,494.777,1465.029,494.07,1464.769,493.549"/>
		</g>
	</g>
	<g>
		<path fill="#ACE0F9" d="M635.44,339.275c-1.121,0-1.121,1.6,0,1.6C636.562,340.875,636.562,339.275,635.44,339.275"/>
	</g>
	<g>
		<path fill="#ACE0F9" d="M452.843,349.662c-1.397,0-1.938,1.598-1.056,2.381c0.326,0.884,1.786,0.884,2.111,0
			C454.782,351.259,454.241,349.662,452.843,349.662"/>
	</g>
	<g opacity="0.6">
		<path fill="#ACE0F9" d="M1179.58,550.678c-0.141-0.043-0.363-0.043-0.503,0c-0.403,0.123-0.695,0.436-0.695,0.84
			c0,0.267,0.082,0.551,0.127,0.814c0.135,0.748,1.505,0.748,1.639,0c0.046-0.264,0.127-0.548,0.127-0.814
			C1180.274,551.113,1179.982,550.801,1179.58,550.678"/>
	</g>
	<g opacity="0.6">
		<path fill="#ACE0F9" d="M1234.344,536.135c-1.781,0-1.781,2.541,0,2.541C1236.126,538.676,1236.126,536.135,1234.344,536.135"/>
	</g>
	<g opacity="0.6">
		<path fill="#ACE0F9" d="M1138.759,481.066c-1.291,0-1.291,1.84,0,1.84S1140.05,481.066,1138.759,481.066"/>
	</g>
	<g opacity="0.6">
		<path fill="#ACE0F9" d="M1272.871,503.623c-0.221-0.01-0.442-0.017-0.663-0.027c-1.22-0.055-1.22,1.791,0,1.736
			c0.221-0.01,0.442-0.017,0.663-0.029C1274.049,505.252,1274.049,503.676,1272.871,503.623"/>
	</g>
	<g opacity="0.6">
		<path fill="#ACE0F9" d="M1314.536,558.557c-0.214-0.016-0.41-0.006-0.624,0.018c-0.856,0.092-0.856,1.133,0,1.225
			c0.214,0.023,0.41,0.033,0.624,0.018C1315.42,559.754,1315.42,558.619,1314.536,558.557"/>
	</g>
	<g opacity="0.6">
		<path fill="#ACE0F9" d="M1232.504,584.881c-0.006-0.037-0.011-0.072-0.017-0.111l-0.026-0.158c-0.12-0.748-1.519-0.748-1.637,0
			l-0.026,0.158c-0.006,0.039-0.011,0.074-0.018,0.111c-0.188,0.234-0.276,0.519-0.183,0.834c0.128,0.428,0.563,0.731,1.044,0.731
			c0.484,0,0.918-0.303,1.046-0.731C1232.78,585.4,1232.692,585.115,1232.504,584.881"/>
	</g>
	<g>
		
			<image overflow="visible" opacity="0.3" width="21" height="21" xlink:href="59C58FA03CB22496.png"  transform="matrix(1 0 0 1 1498 436)">
		</image>
		<g>
			<path fill="#ACE0F9" d="M1508.405,445.252c-1.573,0-1.573,2.239,0,2.239C1509.978,447.491,1509.978,445.252,1508.405,445.252"/>
		</g>
	</g>
	<g>
		<path fill="#ACE0F9" d="M1211.08,343.144c-1.781,0-1.781,2.54,0,2.54C1212.862,345.684,1212.862,343.144,1211.08,343.144"/>
	</g>
	<g opacity="0.6">
		
			<image overflow="visible" opacity="0.3" width="22" height="21" xlink:href="59C58FA03CB22499.png"  transform="matrix(1 0 0 1 1443 465)">
		</image>
		<g>
			<path fill="#ACE0F9" d="M1453.938,474.072c-1.782,0-1.782,2.541,0,2.541S1455.72,474.072,1453.938,474.072"/>
		</g>
	</g>
	<g opacity="0.6">
		<path fill="#ACE0F9" d="M1306.234,556.315c-1.781,0-1.781,2.541,0,2.541C1308.017,558.856,1308.017,556.315,1306.234,556.315"/>
	</g>
	<g>
		
			<image overflow="visible" opacity="0.3" width="21" height="21" xlink:href="59C58FA03CB22498.png"  transform="matrix(1 0 0 1 1067 337)">
		</image>
		<g>
			<path fill="#ACE0F9" d="M1077.37,346.254c-1.782,0-1.782,2.54,0,2.54C1079.151,348.794,1079.151,346.254,1077.37,346.254"/>
		</g>
	</g>
	<g opacity="0.6">
		<path fill="#ACE0F9" d="M1234.061,544.344c-1.781,0-1.781,2.54,0,2.54C1235.843,546.884,1235.843,544.344,1234.061,544.344"/>
	</g>
	<g>
		<path fill="#ACE0F9" d="M1098.338,295.656c-1.781,0-1.781,2.541,0,2.541C1100.12,298.197,1100.12,295.656,1098.338,295.656"/>
	</g>
	<g opacity="0.6">
		<path fill="#ACE0F9" d="M1522.082,581.653c0-0.008-0.002-0.016-0.002-0.022c-0.006-0.053-0.01-0.106-0.014-0.159
			c-0.057-0.731-1.177-0.731-1.233,0c-0.003,0.039-0.005,0.078-0.009,0.117c-0.002,0.016-0.006,0.045-0.011,0.075
			c-0.173,0.368,0.182,0.859,0.636,0.859C1521.91,582.524,1522.268,582.023,1522.082,581.653"/>
	</g>
	<g opacity="0.6">
		<path fill="#ACE0F9" d="M1546.714,587.574c-0.151-0.011-0.29-0.004-0.442,0.013c-0.606,0.065-0.606,0.803,0,0.868
			c0.152,0.016,0.291,0.023,0.442,0.013C1547.34,588.423,1547.34,587.619,1546.714,587.574"/>
	</g>
	<g opacity="0.6">
		<path fill="#ACE0F9" d="M1519.57,557.639c-1.262,0-1.262,1.801,0,1.801C1520.834,559.44,1520.834,557.639,1519.57,557.639"/>
	</g>
	<g opacity="0.6">
		<path fill="#ACE0F9" d="M1538.23,520.703c-1.264,0-1.264,1.8,0,1.8C1539.493,522.503,1539.493,520.703,1538.23,520.703"/>
	</g>
	<g opacity="0.6">
		<path fill="#ACE0F9" d="M1837.676,470.706c-1.264,0-1.264,1.8,0,1.8C1838.938,472.506,1838.938,470.706,1837.676,470.706"/>
	</g>
	<path opacity="0.6" fill="#ACE0F9" d="M1610.286,537.729c-1.253,0-1.253,1.787,0,1.787S1611.539,537.729,1610.286,537.729"/>
	<g opacity="0.6">
		<path fill="#ACE0F9" d="M1569.816,536.492c-0.99,0-1.373,1.133-0.748,1.688c0.23,0.627,1.266,0.627,1.496,0
			C1571.19,537.625,1570.807,536.492,1569.816,536.492"/>
	</g>
	<path opacity="0.6" fill="#ACE0F9" d="M1467.809,542.265c-1.262,0-1.262,1.8,0,1.8
		C1469.072,544.065,1469.072,542.265,1467.809,542.265"/>
	<path opacity="0.6" fill="#ACE0F9" d="M1612.174,574.418c-1.264,0-1.264,1.801,0,1.801
		C1613.437,576.219,1613.437,574.418,1612.174,574.418"/>
	<path opacity="0.6" fill="#ACE0F9" d="M1642.365,541.05c-1.263,0-1.263,1.8,0,1.8S1643.628,541.05,1642.365,541.05"/>
	<path opacity="0.6" fill="#ACE0F9" d="M1591.531,519.342c-1.263,0-1.263,1.801,0,1.801S1592.794,519.342,1591.531,519.342"/>
	<path opacity="0.6" fill="#ACE0F9" d="M1463.861,483.887c-1.263,0-1.263,1.799,0,1.799
		C1465.125,485.685,1465.125,483.887,1463.861,483.887"/>
	<path fill="#ACE0F9" d="M1657.084,463.037c-1.262,0-1.262,1.8,0,1.8C1658.348,464.837,1658.348,463.037,1657.084,463.037"/>
	<g>
		<path fill="#ACE0F9" d="M796.831,498.27c0-0.008-0.002-0.016-0.002-0.022c-0.006-0.053-0.01-0.107-0.014-0.159
			c-0.057-0.73-1.177-0.73-1.233,0c-0.003,0.038-0.005,0.077-0.009,0.118c-0.002,0.014-0.006,0.043-0.011,0.074
			c-0.173,0.368,0.182,0.859,0.636,0.859C796.659,499.141,797.017,498.64,796.831,498.27"/>
	</g>
	<g>
		<path fill="#ACE0F9" d="M821.463,504.19c-0.151-0.011-0.29-0.003-0.442,0.013c-0.606,0.066-0.606,0.803,0,0.867
			c0.152,0.018,0.291,0.025,0.442,0.014C822.089,505.039,822.089,504.236,821.463,504.19"/>
	</g>
	<path opacity="0.6" fill="#ACE0F9" d="M1065.035,564.346c-1.253,0-1.253,1.787,0,1.787S1066.288,564.346,1065.035,564.346"/>
	<path fill="#ACE0F9" d="M722.558,458.881c-1.262,0-1.262,1.8,0,1.8C723.821,460.681,723.821,458.881,722.558,458.881"/>
	<path fill="#ACE0F9" d="M1066.923,511.035c-1.264,0-1.264,1.801,0,1.801C1068.186,512.836,1068.186,511.035,1066.923,511.035"/>
	<path opacity="0.6" fill="#ACE0F9" d="M1167.114,547.666c-1.263,0-1.263,1.799,0,1.799S1168.377,547.666,1167.114,547.666"/>
	<path fill="#ACE0F9" d="M1046.28,455.958c-1.263,0-1.263,1.8,0,1.8S1047.543,455.958,1046.28,455.958"/>
	<path fill="#ACE0F9" d="M1214.575,417.839c-1.836,0-1.836,2.617,0,2.617C1216.41,420.456,1216.41,417.839,1214.575,417.839"/>
	<g>
		<path fill="#ACE0F9" d="M1254.311,415.278c-1.573,0-1.573,2.239,0,2.239C1255.883,417.518,1255.883,415.278,1254.311,415.278"/>
	</g>
	<g>
		<path fill="#ACE0F9" d="M1220.013,403.577c-1.769,0-1.769,2.522,0,2.522S1221.781,403.577,1220.013,403.577"/>
	</g>
	<g>
		<path fill="#ACE0F9" d="M1232.475,406.34c-0.99,0-1.373,1.132-0.748,1.688c0.23,0.626,1.266,0.626,1.496,0
			C1233.849,407.472,1233.465,406.34,1232.475,406.34"/>
	</g>
	<path fill="#ACE0F9" d="M1254.189,389.19c-1.263,0-1.263,1.8,0,1.8S1255.452,389.19,1254.189,389.19"/>
	<path fill="#ACE0F9" d="M676.875,546.394c-0.991,0-0.991,1.413,0,1.413C677.867,547.807,677.867,546.394,676.875,546.394"/>
	<path opacity="0.6" fill="#ACE0F9" d="M1111.833,539.654c-1.262,0-1.262,1.799,0,1.799
		C1113.097,541.453,1113.097,539.654,1111.833,539.654"/>
	<g opacity="0.6">
		
			<image overflow="visible" opacity="0.3" width="21" height="22" xlink:href="59C58FA03CB2249F.png"  transform="matrix(1 0 0 1 1487 378)">
		</image>
		<g>
			<path fill="#ACE0F9" d="M1497.555,387.544c-1.782,0-1.782,2.54,0,2.54S1499.337,387.544,1497.555,387.544"/>
		</g>
	</g>
	<path fill="#ACE0F9" d="M1612.278,286.858c-0.185-0.132-0.373-0.264-0.557-0.396c-1.022-0.731-2.059,0.863-0.975,1.5
		c0.195,0.114,0.392,0.234,0.589,0.347C1612.382,288.927,1613.267,287.565,1612.278,286.858"/>
	<path fill="#ACE0F9" d="M1769.82,373.815c-0.177-0.133-0.352-0.235-0.55-0.335c-0.789-0.401-1.374,0.499-0.688,1.058
		c0.173,0.139,0.336,0.259,0.53,0.365C1769.912,375.345,1770.549,374.365,1769.82,373.815"/>
	<path fill="#ACE0F9" d="M1683.465,361.585c-0.177-0.133-0.352-0.235-0.55-0.335c-0.789-0.401-1.374,0.499-0.688,1.058
		c0.173,0.139,0.336,0.259,0.53,0.365C1683.557,363.116,1684.193,362.136,1683.465,361.585"/>
	<path fill="#ACE0F9" d="M1760.438,335.829c-1.539-1-2.966,1.197-1.427,2.197C1760.551,339.026,1761.978,336.829,1760.438,335.829"
		/>
	<path fill="#ACE0F9" d="M1753.582,356.329c-0.968-0.628-1.865,0.753-0.897,1.381
		C1753.655,358.341,1754.553,356.96,1753.582,356.329"/>
	<path fill="#ACE0F9" d="M1815.247,310.418c-1.116-0.725-2.148,0.864-1.032,1.589
		C1815.329,312.731,1816.361,311.143,1815.247,310.418"/>
	<path fill="#ACE0F9" d="M1790.797,428.952c0.015-0.036,0.031-0.068,0.048-0.105l0.066-0.152c0.316-0.713-0.892-1.499-1.414-0.918
		l-0.113,0.122c-0.025,0.031-0.049,0.059-0.076,0.087c-0.293,0.097-0.529,0.294-0.625,0.617c-0.13,0.442,0.076,0.948,0.49,1.218
		c0.42,0.272,0.965,0.253,1.315-0.045C1790.744,429.557,1790.828,429.26,1790.797,428.952"/>
	<g>
		
			<image overflow="visible" opacity="0.3" width="21" height="22" xlink:href="59C58FA03CB2249E.png"  transform="matrix(1 0 0 1 1677 325)">
		</image>
		<g>
			<path fill="#ACE0F9" d="M1688.233,334.836c-1.494-0.971-2.878,1.159-1.383,2.13
				C1688.345,337.938,1689.729,335.807,1688.233,334.836"/>
		</g>
	</g>
	<g>
		
			<image overflow="visible" opacity="0.3" width="23" height="23" xlink:href="F98DC228C5BF487C.png"  transform="matrix(1 0 0 1 1520 484)">
		</image>
		<g>
			<path fill="#ACE0F9" d="M1533.533,495.641c0,0.942-0.831,1.707-1.857,1.707c-1.024,0-1.857-0.765-1.857-1.707
				c0-0.942,0.833-1.707,1.857-1.707C1532.702,493.934,1533.533,494.698,1533.533,495.641"/>
		</g>
	</g>
	<g>
		
			<image overflow="visible" opacity="0.3" width="23" height="23" xlink:href="F98DC228C5BF487D.png"  transform="matrix(1 0 0 1 1720 508)">
		</image>
		<g>
			<path fill="#ACE0F9" d="M1731.793,518.094c-0.607-0.333-1.568-0.139-1.745,0.598c-0.004,0.016-0.007,0.03-0.011,0.045
				c-0.411,0.531-0.369,1.223,0.14,1.779c0.237,0.26,0.594,0.396,0.95,0.478c1.018,0.426,2.416-0.158,2.416-1.381
				C1733.543,518.644,1732.664,518.077,1731.793,518.094"/>
		</g>
	</g>
	<g>
		
			<image overflow="visible" opacity="0.3" width="21" height="21" xlink:href="F98DC228C5BF487F.png"  transform="matrix(1 0 0 1 1830 523)">
		</image>
		<g>
			<path fill="#ACE0F9" d="M1841.388,533.549c-0.001-0.011-0.003-0.022-0.004-0.03c-0.007-0.074-0.013-0.15-0.018-0.225
				c-0.081-1.03-1.661-1.03-1.741,0c-0.005,0.055-0.008,0.11-0.012,0.167c-0.003,0.02-0.009,0.061-0.016,0.106
				c-0.244,0.519,0.256,1.212,0.897,1.212C1841.145,534.778,1841.648,534.071,1841.388,533.549"/>
		</g>
	</g>
	<g opacity="0.6">
		<path fill="#ACE0F9" d="M1403.593,506.627c-1.121,0-1.121,1.6,0,1.6C1404.716,508.227,1404.716,506.627,1403.593,506.627"/>
	</g>
	<g opacity="0.6">
		<path fill="#ACE0F9" d="M1249.688,566.727c-1.769,0-1.769,2.521,0,2.521S1251.456,566.727,1249.688,566.727"/>
	</g>
	<g>
		<path fill="#ACE0F9" d="M1351.616,429.824c-1.397,0-1.938,1.598-1.056,2.381c0.326,0.885,1.786,0.885,2.111,0
			C1353.556,431.422,1353.015,429.824,1351.616,429.824"/>
	</g>
	<g opacity="0.6">
		<path fill="#ACE0F9" d="M1324.654,600.006c-0.141-0.043-0.363-0.043-0.503,0c-0.403,0.123-0.695,0.435-0.695,0.84
			c0,0.267,0.082,0.551,0.127,0.815c0.135,0.748,1.505,0.748,1.639,0c0.046-0.264,0.127-0.548,0.127-0.815
			C1325.349,600.441,1325.057,600.129,1324.654,600.006"/>
	</g>
	<g opacity="0.6">
		<path fill="#ACE0F9" d="M1409.418,465.463c-1.781,0-1.781,2.541,0,2.541C1411.2,468.004,1411.2,465.463,1409.418,465.463"/>
	</g>
	<g opacity="0.6">
		<path fill="#ACE0F9" d="M1445.378,491.066c-1.291,0-1.291,1.84,0,1.84S1446.669,491.066,1445.378,491.066"/>
	</g>
	<g opacity="0.6">
		
			<image overflow="visible" opacity="0.3" width="21" height="20" xlink:href="F98DC228C5BF487B.png"  transform="matrix(1 0 0 1 1573 511)">
		</image>
		<g>
			<path fill="#ACE0F9" d="M1583.922,520.062c-0.221-0.01-0.442-0.018-0.663-0.027c-1.22-0.055-1.22,1.791,0,1.736
				c0.221-0.01,0.442-0.018,0.663-0.029C1585.1,521.691,1585.1,520.115,1583.922,520.062"/>
		</g>
	</g>
	<g opacity="0.6">
		<path fill="#ACE0F9" d="M1721.155,478.557c-0.214-0.016-0.41-0.006-0.624,0.018c-0.856,0.092-0.856,1.133,0,1.225
			c0.214,0.023,0.41,0.033,0.624,0.018C1722.039,479.754,1722.039,478.619,1721.155,478.557"/>
	</g>
	<g opacity="0.6">
		<path fill="#ACE0F9" d="M1776.641,480.574c-0.214-0.016-0.41-0.006-0.624,0.018c-0.856,0.092-0.856,1.133,0,1.225
			c0.214,0.023,0.41,0.033,0.624,0.018C1777.524,481.771,1777.524,480.636,1776.641,480.574"/>
	</g>
	<g>
		<path fill="#ACE0F9" d="M1733.845,428.164c-0.214-0.016-0.41-0.006-0.624,0.018c-0.856,0.092-0.856,1.133,0,1.225
			c0.214,0.023,0.41,0.033,0.624,0.018C1734.729,429.361,1734.729,428.226,1733.845,428.164"/>
	</g>
	<g>
		
			<image overflow="visible" opacity="0.3" width="21" height="21" xlink:href="F98DC228C5BF4864.png"  transform="matrix(1 0 0 1 1493 428)">
		</image>
		<g>
			<path fill="#ACE0F9" d="M1504,438.086c-0.006-0.037-0.011-0.072-0.017-0.111l-0.026-0.158c-0.12-0.748-1.519-0.748-1.637,0
				l-0.026,0.158c-0.006,0.039-0.011,0.074-0.018,0.111c-0.188,0.234-0.276,0.52-0.183,0.834c0.128,0.428,0.563,0.73,1.044,0.73
				c0.484,0,0.918-0.303,1.046-0.73C1504.276,438.605,1504.188,438.32,1504,438.086"/>
		</g>
	</g>
	<g opacity="0.6">
		
			<image overflow="visible" opacity="0.3" width="21" height="22" xlink:href="F98DC228C5BF4869.png"  transform="matrix(1 0 0 1 1607 380)">
		</image>
		<g>
			<path fill="#ACE0F9" d="M1618.67,390.508c-0.006-0.037-0.011-0.072-0.017-0.111l-0.026-0.158c-0.12-0.748-1.519-0.748-1.637,0
				l-0.026,0.158c-0.006,0.039-0.011,0.074-0.018,0.111c-0.188,0.234-0.276,0.52-0.183,0.834c0.128,0.428,0.563,0.73,1.044,0.73
				c0.484,0,0.918-0.303,1.046-0.73C1618.946,391.027,1618.858,390.742,1618.67,390.508"/>
		</g>
	</g>
	<g>
		
			<image overflow="visible" opacity="0.3" width="21" height="21" xlink:href="F98DC228C5BF486A.png"  transform="matrix(1 0 0 1 1609.0479 286.4741)">
		</image>
		<g>
			<path fill="#ACE0F9" d="M1620.048,296.56c-0.006-0.037-0.011-0.072-0.017-0.111l-0.026-0.158c-0.12-0.748-1.519-0.748-1.637,0
				l-0.026,0.158c-0.006,0.039-0.011,0.074-0.018,0.111c-0.188,0.234-0.276,0.52-0.183,0.834c0.128,0.428,0.563,0.73,1.044,0.73
				c0.484,0,0.918-0.303,1.046-0.73C1620.324,297.08,1620.236,296.794,1620.048,296.56"/>
		</g>
	</g>
	<g>
		
			<image overflow="visible" opacity="0.3" width="21" height="21" xlink:href="F98DC228C5BF486B.png"  transform="matrix(1 0 0 1 1848 622)">
		</image>
		<g>
			<path fill="#ACE0F9" d="M1858.603,631.374c-1.573,0-1.573,2.239,0,2.239C1860.175,633.613,1860.175,631.374,1858.603,631.374"/>
		</g>
	</g>
	<g>
		
			<image overflow="visible" opacity="0.3" width="22" height="21" xlink:href="F98DC228C5BF486E.png"  transform="matrix(1 0 0 1 1557 464)">
		</image>
		<g>
			<path fill="#ACE0F9" d="M1567.699,473.145c-1.781,0-1.781,2.539,0,2.539C1569.481,475.684,1569.481,473.145,1567.699,473.145"/>
		</g>
	</g>
	<g>
		
			<image overflow="visible" opacity="0.3" width="22" height="22" xlink:href="F98DC228C5BF486F.png"  transform="matrix(1 0 0 1 1754 521)">
		</image>
		<g>
			<path fill="#ACE0F9" d="M1764.988,530.512c-1.782,0-1.782,2.541,0,2.541S1766.771,530.512,1764.988,530.512"/>
		</g>
	</g>
	<g>
		<path fill="#ACE0F9" d="M1682.854,436.315c-1.781,0-1.781,2.541,0,2.541C1684.636,438.855,1684.636,436.315,1682.854,436.315"/>
	</g>
	<g opacity="0.6">
		<path fill="#ACE0F9" d="M1294.954,452.636c-1.782,0-1.782,2.54,0,2.54C1296.735,455.176,1296.735,452.636,1294.954,452.636"/>
	</g>
	<g opacity="0.6">
		<path fill="#ACE0F9" d="M1610.68,524.344c-1.781,0-1.781,2.541,0,2.541C1612.462,526.885,1612.462,524.344,1610.68,524.344"/>
	</g>
	<g>
		<path fill="#ACE0F9" d="M1392.258,385.624c-1.781,0-1.781,2.54,0,2.54C1394.04,388.164,1394.04,385.624,1392.258,385.624"/>
	</g>
	<path fill="#ACE0F9" d="M1130.063,395.487c-0.006-0.038-0.011-0.074-0.017-0.114l-0.027-0.164c-0.124-0.771-1.565-0.771-1.687,0
		l-0.027,0.164c-0.007,0.04-0.012,0.076-0.019,0.114c-0.192,0.241-0.285,0.535-0.188,0.858c0.131,0.441,0.58,0.754,1.075,0.754
		c0.5,0,0.946-0.312,1.077-0.754C1130.348,396.022,1130.257,395.728,1130.063,395.487"/>
	<path opacity="0.6" fill="#ACE0F9" d="M1183.379,452.022c-1.836,0-1.836,2.616,0,2.616S1185.215,452.022,1183.379,452.022"/>
	<g>
		<path fill="#ACE0F9" d="M1149.946,394.711c-1.397,0-1.938,1.598-1.056,2.381c0.326,0.885,1.786,0.885,2.111,0
			C1151.886,396.309,1151.345,394.711,1149.946,394.711"/>
	</g>
	<g>
		<path fill="#ACE0F9" d="M1093.284,447.522c-1.782,0-1.782,2.54,0,2.54C1095.065,450.062,1095.065,447.522,1093.284,447.522"/>
	</g>
	<g>
		<path fill="#ACE0F9" d="M1190.588,370.511c-1.781,0-1.781,2.54,0,2.54C1192.37,373.051,1192.37,370.511,1190.588,370.511"/>
	</g>
	<g opacity="0.6">
		<path fill="#ACE0F9" d="M1336.803,526.234c-1.782,0-1.782,2.539,0,2.539S1338.585,526.234,1336.803,526.234"/>
	</g>
	<g opacity="0.6">
		
			<image overflow="visible" opacity="0.3" width="22" height="22" xlink:href="F98DC228C5BF4889.png"  transform="matrix(1 0 0 1 1853 438)">
		</image>
		<g>
			<path fill="#ACE0F9" d="M1864.174,447.545c-1.782,0-1.782,2.539,0,2.539S1865.956,447.545,1864.174,447.545"/>
		</g>
	</g>
	<path fill="#ACE0F9" d="M64.096,587.252c-1.419,0-1.419,2.023,0,2.023C65.515,589.275,65.515,587.252,64.096,587.252"/>
	<path fill="#ACE0F9" d="M552.556,538.665c-0.005-0.03-0.009-0.058-0.013-0.09l-0.021-0.128c-0.097-0.605-1.229-0.605-1.324,0
		l-0.021,0.128c-0.006,0.032-0.009,0.06-0.015,0.09c-0.151,0.189-0.224,0.42-0.147,0.674c0.103,0.347,0.456,0.592,0.844,0.592
		c0.393,0,0.743-0.246,0.846-0.592C552.779,539.085,552.707,538.854,552.556,538.665"/>
	<path fill="#ACE0F9" d="M182.701,449.09c-1.334,0-1.334,1.901,0,1.901C184.034,450.991,184.034,449.09,182.701,449.09"/>
	<path fill="#ACE0F9" d="M483.795,639.258c-1.204,0-1.204,1.718,0,1.718C484.999,640.976,484.999,639.258,483.795,639.258"/>
	<path opacity="0.5" fill="#ACE0F9" d="M120.546,382.284c-1.526,0-1.526,2.175,0,2.175
		C122.073,384.46,122.073,382.284,120.546,382.284"/>
	<path fill="#ACE0F9" d="M390.056,351.213c-0.228-0.01-0.457-0.018-0.684-0.028c-1.257-0.057-1.257,1.845,0,1.789
		c0.227-0.011,0.456-0.018,0.684-0.03C391.269,352.892,391.269,351.268,390.056,351.213"/>
	<path fill="#ACE0F9" d="M538.906,365.179c-0.007-0.038-0.011-0.074-0.017-0.114l-0.027-0.164c-0.123-0.77-1.564-0.77-1.687,0
		l-0.028,0.164c-0.005,0.04-0.01,0.076-0.017,0.114c-0.193,0.241-0.284,0.535-0.188,0.858c0.132,0.441,0.581,0.754,1.075,0.754
		c0.5,0,0.946-0.312,1.078-0.754C539.191,365.714,539.1,365.42,538.906,365.179"/>
	<path fill="#ACE0F9" d="M437.907,393.857c-1.605,0-1.605,2.287,0,2.287C439.509,396.145,439.509,393.857,437.907,393.857"/>
	<path opacity="0.7" fill="#ACE0F9" d="M373.649,432.199c-1.056,0-1.056,1.504,0,1.504
		C374.705,433.704,374.705,432.199,373.649,432.199"/>
	<linearGradient id="SVGID_9_" gradientUnits="userSpaceOnUse" x1="38.4092" y1="592.728" x2="41.1494" y2="592.728">
		<stop  offset="0" style="stop-color:#908796"/>
		<stop  offset="0.1085" style="stop-color:#8D8493"/>
		<stop  offset="0.7419" style="stop-color:#7F7887"/>
	</linearGradient>
	<path fill="url(#SVGID_9_)" d="M41.149,592.867c-0.941,0.241-1.847,0.482-2.74,0.724l2.39-1.726
		C40.911,592.202,41.032,592.529,41.149,592.867z"/>
	<g>
		<path fill="#ACE0F9" d="M212.062,547.426c-0.214-0.016-0.41-0.006-0.624,0.018c-0.857,0.092-0.857,1.133,0,1.225
			c0.214,0.023,0.41,0.033,0.624,0.017C212.946,548.623,212.946,547.488,212.062,547.426"/>
	</g>
	<g>
		<path fill="#ACE0F9" d="M154.844,590.722c-1.216,0-1.216,1.731,0,1.731C156.06,592.453,156.06,590.722,154.844,590.722"/>
	</g>
	<g opacity="0.7">
		<path fill="#ACE0F9" d="M373.926,440.002c0,0.541-0.478,0.981-1.068,0.981c-0.589,0-1.068-0.44-1.068-0.981
			c0-0.543,0.479-0.982,1.068-0.982C373.448,439.021,373.926,439.46,373.926,440.002"/>
	</g>
	<g>
		<path fill="#ACE0F9" d="M831.762,373.575c-0.607-0.334-1.568-0.14-1.745,0.598c-0.004,0.015-0.007,0.029-0.011,0.045
			c-0.411,0.53-0.369,1.222,0.14,1.779c0.237,0.26,0.594,0.396,0.95,0.477c1.018,0.427,2.416-0.157,2.416-1.38
			C833.512,374.125,832.633,373.557,831.762,373.575"/>
	</g>
	<g opacity="0.5">
		<path fill="#ACE0F9" d="M41.056,458.29c-1.47,0-1.47,2.096,0,2.096C42.526,460.387,42.526,458.29,41.056,458.29"/>
	</g>
	<g>
		<path fill="#ACE0F9" d="M219.14,541.174c-0.141-0.043-0.363-0.043-0.503,0c-0.403,0.123-0.695,0.436-0.695,0.84
			c0,0.267,0.082,0.551,0.127,0.814c0.135,0.748,1.505,0.748,1.639,0c0.046-0.264,0.127-0.548,0.127-0.814
			C219.834,541.609,219.542,541.297,219.14,541.174"/>
	</g>
	<g>
		<path fill="#ACE0F9" d="M344.512,595.533c-1.489,0-1.489,2.123,0,2.123C346.001,597.656,346.001,595.533,344.512,595.533"/>
	</g>
	<g>
		<path fill="#ACE0F9" d="M212.831,425.645c-1.291,0-1.291,1.84,0,1.84C214.123,427.484,214.123,425.645,212.831,425.645"/>
	</g>
	<g opacity="0.7">
		<path fill="#ACE0F9" d="M360.898,458.928c-0.127-0.006-0.254-0.01-0.381-0.016c-0.701-0.031-0.701,1.03,0,0.999
			c0.127-0.005,0.254-0.01,0.381-0.017C361.575,459.865,361.575,458.958,360.898,458.928"/>
	</g>
	<g>
		<path fill="#ACE0F9" d="M371.605,564.158c-0.167-0.014-0.32-0.006-0.487,0.013c-0.668,0.071-0.668,0.884,0,0.956
			c0.167,0.017,0.321,0.025,0.487,0.014C372.295,565.092,372.295,564.206,371.605,564.158"/>
	</g>
	<g>
		<path fill="#ACE0F9" d="M326.257,611.201c-0.005-0.031-0.009-0.061-0.014-0.094l-0.022-0.132c-0.101-0.625-1.27-0.625-1.368,0
			l-0.022,0.132c-0.005,0.033-0.009,0.062-0.015,0.094c-0.157,0.195-0.231,0.434-0.153,0.697c0.107,0.358,0.471,0.61,0.872,0.61
			c0.405,0,0.768-0.253,0.875-0.61C326.488,611.635,326.415,611.396,326.257,611.201"/>
	</g>
	<g>
		
			<image overflow="visible" opacity="0.3" width="21" height="21" xlink:href="F98DC228C5BF488A.png"  transform="matrix(1 0 0 1 502.0728 390.5781)">
		</image>
		<g>
			<path fill="#ACE0F9" d="M512.478,399.83c-1.573,0-1.573,2.239,0,2.239C514.05,402.069,514.05,399.83,512.478,399.83"/>
		</g>
	</g>
	<g>
		<path fill="#ACE0F9" d="M365.127,562.407c-1.39,0-1.39,1.982,0,1.982C366.519,564.39,366.519,562.407,365.127,562.407"/>
	</g>
	<g>
		<path fill="#ACE0F9" d="M243.13,568.902c-0.144-0.085-0.285-0.144-0.444-0.201c-0.632-0.227-0.985,0.506-0.416,0.861
			c0.143,0.088,0.278,0.162,0.433,0.225C243.345,570.043,243.731,569.245,243.13,568.902"/>
	</g>
	<g>
		<path fill="#ACE0F9" d="M254.457,547.043c-1.251-0.605-2.114,1.18-0.862,1.785C254.847,549.433,255.709,547.648,254.457,547.043"
			/>
	</g>
	<g>
		<path fill="#ACE0F9" d="M327.484,581.074c-1.389,0-1.389,1.98,0,1.98C328.875,583.055,328.875,581.074,327.484,581.074"/>
	</g>
	<g>
		<path fill="#ACE0F9" d="M580.737,613.698c0-0.006-0.001-0.012-0.001-0.017c-0.004-0.041-0.008-0.084-0.011-0.125
			c-0.044-0.573-0.924-0.573-0.968,0c-0.002,0.03-0.004,0.062-0.007,0.092c-0.002,0.013-0.004,0.035-0.008,0.06
			c-0.136,0.289,0.143,0.675,0.499,0.675C580.602,614.383,580.883,613.989,580.737,613.698"/>
	</g>
	<g>
		<path fill="#ACE0F9" d="M600.075,618.347c-0.119-0.008-0.228-0.003-0.348,0.01c-0.476,0.052-0.476,0.631,0,0.682
			c0.12,0.013,0.229,0.018,0.348,0.011C600.566,619.014,600.566,618.382,600.075,618.347"/>
	</g>
	<g>
		<path fill="#ACE0F9" d="M578.765,594.845c-0.991,0-0.991,1.414,0,1.414C579.757,596.259,579.757,594.845,578.765,594.845"/>
	</g>
	<g>
		<path fill="#ACE0F9" d="M452.1,526.593c-0.992,0-0.992,1.413,0,1.413C453.091,528.006,453.091,526.593,452.1,526.593"/>
	</g>
	<g>
		<path fill="#ACE0F9" d="M751.748,425.284c-1.264,0-1.264,1.8,0,1.8C753.011,427.084,753.011,425.284,751.748,425.284"/>
	</g>
	<path fill="#ACE0F9" d="M649.985,579.215c-0.984,0-0.984,1.402,0,1.402C650.968,580.617,650.968,579.215,649.985,579.215"/>
	<g>
		<path fill="#ACE0F9" d="M618.212,578.243c-0.777,0-1.078,0.89-0.587,1.325c0.181,0.492,0.994,0.492,1.175,0
			C619.291,579.133,618.99,578.243,618.212,578.243"/>
	</g>
	<path fill="#ACE0F9" d="M504.969,612.017c-0.828,0-0.828,1.181,0,1.181C505.798,613.197,505.798,612.017,504.969,612.017"/>
	<path fill="#ACE0F9" d="M651.467,608.019c-0.992,0-0.992,1.413,0,1.413C652.458,609.432,652.458,608.019,651.467,608.019"/>
	<path fill="#ACE0F9" d="M675.169,581.821c-0.991,0-0.991,1.413,0,1.413S676.161,581.821,675.169,581.821"/>
	<path fill="#ACE0F9" d="M571.157,397.615c-1.262,0-1.262,1.8,0,1.8C572.42,399.415,572.42,397.615,571.157,397.615"/>
	<g>
		<path fill="#ACE0F9" d="M45.745,638.3c0-0.007-0.001-0.013-0.001-0.017c-0.004-0.041-0.007-0.084-0.011-0.123
			c-0.043-0.565-0.91-0.565-0.954,0c-0.002,0.029-0.003,0.06-0.007,0.091c-0.001,0.011-0.004,0.033-0.008,0.058
			c-0.133,0.284,0.141,0.664,0.492,0.664C45.612,638.973,45.889,638.586,45.745,638.3"/>
	</g>
	<g>
		<path fill="#ACE0F9" d="M64.789,642.877c-0.117-0.008-0.224-0.002-0.342,0.01c-0.469,0.052-0.469,0.621,0,0.671
			c0.118,0.014,0.225,0.019,0.342,0.011C65.273,643.533,65.273,642.912,64.789,642.877"/>
	</g>
	<g>
		<path fill="#ACE0F9" d="M28.34,604.269c-0.976,0-0.976,1.393,0,1.393C29.317,605.662,29.317,604.269,28.34,604.269"/>
	</g>
	<g>
		<path fill="#ACE0F9" d="M19.994,545.646c-1.051,0-1.051,1.496,0,1.496C21.044,547.142,21.044,545.646,19.994,545.646"/>
	</g>
	<path fill="#ACE0F9" d="M107.551,588.877c-0.968,0-0.968,1.382,0,1.382C108.52,590.259,108.52,588.877,107.551,588.877"/>
	<g>
		<path fill="#ACE0F9" d="M108.277,603.191c-0.99,0-1.373,1.132-0.748,1.688c0.23,0.626,1.266,0.626,1.496,0
			C109.651,604.323,109.268,603.191,108.277,603.191"/>
	</g>
	<path opacity="0.5" fill="#ACE0F9" d="M121.334,458.864c-1.051,0-1.051,1.497,0,1.497
		C122.384,460.361,122.384,458.864,121.334,458.864"/>
	<path fill="#ACE0F9" d="M222.31,550.87c-1.263,0-1.263,1.799,0,1.799C223.572,552.669,223.572,550.87,222.31,550.87"/>
	<path opacity="0.5" fill="#ACE0F9" d="M69.471,446.328c-1.05,0-1.05,1.497,0,1.497C70.521,447.825,70.521,446.328,69.471,446.328"
		/>
	<path fill="#ACE0F9" d="M0.732,655.488c-0.976,0-0.976,1.392,0,1.392C1.709,656.88,1.709,655.488,0.732,655.488"/>
	<path fill="#ACE0F9" d="M185.906,544.232c-1.262,0-1.262,1.799,0,1.799C187.169,546.031,187.169,544.232,185.906,544.232"/>
	<path fill="#ACE0F9" d="M704.87,383.53c0.015-0.036,0.031-0.068,0.048-0.105l0.066-0.152c0.316-0.713-0.892-1.498-1.414-0.918
		l-0.113,0.122c-0.025,0.031-0.049,0.059-0.076,0.087c-0.293,0.097-0.529,0.294-0.625,0.617c-0.13,0.442,0.076,0.948,0.49,1.218
		c0.42,0.272,0.965,0.253,1.315-0.045C704.817,384.135,704.901,383.838,704.87,383.53"/>
	<g>
		
			<image overflow="visible" opacity="0.3" width="23" height="22" xlink:href="F98DC228C5BF488B.png"  transform="matrix(1 0 0 1 697.7305 299.0142)">
		</image>
		<g>
			<path fill="#ACE0F9" d="M711.336,310.233c0,0.942-0.831,1.707-1.857,1.707c-1.024,0-1.857-0.765-1.857-1.707
				c0-0.942,0.833-1.707,1.857-1.707C710.505,308.526,711.336,309.29,711.336,310.233"/>
		</g>
	</g>
	<g>
		
			<image overflow="visible" opacity="0.3" width="15" height="15" xlink:href="F98DC228C5BF488E.png"  transform="matrix(1 0 0 1 470.0942 567.0947)">
		</image>
		<g>
			<path fill="#ACE0F9" d="M477.393,573.454c-0.398-0.218-1.029-0.091-1.145,0.393c-0.002,0.011-0.004,0.021-0.007,0.029
				c-0.27,0.349-0.242,0.802,0.092,1.168c0.156,0.17,0.39,0.26,0.623,0.314c0.668,0.279,1.586-0.104,1.586-0.905
				C478.542,573.815,477.965,573.443,477.393,573.454"/>
		</g>
	</g>
	<g>
		
			<image overflow="visible" opacity="0.3" width="21" height="21" xlink:href="F98DC228C5BF4888.png"  transform="matrix(1 0 0 1 869.498 404.6279)">
		</image>
		<g>
			<path fill="#ACE0F9" d="M880.886,415.177c-0.001-0.011-0.003-0.021-0.004-0.03c-0.007-0.074-0.013-0.15-0.018-0.225
				c-0.081-1.03-1.661-1.03-1.741,0c-0.005,0.055-0.008,0.11-0.012,0.167c-0.003,0.02-0.009,0.061-0.016,0.105
				c-0.244,0.52,0.256,1.212,0.897,1.212C880.643,416.406,881.146,415.699,880.886,415.177"/>
		</g>
	</g>
	<g>
		<path fill="#ACE0F9" d="M462.831,582.069c-0.736,0-0.736,1.05,0,1.05C463.568,583.119,463.568,582.069,462.831,582.069"/>
	</g>
	<g>
		<path fill="#ACE0F9" d="M345.048,589.106c-0.887,0-0.887,1.265,0,1.265C345.935,590.371,345.935,589.106,345.048,589.106"/>
	</g>
	<g opacity="0.7">
		<path fill="#ACE0F9" d="M353.573,433.967c-0.804,0-1.114,0.919-0.607,1.369c0.188,0.509,1.027,0.509,1.214,0
			C354.688,434.886,354.377,433.967,353.573,433.967"/>
	</g>
	<g>
		<path fill="#ACE0F9" d="M383.278,593.843c-0.118-0.036-0.304-0.036-0.42,0c-0.337,0.103-0.581,0.364-0.581,0.702
			c0,0.223,0.069,0.46,0.106,0.681c0.112,0.625,1.258,0.625,1.37,0c0.038-0.221,0.106-0.458,0.106-0.681
			C383.858,594.207,383.614,593.945,383.278,593.843"/>
	</g>
	<g opacity="0.7">
		<path fill="#ACE0F9" d="M387.661,436.987c-1.024,0-1.024,1.461,0,1.461C388.685,438.448,388.685,436.987,387.661,436.987"/>
	</g>
	<g>
		
			<image overflow="visible" opacity="0.3" width="19" height="19" xlink:href="F98DC228C5BF48B6.png"  transform="matrix(1 0 0 1 420.4775 608.4775)">
		</image>
		<g>
			<path fill="#ACE0F9" d="M430.168,616.934c-0.185-0.008-0.37-0.015-0.554-0.023c-1.02-0.046-1.02,1.497,0,1.451
				c0.184-0.009,0.37-0.015,0.554-0.024C431.152,618.295,431.152,616.977,430.168,616.934"/>
		</g>
	</g>
	<g>
		<path fill="#ACE0F9" d="M635.228,413.135c-0.214-0.016-0.41-0.006-0.624,0.018c-0.856,0.092-0.856,1.133,0,1.225
			c0.214,0.023,0.41,0.033,0.624,0.017C636.112,414.332,636.112,413.197,635.228,413.135"/>
	</g>
	<g>
		<path fill="#ACE0F9" d="M690.713,435.152c-0.214-0.016-0.41-0.006-0.624,0.018c-0.856,0.092-0.856,1.133,0,1.225
			c0.214,0.023,0.41,0.033,0.624,0.018C691.597,436.349,691.597,435.214,690.713,435.152"/>
	</g>
	<g>
		<path fill="#ACE0F9" d="M647.917,362.742c-0.214-0.016-0.41-0.006-0.624,0.018c-0.856,0.092-0.856,1.133,0,1.225
			c0.214,0.023,0.41,0.033,0.624,0.018C648.801,363.939,648.801,362.804,647.917,362.742"/>
	</g>
	<g>
		
			<image overflow="visible" opacity="0.3" width="21" height="21" xlink:href="F98DC228C5BF48B7.png"  transform="matrix(1 0 0 1 766.7715 332.6904)">
		</image>
		<g>
			<path fill="#ACE0F9" d="M777.771,342.776c-0.006-0.037-0.011-0.072-0.017-0.111l-0.026-0.158c-0.12-0.748-1.518-0.748-1.637,0
				l-0.026,0.158c-0.006,0.039-0.011,0.074-0.018,0.111c-0.188,0.234-0.276,0.52-0.183,0.834c0.128,0.428,0.563,0.73,1.044,0.73
				c0.484,0,0.918-0.303,1.046-0.73C778.048,343.296,777.96,343.011,777.771,342.776"/>
		</g>
	</g>
	<g opacity="0.6">
		
			<image overflow="visible" opacity="0.3" width="22" height="21" xlink:href="F98DC228C5BF48B8.png"  transform="matrix(1 0 0 1 957 592)">
		</image>
		<g>
			<path fill="#ACE0F9" d="M967.896,601.102c-1.573,0-1.573,2.239,0,2.239C969.469,603.342,969.469,601.102,967.896,601.102"/>
		</g>
	</g>
	<g>
		
			<image overflow="visible" opacity="0.3" width="18" height="18" xlink:href="F98DC228C5BF48BB.png"  transform="matrix(1 0 0 1 466.9341 496.9341)">
		</image>
		<g>
			<path fill="#ACE0F9" d="M475.235,504.957c-1.398,0-1.398,1.993,0,1.993C476.634,506.951,476.634,504.957,475.235,504.957"/>
		</g>
	</g>
	<g>
		
			<image overflow="visible" opacity="0.3" width="18" height="18" xlink:href="F98DC228C5BF48BE.png"  transform="matrix(1 0 0 1 621.9341 502.9341)">
		</image>
		<g>
			<path fill="#ACE0F9" d="M630.123,510.741c-1.399,0-1.399,1.995,0,1.995C631.523,512.736,631.523,510.741,630.123,510.741"/>
		</g>
	</g>
	<g>
		<path fill="#ACE0F9" d="M578.035,452.06c-1.781,0-1.781,2.541,0,2.541C579.817,454.601,579.817,452.06,578.035,452.06"/>
	</g>
	<g opacity="0.5">
		<path fill="#ACE0F9" d="M35.292,424.228c-1.481,0-1.481,2.112,0,2.112C36.773,426.34,36.773,424.228,35.292,424.228"/>
	</g>
	<path fill="#ACE0F9" d="M357.452,278.108c-1.836,0-1.836,2.616,0,2.616C359.288,280.724,359.288,278.108,357.452,278.108"/>
	<g>
		<path fill="#ACE0F9" d="M167.357,392.101c-1.782,0-1.782,2.54,0,2.54C169.138,394.641,169.138,392.101,167.357,392.101"/>
	</g>
	<g>
		<path fill="#ACE0F9" d="M430.875,510.812c-1.782,0-1.782,2.539,0,2.539S432.658,510.812,430.875,510.812"/>
	</g>
	<g>
		
			<image overflow="visible" opacity="0.3" width="22" height="22" xlink:href="F98DC228C5BF48A9.png"  transform="matrix(1 0 0 1 767.0728 392.5781)">
		</image>
		<g>
			<path fill="#ACE0F9" d="M778.247,402.123c-1.782,0-1.782,2.539,0,2.539S780.029,402.123,778.247,402.123"/>
		</g>
	</g>
	<g>
		
			<image overflow="visible" opacity="0.3" width="22" height="21" xlink:href="F98DC228C5BF4896.png"  transform="matrix(1 0 0 1 1693 343)">
		</image>
		<g>
			<path fill="#ACE0F9" d="M1704.203,352.11c-1.782,0-1.782,2.539,0,2.539S1705.985,352.11,1704.203,352.11"/>
		</g>
	</g>
	<g id="Shooting_Star_2" display="none">
		
			<image display="inline" overflow="visible" opacity="0.13" width="141" height="101" xlink:href="F98DC228C5BF489A.png"  transform="matrix(1 0 0 1 1482 144)">
		</image>
		<g display="inline">
			
				<linearGradient id="SVGID_10_" gradientUnits="userSpaceOnUse" x1="1534.4973" y1="1607.8923" x2="1672.3135" y2="1607.8923" gradientTransform="matrix(0.5919 -0.806 0.806 0.5919 -692.7783 535.0688)">
				<stop  offset="0" style="stop-color:#FFFFFF"/>
				<stop  offset="1" style="stop-color:#FFFFFF;stop-opacity:0"/>
			</linearGradient>
			<path fill="url(#SVGID_10_)" d="M1613.184,153.699c0,0-39.955,26.701-74.149,50.297c-24.439,16.866-46.569,34.134-47.607,31.171
				C1490.322,232.013,1613.184,153.699,1613.184,153.699z"/>
		</g>
	</g>
	<g id="Shooting_Star_1" display="none">
		
			<image display="inline" overflow="visible" opacity="0.13" width="53" height="57" xlink:href="F98DC228C5BF489D.png"  transform="matrix(1 0 0 1 104.5024 435.5024)">
		</image>
		<g display="inline">
			
				<linearGradient id="SVGID_11_" gradientUnits="userSpaceOnUse" x1="553.4814" y1="691.0599" x2="614.9142" y2="691.0599" gradientTransform="matrix(0.4301 -0.9028 0.9028 0.4301 -744.1446 694.1987)">
				<stop  offset="0" style="stop-color:#FFFFFF"/>
				<stop  offset="1" style="stop-color:#FFFFFF;stop-opacity:0"/>
			</linearGradient>
			<path fill="url(#SVGID_11_)" d="M152.934,440.431c0,0-13.291,15.116-23.325,25.837c-6.032,6.445-20.485,22.832-20.491,21.263
				C109.113,486.562,152.934,440.431,152.934,440.431z"/>
		</g>
	</g>
	<path opacity="0.07" fill="#706C85" d="M1324.835,612h48.59c0,0,5.694-1.958,15.564,7.912L1400.377,632h58.08
		c0,0,9.68-2.633,18.221,5.908c8.541,8.541,21.638,21.092,21.638,21.092h20.879l7.972,8.689c0,0,5.047,2.76-4.176,11.982
		c-9.223,9.223-17.842,14.329-17.842,14.329h-11.768l-14.805,14h-73.265c0,0-7.213,1.271-15.564-7.08l-11.009-11.322l-137.039-0.347
		c0,0-1.708,0.966-9.49-6.816l-7.592-6.065c0,0-5.315-3.033,2.278-6.829l14.425-12.705c0,0-1.518-2.835,13.666-2.835h13.666
		l18.601-26h19.36l9.111-12.176C1315.724,615.824,1317.622,612,1324.835,612z"/>
	<path opacity="0.1" fill="#706C85" d="M646.828,562H582.66c0,0-7.52-2.263-20.554,8.272L547.067,583h-76.701
		c0,0-12.783-4.219-24.063,4.897C435.024,597.013,417.729,609,417.729,609h-27.572l-10.528,10.09c0,0-6.665,3.36,5.514,13.203
		C397.323,642.136,408.705,648,408.705,648h15.541l19.551,15h96.753c0,0,9.525,1.322,20.554-7.592l14.538-12.102l180.974-0.379
		c0,0,2.256,1.026,12.533-7.28l10.026-6.476c0,0,7.018-3.238-3.008-7.29l-19.05-13.209c0,0,2.005-2.674-18.047-2.674h-18.047
		l-24.564-28h-25.567l-12.031-12.457C658.86,565.543,656.353,562,646.828,562z"/>
	<path opacity="0.1" fill="#706C85" d="M554.201,672.456l19.971-18.514c0,0,3.643-3.942,11.719-3.942c8.076,0,60.571,0,60.571,0
		s7.111-0.008,12.29,5.171l8.252,7.15c0,0,2.897,2.171,0,5.067c-2.897,2.897-14.046,13.661-14.046,13.661s-1.58,2.951-9.481,2.951
		s-74.266,0-74.266,0s-1.931,0.461-5.794-3.402L554.201,672.456z"/>
	<path opacity="0.06" fill="#706C85" d="M48.39,737.878l32.981-32.138c0,0,0.632-3.74,10.235-3.74s73.29,0,73.29,0
		s4.296-0.483,7.582,2.699c3.285,3.183,6.571,6.609,6.571,6.609l2.022,2.692h53.578c0,0,3.791-0.852,4.296,1.596
		c0.505,2.448,20.976,20.75,20.976,20.75l33.865,0.093c0,0,7.582-0.321,7.329,2.372l27.042,26.441L304.906,789H25.392
		l-35.887-34.191c0,0-2.022,0.286,2.022-3.631s9.836-9.31,9.836-9.31s5.089-3.97,8.866-4.368L48.39,737.878z"/>
	<polygon opacity="0.06" fill="#706C85" points="167.846,689.581 176.732,680 200.429,680 216.79,695.32 204.66,709 186.888,709 	
		"/>
	<path opacity="0.06" fill="#706C85" d="M1742.763,570.091l23.249-19.111c0,0,4.241-3.98,13.643-3.98c9.402,0,70.514,0,70.514,0
		s8.278-0.122,14.307,5.256l9.606,7.368c0,0,3.372,2.226,0,5.234c-3.372,3.008-16.351,13.631-16.351,13.631
		s-1.839,2.511-11.037,2.511c-9.197,0-86.456,0-86.456,0s-2.248,1.017-6.745-2.993L1742.763,570.091z"/>
	<path opacity="0.06" fill="#706C85" d="M1807.833,659h-49.538c0,0-5.805,1.874-15.868-7.101L1730.817,641h-59.213
		c0,0-9.869,3.171-18.577-4.596c-8.708-7.767-22.06-18.404-22.06-18.404h-21.286l-8.127-8.505c0,0-5.145-2.794,4.257-11.181
		c9.402-8.387,18.19-13.314,18.19-13.314h11.997l15.094-13h74.694c0,0,7.353-1.039,15.868,6.556l11.223,10.354l139.712,0.344
		c0,0,1.742-0.863,9.675,6.213l7.74,5.523c0,0,5.418,2.761-2.322,6.213l-14.706,11.385c0,0,1.548,2.41-13.932,2.41h-13.932
		l-18.964,24h-19.738l-9.288,10.797C1817.121,655.797,1815.186,659,1807.833,659z"/>
	<path opacity="0.09" fill="#706C85" d="M1078.15,509.063l31.949-26.932c0,0,0.612-3.131,9.915-3.131s70.999,0,70.999,0
		s4.162-0.409,7.345,2.259c3.183,2.667,6.365,5.012,6.365,5.012l1.959,1.729h51.902c0,0,3.672-0.189,4.162,1.862
		c0.49,2.052,20.32,17.654,20.32,17.654l32.806,0.209c0,0,7.345-0.203,7.1,2.054l26.196,22.239L1326.645,552h-270.774
		l-34.765-28.701c0,0-1.959,0.218,1.959-3.065c3.917-3.283,9.528-7.814,9.528-7.814s4.929-3.333,8.589-3.667L1078.15,509.063z"/>
	<polygon opacity="0.08" fill="#706C85" points="440.539,584.107 428.242,569.093 401.693,568.952 383.269,586.303 396.777,601.927 
		416.689,602.032 	"/>
	<polygon opacity="0.08" fill="#706C85" points="1382.251,705.866 1373.287,696.375 1348.876,695.878 1331.716,710.553 
		1343.939,724.193 1362.247,724.566 	"/>
</g>
<g id="Hills" display="none">
	<g id="Windmill" display="inline">
		<polygon fill="#777589" points="1324.614,854 589.951,854 957.28,538.725 		"/>
		<polygon fill="#777589" points="1029.525,1080 240.229,1080 634.874,713.98 		"/>
		<polygon fill="#777589" points="1660.465,1080 871.17,1080 1265.815,708.513 		"/>
		<polygon fill="#777589" points="624.12,813 1237.759,813 930.942,1076.339 		"/>
		<polygon fill="#575469" points="1633.178,1067 536.951,1067 1085.061,804.467 		"/>
		<polygon fill="#575469" points="960.136,885.876 947.382,830.491 933.9,885.876 		"/>
		<polygon fill="#575469" points="991.624,897.003 976.944,833.25 961.425,897.003 		"/>
		<polygon fill="#777589" points="740.525,1080 0.229,1080 370.374,808.98 		"/>
		<polygon fill="#777589" points="1851.525,1047 1111.229,1047 1481.374,775.98 		"/>
		<polygon fill="#575469" points="861.463,943.366 846.783,879.613 831.265,943.366 		"/>
		<polygon fill="#575469" points="837.032,967.331 822.352,903.579 806.833,967.331 		"/>
		<polygon fill="#575469" points="755.579,1006.12 740.899,942.368 725.38,1006.12 		"/>
		<polygon fill="#575469" points="1191.5,881.693 1178.746,826.307 1165.264,881.693 		"/>
		<polygon fill="#575469" points="1124.004,832.16 1111.251,776.774 1097.769,832.16 		"/>
		<polygon fill="#575469" points="1214.487,893.819 1201.734,838.433 1188.252,893.819 		"/>
		<polygon fill="#575469" points="983.178,1080 69.652,1080 526.412,897.467 		"/>
		<polygon fill="#575469" points="454.468,974.052 439.788,910.299 424.269,974.052 		"/>
		<polygon fill="#575469" points="467.943,976.546 453.263,912.793 437.744,976.546 		"/>
		<polygon fill="#575469" points="559.736,957.572 545.056,893.819 529.537,957.572 		"/>
		<polygon fill="#575469" points="575.408,957.572 560.728,893.819 545.209,957.572 		"/>
		<polygon fill="#575469" points="632.486,979.584 617.806,915.832 602.287,979.584 		"/>
	</g>
	<g id="Layer_4" display="inline">
		<g>
			
				<image overflow="visible" opacity="0.41" width="92" height="98" xlink:href="F98DC228C5BF489E.png"  transform="matrix(1 0 0 1 1065.3544 331.3075)">
			</image>
			<g>
				<path fill="#FFFFFF" d="M1088.622,397.934c4.266,4.251,10.015,7.052,16.493,7.53c14.381,1.062,26.901-9.737,27.965-24.12
					c0.963-13.061-7.859-24.591-20.257-27.392c5.208,5.186,8.209,12.528,7.625,20.435c-1.062,14.382-13.577,25.182-27.961,24.12
					C1091.167,398.411,1089.876,398.218,1088.622,397.934z"/>
			</g>
		</g>
	</g>
	<linearGradient id="SVGID_12_" gradientUnits="userSpaceOnUse" x1="959.9998" y1="1000" x2="959.9998" y2="768.8407">
		<stop  offset="0" style="stop-color:#4F413E"/>
		<stop  offset="0.5546" style="stop-color:#3D3A43;stop-opacity:0.8336"/>
		<stop  offset="1" style="stop-color:#333646;stop-opacity:0.7"/>
	</linearGradient>
	<path fill="url(#SVGID_12_)" d="M0.001,770.641c9.004-1.093,17.753,1.382,26.371,1.273c2.555-0.032,12.098-3.058,14.633-3.073
		c3.515-0.022,6.853,4.044,10.071,4.181c4.143,0.177,14.086-2.742,17.955-2.692c5.975,0.077,11.48,5.725,16.166,6.581
		c5.426,0.991,10.093-2.736,18.562-1.744c5.535,0.648,16.135-3.685,21.787-4.397c10.643-1.34,16.469-0.014,27.388,0.027
		c17.904,0.066,36.058,6.402,54.062,5.669c29.677-1.209,38.574,21.528,70.214,23.012c2.836,0.133,5.538,4.687,8.137,5.56
		c4.224,1.419,17.174,1.467,20.98,3.813c2.562,1.58,4.686,8.379,6.563,10.262c7.341,7.363,10.9,11.006,22.125,12.874
		c6.547,1.09,15.477-2.832,24.975-3.082c4.581-0.12,9.294,3.282,13.937,3.82c7.356,0.854,14.534-0.95,20.725-0.95
		c3.588,0,7.04-2.944,10.383-2.838c4.944,0.158,9.648-3.481,14.192-2.967c3.28,0.372,6.478-3.082,9.622-2.409
		c3.403,0.729,6.745-1.241,10.062-0.029c2.417,0.884,12.823-3.042,15.23-1.856c5.592,2.754,6.198,7.359,10.004,11.571
		c3.807,4.212,10.814,8.029,17.208,9.205c2.934,0.539,12.822-3.091,15.673-2.863c8.398,0.67,15.816,5.484,22.933,4.895
		c7.901-0.654,15.433,1.963,23.524-0.311c8.214-2.307,27.349-9.653,27.349-9.653s13.394,7.792,20.142,7.697
		c23.318-0.327,46.955-2.127,70.075-2.861c4.391-0.14,8.763-4.097,13.11-3.799c2.987,0.205,7.897-2.093,10.744-1.238
		c2.45,0.735,4.511,6.099,6.473,7.443c2.779,1.905,5.361-0.226,8.572-0.224c11.905,0.008,23.023,3.089,34.482,0.242
		c5.8-1.442,11.688-7.294,17.809-10.291c6.507-3.185,13.278-3.533,20.489-5.519c25.791-7.104,11.723-3.195,37.277,1.643
		c2.116,0.401,13.442-4.157,16.014-3.676c5.15,0.965,10.114,4.667,14.97,5.144c4.682,0.46,12.264-1.479,16.817-1.688
		c13.659-0.627,24.057-1.688,39.098-3.753c3.048-0.418,5.944-3.16,8.719-2.52c3.781,0.873,10.338-2.926,13.751-0.702
		c4.103,2.673,4.998,11.38,8.822,11.851c4.588,0.566,9.074,5.594,13.697,5.444c5.548-0.179,11.292,7.137,17.643,5.819
		c6.352-1.317,13.312-11.268,21.291-9.977c6.316,1.02,13.027-2.975,19.994-3.201c6.967-0.227,14.19,3.315,21.531,3.409
		c2.854,0.036,5.727-1.995,8.607-2.106c3.105-0.121,6.222,2.757,9.339,2.65c5.337-0.183,10.676,2.483,15.966,1.982
		c6.113-0.581,12.16-5.166,18.062-5.678c6.543-0.567,12.907-4.267,18.986-5.088c2.65-0.358,5.205,3.266,7.68,2.877
		c3.911-0.613,7.62,2.808,11.189,2.27c7.312-1.104,14.037-6.399,20.701-7.623c5.105-0.936,10.174,2.603,15.444,2.451
		c2.14-0.061,4.312,2.77,6.534,2.545c2.742-0.278,5.56,1.075,8.481,0.333c6.586-1.672,13.703-5.832,21.693-5.361
		c1.962,0.116,8.456-4.661,14.353-6.128c4.484-1.116,8.623,0.947,10.16,1.158c3.67,0.505,7.312-2.528,10.933-1.69
		c4.104,0.95,8.182,5.734,12.241,5.495c5.984-0.354,11.931-4.481,17.864-3.291c4.503,0.902,8.999,7.008,13.501,8.422
		c5.738,1.803,11.484,9.498,17.264,10.916c7.957,1.953,15.979-1.065,24.129,0.876c8.022,1.909,16.171,8.475,24.506,9.481
		c39.031,4.711,80.812,4.076,121.262,4.12c47.875,0.052,98.982-6.29,144.975-16.578c11.809-2.642,24.748-6.235,37.838-8.519
		c22.98-4.009,26.555,1.608,44.992,4.182c39.439,5.506,81.453-6.133,123.879-5.209c49.121,1.068,117.066,4.391,117.066,4.391V1000
		L0,999.836L0.001,770.641z"/>
	<g id="Layer_9" display="inline">
		<linearGradient id="SVGID_13_" gradientUnits="userSpaceOnUse" x1="1470.201" y1="951.2672" x2="1470.201" y2="706.6196">
			<stop  offset="0" style="stop-color:#192028"/>
			<stop  offset="0.9946" style="stop-color:#313540"/>
		</linearGradient>
		<polygon fill="url(#SVGID_13_)" points="1528.144,951.267 1471.811,706.62 1412.258,951.267 		"/>
		<linearGradient id="SVGID_14_" gradientUnits="userSpaceOnUse" x1="1584.8052" y1="878.2608" x2="1584.8052" y2="633.6133">
			<stop  offset="0" style="stop-color:#192028"/>
			<stop  offset="0.9946" style="stop-color:#313540"/>
		</linearGradient>
		<polygon fill="url(#SVGID_14_)" points="1642.748,878.261 1586.415,633.613 1526.862,878.261 		"/>
		<linearGradient id="SVGID_15_" gradientUnits="userSpaceOnUse" x1="1734.5076" y1="906.2672" x2="1734.5076" y2="661.6196">
			<stop  offset="0" style="stop-color:#192028"/>
			<stop  offset="0.9946" style="stop-color:#313540"/>
		</linearGradient>
		<polygon fill="url(#SVGID_15_)" points="1792.45,906.267 1736.117,661.62 1676.565,906.267 		"/>
		<linearGradient id="SVGID_16_" gradientUnits="userSpaceOnUse" x1="1703.194" y1="796.8713" x2="1703.194" y2="796.8713">
			<stop  offset="0" style="stop-color:#292536"/>
			<stop  offset="0.9946" style="stop-color:#353142"/>
		</linearGradient>
		<path fill="url(#SVGID_16_)" d="M1703.194,796.871"/>
		<linearGradient id="SVGID_17_" gradientUnits="userSpaceOnUse" x1="1709.774" y1="799.0039" x2="1709.774" y2="795.7536">
			<stop  offset="0" style="stop-color:#292536"/>
			<stop  offset="0.9946" style="stop-color:#353142"/>
		</linearGradient>
		<path fill="url(#SVGID_17_)" d="M1703.194,796.871c0,0,2.57-3.194,9.479,1.217c2.681,1.182,3.389,0.786,3.681,0.915"/>
		<linearGradient id="SVGID_18_" gradientUnits="userSpaceOnUse" x1="182.7008" y1="1028.5909" x2="182.7008" y2="783.9434">
			<stop  offset="0" style="stop-color:#192028"/>
			<stop  offset="0.9946" style="stop-color:#313540"/>
		</linearGradient>
		<polygon fill="url(#SVGID_18_)" points="240.644,1028.591 184.31,783.943 124.758,1028.591 		"/>
		<linearGradient id="SVGID_19_" gradientUnits="userSpaceOnUse" x1="324.6317" y1="1073.5909" x2="324.6317" y2="828.9434">
			<stop  offset="0" style="stop-color:#192028"/>
			<stop  offset="0.9946" style="stop-color:#313540"/>
		</linearGradient>
		<polygon fill="url(#SVGID_19_)" points="382.575,1073.591 326.241,828.943 266.689,1073.591 		"/>
	</g>
	<linearGradient id="SVGID_20_" gradientUnits="userSpaceOnUse" x1="960.0217" y1="1080" x2="960.0217" y2="790.91">
		<stop  offset="0" style="stop-color:#292536"/>
		<stop  offset="0.9946" style="stop-color:#353142"/>
	</linearGradient>
	<path display="inline" fill="url(#SVGID_20_)" d="M1586.096,791.503c-2.65,1.867-12.856,1.411-27.07,1.12
		c-3.697-0.076-7.665-2.006-11.842-1.675c-3.316,0.263-6.765,3.609-10.312,4.07c-3.147,0.408-6.374,3.86-9.658,4.365
		c-2.825,0.435-5.693,3.881-8.59,4.34c-4.289,0.68-8.64-0.579-13.008,0.235c-5.928,1.106-11.888,10.152-17.767,11.111
		c-4.847,0.79-9.639,2.85-14.312,1.992c-3.28-0.602-9.644-4.055-9.644-4.055s-15.028,4.459-21.481,5.573
		c-1.024,0.177-3.995,5.863-8.487,8.418c-4.454,2.532-10.403,2.919-17.434,5.535c-7.03,2.616-15.143,7.462-23.921,10.914
		c-17.154,6.747-36.855,7.943-56.01,16.769c-11.426,5.265-22.659,13.533-33.041,19.181c-1.897,1.032-3.767,0.044-5.604,1.025
		c-1.367,0.729-2.716,5.39-4.045,5.964c-2.586,1.117-5.098,3.932-7.523,3.533c-2.599-0.428-5.098-1.101-7.481-0.682
		c-3.092,0.543-5.992,2.121-8.668,3.238c-5.296,2.213-7.712,4.059-10.993,4.432c-3.283,0.372-7.432-0.729-8.192-0.413
		c-2.231,0.927-4.473-1.142-6.724-0.206c-2.615,1.086-5.244,5.177-7.885,6.272c-2.498,1.036-5.006,2.791-7.525,2.482
		c-2.52-0.311-5.049-2.686-7.588-1.909c-1.638,0.501-3.279,3.064-4.924,3.748c-1.758,0.731-3.521-0.864-5.287-1.714
		c-2.734-1.314-5.479,2.766-8.232,4.208c-2.652,1.39-5.313,4.788-7.982,7.504c-5.463,5.558-10.959,8.441-16.483,10.714
		c-11.949,4.916-24.027,4.897-36.17,9.918c-7.767,3.212-14.562,2.451-22.371,5.712c-4.202,1.754-15.735,6.514-23.125,8.28
		c-2.061,0.492-5.799,3.985-6.966,4.479c-1.896,0.801-7.789-1.108-9.681,1.488c-4.336,5.956-2.661,7.571-6.973,9.392
		c-2.004,0.847-11.044,2.604-13.001,3.536c-2.811,1.34-17.624,14.137-28.208,18.602c-10.769,4.543-21.361,8.356-31.717,10.99
		c-1.934,0.491-3.858-3.884-5.774-3.063c-3.151,1.349-6.279-0.423-9.383,2.092c-6.203,5.026-12.307,15.195-18.297,17.762
		c-25.027,10.724-48.066,20.609-68.123,29.225c-3.094-0.567-6.559-0.768-10.571-0.768c-6.611,0-12.773-2.36-15.059-3.176
		c-4.799-1.711-5.512-2.646-14.326,3.176c-4.671,3.085-52.66,9.676-77.779,13.742c-15.125,2.449-88.295-3.498-100.143-10.466
		c-11.85-6.968-46.968-17.579-58.188-12.37c-29.827,13.85-75.892,6.978-80.667,7.507c-4.774,0.529-19.835-0.529-19.835-0.529
		s-2.204,0.264-3.673,1.588c-1.47,1.323-8.814,2.646-12.488,1.323c-3.673-1.323-12.857-8.997-16.897-12.438
		c-4.04-3.439-10.652-3.705-11.753-0.528c-1.103,3.175-1.47,4.763-5.51,7.145c-4.041,2.381-16.529,3.97-16.529,3.97
		s-3.46,4.627-11.473,7.017v0.106c-1.839,0.626-3.806,1.008-5.009,0.287c-2.205-1.324-5.51,1.586-8.816,1.586
		c-3.306,0-6.35-6.455-10.846-7.58c-4.497-1.124-4.947,3.875-9.723,4.141c-4.775,0.264-15.427-0.266-19.835-2.117
		c-4.408-1.853-9.55-2.382-16.161-2.382c-6.611,0-12.773-2.36-15.06-3.176c-4.797-1.711-5.511-2.646-14.326,3.176
		c-4.67,3.085-46.574-3.243-89.074,10.923c-14.537,4.845-39.513,3.091-51.362-3.877c-11.848-6.969-32.565-8.633-38.074-10.751
		c-5.51-2.116-9.917-1.851-14.325-1.587c-4.409,0.265-12.856-1.059-17.998-3.439c-5.143-2.382-9.55-1.588-13.223,0.529
		c-3.672,2.117-16.896,6.086-21.671,6.615c-4.774,0.529-19.835-0.529-19.835-0.529s-2.204,0.264-3.672,1.588
		c-1.47,1.323-8.815,2.646-12.488,1.323c-3.674-1.323-12.856-8.997-16.896-12.438c-4.041-3.439-10.652-3.705-11.754-0.528
		c-1.102,3.175-1.469,4.763-5.509,7.145c-4.041,2.381-16.53,3.97-16.53,3.97s-3.46,4.627-11.473,7.017V1080h443.661h0.308h375.569
		h0.568h219.239H1920V794.244c-5.998-0.577-20,2.9-26.107,2.9c-2.631,0-2.224,0.189-11.297,1.276
		c-2.934,0.352-8.682-2.684-12.3-3.752c-1.213-0.357-7.452,0.305-8.717-0.006c-1.959-0.482-8.907,2.058-10.82,1.629
		c-3.967-0.889-11.584,0.263-14.548-0.482c-2.84-0.714-7.02-3.272-8.25-3.601c-4.702-1.254-5.564,2.357-7.396,4.955
		c-0.808,1.145-1.805,1.289-3.402,2.097c-1.18,0.596-5.534,1.009-7.16,1.106c-2.119,0.124-1.455,0.717-4.998,0.63
		c-0.829-0.021-1.89,0.867-3.271,0.622c-1.357-0.24-3.025-3.505-5.088-3.792c-0.828-0.115-6.7-0.234-7.618-0.357
		c-1.61-0.215-4.354-2.42-6.243-2.609c-0.888-0.089-4.803,0.823-5.745,0.737c-3.408-0.311-7.176-2.555-11.347-2.699
		c-3.784-0.131-28.595,5.731-32.39,5.589c-2.548-0.096-5.088-2.184-7.609-2.262c-2.256-0.07-7.485,2.857-9.678,2.779
		c-3.314-0.115-6.545-3.216-9.656-3.299c-2.407-0.063-4.743,2.873-6.992,2.809c-3.729-0.106-9.199,3.751-12.332,3.565
		c-8.964-0.529-15.173-5.154-16.801-5.884c-8.143-3.65-17.641-4.692-29.854-4.692"/>
	<linearGradient id="SVGID_21_" gradientUnits="userSpaceOnUse" x1="466.9502" y1="1080" x2="466.9502" y2="935.795">
		<stop  offset="0" style="stop-color:#292536"/>
		<stop  offset="0.9946" style="stop-color:#363243"/>
	</linearGradient>
	<path display="inline" fill="url(#SVGID_21_)" d="M28.486,945.961c2.871,0,2.426,0.132,12.327,0.897
		c3.201,0.247,9.473-1.886,13.42-2.637c1.324-0.251,8.131,0.215,9.511-0.004c2.138-0.338,9.719,1.446,11.806,1.145
		c4.329-0.624,12.64,0.185,15.874-0.339c3.099-0.502,7.659-2.3,9.002-2.53c5.131-0.881,6.072,1.656,8.071,3.482
		c0.881,0.805,1.969,0.905,3.712,1.474c1.288,0.418,6.039,0.708,7.813,0.776c2.312,0.087,1.587,0.504,5.454,0.442
		c0.904-0.014,2.062,0.609,3.568,0.438c1.481-0.169,3.301-2.463,5.551-2.665c0.904-0.081,7.311-0.164,8.312-0.251
		c1.757-0.151,4.751-1.7,6.812-1.834c0.969-0.062,5.241,0.579,6.269,0.518c3.719-0.219,7.83-1.795,12.38-1.896
		c4.129-0.093,31.201,4.027,35.341,3.927c2.78-0.067,5.552-1.534,8.303-1.589c2.461-0.05,8.167,2.007,10.56,1.953
		c3.617-0.081,7.142-2.26,10.536-2.318c2.627-0.045,5.176,2.019,7.629,1.974c4.069-0.075,10.038,2.636,13.456,2.506
		c9.781-0.372,16.556-3.622,18.332-4.135c8.885-2.565,19.249-3.298,32.574-3.298c13.328,0,25.748-3.269,30.355-4.398
		c9.671-2.369,11.107-3.663,28.876,4.398c2.892,1.312,14.028,0.992,29.537,0.787c4.034-0.054,8.364-1.409,12.921-1.177
		c3.619,0.185,7.381,2.536,11.252,2.86c3.434,0.287,6.955,2.713,10.538,3.067c3.082,0.306,6.212,2.728,9.372,3.05
		c4.68,0.478,9.427-0.407,14.193,0.165c6.468,0.777,12.971,7.135,19.386,7.809c5.288,0.556,10.517,2.003,15.616,1.4
		c3.579-0.423,7.094-2.925,10.522-2.85c8.466,0.187,16.398,3.134,23.439,3.917c1.118,0.124,4.359,4.12,9.261,5.915
		c4.86,1.779,11.351,2.052,19.022,3.89c7.671,1.839,16.523,5.244,26.101,7.67c18.718,4.741,40.214,5.582,61.114,11.784
		c16.444,4.879,32.519,14.479,46.58,18.391c9.765,2.715,18.558,2.323,25.83,4.279c11.558,3.109,19.272,2.379,20.934,2.824
		c5.262,1.408,10.577,2.83,15.939,4.263c7.207,1.925,14.498,2.47,21.863,4.441c13.597,3.641,27.441,9.439,41.447,13.149
		c13.038,3.455,26.217,3.442,39.466,6.97c8.475,2.258,15.89,1.723,24.41,4.014c5.864,1.577,24.811,3.161,30.651,4.75
		c6.81,1.854,30.174,26.635,30.174,26.635H0V943.923C6.544,943.517,21.823,945.961,28.486,945.961z"/>
	<path display="inline" fill="#24222D" d="M1547.184,790.948c0,0,49.733,26.802,81.483,47.052c0,0-7.417-32.5-6.023-46.542
		L1547.184,790.948"/>
	<path display="inline" fill="#24222D" d="M1443.671,818.271"/>
	<path display="inline" fill="#24222D" d="M1497.06,809.276c-7.034,6.109-7.716,5.349-7.716,5.349l-9.235,2.165l-1.734,0.295
		l26.257,16.165C1504.633,833.25,1492.63,819.711,1497.06,809.276z"/>
	<path display="inline" fill="#24222D" d="M1716.354,799.004L1716.354,799.004c0,0,0.681,0.128,5.882-1.917c0.378-0.136,0,0,0,0
		s2.31-0.948,3.732-0.846l0,0c0,0,1.32-0.034,3.934,1.284c2.614,1.318,0,0,0,0s2.432,1.357,5.531,0.783s7.157-1.233,10.466-1.893
		c3.309-0.66,12.637-2.49,12.637-2.49s5.826-1.295,7.819-0.987c-2.703,16.337-2.703,36.005-2.703,36.005l-47.636-29.94"/>
	<path display="inline" fill="#24222D" d="M283.635,943.073c0,0,9.109-0.82,11.359-0.897c0,0-10.41,9.908-10.16,10.991
		C285.083,954.25,283.635,943.073,283.635,943.073z"/>
	<path display="inline" fill="#24222D" d="M144.937,945.695l4.783-1.34l6.269,0.518l11.388-1.85c0,0,7.75,0.079,35.124,3.841
		c0,0,2.776,0.14,9.512-1.549c0,0,4.433,0.532,9.897,1.921c0,0-56.514,18.181-87.911,34.264L144.937,945.695z"/>
</g>
<g id="Vignette">
	
		<radialGradient id="SVGID_22_" cx="962.7169" cy="540" r="780.6858" gradientTransform="matrix(0.9673 -0.2419 0.1688 0.6792 -62.3873 406.1305)" gradientUnits="userSpaceOnUse">
		<stop  offset="0" style="stop-color:#504F64"/>
		<stop  offset="0.4707" style="stop-color:#333447"/>
		<stop  offset="1" style="stop-color:#0E1122"/>
	</radialGradient>
	<rect opacity="0.6" fill="url(#SVGID_22_)" width="1920" height="1080"/>
</g>
<g id="Navigation" display="none">
	<g id="Hamburger_Icon">
		<rect x="1822.675" y="43.049" display="inline" fill="#FFFFFF" width="51.776" height="7.745"/>
		<rect x="1822.675" y="77.061" display="inline" fill="#FFFFFF" width="51.776" height="7.745"/>
		<rect x="1822.675" y="60.255" display="inline" fill="#FFFFFF" width="51.776" height="7.745"/>
	</g>
	
		<text transform="matrix(1 0 0 1 1209.9238 75.7725)" display="inline" fill="#FFFFFF" font-family="'MyriadPro-Regular'" font-size="24">HOW IT WORKS</text>
	<text transform="matrix(1 0 0 1 1416.5332 75.7725)" display="inline"><tspan x="0" y="0" fill="#FFFFFF" font-family="'MyriadPro-Regular'" font-size="24">ABOUT</tspan><tspan x="71.687" y="0" fill="#FFFFFF" font-family="'MyriadPro-Regular'" font-size="24" letter-spacing="-4">	</tspan></text>
	
		<text transform="matrix(1 0 0 1 1541.1377 75.7725)" display="inline" fill="#FFFFFF" font-family="'MyriadPro-Regular'" font-size="24">CONTACT</text>
	<g id="jssptO.tif" display="inline">
		
			<image overflow="visible" width="172" height="41" id="Layer_0_1_" xlink:href="F98DC228C5BF489C.png"  transform="matrix(1.2714 0 0 1.2714 60 33.412)">
		</image>
	</g>
	<path display="inline" fill="none" stroke="#FFFFFF" stroke-width="2" stroke-miterlimit="10" d="M1866.517,77.774
		c0,6.627-5.373,12-12,12h-146.501c-6.627,0-12-5.373-12-12V52.882c0-6.627,5.373-12,12-12h146.501c6.627,0,12,5.373,12,12V77.774z"
		/>
	<text transform="matrix(1 0 0 1 1745 72)" display="inline" fill="#FFFFFF" font-family="'MyriadPro-Regular'" font-size="24">SIGN IN</text>
</g>
</svg>
