<?xml version="1.0" encoding="utf-8"?>
<!-- Generator: Adobe Illustrator 17.0.2, SVG Export Plug-In . SVG Version: 6.00 Build 0)  -->
<!DOCTYPE svg PUBLIC "-//W3C//DTD SVG 1.1//EN" "http://www.w3.org/Graphics/SVG/1.1/DTD/svg11.dtd">
<svg version="1.1" id="Layer_1" xmlns="http://www.w3.org/2000/svg" xmlns:xlink="http://www.w3.org/1999/xlink" x="0px" y="0px"
	 width="1920px" height="1080px" viewBox="0 0 1920 1080" enable-background="new 0 0 1920 1080" xml:space="preserve">
<g id="Sky">
	
		<linearGradient id="SVGID_1_" gradientUnits="userSpaceOnUse" x1="1216" y1="-345" x2="1216" y2="735" gradientTransform="matrix(-1 0 0 1 2177.425 344.517)">
		<stop  offset="0" style="stop-color:#AA929F"/>
		<stop  offset="0.2801" style="stop-color:#988594"/>
		<stop  offset="0.8394" style="stop-color:#6A6479"/>
		<stop  offset="1" style="stop-color:#5B5970"/>
	</linearGradient>
	<linearGradient id="SVGID_2_" gradientUnits="userSpaceOnUse" x1="0.925" y1="539.517" x2="1921.925" y2="539.517">
		<stop  offset="0" style="stop-color:#AA929F"/>
		<stop  offset="0.1289" style="stop-color:#B69EB1"/>
		<stop  offset="0.1776" style="stop-color:#BBA3B9"/>
		<stop  offset="0.3695" style="stop-color:#B2ACC6"/>
		<stop  offset="0.7094" style="stop-color:#817D95"/>
		<stop  offset="1" style="stop-color:#5B5970"/>
	</linearGradient>
	<rect x="1.425" y="-0.483" fill="url(#SVGID_1_)" stroke="url(#SVGID_2_)" stroke-miterlimit="10" width="1920" height="1080"/>
	
		<linearGradient id="SVGID_4_" gradientUnits="userSpaceOnUse" x1="1217.425" y1="-344.517" x2="1217.425" y2="735.483" gradientTransform="matrix(-1 0 0 1 2177.425 344.517)">
		<stop  offset="0" style="stop-color:#AA929F"/>
		<stop  offset="0.1289" style="stop-color:#B69EB1"/>
		<stop  offset="0.1776" style="stop-color:#BBA3B9"/>
		<stop  offset="0.3695" style="stop-color:#B2ACC6"/>
		<stop  offset="0.7094" style="stop-color:#817D95"/>
		<stop  offset="1" style="stop-color:#5B5970"/>
	</linearGradient>
	<linearGradient id="SVGID_6_" gradientUnits="userSpaceOnUse" x1="-0.5" y1="540" x2="1920.5" y2="540">
		<stop  offset="0" style="stop-color:#AA929F"/>
		<stop  offset="0.1289" style="stop-color:#B69EB1"/>
		<stop  offset="0.1776" style="stop-color:#BBA3B9"/>
		<stop  offset="0.3695" style="stop-color:#B2ACC6"/>
		<stop  offset="0.7094" style="stop-color:#817D95"/>
		<stop  offset="1" style="stop-color:#5B5970"/>
	</linearGradient>
	
		<rect x="0" y="0" display="none" fill="url(#SVGID_4_)" stroke="url(#SVGID_6_)" stroke-miterlimit="10" width="1920" height="1080"/>
</g>
<g id="Stars">
	<path fill="#ACE0F9" d="M1697.202,554.235c0-0.971,0.856-1.759,1.913-1.759c1.055,0,1.914,0.788,1.914,1.759
		c0,0.97-0.858,1.758-1.914,1.758C1698.058,555.993,1697.202,555.205,1697.202,554.235"/>
	<path fill="#ACE0F9" d="M1492.964,500.2c0.626,0.343,1.616,0.143,1.798-0.616c0.004-0.015,0.007-0.031,0.011-0.046
		c0.424-0.546,0.38-1.259-0.143-1.833c-0.245-0.268-0.612-0.408-0.979-0.492c-1.049-0.439-2.489,0.162-2.489,1.421
		C1491.162,499.632,1492.067,500.217,1492.964,500.2"/>
	<path fill="#ACE0F9" d="M1380.065,556.389c0.002,0.012,0.004,0.023,0.004,0.032c0.007,0.077,0.013,0.155,0.018,0.231
		c0.083,1.062,1.711,1.062,1.794,0c0.005-0.057,0.008-0.113,0.012-0.172c0.002-0.021,0.009-0.063,0.016-0.108
		c0.252-0.535-0.263-1.249-0.924-1.249C1380.316,555.124,1379.797,555.851,1380.065,556.389"/>
	<path fill="#ACE0F9" d="M1718.884,305.298c1.155,0,1.155-1.648,0-1.648C1717.726,303.65,1717.726,305.298,1718.884,305.298"/>
	<path opacity="0.5" fill="#ACE0F9" enable-background="new    " d="M1877.429,306.1c1.821,0,1.821-2.599,0-2.599
		C1875.608,303.502,1875.608,306.1,1877.429,306.1"/>
	<path fill="#ACE0F9" d="M1884.604,622.036c1.44,0,1.996-1.646,1.088-2.453c-0.335-0.911-1.84-0.911-2.175,0
		C1882.606,620.39,1883.163,622.036,1884.604,622.036"/>
	<path fill="#ACE0F9" d="M1881.475,446.723c0.145,0.044,0.374,0.044,0.518,0c0.415-0.127,0.717-0.449,0.717-0.865
		c0-0.274-0.085-0.567-0.131-0.839c-0.139-0.771-1.55-0.771-1.688,0c-0.046,0.272-0.13,0.565-0.13,0.839
		C1880.759,446.274,1881.06,446.596,1881.475,446.723"/>
	<path fill="#ACE0F9" d="M1825.06,461.704c1.834,0,1.834-2.617,0-2.617C1823.223,459.087,1823.223,461.704,1825.06,461.704"/>
	<path fill="#ACE0F9" d="M1595.796,274.456c1.33,0,1.33-1.895,0-1.895S1594.466,274.456,1595.796,274.456"/>
	<path fill="#ACE0F9" d="M1597.673,175.699c0.227,0.01,0.455,0.019,0.683,0.029c1.256,0.057,1.256-1.845,0-1.791
		c-0.228,0.012-0.456,0.02-0.683,0.031C1596.459,174.022,1596.459,175.645,1597.673,175.699"/>
	<path fill="#ACE0F9" d="M1481.746,282.707c0.221,0.016,0.422,0.005,0.643-0.019c0.882-0.095,0.882-1.167,0-1.262
		c-0.221-0.022-0.422-0.034-0.643-0.019C1480.835,281.473,1480.835,282.641,1481.746,282.707"/>
	<path opacity="0.5" fill="#ACE0F9" enable-background="new    " d="M1840.973,239.713c0.006,0.039,0.011,0.075,0.017,0.115
		l0.027,0.162c0.124,0.77,1.565,0.77,1.687,0l0.027-0.162c0.006-0.04,0.012-0.076,0.019-0.115c0.193-0.24,0.285-0.535,0.188-0.859
		c-0.132-0.439-0.581-0.752-1.076-0.752c-0.499,0-0.946,0.312-1.078,0.752C1840.689,239.178,1840.779,239.473,1840.973,239.713"/>
	<path fill="#ACE0F9" d="M1878.112,44.535c1.241,0,1.241-1.769,0-1.769C1876.872,42.767,1876.872,44.535,1878.112,44.535"/>
	<path fill="#ACE0F9" d="M1362.331,455.615c1.621,0,1.621-2.308,0-2.308C1360.712,453.307,1360.712,455.615,1362.331,455.615"/>
	<path fill="#ACE0F9" d="M1641.403,618.616c1.835,0,1.835-2.617,0-2.617C1639.567,615.999,1639.567,618.616,1641.403,618.616"/>
	<path fill="#ACE0F9" d="M1073.685,380.081c1.835,0,1.835-2.617,0-2.617C1071.849,377.464,1071.849,380.081,1073.685,380.081"/>
	<path fill="#ACE0F9" d="M1830.798,403.026c1.836,0,1.836-2.616,0-2.616C1828.963,400.41,1828.963,403.026,1830.798,403.026"/>
	<path fill="#ACE0F9" d="M1617.73,565.872c1.835,0,1.835-2.617,0-2.617C1615.894,563.256,1615.894,565.872,1617.73,565.872"/>
	<path fill="#ACE0F9" d="M1853.039,646.965c1.835,0,1.835-2.616,0-2.616C1851.203,644.349,1851.203,646.965,1853.039,646.965"/>
	<path fill="#ACE0F9" d="M1900.366,38.46c1.42,0,1.42-2.021,0-2.021C1898.947,36.439,1898.947,38.46,1900.366,38.46"/>
	<path fill="#ACE0F9" d="M1356.592,644.987c1.836,0,1.836-2.616,0-2.616C1354.756,642.371,1354.756,644.987,1356.592,644.987"/>
	<path fill="#ACE0F9" d="M1218.152,554.234c0-0.971,0.856-1.759,1.914-1.759c1.055,0,1.913,0.788,1.913,1.759
		s-0.858,1.758-1.913,1.758C1219.008,555.992,1218.152,555.205,1218.152,554.234"/>
	<path fill="#ACE0F9" d="M1013.914,500.199c0.625,0.343,1.616,0.143,1.798-0.616c0.004-0.015,0.007-0.031,0.011-0.046
		c0.424-0.546,0.38-1.258-0.144-1.833c-0.244-0.267-0.612-0.408-0.978-0.491c-1.049-0.44-2.489,0.162-2.489,1.42
		C1012.112,499.631,1013.017,500.216,1013.914,500.199"/>
	<path fill="#ACE0F9" d="M901.015,556.388c0.002,0.011,0.003,0.023,0.004,0.032c0.006,0.076,0.014,0.154,0.018,0.231
		c0.084,1.062,1.713,1.062,1.795,0c0.005-0.056,0.008-0.113,0.013-0.171c0.003-0.021,0.009-0.063,0.016-0.108
		c0.251-0.536-0.263-1.249-0.925-1.249C901.265,555.122,900.747,555.851,901.015,556.388"/>
	<path fill="#ACE0F9" d="M1640.027,45.556c1.155,0,1.155-1.647,0-1.647C1638.87,43.908,1638.87,45.556,1640.027,45.556"/>
	<path fill="#ACE0F9" d="M1719.75,199.08c1.515,0,1.515-2.161,0-2.161S1718.235,199.08,1719.75,199.08"/>
	<path fill="#ACE0F9" d="M1405.554,622.035c1.44,0,1.997-1.646,1.087-2.453c-0.335-0.911-1.84-0.911-2.175,0
		C1403.556,620.389,1404.114,622.035,1405.554,622.035"/>
	<path fill="#ACE0F9" d="M1402.425,446.722c0.145,0.045,0.374,0.045,0.518,0c0.415-0.127,0.716-0.449,0.716-0.865
		c0-0.274-0.084-0.567-0.131-0.839c-0.139-0.771-1.55-0.771-1.688,0c-0.047,0.272-0.131,0.565-0.131,0.839
		C1401.709,446.273,1402.01,446.594,1402.425,446.722"/>
	<path fill="#ACE0F9" d="M1346.01,461.703c1.835,0,1.835-2.616,0-2.616C1344.174,459.087,1344.174,461.703,1346.01,461.703"/>
	<path fill="#ACE0F9" d="M1376.788,372.23c1.33,0,1.33-1.895,0-1.895C1375.458,370.335,1375.458,372.23,1376.788,372.23"/>
	<path fill="#ACE0F9" d="M1261.285,203.037c0.227,0.01,0.456,0.018,0.684,0.028c1.256,0.057,1.256-1.845,0-1.789
		c-0.228,0.011-0.457,0.018-0.684,0.03C1260.073,201.358,1260.073,202.983,1261.285,203.037"/>
	<path fill="#ACE0F9" d="M912.696,282.705c0.221,0.016,0.422,0.006,0.643-0.019c0.882-0.094,0.882-1.167,0-1.262
		c-0.221-0.022-0.422-0.034-0.643-0.018C911.785,281.472,911.785,282.641,912.696,282.705"/>
	<path fill="#ACE0F9" d="M1343.617,276.279c0.006,0.038,0.011,0.074,0.018,0.114l0.027,0.164c0.123,0.771,1.565,0.771,1.687,0
		l0.027-0.164c0.005-0.04,0.011-0.076,0.018-0.114c0.192-0.241,0.284-0.535,0.188-0.858c-0.133-0.441-0.58-0.754-1.075-0.754
		c-0.5,0-0.946,0.312-1.078,0.754C1343.333,275.744,1343.423,276.038,1343.617,276.279"/>
	<path fill="#ACE0F9" d="M883.281,455.614c1.62,0,1.62-2.307,0-2.307C881.662,453.307,881.662,455.614,883.281,455.614"/>
	<path fill="#ACE0F9" d="M1162.353,618.615c1.835,0,1.835-2.617,0-2.617C1160.517,615.998,1160.517,618.615,1162.353,618.615"/>
	<path fill="#ACE0F9" d="M801.441,316.243c1.835,0,1.835-2.619,0-2.619C799.604,313.624,799.604,316.243,801.441,316.243"/>
	<path fill="#ACE0F9" d="M1351.748,403.025c1.836,0,1.836-2.616,0-2.616C1349.912,400.409,1349.912,403.025,1351.748,403.025"/>
	<path fill="#ACE0F9" d="M1138.679,565.871c1.836,0,1.836-2.617,0-2.617C1136.844,563.254,1136.844,565.871,1138.679,565.871"/>
	<path fill="#ACE0F9" d="M1373.989,626.965c1.835,0,1.835-2.617,0-2.617C1372.153,624.348,1372.153,626.965,1373.989,626.965"/>
	<path fill="#ACE0F9" d="M877.542,624.987c1.836,0,1.836-2.617,0-2.617S875.706,624.987,877.542,624.987"/>
	<path fill="#ACE0F9" d="M644.226,554.234c0-0.971,0.857-1.759,1.915-1.759c1.055,0,1.913,0.788,1.913,1.759
		s-0.858,1.758-1.913,1.758C645.083,555.992,644.226,555.205,644.226,554.234"/>
	<path fill="#ACE0F9" d="M439.989,500.199c0.625,0.343,1.615,0.144,1.797-0.616c0.004-0.015,0.008-0.031,0.012-0.046
		c0.423-0.546,0.38-1.258-0.145-1.833c-0.244-0.268-0.611-0.408-0.979-0.492c-1.048-0.439-2.488,0.162-2.488,1.421
		C438.187,499.632,439.091,500.217,439.989,500.199"/>
	<path fill="#ACE0F9" d="M327.089,556.389c0.002,0.012,0.004,0.023,0.004,0.032c0.008,0.076,0.014,0.155,0.019,0.232
		c0.084,1.061,1.712,1.061,1.794,0c0.005-0.057,0.009-0.114,0.013-0.172c0.002-0.021,0.009-0.063,0.016-0.108
		c0.251-0.535-0.264-1.249-0.925-1.249C327.34,555.123,326.821,555.851,327.089,556.389"/>
	<path fill="#ACE0F9" d="M665.908,305.296c1.154,0,1.154-1.647,0-1.647C664.751,303.649,664.751,305.296,665.908,305.296"/>
	<path fill="#ACE0F9" d="M594.502,282.223c1.154,0,1.154-1.647,0-1.647C593.345,280.576,593.345,282.223,594.502,282.223"/>
	<path fill="#ACE0F9" d="M824.454,336.099c1.821,0,1.821-2.599,0-2.599C822.632,333.5,822.632,336.099,824.454,336.099"/>
	<path fill="#ACE0F9" d="M831.629,622.035c1.439,0,1.995-1.646,1.088-2.452c-0.337-0.911-1.841-0.911-2.176,0
		C829.63,620.389,830.189,622.035,831.629,622.035"/>
	<path fill="#ACE0F9" d="M828.498,446.722c0.146,0.045,0.375,0.045,0.519,0c0.415-0.127,0.717-0.449,0.717-0.865
		c0-0.275-0.084-0.568-0.131-0.84c-0.14-0.77-1.551-0.77-1.688,0c-0.048,0.272-0.131,0.565-0.131,0.84
		C827.784,446.274,828.084,446.595,828.498,446.722"/>
	<path fill="#ACE0F9" d="M772.084,461.703c1.834,0,1.834-2.616,0-2.616C770.248,459.087,770.248,461.703,772.084,461.703"/>
	<path fill="#ACE0F9" d="M622.863,352.23c1.329,0,1.329-1.895,0-1.895C621.532,350.335,621.532,352.23,622.863,352.23"/>
	<path opacity="0.6" fill="#ACE0F9" enable-background="new    " d="M497.361,263.037c0.227,0.01,0.456,0.018,0.683,0.028
		c1.256,0.057,1.256-1.845,0-1.789c-0.227,0.011-0.456,0.018-0.683,0.03C496.147,261.358,496.147,262.983,497.361,263.037"/>
	<path opacity="0.6" fill="#ACE0F9" enable-background="new    " d="M338.771,252.705c0.221,0.016,0.423,0.006,0.644-0.019
		c0.881-0.094,0.881-1.167,0-1.262c-0.221-0.022-0.423-0.034-0.644-0.018C337.861,251.472,337.861,252.641,338.771,252.705"/>
	<path opacity="0.6" fill="#ACE0F9" enable-background="new    " d="M293.641,311.845c0.221,0.016,0.423,0.006,0.644-0.018
		c0.881-0.094,0.881-1.167,0-1.262c-0.221-0.022-0.423-0.034-0.644-0.018C292.731,310.612,292.731,311.781,293.641,311.845"/>
	<path fill="#ACE0F9" d="M589.692,226.279c0.006,0.038,0.011,0.074,0.017,0.114l0.027,0.164c0.124,0.771,1.565,0.771,1.687,0
		l0.027-0.164c0.007-0.04,0.012-0.076,0.019-0.114c0.192-0.241,0.285-0.535,0.188-0.858c-0.131-0.441-0.58-0.754-1.075-0.754
		c-0.5,0-0.946,0.312-1.077,0.754C589.407,225.744,589.498,226.038,589.692,226.279"/>
	<path opacity="0.6" fill="#ACE0F9" enable-background="new    " d="M780.692,157.601c1.604,0,1.604-2.287,0-2.287
		C779.088,155.314,779.088,157.601,780.692,157.601"/>
	<path fill="#ACE0F9" d="M309.356,455.614c1.62,0,1.62-2.307,0-2.307C307.737,453.307,307.737,455.614,309.356,455.614"/>
	<path fill="#ACE0F9" d="M588.429,618.615c1.834,0,1.834-2.616,0-2.616C586.591,615.999,586.591,618.615,588.429,618.615"/>
	<path fill="#ACE0F9" d="M340.834,172.273c1.835,0,1.835-2.617,0-2.617C338.998,169.655,338.998,172.273,340.834,172.273"/>
	<path opacity="0.6" fill="#ACE0F9" enable-background="new    " d="M378.227,326.222c1.835,0,1.835-2.619,0-2.619
		C376.39,323.603,376.39,326.222,378.227,326.222"/>
	<path fill="#ACE0F9" d="M777.822,403.026c1.836,0,1.836-2.616,0-2.616C775.988,400.41,775.988,403.026,777.822,403.026"/>
	<path fill="#ACE0F9" d="M564.754,565.872c1.835,0,1.835-2.617,0-2.617S562.919,565.872,564.754,565.872"/>
	<path fill="#ACE0F9" d="M800.063,626.965c1.836,0,1.836-2.617,0-2.617S798.227,626.965,800.063,626.965"/>
	<path fill="#ACE0F9" d="M829.477,159.744c1.835,0,1.835-2.616,0-2.616C827.64,157.128,827.64,159.744,829.477,159.744"/>
	<path fill="#ACE0F9" d="M303.616,624.987c1.836,0,1.836-2.616,0-2.616S301.78,624.987,303.616,624.987"/>
	<path fill="#ACE0F9" d="M351.126,554.234c0-0.971,0.856-1.759,1.914-1.759c1.055,0,1.913,0.788,1.913,1.759
		s-0.858,1.758-1.913,1.758C351.983,555.992,351.126,555.205,351.126,554.234"/>
	<path fill="#ACE0F9" d="M146.89,500.199c0.625,0.343,1.615,0.143,1.797-0.616c0.004-0.015,0.007-0.031,0.011-0.046
		c0.424-0.546,0.381-1.258-0.144-1.833c-0.244-0.267-0.611-0.408-0.979-0.491c-1.049-0.44-2.489,0.162-2.489,1.42
		C145.086,499.631,145.992,500.216,146.89,500.199"/>
	<path fill="#ACE0F9" d="M33.989,556.388c0.002,0.011,0.003,0.023,0.005,0.032c0.007,0.076,0.013,0.154,0.018,0.231
		c0.084,1.062,1.71,1.062,1.794,0c0.004-0.056,0.007-0.113,0.012-0.171c0.003-0.021,0.01-0.063,0.017-0.108
		c0.251-0.536-0.264-1.249-0.925-1.249C34.239,555.122,33.721,555.851,33.989,556.388"/>
	<path opacity="0.6" fill="#ACE0F9" enable-background="new    " d="M372.809,305.296c1.153,0,1.153-1.647,0-1.647
		C371.651,303.649,371.651,305.296,372.809,305.296"/>
	<path fill="#ACE0F9" d="M531.355,326.099c1.822,0,1.822-2.599,0-2.599S529.532,326.099,531.355,326.099"/>
	<path fill="#ACE0F9" d="M538.529,622.035c1.438,0,1.996-1.646,1.087-2.453c-0.336-0.911-1.84-0.911-2.175,0
		C536.53,620.389,537.088,622.035,538.529,622.035"/>
	<path fill="#ACE0F9" d="M535.4,446.722c0.145,0.045,0.374,0.045,0.518,0c0.416-0.127,0.717-0.449,0.717-0.865
		c0-0.274-0.085-0.567-0.131-0.839c-0.14-0.771-1.551-0.771-1.689,0c-0.047,0.272-0.13,0.565-0.13,0.839
		C534.684,446.273,534.985,446.594,535.4,446.722"/>
	<path fill="#ACE0F9" d="M478.985,461.703c1.835,0,1.835-2.616,0-2.616C477.148,459.087,477.148,461.703,478.985,461.703"/>
	<path fill="#ACE0F9" d="M329.763,352.23c1.331,0,1.331-1.895,0-1.895C328.434,350.335,328.434,352.23,329.763,352.23"/>
	<path opacity="0.6" fill="#ACE0F9" enable-background="new    " d="M214.26,183.037c0.228,0.01,0.457,0.018,0.684,0.028
		c1.257,0.057,1.257-1.845,0-1.789c-0.227,0.011-0.456,0.018-0.684,0.03C213.047,181.358,213.047,182.983,214.26,183.037"/>
	<path opacity="0.6" fill="#ACE0F9" enable-background="new    " d="M45.67,252.705c0.222,0.016,0.424,0.006,0.643-0.019
		c0.882-0.094,0.882-1.167,0-1.262c-0.219-0.022-0.421-0.034-0.643-0.018C44.759,251.472,44.759,252.641,45.67,252.705"/>
	<path opacity="0.6" fill="#ACE0F9" enable-background="new    " d="M296.592,226.279c0.007,0.038,0.011,0.074,0.017,0.114
		l0.027,0.164c0.123,0.771,1.564,0.771,1.687,0l0.028-0.164c0.005-0.04,0.01-0.076,0.017-0.114c0.193-0.241,0.284-0.535,0.188-0.858
		c-0.132-0.441-0.581-0.754-1.075-0.754c-0.5,0-0.946,0.312-1.078,0.754C296.307,225.744,296.398,226.038,296.592,226.279"/>
	<path opacity="0.6" fill="#ACE0F9" enable-background="new    " d="M487.591,217.601c1.605,0,1.605-2.287,0-2.287
		C485.988,215.314,485.988,217.601,487.591,217.601"/>
	<path fill="#ACE0F9" d="M16.256,455.614c1.62,0,1.62-2.307,0-2.307S14.636,455.614,16.256,455.614"/>
	<path fill="#ACE0F9" d="M295.327,618.615c1.835,0,1.835-2.617,0-2.617S293.492,618.615,295.327,618.615"/>
	<path opacity="0.6" fill="#ACE0F9" enable-background="new    " d="M27.736,172.273c1.835,0,1.835-2.617,0-2.617
		C25.899,169.655,25.899,172.273,27.736,172.273"/>
	<path opacity="0.6" fill="#ACE0F9" enable-background="new    " d="M85.126,306.222c1.836,0,1.836-2.619,0-2.619
		C83.291,303.603,83.291,306.222,85.126,306.222"/>
	<path fill="#ACE0F9" d="M484.722,403.025c1.837,0,1.837-2.616,0-2.616C482.888,400.409,482.888,403.025,484.722,403.025"/>
	<path fill="#ACE0F9" d="M271.655,565.871c1.834,0,1.834-2.617,0-2.617C269.819,563.254,269.819,565.871,271.655,565.871"/>
	<path fill="#ACE0F9" d="M506.963,646.965c1.835,0,1.835-2.617,0-2.617C505.127,644.348,505.127,646.965,506.963,646.965"/>
	<path opacity="0.6" fill="#ACE0F9" enable-background="new    " d="M536.376,199.744c1.836,0,1.836-2.616,0-2.616
		S534.54,199.744,536.376,199.744"/>
	<path fill="#ACE0F9" d="M10.517,644.987c1.836,0,1.836-2.617,0-2.617C8.68,642.37,8.68,644.987,10.517,644.987"/>
	<g id="North_Star" display="none">
		<g display="inline">
			<defs>
				<filter id="Adobe_OpacityMaskFilter" filterUnits="userSpaceOnUse" x="643.337" y="372.856" width="13.062" height="13.062">
					<feColorMatrix  type="matrix" values="1 0 0 0 0  0 1 0 0 0  0 0 1 0 0  0 0 0 1 0"/>
				</filter>
			</defs>
			<mask maskUnits="userSpaceOnUse" x="643.337" y="372.856" width="13.062" height="13.062" id="SVGID_3_">
				<g filter="url(#Adobe_OpacityMaskFilter)">
					
						<image overflow="visible" enable-background="new    " width="19" height="20" xlink:href="59C58FA03CB2248E.jpg"  transform="matrix(-0.9488 0 0 -0.9488 658.485 388.8958)">
					</image>
				</g>
			</mask>
			<g mask="url(#SVGID_3_)">
				
					<radialGradient id="SVGID_8_" cx="1527.557" cy="34.87" r="6.531" gradientTransform="matrix(-1 0 0 1 2177.425 344.517)" gradientUnits="userSpaceOnUse">
					<stop  offset="0" style="stop-color:#FFFFFF"/>
					<stop  offset="1" style="stop-color:#000000"/>
				</radialGradient>
				<circle fill="url(#SVGID_8_)" cx="649.868" cy="379.387" r="6.531"/>
			</g>
		</g>
		<g display="inline">
			<defs>
				<filter id="Adobe_OpacityMaskFilter_1_" filterUnits="userSpaceOnUse" x="634.614" y="378.774" width="30.506" height="1.226">
					<feColorMatrix  type="matrix" values="1 0 0 0 0  0 1 0 0 0  0 0 1 0 0  0 0 0 1 0"/>
				</filter>
			</defs>
			<mask maskUnits="userSpaceOnUse" x="634.614" y="378.774" width="30.506" height="1.226" id="SVGID_5_">
				<g filter="url(#Adobe_OpacityMaskFilter_1_)">
					
						<image overflow="visible" enable-background="new    " width="36" height="8" xlink:href="59C58FA03CB22489.jpg"  transform="matrix(-0.9679 0 0 -0.9679 667.3935 383.2798)">
					</image>
				</g>
			</mask>
			<g mask="url(#SVGID_5_)">
				
					<radialGradient id="SVGID_9_" cx="1527.558" cy="-6554.5737" r="15.1514" gradientTransform="matrix(-1 0 0 0.0405 2177.425 644.8586)" gradientUnits="userSpaceOnUse">
					<stop  offset="0" style="stop-color:#FFFFFF"/>
					<stop  offset="1" style="stop-color:#000000"/>
				</radialGradient>
				<ellipse fill="url(#SVGID_9_)" cx="649.867" cy="379.387" rx="15.253" ry="0.613"/>
			</g>
		</g>
		<g display="inline">
			<defs>
				<filter id="Adobe_OpacityMaskFilter_2_" filterUnits="userSpaceOnUse" x="649.253" y="364.133" width="1.226" height="30.506">
					<feColorMatrix  type="matrix" values="1 0 0 0 0  0 1 0 0 0  0 0 1 0 0  0 0 0 1 0"/>
				</filter>
			</defs>
			<mask maskUnits="userSpaceOnUse" x="649.253" y="364.133" width="1.226" height="30.506" id="SVGID_7_">
				<g filter="url(#Adobe_OpacityMaskFilter_2_)">
					
						<image overflow="visible" enable-background="new    " width="8" height="36" xlink:href="59C58FA03CB2248B.jpg"  transform="matrix(-0.9679 0 0 -0.9679 653.8434 396.8299)">
					</image>
				</g>
			</mask>
			<g mask="url(#SVGID_7_)">
				
					<radialGradient id="SVGID_10_" cx="1172.1212" cy="-16856.5039" r="15.1512" gradientTransform="matrix(0 -1 -0.0405 0 -32.8764 1551.5072)" gradientUnits="userSpaceOnUse">
					<stop  offset="0" style="stop-color:#FFFFFF"/>
					<stop  offset="1" style="stop-color:#000000"/>
				</radialGradient>
				<ellipse fill="url(#SVGID_10_)" cx="649.866" cy="379.386" rx="0.613" ry="15.253"/>
			</g>
		</g>
	</g>
	<g>
		<path fill="#ACE0F9" d="M1193.783,253.331c0.001,0.011,0.003,0.021,0.004,0.03c0.007,0.074,0.013,0.15,0.018,0.225
			c0.081,1.03,1.661,1.03,1.741,0c0.005-0.055,0.008-0.11,0.012-0.167c0.003-0.02,0.009-0.061,0.016-0.105
			c0.244-0.52-0.256-1.212-0.897-1.212C1194.027,252.102,1193.523,252.809,1193.783,253.331"/>
	</g>
	<g opacity="0.6">
		<path fill="#ACE0F9" d="M783.436,114.032c0.214,0.016,0.41,0.006,0.624-0.017c0.856-0.092,0.856-1.133,0-1.225
			c-0.214-0.023-0.41-0.033-0.624-0.018C782.552,112.835,782.552,113.97,783.436,114.032"/>
	</g>
	<g>
		<path fill="#ACE0F9" d="M875.024,174.833c1.573,0,1.573-2.239,0-2.239S873.451,174.833,875.024,174.833"/>
	</g>
	<g>
		<path fill="#ACE0F9" d="M1268.47,158.038c1.398,0,1.398-1.995,0-1.995C1267.071,156.043,1267.071,158.038,1268.47,158.038"/>
	</g>
	<g>
		<path fill="#ACE0F9" d="M1123.207,323.561c1.782,0,1.782-2.539,0-2.539S1121.425,323.561,1123.207,323.561"/>
	</g>
	<g opacity="0.6">
		<path fill="#ACE0F9" d="M694.511,171.239c0-0.941,0.831-1.707,1.857-1.707c1.024,0,1.857,0.766,1.857,1.707
			c0,0.943-0.833,1.707-1.857,1.707C695.342,172.946,694.511,172.183,694.511,171.239"/>
	</g>
	<g opacity="0.6">
		<path fill="#ACE0F9" d="M596.251,108.786c0.607,0.334,1.568,0.14,1.745-0.598c0.004-0.015,0.007-0.029,0.011-0.045
			c0.411-0.53,0.369-1.222-0.14-1.779c-0.237-0.26-0.594-0.396-0.95-0.478c-1.018-0.427-2.416,0.157-2.416,1.38
			C594.501,108.236,595.38,108.804,596.251,108.786"/>
	</g>
	<g opacity="0.6">
		
			<image overflow="visible" opacity="0.3" enable-background="new    " width="21" height="21" xlink:href="59C58FA03CB2248A.png"  transform="matrix(-1 0 0 -1 468.425 173.88)">
		</image>
		<g>
			<path fill="#ACE0F9" d="M456.656,163.331c0.001,0.012,0.003,0.022,0.004,0.031c0.007,0.074,0.013,0.15,0.018,0.225
				c0.081,1.03,1.661,1.03,1.741,0c0.005-0.055,0.008-0.11,0.012-0.167c0.003-0.021,0.009-0.062,0.016-0.105
				c0.244-0.52-0.256-1.212-0.897-1.212C456.9,162.103,456.396,162.81,456.656,163.331"/>
		</g>
	</g>
	<g>
		<path fill="#ACE0F9" d="M1285.985,317.605c1.121,0,1.121-1.6,0-1.6C1284.863,316.005,1284.863,317.605,1285.985,317.605"/>
	</g>
	<g>
		<path fill="#ACE0F9" d="M1468.582,307.218c1.397,0,1.938-1.598,1.056-2.381c-0.326-0.884-1.786-0.884-2.111,0
			C1466.643,305.621,1467.184,307.218,1468.582,307.218"/>
	</g>
	<g opacity="0.6">
		<path fill="#ACE0F9" d="M741.845,106.202c0.141,0.043,0.363,0.043,0.503,0c0.403-0.123,0.695-0.436,0.695-0.84
			c0-0.267-0.082-0.551-0.127-0.814c-0.135-0.748-1.505-0.748-1.639,0c-0.046,0.264-0.127,0.548-0.127,0.814
			C741.151,105.767,741.443,106.079,741.845,106.202"/>
	</g>
	<g opacity="0.6">
		<path fill="#ACE0F9" d="M687.081,120.745c1.781,0,1.781-2.541,0-2.541C685.299,118.204,685.299,120.745,687.081,120.745"/>
	</g>
	<g opacity="0.6">
		<path fill="#ACE0F9" d="M782.666,175.814c1.291,0,1.291-1.84,0-1.84S781.375,175.814,782.666,175.814"/>
	</g>
	<g opacity="0.6">
		<path fill="#ACE0F9" d="M648.554,153.257c0.221,0.01,0.442,0.017,0.663,0.027c1.22,0.055,1.22-1.791,0-1.736
			c-0.221,0.01-0.442,0.017-0.663,0.029C647.376,151.628,647.376,153.204,648.554,153.257"/>
	</g>
	<g opacity="0.6">
		<path fill="#ACE0F9" d="M606.889,98.323c0.214,0.016,0.41,0.006,0.624-0.018c0.856-0.092,0.856-1.133,0-1.225
			c-0.214-0.023-0.41-0.033-0.624-0.018C606.005,97.126,606.005,98.261,606.889,98.323"/>
	</g>
	<g opacity="0.6">
		<path fill="#ACE0F9" d="M688.921,71.999c0.006,0.037,0.011,0.072,0.017,0.111l0.026,0.158c0.12,0.748,1.519,0.748,1.637,0
			l0.026-0.158c0.006-0.039,0.011-0.074,0.018-0.111c0.188-0.234,0.276-0.519,0.183-0.834c-0.128-0.428-0.563-0.731-1.044-0.731
			c-0.484,0-0.918,0.303-1.046,0.731C688.645,71.48,688.733,71.765,688.921,71.999"/>
	</g>
	<g>
		
			<image overflow="visible" opacity="0.3" enable-background="new    " width="21" height="21" xlink:href="59C58FA03CB22496.png"  transform="matrix(-1 0 0 -1 423.425 220.88)">
		</image>
		<g>
			<path fill="#ACE0F9" d="M413.02,211.628c1.573,0,1.573-2.239,0-2.239C411.447,209.389,411.447,211.628,413.02,211.628"/>
		</g>
	</g>
	<g>
		<path fill="#ACE0F9" d="M710.345,313.736c1.781,0,1.781-2.54,0-2.54C708.563,311.196,708.563,313.736,710.345,313.736"/>
	</g>
	<g opacity="0.6">
		
			<image overflow="visible" opacity="0.3" enable-background="new    " width="22" height="21" xlink:href="59C58FA03CB22499.png"  transform="matrix(-1 0 0 -1 478.425 191.88)">
		</image>
		<g>
			<path fill="#ACE0F9" d="M467.487,182.808c1.782,0,1.782-2.541,0-2.541S465.705,182.808,467.487,182.808"/>
		</g>
	</g>
	<g opacity="0.6">
		<path fill="#ACE0F9" d="M615.191,100.565c1.781,0,1.781-2.541,0-2.541C613.408,98.024,613.408,100.565,615.191,100.565"/>
	</g>
	<g>
		
			<image overflow="visible" opacity="0.3" enable-background="new    " width="21" height="21" xlink:href="59C58FA03CB22498.png"  transform="matrix(-1 0 0 -1 854.425 319.88)">
		</image>
		<g>
			<path fill="#ACE0F9" d="M844.055,310.626c1.782,0,1.782-2.54,0-2.54C842.274,308.086,842.274,310.626,844.055,310.626"/>
		</g>
	</g>
	<g opacity="0.6">
		<path fill="#ACE0F9" d="M687.364,112.536c1.781,0,1.781-2.54,0-2.54C685.582,109.996,685.582,112.536,687.364,112.536"/>
	</g>
	<g>
		<path fill="#ACE0F9" d="M823.087,361.224c1.781,0,1.781-2.541,0-2.541C821.305,358.683,821.305,361.224,823.087,361.224"/>
	</g>
	<g opacity="0.6">
		<path fill="#ACE0F9" d="M399.343,75.227c0,0.008,0.002,0.016,0.002,0.022c0.006,0.053,0.01,0.106,0.014,0.159
			c0.057,0.731,1.177,0.731,1.233,0c0.003-0.039,0.005-0.078,0.009-0.117c0.002-0.016,0.006-0.045,0.011-0.075
			c0.173-0.368-0.182-0.859-0.636-0.859C399.515,74.356,399.157,74.857,399.343,75.227"/>
	</g>
	<g opacity="0.6">
		<path fill="#ACE0F9" d="M374.711,69.306c0.151,0.011,0.29,0.004,0.442-0.013c0.606-0.065,0.606-0.803,0-0.868
			c-0.152-0.016-0.291-0.023-0.442-0.013C374.085,68.457,374.085,69.261,374.711,69.306"/>
	</g>
	<g opacity="0.6">
		<path fill="#ACE0F9" d="M401.855,99.241c1.262,0,1.262-1.801,0-1.801C400.591,97.44,400.591,99.241,401.855,99.241"/>
	</g>
	<g opacity="0.6">
		<path fill="#ACE0F9" d="M383.195,136.177c1.264,0,1.264-1.8,0-1.8C381.932,134.377,381.932,136.177,383.195,136.177"/>
	</g>
	<g opacity="0.6">
		<path fill="#ACE0F9" d="M83.749,186.174c1.264,0,1.264-1.8,0-1.8C82.487,184.374,82.487,186.174,83.749,186.174"/>
	</g>
	<path opacity="0.6" fill="#ACE0F9" enable-background="new    " d="M311.139,119.151c1.253,0,1.253-1.787,0-1.787
		S309.886,119.151,311.139,119.151"/>
	<g opacity="0.6">
		<path fill="#ACE0F9" d="M351.609,120.388c0.99,0,1.373-1.133,0.748-1.688c-0.23-0.627-1.266-0.627-1.496,0
			C350.235,119.255,350.618,120.388,351.609,120.388"/>
	</g>
	<path opacity="0.6" fill="#ACE0F9" enable-background="new    " d="M453.616,114.615c1.262,0,1.262-1.8,0-1.8
		C452.353,112.815,452.353,114.615,453.616,114.615"/>
	<path opacity="0.6" fill="#ACE0F9" enable-background="new    " d="M309.251,82.462c1.264,0,1.264-1.801,0-1.801
		C307.988,80.661,307.988,82.462,309.251,82.462"/>
	<path opacity="0.6" fill="#ACE0F9" enable-background="new    " d="M279.06,115.83c1.263,0,1.263-1.8,0-1.8
		S277.797,115.83,279.06,115.83"/>
	<path opacity="0.6" fill="#ACE0F9" enable-background="new    " d="M329.894,137.538c1.263,0,1.263-1.801,0-1.801
		S328.631,137.538,329.894,137.538"/>
	<path opacity="0.6" fill="#ACE0F9" enable-background="new    " d="M457.564,172.993c1.263,0,1.263-1.799,0-1.799
		C456.3,171.195,456.3,172.993,457.564,172.993"/>
	<path fill="#ACE0F9" d="M264.341,193.843c1.262,0,1.262-1.8,0-1.8C263.077,192.043,263.077,193.843,264.341,193.843"/>
	<g>
		<path fill="#ACE0F9" d="M1124.594,158.61c0,0.008,0.002,0.016,0.002,0.022c0.006,0.053,0.01,0.107,0.014,0.159
			c0.057,0.73,1.177,0.73,1.233,0c0.003-0.038,0.005-0.077,0.009-0.118c0.002-0.014,0.006-0.043,0.011-0.074
			c0.173-0.368-0.182-0.859-0.636-0.859C1124.766,157.739,1124.408,158.24,1124.594,158.61"/>
	</g>
	<g>
		<path fill="#ACE0F9" d="M1099.962,152.69c0.151,0.011,0.29,0.003,0.442-0.013c0.606-0.066,0.606-0.803,0-0.867
			c-0.152-0.018-0.291-0.025-0.442-0.014C1099.336,151.841,1099.336,152.644,1099.962,152.69"/>
	</g>
	<path opacity="0.6" fill="#ACE0F9" enable-background="new    " d="M856.39,92.534c1.253,0,1.253-1.787,0-1.787
		S855.137,92.534,856.39,92.534"/>
	<path fill="#ACE0F9" d="M1198.867,197.999c1.262,0,1.262-1.8,0-1.8C1197.604,196.199,1197.604,197.999,1198.867,197.999"/>
	<path fill="#ACE0F9" d="M854.502,145.845c1.264,0,1.264-1.801,0-1.801C853.239,144.044,853.239,145.845,854.502,145.845"/>
	<path opacity="0.6" fill="#ACE0F9" enable-background="new    " d="M754.311,109.214c1.263,0,1.263-1.799,0-1.799
		S753.048,109.214,754.311,109.214"/>
	<path fill="#ACE0F9" d="M875.145,200.922c1.263,0,1.263-1.8,0-1.8S873.882,200.922,875.145,200.922"/>
	<path fill="#ACE0F9" d="M706.85,239.041c1.836,0,1.836-2.617,0-2.617C705.015,236.424,705.015,239.041,706.85,239.041"/>
	<g>
		<path fill="#ACE0F9" d="M667.114,241.602c1.573,0,1.573-2.239,0-2.239C665.542,239.362,665.542,241.602,667.114,241.602"/>
	</g>
	<g>
		<path fill="#ACE0F9" d="M701.412,253.303c1.769,0,1.769-2.522,0-2.522S699.644,253.303,701.412,253.303"/>
	</g>
	<g>
		<path fill="#ACE0F9" d="M688.95,250.54c0.99,0,1.373-1.132,0.748-1.688c-0.23-0.626-1.266-0.626-1.496,0
			C687.576,249.408,687.96,250.54,688.95,250.54"/>
	</g>
	<path fill="#ACE0F9" d="M667.236,267.69c1.263,0,1.263-1.8,0-1.8S665.973,267.69,667.236,267.69"/>
	<path fill="#ACE0F9" d="M1244.55,110.486c0.991,0,0.991-1.413,0-1.413C1243.558,109.073,1243.558,110.486,1244.55,110.486"/>
	<path opacity="0.6" fill="#ACE0F9" enable-background="new    " d="M809.592,117.226c1.262,0,1.262-1.799,0-1.799
		C808.328,115.427,808.328,117.226,809.592,117.226"/>
	<g opacity="0.6">
		
			<image overflow="visible" opacity="0.3" enable-background="new    " width="21" height="22" xlink:href="59C58FA03CB2249F.png"  transform="matrix(-1 0 0 -1 434.425 278.88)">
		</image>
		<g>
			<path fill="#ACE0F9" d="M423.87,269.336c1.782,0,1.782-2.54,0-2.54S422.088,269.336,423.87,269.336"/>
		</g>
	</g>
	<path fill="#ACE0F9" d="M309.147,370.022c0.185,0.132,0.373,0.264,0.557,0.396c1.022,0.731,2.059-0.863,0.975-1.5
		c-0.195-0.114-0.392-0.234-0.589-0.347C309.043,367.953,308.158,369.315,309.147,370.022"/>
	<path fill="#ACE0F9" d="M151.605,283.065c0.177,0.133,0.352,0.235,0.55,0.335c0.789,0.401,1.374-0.499,0.688-1.058
		c-0.173-0.139-0.336-0.259-0.53-0.365C151.513,281.535,150.876,282.515,151.605,283.065"/>
	<path fill="#ACE0F9" d="M237.96,295.295c0.177,0.133,0.352,0.235,0.55,0.335c0.789,0.401,1.374-0.499,0.688-1.058
		c-0.173-0.139-0.336-0.259-0.53-0.365C237.868,293.764,237.232,294.744,237.96,295.295"/>
	<path fill="#ACE0F9" d="M160.987,321.051c1.539,1,2.966-1.197,1.427-2.197C160.874,317.854,159.447,320.051,160.987,321.051"/>
	<path fill="#ACE0F9" d="M167.843,300.551c0.968,0.628,1.865-0.753,0.897-1.381C167.77,298.539,166.872,299.92,167.843,300.551"/>
	<path fill="#ACE0F9" d="M106.178,346.462c1.116,0.725,2.148-0.864,1.032-1.589C106.096,344.149,105.064,345.737,106.178,346.462"/>
	<path fill="#ACE0F9" d="M130.628,227.928c-0.015,0.036-0.031,0.068-0.048,0.105l-0.066,0.152c-0.316,0.713,0.892,1.499,1.414,0.918
		l0.113-0.122c0.025-0.031,0.049-0.059,0.076-0.087c0.293-0.097,0.529-0.294,0.625-0.617c0.13-0.442-0.076-0.948-0.49-1.218
		c-0.42-0.272-0.965-0.253-1.315,0.045C130.681,227.323,130.597,227.62,130.628,227.928"/>
	<g>
		
			<image overflow="visible" opacity="0.3" enable-background="new    " width="21" height="22" xlink:href="59C58FA03CB2249E.png"  transform="matrix(-1 0 0 -1 244.425 331.88)">
		</image>
		<g>
			<path fill="#ACE0F9" d="M233.192,322.044c1.494,0.971,2.878-1.159,1.383-2.13C233.08,318.942,231.696,321.073,233.192,322.044"/>
		</g>
	</g>
	<g>
		
			<image overflow="visible" opacity="0.3" enable-background="new    " width="23" height="23" xlink:href="F98DC228C5BF487C.png"  transform="matrix(-1 0 0 -1 401.425 172.88)">
		</image>
		<g>
			<path fill="#ACE0F9" d="M387.892,161.239c0-0.942,0.831-1.707,1.857-1.707c1.024,0,1.857,0.765,1.857,1.707
				s-0.833,1.707-1.857,1.707C388.723,162.946,387.892,162.182,387.892,161.239"/>
		</g>
	</g>
	<g>
		
			<image overflow="visible" opacity="0.3" enable-background="new    " width="23" height="23" xlink:href="F98DC228C5BF487D.png"  transform="matrix(-1 0 0 -1 201.425 148.88)">
		</image>
		<g>
			<path fill="#ACE0F9" d="M189.632,138.786c0.607,0.333,1.568,0.139,1.745-0.598c0.004-0.016,0.007-0.03,0.011-0.045
				c0.411-0.531,0.369-1.223-0.14-1.779c-0.237-0.26-0.594-0.396-0.95-0.478c-1.018-0.426-2.416,0.158-2.416,1.381
				C187.882,138.236,188.761,138.803,189.632,138.786"/>
		</g>
	</g>
	<g>
		
			<image overflow="visible" opacity="0.3" enable-background="new    " width="21" height="21" xlink:href="F98DC228C5BF487F.png"  transform="matrix(-1 0 0 -1 91.425 133.88)">
		</image>
		<g>
			<path fill="#ACE0F9" d="M80.037,123.331c0.001,0.011,0.003,0.022,0.004,0.03c0.007,0.074,0.013,0.15,0.018,0.225
				c0.081,1.03,1.661,1.03,1.741,0c0.005-0.055,0.008-0.11,0.012-0.167c0.003-0.02,0.009-0.061,0.016-0.106
				c0.244-0.519-0.256-1.212-0.897-1.212C80.28,122.102,79.777,122.809,80.037,123.331"/>
		</g>
	</g>
	<g opacity="0.6">
		<path fill="#ACE0F9" d="M517.832,150.253c1.121,0,1.121-1.6,0-1.6C516.709,148.653,516.709,150.253,517.832,150.253"/>
	</g>
	<g opacity="0.6">
		<path fill="#ACE0F9" d="M671.737,90.153c1.769,0,1.769-2.521,0-2.521S669.969,90.153,671.737,90.153"/>
	</g>
	<g>
		<path fill="#ACE0F9" d="M569.809,227.056c1.397,0,1.938-1.598,1.056-2.381c-0.326-0.885-1.786-0.885-2.111,0
			C567.869,225.458,568.41,227.056,569.809,227.056"/>
	</g>
	<g opacity="0.6">
		<path fill="#ACE0F9" d="M596.771,56.874c0.141,0.043,0.363,0.043,0.503,0c0.403-0.123,0.695-0.435,0.695-0.84
			c0-0.267-0.082-0.551-0.127-0.815c-0.135-0.748-1.505-0.748-1.639,0c-0.046,0.264-0.127,0.548-0.127,0.815
			C596.076,56.439,596.368,56.751,596.771,56.874"/>
	</g>
	<g opacity="0.6">
		<path fill="#ACE0F9" d="M512.007,191.417c1.781,0,1.781-2.541,0-2.541C510.225,188.876,510.225,191.417,512.007,191.417"/>
	</g>
	<g opacity="0.6">
		<path fill="#ACE0F9" d="M476.047,165.814c1.291,0,1.291-1.84,0-1.84S474.756,165.814,476.047,165.814"/>
	</g>
	<g opacity="0.6">
		
			<image overflow="visible" opacity="0.3" enable-background="new    " width="21" height="20" xlink:href="F98DC228C5BF487B.png"  transform="matrix(-1 0 0 -1 348.425 145.88)">
		</image>
		<g>
			<path fill="#ACE0F9" d="M337.503,136.818c0.221,0.01,0.442,0.018,0.663,0.027c1.22,0.055,1.22-1.791,0-1.736
				c-0.221,0.01-0.442,0.018-0.663,0.029C336.325,135.189,336.325,136.765,337.503,136.818"/>
		</g>
	</g>
	<g opacity="0.6">
		<path fill="#ACE0F9" d="M200.27,178.323c0.214,0.016,0.41,0.006,0.624-0.018c0.856-0.092,0.856-1.133,0-1.225
			c-0.214-0.023-0.41-0.033-0.624-0.018C199.386,177.126,199.386,178.261,200.27,178.323"/>
	</g>
	<g opacity="0.6">
		<path fill="#ACE0F9" d="M144.784,176.306c0.214,0.016,0.41,0.006,0.624-0.018c0.856-0.092,0.856-1.133,0-1.225
			c-0.214-0.023-0.41-0.033-0.624-0.018C143.901,175.109,143.901,176.244,144.784,176.306"/>
	</g>
	<g>
		<path fill="#ACE0F9" d="M187.58,228.716c0.214,0.016,0.41,0.006,0.624-0.018c0.856-0.092,0.856-1.133,0-1.225
			c-0.214-0.023-0.41-0.033-0.624-0.018C186.696,227.519,186.696,228.654,187.58,228.716"/>
	</g>
	<g>
		
			<image overflow="visible" opacity="0.3" enable-background="new    " width="21" height="21" xlink:href="F98DC228C5BF4864.png"  transform="matrix(-1 0 0 -1 428.425 228.88)">
		</image>
		<g>
			<path fill="#ACE0F9" d="M417.425,218.794c0.006,0.037,0.011,0.072,0.017,0.111l0.026,0.158c0.12,0.748,1.519,0.748,1.637,0
				l0.026-0.158c0.006-0.039,0.011-0.074,0.018-0.111c0.188-0.234,0.276-0.52,0.183-0.834c-0.128-0.428-0.563-0.73-1.044-0.73
				c-0.484,0-0.918,0.303-1.046,0.73C417.149,218.275,417.237,218.56,417.425,218.794"/>
		</g>
	</g>
	<g opacity="0.6">
		
			<image overflow="visible" opacity="0.3" enable-background="new    " width="21" height="22" xlink:href="F98DC228C5BF4869.png"  transform="matrix(-1 0 0 -1 314.425 276.88)">
		</image>
		<g>
			<path fill="#ACE0F9" d="M302.755,266.372c0.006,0.037,0.011,0.072,0.017,0.111l0.026,0.158c0.12,0.748,1.519,0.748,1.637,0
				l0.026-0.158c0.006-0.039,0.011-0.074,0.018-0.111c0.188-0.234,0.276-0.52,0.183-0.834c-0.128-0.428-0.563-0.73-1.044-0.73
				c-0.484,0-0.918,0.303-1.046,0.73C302.479,265.853,302.567,266.138,302.755,266.372"/>
		</g>
	</g>
	<g>
		
			<image overflow="visible" opacity="0.3" enable-background="new    " width="22" height="22" xlink:href="F98DC228C5BF486A.png"  transform="matrix(-0.9545 0 0 -0.9545 312.3772 370.4059)">
		</image>
		<g>
			<path fill="#ACE0F9" d="M301.377,360.32c0.006,0.037,0.011,0.072,0.017,0.111l0.026,0.158c0.12,0.748,1.519,0.748,1.637,0
				l0.026-0.158c0.006-0.039,0.011-0.074,0.018-0.111c0.188-0.234,0.276-0.52,0.183-0.834c-0.128-0.428-0.563-0.73-1.044-0.73
				c-0.484,0-0.918,0.303-1.046,0.73C301.101,359.8,301.189,360.086,301.377,360.32"/>
		</g>
	</g>
	<g>
		
			<image overflow="visible" opacity="0.3" enable-background="new    " width="21" height="21" xlink:href="F98DC228C5BF486B.png"  transform="matrix(-1 0 0 -1 73.425 34.88)">
		</image>
		<g>
			<path fill="#ACE0F9" d="M62.822,25.506c1.573,0,1.573-2.239,0-2.239C61.25,23.267,61.25,25.506,62.822,25.506"/>
		</g>
	</g>
	<g>
		
			<image overflow="visible" opacity="0.3" enable-background="new    " width="22" height="21" xlink:href="F98DC228C5BF486E.png"  transform="matrix(-1 0 0 -1 364.425 192.88)">
		</image>
		<g>
			<path fill="#ACE0F9" d="M353.726,183.735c1.781,0,1.781-2.539,0-2.539C351.944,181.196,351.944,183.735,353.726,183.735"/>
		</g>
	</g>
	<g>
		
			<image overflow="visible" opacity="0.3" enable-background="new    " width="22" height="22" xlink:href="F98DC228C5BF486F.png"  transform="matrix(-1 0 0 -1 167.425 135.88)">
		</image>
		<g>
			<path fill="#ACE0F9" d="M156.437,126.368c1.782,0,1.782-2.541,0-2.541S154.654,126.368,156.437,126.368"/>
		</g>
	</g>
	<g>
		<path fill="#ACE0F9" d="M238.571,220.565c1.781,0,1.781-2.541,0-2.541C236.789,218.025,236.789,220.565,238.571,220.565"/>
	</g>
	<g opacity="0.6">
		<path fill="#ACE0F9" d="M626.471,204.244c1.782,0,1.782-2.54,0-2.54C624.69,201.704,624.69,204.244,626.471,204.244"/>
	</g>
	<g opacity="0.6">
		<path fill="#ACE0F9" d="M310.745,132.536c1.781,0,1.781-2.541,0-2.541C308.963,129.995,308.963,132.536,310.745,132.536"/>
	</g>
	<g>
		<path fill="#ACE0F9" d="M529.167,271.256c1.781,0,1.781-2.54,0-2.54C527.385,268.716,527.385,271.256,529.167,271.256"/>
	</g>
	<path fill="#ACE0F9" d="M791.362,261.393c0.006,0.038,0.011,0.074,0.017,0.114l0.027,0.164c0.124,0.771,1.565,0.771,1.687,0
		l0.027-0.164c0.007-0.04,0.012-0.076,0.019-0.114c0.192-0.241,0.285-0.535,0.188-0.858c-0.131-0.441-0.58-0.754-1.075-0.754
		c-0.5,0-0.946,0.312-1.077,0.754C791.077,260.858,791.168,261.152,791.362,261.393"/>
	<path opacity="0.6" fill="#ACE0F9" enable-background="new    " d="M738.046,204.858c1.836,0,1.836-2.616,0-2.616
		S736.21,204.858,738.046,204.858"/>
	<g>
		<path fill="#ACE0F9" d="M771.479,262.169c1.397,0,1.938-1.598,1.056-2.381c-0.326-0.885-1.786-0.885-2.111,0
			C769.539,260.571,770.08,262.169,771.479,262.169"/>
	</g>
	<g>
		<path fill="#ACE0F9" d="M828.141,209.358c1.782,0,1.782-2.54,0-2.54C826.36,206.818,826.36,209.358,828.141,209.358"/>
	</g>
	<g>
		<path fill="#ACE0F9" d="M730.837,286.369c1.781,0,1.781-2.54,0-2.54C729.055,283.829,729.055,286.369,730.837,286.369"/>
	</g>
	<g opacity="0.6">
		<path fill="#ACE0F9" d="M584.622,130.646c1.782,0,1.782-2.539,0-2.539S582.84,130.646,584.622,130.646"/>
	</g>
	<g opacity="0.6">
		
			<image overflow="visible" opacity="0.3" enable-background="new    " width="22" height="22" xlink:href="F98DC228C5BF4889.png"  transform="matrix(-1 0 0 -1 68.425 218.88)">
		</image>
		<g>
			<path fill="#ACE0F9" d="M57.251,209.335c1.782,0,1.782-2.539,0-2.539S55.469,209.335,57.251,209.335"/>
		</g>
	</g>
	<path fill="#ACE0F9" d="M1857.329,69.628c1.419,0,1.419-2.023,0-2.023C1855.91,67.605,1855.91,69.628,1857.329,69.628"/>
	<path fill="#ACE0F9" d="M1368.869,118.215c0.005,0.03,0.009,0.058,0.013,0.09l0.021,0.128c0.097,0.605,1.229,0.605,1.324,0
		l0.021-0.128c0.006-0.032,0.009-0.06,0.015-0.09c0.151-0.189,0.224-0.42,0.147-0.674c-0.103-0.347-0.456-0.592-0.844-0.592
		c-0.393,0-0.743,0.246-0.846,0.592C1368.646,117.795,1368.718,118.026,1368.869,118.215"/>
	<path fill="#ACE0F9" d="M1738.724,207.79c1.334,0,1.334-1.901,0-1.901C1737.391,205.889,1737.391,207.79,1738.724,207.79"/>
	<path fill="#ACE0F9" d="M1437.63,17.622c1.204,0,1.204-1.718,0-1.718S1436.426,17.622,1437.63,17.622"/>
	<path opacity="0.5" fill="#ACE0F9" enable-background="new    " d="M1800.879,274.596c1.526,0,1.526-2.175,0-2.175
		C1799.352,272.42,1799.352,274.596,1800.879,274.596"/>
	<path fill="#ACE0F9" d="M1531.369,305.667c0.228,0.01,0.457,0.018,0.684,0.028c1.257,0.057,1.257-1.845,0-1.789
		c-0.227,0.011-0.456,0.018-0.684,0.03C1530.156,303.988,1530.156,305.612,1531.369,305.667"/>
	<path fill="#ACE0F9" d="M1382.519,291.701c0.007,0.038,0.011,0.074,0.017,0.114l0.027,0.164c0.123,0.77,1.564,0.77,1.687,0
		l0.028-0.164c0.005-0.04,0.01-0.076,0.017-0.114c0.193-0.241,0.284-0.535,0.188-0.858c-0.132-0.441-0.581-0.754-1.075-0.754
		c-0.5,0-0.946,0.312-1.078,0.754C1382.234,291.166,1382.325,291.46,1382.519,291.701"/>
	<path fill="#ACE0F9" d="M1483.518,263.023c1.605,0,1.605-2.287,0-2.287C1481.916,260.735,1481.916,263.023,1483.518,263.023"/>
	<path opacity="0.7" fill="#ACE0F9" enable-background="new    " d="M1547.776,224.681c1.056,0,1.056-1.504,0-1.504
		C1546.72,223.176,1546.72,224.681,1547.776,224.681"/>
	
		<linearGradient id="SVGID_11_" gradientUnits="userSpaceOnUse" x1="294.409" y1="-280.365" x2="297.149" y2="-280.365" gradientTransform="matrix(-1 0 0 1 2177.425 344.517)">
		<stop  offset="0" style="stop-color:#908796"/>
		<stop  offset="0.1085" style="stop-color:#8D8493"/>
		<stop  offset="0.7419" style="stop-color:#7F7887"/>
	</linearGradient>
	<path fill="url(#SVGID_11_)" d="M1880.276,64.013c0.941-0.241,1.847-0.482,2.74-0.724l-2.39,1.726
		C1880.514,64.678,1880.393,64.351,1880.276,64.013z"/>
	<g>
		<path fill="#ACE0F9" d="M1709.363,109.454c0.214,0.016,0.41,0.006,0.624-0.018c0.857-0.092,0.857-1.133,0-1.225
			c-0.214-0.023-0.41-0.033-0.624-0.017C1708.479,108.257,1708.479,109.392,1709.363,109.454"/>
	</g>
	<g>
		<path fill="#ACE0F9" d="M1766.581,66.158c1.216,0,1.216-1.731,0-1.731C1765.365,64.427,1765.365,66.158,1766.581,66.158"/>
	</g>
	<g opacity="0.7">
		<path fill="#ACE0F9" d="M1547.499,216.878c0-0.541,0.478-0.981,1.068-0.981c0.589,0,1.068,0.44,1.068,0.981
			c0,0.543-0.479,0.982-1.068,0.982C1547.977,217.859,1547.499,217.42,1547.499,216.878"/>
	</g>
	<g>
		<path fill="#ACE0F9" d="M1089.663,283.305c0.607,0.334,1.568,0.14,1.745-0.598c0.004-0.015,0.007-0.029,0.011-0.045
			c0.411-0.53,0.369-1.222-0.14-1.779c-0.237-0.26-0.594-0.396-0.95-0.477c-1.018-0.427-2.416,0.157-2.416,1.38
			C1087.913,282.755,1088.792,283.323,1089.663,283.305"/>
	</g>
	<g opacity="0.5">
		<path fill="#ACE0F9" d="M1880.369,198.59c1.47,0,1.47-2.096,0-2.096C1878.899,196.493,1878.899,198.59,1880.369,198.59"/>
	</g>
	<g>
		<path fill="#ACE0F9" d="M1702.285,115.706c0.141,0.043,0.363,0.043,0.503,0c0.403-0.123,0.695-0.436,0.695-0.84
			c0-0.267-0.082-0.551-0.127-0.814c-0.135-0.748-1.505-0.748-1.639,0c-0.046,0.264-0.127,0.548-0.127,0.814
			C1701.591,115.271,1701.883,115.583,1702.285,115.706"/>
	</g>
	<g>
		<path fill="#ACE0F9" d="M1576.913,61.347c1.489,0,1.489-2.123,0-2.123S1575.424,61.347,1576.913,61.347"/>
	</g>
	<g>
		<path fill="#ACE0F9" d="M1708.594,231.235c1.291,0,1.291-1.84,0-1.84C1707.302,229.396,1707.302,231.235,1708.594,231.235"/>
	</g>
	<g opacity="0.7">
		<path fill="#ACE0F9" d="M1560.527,197.952c0.127,0.006,0.254,0.01,0.381,0.016c0.701,0.031,0.701-1.03,0-0.999
			c-0.127,0.005-0.254,0.01-0.381,0.017C1559.85,197.015,1559.85,197.922,1560.527,197.952"/>
	</g>
	<g>
		<path fill="#ACE0F9" d="M1549.82,92.722c0.167,0.014,0.32,0.006,0.487-0.013c0.668-0.071,0.668-0.884,0-0.956
			c-0.167-0.017-0.321-0.025-0.487-0.014C1549.13,91.788,1549.13,92.674,1549.82,92.722"/>
	</g>
	<g>
		<path fill="#ACE0F9" d="M1595.168,45.679c0.005,0.031,0.009,0.061,0.014,0.094l0.022,0.132c0.101,0.625,1.27,0.625,1.368,0
			l0.022-0.132c0.005-0.033,0.009-0.062,0.015-0.094c0.157-0.195,0.231-0.434,0.153-0.697c-0.107-0.358-0.471-0.61-0.872-0.61
			c-0.405,0-0.768,0.253-0.875,0.61C1594.937,45.245,1595.01,45.484,1595.168,45.679"/>
	</g>
	<g>
		
			<image overflow="visible" opacity="0.3" enable-background="new    " width="22" height="22" xlink:href="F98DC228C5BF488A.png"  transform="matrix(-0.9545 0 0 -0.9545 1419.3522 266.3019)">
		</image>
		<g>
			<path fill="#ACE0F9" d="M1408.947,257.05c1.573,0,1.573-2.239,0-2.239C1407.375,254.811,1407.375,257.05,1408.947,257.05"/>
		</g>
	</g>
	<g>
		<path fill="#ACE0F9" d="M1556.298,94.473c1.39,0,1.39-1.982,0-1.982C1554.906,92.49,1554.906,94.473,1556.298,94.473"/>
	</g>
	<g>
		<path fill="#ACE0F9" d="M1678.295,87.978c0.144,0.085,0.285,0.144,0.444,0.201c0.632,0.227,0.985-0.506,0.416-0.861
			c-0.143-0.088-0.278-0.162-0.433-0.225C1678.08,86.837,1677.694,87.635,1678.295,87.978"/>
	</g>
	<g>
		<path fill="#ACE0F9" d="M1666.968,109.837c1.251,0.605,2.114-1.18,0.862-1.785
			C1666.578,107.447,1665.716,109.232,1666.968,109.837"/>
	</g>
	<g>
		<path fill="#ACE0F9" d="M1593.941,75.806c1.389,0,1.389-1.98,0-1.98C1592.55,73.825,1592.55,75.806,1593.941,75.806"/>
	</g>
	<g>
		<path fill="#ACE0F9" d="M1340.688,43.182c0,0.006,0.001,0.012,0.001,0.017c0.004,0.041,0.008,0.084,0.011,0.125
			c0.044,0.573,0.924,0.573,0.968,0c0.002-0.03,0.004-0.062,0.007-0.092c0.002-0.013,0.004-0.035,0.008-0.06
			c0.136-0.289-0.143-0.675-0.499-0.675C1340.823,42.497,1340.542,42.891,1340.688,43.182"/>
	</g>
	<g>
		<path fill="#ACE0F9" d="M1321.35,38.533c0.119,0.008,0.228,0.003,0.348-0.01c0.476-0.052,0.476-0.631,0-0.682
			c-0.12-0.013-0.229-0.018-0.348-0.011C1320.859,37.866,1320.859,38.498,1321.35,38.533"/>
	</g>
	<g>
		<path fill="#ACE0F9" d="M1342.66,62.035c0.991,0,0.991-1.414,0-1.414C1341.668,60.621,1341.668,62.035,1342.66,62.035"/>
	</g>
	<g>
		<path fill="#ACE0F9" d="M1469.325,130.287c0.992,0,0.992-1.413,0-1.413C1468.334,128.874,1468.334,130.287,1469.325,130.287"/>
	</g>
	<g>
		<path fill="#ACE0F9" d="M1169.677,231.596c1.264,0,1.264-1.8,0-1.8C1168.414,229.796,1168.414,231.596,1169.677,231.596"/>
	</g>
	<path fill="#ACE0F9" d="M1271.44,77.665c0.984,0,0.984-1.402,0-1.402C1270.457,76.263,1270.457,77.665,1271.44,77.665"/>
	<g>
		<path fill="#ACE0F9" d="M1303.213,78.637c0.777,0,1.078-0.89,0.587-1.325c-0.181-0.492-0.994-0.492-1.175,0
			C1302.134,77.747,1302.435,78.637,1303.213,78.637"/>
	</g>
	<path fill="#ACE0F9" d="M1416.456,44.863c0.828,0,0.828-1.181,0-1.181C1415.627,43.683,1415.627,44.863,1416.456,44.863"/>
	<path fill="#ACE0F9" d="M1269.958,48.861c0.992,0,0.992-1.413,0-1.413C1268.967,47.448,1268.967,48.861,1269.958,48.861"/>
	<path fill="#ACE0F9" d="M1246.256,75.059c0.991,0,0.991-1.413,0-1.413C1245.265,73.646,1245.264,75.059,1246.256,75.059"/>
	<path fill="#ACE0F9" d="M1350.268,259.265c1.262,0,1.262-1.8,0-1.8C1349.005,257.465,1349.005,259.265,1350.268,259.265"/>
	<g>
		<path fill="#ACE0F9" d="M1875.68,18.58c0,0.007,0.001,0.013,0.001,0.017c0.004,0.041,0.007,0.084,0.011,0.123
			c0.043,0.565,0.91,0.565,0.954,0c0.002-0.029,0.003-0.06,0.007-0.091c0.001-0.011,0.004-0.033,0.008-0.058
			c0.133-0.284-0.141-0.664-0.492-0.664C1875.813,17.907,1875.536,18.294,1875.68,18.58"/>
	</g>
	<g>
		<path fill="#ACE0F9" d="M1856.636,14.003c0.117,0.008,0.224,0.002,0.342-0.01c0.469-0.052,0.469-0.621,0-0.671
			c-0.118-0.014-0.225-0.019-0.342-0.011C1856.152,13.347,1856.152,13.968,1856.636,14.003"/>
	</g>
	<g>
		<path fill="#ACE0F9" d="M1893.085,52.611c0.976,0,0.976-1.393,0-1.393C1892.108,51.218,1892.108,52.611,1893.085,52.611"/>
	</g>
	<g>
		<path fill="#ACE0F9" d="M1901.431,111.234c1.051,0,1.051-1.496,0-1.496C1900.381,109.738,1900.381,111.234,1901.431,111.234"/>
	</g>
	<path fill="#ACE0F9" d="M1813.874,68.003c0.968,0,0.968-1.382,0-1.382C1812.905,66.621,1812.905,68.003,1813.874,68.003"/>
	<g>
		<path fill="#ACE0F9" d="M1813.148,53.689c0.99,0,1.373-1.132,0.748-1.688c-0.23-0.626-1.266-0.626-1.496,0
			C1811.774,52.557,1812.157,53.689,1813.148,53.689"/>
	</g>
	<path opacity="0.5" fill="#ACE0F9" enable-background="new    " d="M1800.091,198.016c1.051,0,1.051-1.497,0-1.497
		C1799.041,196.519,1799.041,198.016,1800.091,198.016"/>
	<path fill="#ACE0F9" d="M1699.115,106.01c1.263,0,1.263-1.799,0-1.799C1697.853,104.211,1697.853,106.01,1699.115,106.01"/>
	<path opacity="0.5" fill="#ACE0F9" enable-background="new    " d="M1851.954,210.552c1.05,0,1.05-1.497,0-1.497
		C1850.904,209.055,1850.904,210.552,1851.954,210.552"/>
	<path fill="#ACE0F9" d="M1920.693,1.392c0.976,0,0.976-1.392,0-1.392C1919.716,0,1919.716,1.392,1920.693,1.392"/>
	<path fill="#ACE0F9" d="M1735.519,112.648c1.262,0,1.262-1.799,0-1.799C1734.256,110.849,1734.256,112.648,1735.519,112.648"/>
	<path fill="#ACE0F9" d="M1216.555,273.35c-0.015,0.036-0.031,0.068-0.048,0.105l-0.066,0.152c-0.316,0.713,0.892,1.498,1.414,0.918
		l0.113-0.122c0.025-0.031,0.049-0.059,0.076-0.087c0.293-0.097,0.529-0.294,0.625-0.617c0.13-0.442-0.076-0.948-0.49-1.218
		c-0.42-0.272-0.965-0.253-1.315,0.045C1216.608,272.745,1216.524,273.042,1216.555,273.35"/>
	<g>
		
			<image overflow="visible" opacity="0.3" enable-background="new    " width="24" height="23" xlink:href="F98DC228C5BF488B.png"  transform="matrix(-0.9575 0 0 -0.9575 1223.6841 357.8767)">
		</image>
		<g>
			<path fill="#ACE0F9" d="M1210.089,346.647c0-0.942,0.831-1.707,1.857-1.707c1.024,0,1.857,0.765,1.857,1.707
				s-0.833,1.707-1.857,1.707C1210.92,348.354,1210.089,347.59,1210.089,346.647"/>
		</g>
	</g>
	<g>
		
			<image overflow="visible" opacity="0.3" enable-background="new    " width="16" height="16" xlink:href="F98DC228C5BF488E.png"  transform="matrix(-0.9375 0 0 -0.9375 1451.3308 89.7853)">
		</image>
		<g>
			<path fill="#ACE0F9" d="M1444.032,83.426c0.398,0.218,1.029,0.091,1.145-0.393c0.002-0.011,0.004-0.021,0.007-0.029
				c0.27-0.349,0.242-0.802-0.092-1.168c-0.156-0.17-0.39-0.26-0.623-0.314c-0.668-0.279-1.586,0.104-1.586,0.905
				C1442.883,83.065,1443.46,83.437,1444.032,83.426"/>
		</g>
	</g>
	<g>
		
			<image overflow="visible" opacity="0.3" enable-background="new    " width="22" height="22" xlink:href="F98DC228C5BF4888.png"  transform="matrix(-0.9545 0 0 -0.9545 1051.927 252.2521)">
		</image>
		<g>
			<path fill="#ACE0F9" d="M1040.539,241.703c0.001,0.011,0.003,0.021,0.004,0.03c0.007,0.074,0.013,0.15,0.018,0.225
				c0.081,1.03,1.661,1.03,1.741,0c0.005-0.055,0.008-0.11,0.012-0.167c0.003-0.02,0.009-0.061,0.016-0.105
				c0.244-0.52-0.256-1.212-0.897-1.212C1040.782,240.474,1040.279,241.181,1040.539,241.703"/>
		</g>
	</g>
	<g>
		<path fill="#ACE0F9" d="M1458.594,74.811c0.736,0,0.736-1.05,0-1.05C1457.857,73.761,1457.857,74.811,1458.594,74.811"/>
	</g>
	<g>
		<path fill="#ACE0F9" d="M1576.377,67.774c0.887,0,0.887-1.265,0-1.265C1575.49,66.509,1575.49,67.774,1576.377,67.774"/>
	</g>
	<g opacity="0.7">
		<path fill="#ACE0F9" d="M1567.852,222.913c0.804,0,1.114-0.919,0.607-1.369c-0.188-0.509-1.027-0.509-1.214,0
			C1566.737,221.994,1567.048,222.913,1567.852,222.913"/>
	</g>
	<g>
		<path fill="#ACE0F9" d="M1538.147,63.037c0.118,0.036,0.304,0.036,0.42,0c0.337-0.103,0.581-0.364,0.581-0.702
			c0-0.223-0.069-0.46-0.106-0.681c-0.112-0.625-1.258-0.625-1.37,0c-0.038,0.221-0.106,0.458-0.106,0.681
			C1537.567,62.673,1537.811,62.935,1538.147,63.037"/>
	</g>
	<g opacity="0.7">
		<path fill="#ACE0F9" d="M1533.764,219.893c1.024,0,1.024-1.461,0-1.461C1532.74,218.432,1532.74,219.893,1533.764,219.893"/>
	</g>
	<g>
		
			<image overflow="visible" opacity="0.3" enable-background="new    " width="20" height="20" xlink:href="F98DC228C5BF48B6.png"  transform="matrix(-0.95 0 0 -0.95 1500.9475 48.4025)">
		</image>
		<g>
			<path fill="#ACE0F9" d="M1491.257,39.946c0.185,0.008,0.37,0.015,0.554,0.023c1.02,0.046,1.02-1.497,0-1.451
				c-0.184,0.009-0.37,0.015-0.554,0.024C1490.273,38.585,1490.273,39.903,1491.257,39.946"/>
		</g>
	</g>
	<g>
		<path fill="#ACE0F9" d="M1286.197,243.745c0.214,0.016,0.41,0.006,0.624-0.018c0.856-0.092,0.856-1.133,0-1.225
			c-0.214-0.023-0.41-0.033-0.624-0.017C1285.313,242.548,1285.313,243.683,1286.197,243.745"/>
	</g>
	<g>
		<path fill="#ACE0F9" d="M1230.712,221.728c0.214,0.016,0.41,0.006,0.624-0.018c0.856-0.092,0.856-1.133,0-1.225
			c-0.214-0.023-0.41-0.033-0.624-0.018C1229.828,220.531,1229.828,221.666,1230.712,221.728"/>
	</g>
	<g>
		<path fill="#ACE0F9" d="M1273.508,294.138c0.214,0.016,0.41,0.006,0.624-0.018c0.856-0.092,0.856-1.133,0-1.225
			c-0.214-0.023-0.41-0.033-0.624-0.018C1272.624,292.941,1272.624,294.076,1273.508,294.138"/>
	</g>
	<g>
		
			<image overflow="visible" opacity="0.3" enable-background="new    " width="22" height="22" xlink:href="F98DC228C5BF48B7.png"  transform="matrix(-0.9545 0 0 -0.9545 1154.6536 324.1896)">
		</image>
		<g>
			<path fill="#ACE0F9" d="M1143.654,314.104c0.006,0.037,0.011,0.072,0.017,0.111l0.026,0.158c0.12,0.748,1.518,0.748,1.637,0
				l0.026-0.158c0.006-0.039,0.011-0.074,0.018-0.111c0.188-0.234,0.276-0.52,0.183-0.834c-0.128-0.428-0.563-0.73-1.044-0.73
				c-0.484,0-0.918,0.303-1.046,0.73C1143.377,313.584,1143.465,313.869,1143.654,314.104"/>
		</g>
	</g>
	<g opacity="0.6">
		
			<image overflow="visible" opacity="0.3" enable-background="new    " width="22" height="21" xlink:href="F98DC228C5BF48B8.png"  transform="matrix(-1 0 0 -1 964.425 64.88)">
		</image>
		<g>
			<path fill="#ACE0F9" d="M953.529,55.778c1.573,0,1.573-2.239,0-2.239C951.956,53.538,951.956,55.778,953.529,55.778"/>
		</g>
	</g>
	<g>
		
			<image overflow="visible" opacity="0.3" enable-background="new    " width="19" height="19" xlink:href="F98DC228C5BF48BB.png"  transform="matrix(-0.9474 0 0 -0.9474 1454.491 159.9459)">
		</image>
		<g>
			<path fill="#ACE0F9" d="M1446.19,151.923c1.398,0,1.398-1.993,0-1.993C1444.791,149.929,1444.791,151.923,1446.19,151.923"/>
		</g>
	</g>
	<g>
		
			<image overflow="visible" opacity="0.3" enable-background="new    " width="19" height="19" xlink:href="F98DC228C5BF48BE.png"  transform="matrix(-0.9474 0 0 -0.9474 1299.491 153.9459)">
		</image>
		<g>
			<path fill="#ACE0F9" d="M1291.302,146.139c1.399,0,1.399-1.995,0-1.995C1289.902,144.144,1289.902,146.139,1291.302,146.139"/>
		</g>
	</g>
	<g>
		<path fill="#ACE0F9" d="M1343.39,204.82c1.781,0,1.781-2.541,0-2.541C1341.608,202.279,1341.608,204.82,1343.39,204.82"/>
	</g>
	<g opacity="0.5">
		<path fill="#ACE0F9" d="M1886.133,232.652c1.481,0,1.481-2.112,0-2.112S1884.652,232.652,1886.133,232.652"/>
	</g>
	<path fill="#ACE0F9" d="M1563.973,378.772c1.836,0,1.836-2.616,0-2.616C1562.137,376.156,1562.137,378.772,1563.973,378.772"/>
	<g>
		<path fill="#ACE0F9" d="M1754.068,264.779c1.782,0,1.782-2.54,0-2.54C1752.287,262.239,1752.287,264.779,1754.068,264.779"/>
	</g>
	<g>
		<path fill="#ACE0F9" d="M1490.55,146.068c1.782,0,1.782-2.539,0-2.539S1488.767,146.068,1490.55,146.068"/>
	</g>
	<g>
		
			<image overflow="visible" opacity="0.3" enable-background="new    " width="23" height="23" xlink:href="F98DC228C5BF48A9.png"  transform="matrix(-0.9565 0 0 -0.9565 1154.3522 264.3019)">
		</image>
		<g>
			<path fill="#ACE0F9" d="M1143.178,254.757c1.782,0,1.782-2.539,0-2.539S1141.396,254.757,1143.178,254.757"/>
		</g>
	</g>
	<g>
		
			<image overflow="visible" opacity="0.3" enable-background="new    " width="22" height="21" xlink:href="F98DC228C5BF4896.png"  transform="matrix(-1 0 0 -1 228.425 313.88)">
		</image>
		<g>
			<path fill="#ACE0F9" d="M217.222,304.77c1.782,0,1.782-2.539,0-2.539S215.44,304.77,217.222,304.77"/>
		</g>
	</g>
	<g id="Shooting_Star_2" display="none">
		
			<image display="inline" overflow="visible" opacity="0.13" enable-background="new    " width="141" height="101" xlink:href="F98DC228C5BF489A.png"  transform="matrix(-1 0 0 -1 439.425 512.88)">
		</image>
		<g display="inline">
			
				<linearGradient id="SVGID_12_" gradientUnits="userSpaceOnUse" x1="1833.4097" y1="-654.4885" x2="1971.2257" y2="-654.4885" gradientTransform="matrix(-0.5919 0.806 0.806 0.5919 2022.6853 -683.4317)">
				<stop  offset="0" style="stop-color:#FFFFFF"/>
				<stop  offset="1" style="stop-color:#FFFFFF;stop-opacity:0"/>
			</linearGradient>
			<path fill="url(#SVGID_12_)" d="M308.241,503.181c0,0,39.955-26.701,74.149-50.297c24.439-16.866,46.569-34.134,47.607-31.171
				C431.103,424.867,308.241,503.181,308.241,503.181z"/>
		</g>
	</g>
	<g id="Shooting_Star_1" display="none">
		
			<image display="inline" overflow="visible" opacity="0.13" enable-background="new    " width="54" height="58" xlink:href="F98DC228C5BF489D.png"  transform="matrix(-0.9822 0 0 -0.9822 1816.9412 221.3604)">
		</image>
		<g display="inline">
			
				<linearGradient id="SVGID_13_" gradientUnits="userSpaceOnUse" x1="931.3966" y1="370.6793" x2="992.8297" y2="370.6793" gradientTransform="matrix(-0.4301 0.9028 0.9028 0.4301 1869.5723 -835.1552)">
				<stop  offset="0" style="stop-color:#FFFFFF"/>
				<stop  offset="1" style="stop-color:#FFFFFF;stop-opacity:0"/>
			</linearGradient>
			<path fill="url(#SVGID_13_)" d="M1768.491,216.449c0,0,13.291-15.116,23.325-25.837c6.032-6.445,20.485-22.832,20.491-21.263
				C1812.312,170.318,1768.491,216.449,1768.491,216.449z"/>
		</g>
	</g>
</g>
<g id="Hills" display="none">
	<g id="Windmill" display="inline">
		<polygon fill="#777589" points="1324.614,854 589.951,854 957.28,538.725 		"/>
		<polygon fill="#777589" points="1029.525,1080 240.229,1080 634.874,713.98 		"/>
		<polygon fill="#777589" points="1660.465,1080 871.17,1080 1265.815,708.513 		"/>
		<polygon fill="#777589" points="624.12,813 1237.759,813 930.942,1076.339 		"/>
		<polygon fill="#575469" points="1633.178,1067 536.951,1067 1085.061,804.467 		"/>
		<polygon fill="#575469" points="960.136,885.876 947.382,830.491 933.9,885.876 		"/>
		<polygon fill="#575469" points="991.624,897.003 976.944,833.25 961.425,897.003 		"/>
		<polygon fill="#777589" points="740.525,1080 0.229,1080 370.374,808.98 		"/>
		<polygon fill="#777589" points="1851.525,1047 1111.229,1047 1481.374,775.98 		"/>
		<polygon fill="#575469" points="861.463,943.366 846.783,879.613 831.265,943.366 		"/>
		<polygon fill="#575469" points="837.032,967.331 822.352,903.579 806.833,967.331 		"/>
		<polygon fill="#575469" points="755.579,1006.12 740.899,942.368 725.38,1006.12 		"/>
		<polygon fill="#575469" points="1191.5,881.693 1178.746,826.307 1165.264,881.693 		"/>
		<polygon fill="#575469" points="1124.004,832.16 1111.251,776.774 1097.769,832.16 		"/>
		<polygon fill="#575469" points="1214.487,893.819 1201.734,838.433 1188.252,893.819 		"/>
		<polygon fill="#575469" points="983.178,1080 69.652,1080 526.412,897.467 		"/>
		<polygon fill="#575469" points="454.468,974.052 439.788,910.299 424.269,974.052 		"/>
		<polygon fill="#575469" points="467.943,976.546 453.263,912.793 437.744,976.546 		"/>
		<polygon fill="#575469" points="559.736,957.572 545.056,893.819 529.537,957.572 		"/>
		<polygon fill="#575469" points="575.408,957.572 560.728,893.819 545.209,957.572 		"/>
		<polygon fill="#575469" points="632.486,979.584 617.806,915.832 602.287,979.584 		"/>
	</g>
	
		<linearGradient id="SVGID_14_" gradientUnits="userSpaceOnUse" x1="1215.9985" y1="-265" x2="1215.9987" y2="-33.8409" gradientTransform="matrix(1 0 0 -1 -256 735)">
		<stop  offset="0" style="stop-color:#4F413E"/>
		<stop  offset="0.5546" style="stop-color:#3D3A43;stop-opacity:0.8336"/>
		<stop  offset="1" style="stop-color:#333646;stop-opacity:0.7"/>
	</linearGradient>
	<path display="inline" fill="url(#SVGID_14_)" d="M0.001,770.641c9.004-1.093,17.753,1.382,26.371,1.273
		c2.555-0.032,12.098-3.058,14.633-3.073c3.515-0.022,6.853,4.044,10.071,4.181c4.143,0.177,14.086-2.742,17.955-2.692
		c5.975,0.077,11.48,5.725,16.166,6.581c5.426,0.991,10.093-2.736,18.562-1.744c5.535,0.648,16.135-3.685,21.787-4.397
		c10.643-1.34,16.469-0.014,27.388,0.027c17.904,0.066,36.058,6.402,54.062,5.669c29.677-1.209,38.574,21.528,70.214,23.012
		c2.836,0.133,5.538,4.687,8.137,5.56c4.224,1.419,17.174,1.467,20.98,3.813c2.562,1.58,4.686,8.379,6.563,10.262
		c7.341,7.363,10.9,11.006,22.125,12.874c6.547,1.09,15.477-2.832,24.975-3.082c4.581-0.12,9.294,3.282,13.937,3.82
		c7.356,0.854,14.534-0.95,20.725-0.95c3.588,0,7.04-2.944,10.383-2.838c4.944,0.158,9.648-3.481,14.192-2.967
		c3.28,0.372,6.478-3.082,9.622-2.409c3.403,0.729,6.745-1.241,10.062-0.029c2.417,0.884,12.823-3.042,15.23-1.856
		c5.592,2.754,6.198,7.359,10.004,11.571c3.807,4.212,10.814,8.029,17.208,9.205c2.934,0.539,12.822-3.091,15.673-2.863
		c8.398,0.67,15.816,5.484,22.933,4.895c7.901-0.654,15.433,1.963,23.524-0.311c8.214-2.307,27.349-9.653,27.349-9.653
		s13.394,7.792,20.142,7.697c23.318-0.327,46.955-2.127,70.075-2.861c4.391-0.14,8.763-4.097,13.11-3.799
		c2.987,0.205,7.897-2.093,10.744-1.238c2.45,0.735,4.511,6.099,6.473,7.443c2.779,1.905,5.361-0.226,8.572-0.224
		c11.905,0.008,23.023,3.089,34.482,0.242c5.8-1.442,11.688-7.294,17.809-10.291c6.507-3.185,13.278-3.533,20.489-5.519
		c25.791-7.104,11.723-3.195,37.277,1.643c2.116,0.401,13.442-4.157,16.014-3.676c5.15,0.965,10.114,4.667,14.97,5.144
		c4.682,0.46,12.264-1.479,16.817-1.688c13.659-0.627,24.057-1.688,39.098-3.753c3.048-0.418,5.944-3.16,8.719-2.52
		c3.781,0.873,10.338-2.926,13.751-0.702c4.103,2.673,4.998,11.38,8.822,11.851c4.588,0.566,9.074,5.594,13.697,5.444
		c5.548-0.179,11.292,7.137,17.643,5.819c6.352-1.317,13.312-11.268,21.291-9.977c6.316,1.02,13.027-2.975,19.994-3.201
		c6.967-0.227,14.19,3.315,21.531,3.409c2.854,0.036,5.727-1.995,8.607-2.106c3.105-0.121,6.222,2.757,9.339,2.65
		c5.337-0.183,10.676,2.483,15.966,1.982c6.113-0.581,12.16-5.166,18.062-5.678c6.543-0.567,12.907-4.267,18.986-5.088
		c2.65-0.358,5.205,3.266,7.68,2.877c3.911-0.613,7.62,2.808,11.189,2.27c7.312-1.104,14.037-6.399,20.701-7.623
		c5.105-0.936,10.174,2.603,15.444,2.451c2.14-0.061,4.312,2.77,6.534,2.545c2.742-0.278,5.56,1.075,8.481,0.333
		c6.586-1.672,13.703-5.832,21.693-5.361c1.962,0.116,8.456-4.661,14.353-6.128c4.484-1.116,8.623,0.947,10.16,1.158
		c3.67,0.505,7.312-2.528,10.933-1.69c4.104,0.95,8.182,5.734,12.241,5.495c5.984-0.354,11.931-4.481,17.864-3.291
		c4.503,0.902,8.999,7.008,13.501,8.422c5.738,1.803,11.484,9.498,17.264,10.916c7.957,1.953,15.979-1.065,24.129,0.876
		c8.022,1.909,16.171,8.475,24.506,9.481c39.031,4.711,80.812,4.076,121.262,4.12c47.875,0.052,98.982-6.29,144.975-16.578
		c11.809-2.642,24.748-6.235,37.838-8.519c22.98-4.009,26.555,1.608,44.992,4.182c39.439,5.506,81.453-6.133,123.879-5.209
		c49.121,1.068,117.066,4.391,117.066,4.391V1000L0,999.836L0.001,770.641z"/>
	<g id="Layer_9" display="inline">
		
			<linearGradient id="SVGID_15_" gradientUnits="userSpaceOnUse" x1="1726.201" y1="-216.267" x2="1726.201" y2="28.38" gradientTransform="matrix(1 0 0 -1 -256 735)">
			<stop  offset="0" style="stop-color:#192028"/>
			<stop  offset="0.9946" style="stop-color:#313540"/>
		</linearGradient>
		<polygon fill="url(#SVGID_15_)" points="1528.144,951.267 1471.811,706.62 1412.258,951.267 		"/>
		
			<linearGradient id="SVGID_16_" gradientUnits="userSpaceOnUse" x1="1840.8051" y1="-143.261" x2="1840.8051" y2="101.387" gradientTransform="matrix(1 0 0 -1 -256 735)">
			<stop  offset="0" style="stop-color:#192028"/>
			<stop  offset="0.9946" style="stop-color:#313540"/>
		</linearGradient>
		<polygon fill="url(#SVGID_16_)" points="1642.748,878.261 1586.415,633.613 1526.862,878.261 		"/>
		
			<linearGradient id="SVGID_17_" gradientUnits="userSpaceOnUse" x1="1990.5074" y1="-171.267" x2="1990.5074" y2="73.38" gradientTransform="matrix(1 0 0 -1 -256 735)">
			<stop  offset="0" style="stop-color:#192028"/>
			<stop  offset="0.9946" style="stop-color:#313540"/>
		</linearGradient>
		<polygon fill="url(#SVGID_17_)" points="1792.45,906.267 1736.117,661.62 1676.565,906.267 		"/>
		
			<linearGradient id="SVGID_18_" gradientUnits="userSpaceOnUse" x1="1959.194" y1="-61.871" x2="1959.194" y2="-61.871" gradientTransform="matrix(1 0 0 -1 -256 735)">
			<stop  offset="0" style="stop-color:#292536"/>
			<stop  offset="0.9946" style="stop-color:#353142"/>
		</linearGradient>
		<path fill="url(#SVGID_18_)" d="M1703.194,796.871"/>
		
			<linearGradient id="SVGID_19_" gradientUnits="userSpaceOnUse" x1="1965.7739" y1="-64.0029" x2="1965.774" y2="-60.7534" gradientTransform="matrix(1 0 0 -1 -256 735)">
			<stop  offset="0" style="stop-color:#292536"/>
			<stop  offset="0.9946" style="stop-color:#353142"/>
		</linearGradient>
		<path fill="url(#SVGID_19_)" d="M1703.194,796.871c0,0,2.57-3.194,9.479,1.217c2.681,1.182,3.389,0.786,3.681,0.915"/>
		
			<linearGradient id="SVGID_20_" gradientUnits="userSpaceOnUse" x1="438.701" y1="-293.5909" x2="438.701" y2="-48.943" gradientTransform="matrix(1 0 0 -1 -256 735)">
			<stop  offset="0" style="stop-color:#192028"/>
			<stop  offset="0.9946" style="stop-color:#313540"/>
		</linearGradient>
		<polygon fill="url(#SVGID_20_)" points="240.644,1028.591 184.31,783.943 124.758,1028.591 		"/>
		
			<linearGradient id="SVGID_21_" gradientUnits="userSpaceOnUse" x1="580.632" y1="-338.5909" x2="580.632" y2="-93.943" gradientTransform="matrix(1 0 0 -1 -256 735)">
			<stop  offset="0" style="stop-color:#192028"/>
			<stop  offset="0.9946" style="stop-color:#313540"/>
		</linearGradient>
		<polygon fill="url(#SVGID_21_)" points="382.575,1073.591 326.241,828.943 266.689,1073.591 		"/>
	</g>
	
		<linearGradient id="SVGID_22_" gradientUnits="userSpaceOnUse" x1="1216.0215" y1="-345" x2="1216.0215" y2="-55.9099" gradientTransform="matrix(1 0 0 -1 -256 735)">
		<stop  offset="0" style="stop-color:#292536"/>
		<stop  offset="0.9946" style="stop-color:#353142"/>
	</linearGradient>
	<path display="inline" fill="url(#SVGID_22_)" d="M1586.096,791.503c-2.65,1.867-12.856,1.411-27.07,1.12
		c-3.697-0.076-7.665-2.006-11.842-1.675c-3.316,0.263-6.765,3.609-10.312,4.07c-3.147,0.408-6.374,3.86-9.658,4.365
		c-2.825,0.435-5.693,3.881-8.59,4.34c-4.289,0.68-8.64-0.579-13.008,0.235c-5.928,1.106-11.888,10.152-17.767,11.111
		c-4.847,0.79-9.639,2.85-14.312,1.992c-3.28-0.602-9.644-4.055-9.644-4.055s-15.028,4.459-21.481,5.573
		c-1.024,0.177-3.995,5.863-8.487,8.418c-4.454,2.532-10.403,2.919-17.434,5.535c-7.03,2.616-15.143,7.462-23.921,10.914
		c-17.154,6.747-36.855,7.943-56.01,16.769c-11.426,5.265-22.659,13.533-33.041,19.181c-1.897,1.032-3.767,0.044-5.604,1.025
		c-1.367,0.729-2.716,5.39-4.045,5.964c-2.586,1.117-5.098,3.932-7.523,3.533c-2.599-0.428-5.098-1.101-7.481-0.682
		c-3.092,0.543-5.992,2.121-8.668,3.238c-5.296,2.213-7.712,4.059-10.993,4.432c-3.283,0.372-7.432-0.729-8.192-0.413
		c-2.231,0.927-4.473-1.142-6.724-0.206c-2.615,1.086-5.244,5.177-7.885,6.272c-2.498,1.036-5.006,2.791-7.525,2.482
		c-2.52-0.311-5.049-2.686-7.588-1.909c-1.638,0.501-3.279,3.064-4.924,3.748c-1.758,0.731-3.521-0.864-5.287-1.714
		c-2.734-1.314-5.479,2.766-8.232,4.208c-2.652,1.39-5.313,4.788-7.982,7.504c-5.463,5.558-10.959,8.441-16.483,10.714
		c-11.949,4.916-24.027,4.897-36.17,9.918c-7.767,3.212-14.562,2.451-22.371,5.712c-4.202,1.754-15.735,6.514-23.125,8.28
		c-2.061,0.492-5.799,3.985-6.966,4.479c-1.896,0.801-7.789-1.108-9.681,1.488c-4.336,5.956-2.661,7.571-6.973,9.392
		c-2.004,0.847-11.044,2.604-13.001,3.536c-2.811,1.34-17.624,14.137-28.208,18.602c-10.769,4.543-21.361,8.356-31.717,10.99
		c-1.934,0.491-3.858-3.884-5.774-3.063c-3.151,1.349-6.279-0.423-9.383,2.092c-6.203,5.026-12.307,15.195-18.297,17.762
		c-25.027,10.724-48.066,20.609-68.123,29.225c-3.094-0.567-6.559-0.768-10.571-0.768c-6.611,0-12.773-2.36-15.059-3.176
		c-4.799-1.711-5.512-2.646-14.326,3.176c-4.671,3.085-52.66,9.676-77.779,13.742c-15.125,2.449-88.295-3.498-100.143-10.466
		c-11.85-6.968-46.968-17.579-58.188-12.37c-29.827,13.85-75.892,6.978-80.667,7.507c-4.774,0.529-19.835-0.529-19.835-0.529
		s-2.204,0.264-3.673,1.588c-1.47,1.323-8.814,2.646-12.488,1.323c-3.673-1.323-12.857-8.997-16.897-12.438
		c-4.04-3.439-10.652-3.705-11.753-0.528c-1.103,3.175-1.47,4.763-5.51,7.145c-4.041,2.381-16.529,3.97-16.529,3.97
		s-3.46,4.627-11.473,7.017v0.106c-1.839,0.626-3.806,1.008-5.009,0.287c-2.205-1.324-5.51,1.586-8.816,1.586
		s-6.35-6.455-10.846-7.58c-4.497-1.124-4.947,3.875-9.723,4.141c-4.775,0.264-15.427-0.266-19.835-2.117
		c-4.408-1.853-9.55-2.382-16.161-2.382c-6.611,0-12.773-2.36-15.06-3.176c-4.797-1.711-5.511-2.646-14.326,3.176
		c-4.67,3.085-46.574-3.243-89.074,10.923c-14.537,4.845-39.513,3.091-51.362-3.877c-11.848-6.969-32.565-8.633-38.074-10.751
		c-5.51-2.116-9.917-1.851-14.325-1.587c-4.409,0.265-12.856-1.059-17.998-3.439c-5.143-2.382-9.55-1.588-13.223,0.529
		c-3.672,2.117-16.896,6.086-21.671,6.615c-4.774,0.529-19.835-0.529-19.835-0.529s-2.204,0.264-3.672,1.588
		c-1.47,1.323-8.815,2.646-12.488,1.323c-3.674-1.323-12.856-8.997-16.896-12.438c-4.041-3.439-10.652-3.705-11.754-0.528
		c-1.102,3.175-1.469,4.763-5.509,7.145c-4.041,2.381-16.53,3.97-16.53,3.97s-3.46,4.627-11.473,7.017v28.8h443.661h0.308h375.569
		h0.568h219.239H1920V794.244c-5.998-0.577-20,2.9-26.107,2.9c-2.631,0-2.224,0.189-11.297,1.276
		c-2.934,0.352-8.682-2.684-12.3-3.752c-1.213-0.357-7.452,0.305-8.717-0.006c-1.959-0.482-8.907,2.058-10.82,1.629
		c-3.967-0.889-11.584,0.263-14.548-0.482c-2.84-0.714-7.02-3.272-8.25-3.601c-4.702-1.254-5.564,2.357-7.396,4.955
		c-0.808,1.145-1.805,1.289-3.402,2.097c-1.18,0.596-5.534,1.009-7.16,1.106c-2.119,0.124-1.455,0.717-4.998,0.63
		c-0.829-0.021-1.89,0.867-3.271,0.622c-1.357-0.24-3.025-3.505-5.088-3.792c-0.828-0.115-6.7-0.234-7.618-0.357
		c-1.61-0.215-4.354-2.42-6.243-2.609c-0.888-0.089-4.803,0.823-5.745,0.737c-3.408-0.311-7.176-2.555-11.347-2.699
		c-3.784-0.131-28.595,5.731-32.39,5.589c-2.548-0.096-5.088-2.184-7.609-2.262c-2.256-0.07-7.485,2.857-9.678,2.779
		c-3.314-0.115-6.545-3.216-9.656-3.299c-2.407-0.063-4.743,2.873-6.992,2.809c-3.729-0.106-9.199,3.751-12.332,3.565
		c-8.964-0.529-15.173-5.154-16.801-5.884c-8.143-3.65-17.641-4.692-29.854-4.692"/>
	
		<linearGradient id="SVGID_23_" gradientUnits="userSpaceOnUse" x1="722.949" y1="-345" x2="722.949" y2="-200.7964" gradientTransform="matrix(1 0 0 -1 -256 735)">
		<stop  offset="0" style="stop-color:#292536"/>
		<stop  offset="0.9946" style="stop-color:#363243"/>
	</linearGradient>
	<path display="inline" fill="url(#SVGID_23_)" d="M28.486,945.961c2.871,0,2.426,0.132,12.327,0.897
		c3.201,0.247,9.473-1.886,13.42-2.637c1.324-0.251,8.131,0.215,9.511-0.004c2.138-0.338,9.719,1.446,11.806,1.145
		c4.329-0.624,12.64,0.185,15.874-0.339c3.099-0.502,7.659-2.3,9.002-2.53c5.131-0.881,6.072,1.656,8.071,3.482
		c0.881,0.805,1.969,0.905,3.712,1.474c1.288,0.418,6.039,0.708,7.813,0.776c2.312,0.087,1.587,0.504,5.454,0.442
		c0.904-0.014,2.062,0.609,3.568,0.438c1.481-0.169,3.301-2.463,5.551-2.665c0.904-0.081,7.311-0.164,8.312-0.251
		c1.757-0.151,4.751-1.7,6.812-1.834c0.969-0.062,5.241,0.579,6.269,0.518c3.719-0.219,7.83-1.795,12.38-1.896
		c4.129-0.093,31.201,4.027,35.341,3.927c2.78-0.067,5.552-1.534,8.303-1.589c2.461-0.05,8.167,2.007,10.56,1.953
		c3.617-0.081,7.142-2.26,10.536-2.318c2.627-0.045,5.176,2.019,7.629,1.974c4.069-0.075,10.038,2.636,13.456,2.506
		c9.781-0.372,16.556-3.622,18.332-4.135c8.885-2.565,19.249-3.298,32.574-3.298c13.328,0,25.748-3.269,30.355-4.398
		c9.671-2.369,11.107-3.663,28.876,4.398c2.892,1.312,14.028,0.992,29.537,0.787c4.034-0.054,8.364-1.409,12.921-1.177
		c3.619,0.185,7.381,2.536,11.252,2.86c3.434,0.287,6.955,2.713,10.538,3.067c3.082,0.306,6.212,2.728,9.372,3.05
		c4.68,0.478,9.427-0.407,14.193,0.165c6.468,0.777,12.971,7.135,19.386,7.809c5.288,0.556,10.517,2.003,15.616,1.4
		c3.579-0.423,7.094-2.925,10.522-2.85c8.466,0.187,16.398,3.134,23.439,3.917c1.118,0.124,4.359,4.12,9.261,5.915
		c4.86,1.779,11.351,2.052,19.022,3.89c7.671,1.839,16.523,5.244,26.101,7.67c18.718,4.741,40.214,5.582,61.114,11.784
		c16.444,4.879,32.519,14.479,46.58,18.391c9.765,2.715,18.558,2.323,25.83,4.279c11.558,3.109,19.272,2.379,20.934,2.824
		c5.262,1.408,10.577,2.83,15.939,4.263c7.207,1.925,14.498,2.47,21.863,4.441c13.597,3.641,27.441,9.439,41.447,13.149
		c13.038,3.455,26.217,3.442,39.466,6.97c8.475,2.258,15.89,1.723,24.41,4.014c5.864,1.577,24.811,3.161,30.651,4.75
		c6.81,1.854,30.174,26.635,30.174,26.635H0V943.923C6.544,943.517,21.823,945.961,28.486,945.961z"/>
	<path display="inline" fill="#24222D" d="M1547.184,790.948c0,0,49.733,26.802,81.483,47.052c0,0-7.417-32.5-6.023-46.542
		L1547.184,790.948"/>
	<path display="inline" fill="#24222D" d="M1443.671,818.271"/>
	<path display="inline" fill="#24222D" d="M1497.06,809.276c-7.034,6.109-7.716,5.349-7.716,5.349l-9.235,2.165l-1.734,0.295
		l26.257,16.165C1504.633,833.25,1492.63,819.711,1497.06,809.276z"/>
	<path display="inline" fill="#24222D" d="M1716.354,799.004L1716.354,799.004c0,0,0.681,0.128,5.882-1.917c0.378-0.136,0,0,0,0
		s2.31-0.948,3.732-0.846l0,0c0,0,1.32-0.034,3.934,1.284s0,0,0,0s2.432,1.357,5.531,0.783s7.157-1.233,10.466-1.893
		c3.309-0.66,12.637-2.49,12.637-2.49s5.826-1.295,7.819-0.987c-2.703,16.337-2.703,36.005-2.703,36.005l-47.636-29.94"/>
	<path display="inline" fill="#24222D" d="M283.635,943.073c0,0,9.109-0.82,11.359-0.897c0,0-10.41,9.908-10.16,10.991
		C285.083,954.25,283.635,943.073,283.635,943.073z"/>
	<path display="inline" fill="#24222D" d="M144.937,945.695l4.783-1.34l6.269,0.518l11.388-1.85c0,0,7.75,0.079,35.124,3.841
		c0,0,2.776,0.14,9.512-1.549c0,0,4.433,0.532,9.897,1.921c0,0-56.514,18.181-87.911,34.264L144.937,945.695z"/>
	<g id="Layer_4" display="inline">
		<g>
			
				<image overflow="visible" opacity="0.41" enable-background="new    " width="93" height="99" xlink:href="F98DC228C5BF489E.png"  transform="matrix(0.9896 0 0 0.9896 1065.3383 331.3226)">
			</image>
			<g>
				<path fill="#FFFFFF" d="M1088.622,397.934c4.266,4.251,10.015,7.052,16.493,7.53c14.381,1.062,26.901-9.737,27.965-24.12
					c0.963-13.061-7.859-24.591-20.257-27.392c5.208,5.186,8.209,12.528,7.625,20.435c-1.062,14.382-13.577,25.182-27.961,24.12
					C1091.167,398.411,1089.876,398.218,1088.622,397.934z"/>
			</g>
		</g>
	</g>
</g>
<g id="Vignette" display="none">
	
		<radialGradient id="SVGID_24_" cx="1271.1409" cy="477.7077" r="780.6757" gradientTransform="matrix(0.9673 -0.2419 -0.1688 -0.6792 -188.9375 1171.948)" gradientUnits="userSpaceOnUse">
		<stop  offset="0" style="stop-color:#504F64"/>
		<stop  offset="0.4707" style="stop-color:#333447"/>
		<stop  offset="1" style="stop-color:#0E1122"/>
	</radialGradient>
	<rect display="inline" opacity="0.6" fill="url(#SVGID_24_)" enable-background="new    " width="1920" height="1080"/>
</g>
<g id="Navigation" display="none">
	<g id="Hamburger_Icon" display="inline">
		<rect x="1822.675" y="43.049" fill="#FFFFFF" width="51.776" height="7.745"/>
		<rect x="1822.675" y="77.061" fill="#FFFFFF" width="51.776" height="7.745"/>
		<rect x="1822.675" y="60.255" fill="#FFFFFF" width="51.776" height="7.745"/>
	</g>
	
		<text transform="matrix(1 0 0 1 1209.9238 75.7725)" display="inline" fill="#FFFFFF" font-family="'MyriadPro-Regular'" font-size="24">HOW IT WORKS</text>
	
		<text transform="matrix(1 0 0 1 1416.5332 75.7725)" display="inline" fill="#FFFFFF" font-family="'MyriadPro-Regular'" font-size="24">ABOUT</text>
	
		<text transform="matrix(1 0 0 1 1488.2202 75.7725)" display="inline" fill="#FFFFFF" font-family="'MyriadPro-Regular'" font-size="24" letter-spacing="-3"> </text>
	
		<text transform="matrix(1 0 0 1 1541.1377 75.7725)" display="inline" fill="#FFFFFF" font-family="'MyriadPro-Regular'" font-size="24">CONTACT</text>
	<g id="jssptO.tif" display="inline">
		
			<image overflow="visible" enable-background="new    " width="173" height="42" id="Layer_0_1_" xlink:href="F98DC228C5BF489C.png"  transform="matrix(1.2628 0 0 1.2628 60.1094 32.9572)">
		</image>
	</g>
	<path display="inline" fill="none" stroke="#FFFFFF" stroke-width="2" stroke-miterlimit="10" d="M1866.517,77.774
		c0,6.627-5.373,12-12,12h-146.501c-6.627,0-12-5.373-12-12V52.882c0-6.627,5.373-12,12-12h146.501c6.627,0,12,5.373,12,12V77.774z"
		/>
	<text transform="matrix(1 0 0 1 1745 72)" display="inline" fill="#FFFFFF" font-family="'MyriadPro-Regular'" font-size="24">SIGN IN</text>
</g>
</svg>
