<?xml version="1.0" encoding="utf-8"?>
<!-- Generator: Adobe Illustrator 17.0.2, SVG Export Plug-In . SVG Version: 6.00 Build 0)  -->
<!DOCTYPE svg PUBLIC "-//W3C//DTD SVG 1.1//EN" "http://www.w3.org/Graphics/SVG/1.1/DTD/svg11.dtd">
<svg version="1.1" xmlns="http://www.w3.org/2000/svg" xmlns:xlink="http://www.w3.org/1999/xlink" x="0px" y="0px" width="300px"
	 height="300px" viewBox="0 0 300 300" enable-background="new 0 0 300 300" xml:space="preserve">
<g id="Layer_5" display="none">
	<rect x="-38" y="-24" display="inline" fill="#817BDF" width="419" height="381"/>
</g>
<g id="Layer_3">
	<circle opacity="0.6" fill="#FFFFFF" cx="150.062" cy="149.062" r="147.062"/>
</g>
<g id="Clipboard">
	<g opacity="0.3">
		<path fill="#929292" d="M209.119,217.194c0.004-0.439-0.041-0.867-0.119-1.283l0.004-0.007l-0.009-0.042
			c-0.003-0.017-0.007-0.033-0.011-0.05L179.572,77.257c-0.026-0.155-0.061-0.306-0.097-0.457l-0.078-0.367l-0.04-0.023
			c-0.833-2.728-3.329-4.736-6.333-4.761c-0.547-0.005-1.071,0.074-1.581,0.194l-0.015-0.008L68.543,93.444
			c-0.114,0.02-0.225,0.045-0.338,0.071l-0.35,0.074l-0.024,0.039c-2.773,0.805-4.824,3.324-4.849,6.36
			c-0.004,0.514,0.061,1.011,0.167,1.493l29.356,139.948c0.035,0.236,0.086,0.463,0.145,0.69l0.074,0.35l0.038,0.021
			c0.866,2.674,3.337,4.63,6.301,4.655c0.632,0.005,1.232-0.105,1.814-0.264l0.037,0.02l102.781-23.174l0.001-0.001
			C206.763,223.129,209.092,220.441,209.119,217.194z"/>
		<path fill="#929292" d="M200.56,210.181c0.003-0.389-0.037-0.768-0.105-1.137l0.004-0.006L200.451,209
			c-0.003-0.015-0.006-0.029-0.009-0.044L174.378,86.178c-0.023-0.138-0.054-0.271-0.086-0.405l-0.069-0.325l-0.035-0.02
			c-0.739-2.418-2.95-4.197-5.612-4.219c-0.485-0.004-0.949,0.066-1.401,0.172l-0.013-0.008l-91.17,19.149
			c-0.101,0.018-0.2,0.04-0.299,0.063l-0.31,0.065l-0.021,0.035c-2.458,0.714-4.275,2.945-4.297,5.636
			c-0.004,0.456,0.054,0.896,0.148,1.323l26.014,124.012c0.031,0.209,0.076,0.411,0.128,0.612l0.065,0.311l0.034,0.018
			c0.767,2.369,2.957,4.103,5.584,4.125c0.56,0.005,1.092-0.093,1.607-0.234l0.033,0.018l91.078-20.535l0-0.001
			C198.473,215.44,200.536,213.058,200.56,210.181z"/>
		
			<rect x="88.856" y="119.903" transform="matrix(0.9765 -0.2157 0.2157 0.9765 -24.5627 22.9737)" opacity="0.8" fill="#929292" stroke="#817BDF" stroke-width="2.4162" stroke-miterlimit="10" width="8.202" height="8.202"/>
		
			<rect x="93.688" y="142.454" transform="matrix(0.9765 -0.2157 0.2157 0.9765 -29.3139 24.5472)" opacity="0.8" fill="#929292" stroke="#817BDF" stroke-width="2.4162" stroke-miterlimit="10" width="8.202" height="8.202"/>
		
			<rect x="98.521" y="166.616" transform="matrix(0.9765 -0.2157 0.2157 0.9765 -34.4125 26.1586)" opacity="0.8" fill="#929292" stroke="#817BDF" stroke-width="2.4162" stroke-miterlimit="10" width="8.202" height="8.202"/>
		<path fill="#929292" d="M150.966,90.758c-1.531-7.626-8.402-12.678-15.346-11.283l-7.334,1.473
			c-1.409-3.729-5.001-6.385-9.222-6.385c-5.449,0-9.866,4.417-9.866,9.866c0,0.118,0.014,0.232,0.018,0.348l-5.729,1.15
			c-6.944,1.394-11.332,8.707-9.801,16.333c0.236,1.177,0.613,2.283,1.084,3.323l56.485-11.491
			C151.274,92.998,151.192,91.883,150.966,90.758z M119.466,88.657c-2.78,0-5.034-2.254-5.034-5.034c0-2.78,2.254-5.034,5.034-5.034
			c2.78,0,5.034,2.254,5.034,5.034C124.5,86.403,122.246,88.657,119.466,88.657z"/>
		<path fill="#929292" d="M142.595,90.4c-0.176-0.872-1.025-1.437-1.897-1.261l-39.475,7.957c-0.872,0.176-1.437,1.025-1.261,1.897
			l0,0c0.176,0.872,1.025,1.437,1.897,1.261l39.475-7.957C142.206,92.122,142.77,91.272,142.595,90.4L142.595,90.4z"/>
		
			<rect x="101.143" y="110.805" transform="matrix(0.9752 -0.2213 0.2213 0.9752 -21.6921 32.8596)" fill="#929292" width="69.263" height="4.832"/>
		
			<rect x="106.085" y="134.332" transform="matrix(0.9752 -0.2213 0.2213 0.9752 -26.8863 33.5607)" fill="#929292" width="60.441" height="4.832"/>
		
			<rect x="169.234" y="191.261" transform="matrix(0.9765 -0.2157 0.2157 0.9765 -39.1177 43.3057)" opacity="0.8" fill="#929292" stroke="#817BDF" stroke-width="3.2215" stroke-miterlimit="10" width="19.166" height="19.166"/>
		
			<rect x="143.462" y="197.704" transform="matrix(0.9765 -0.2157 0.2157 0.9765 -41.1146 37.8975)" fill="#929292" stroke="#F5F5F5" stroke-width="2.344" stroke-miterlimit="10" width="19.166" height="19.166"/>
		
			<rect x="112.696" y="159.992" transform="matrix(0.9752 -0.2213 0.2213 0.9752 -32.5697 34.1617)" fill="#929292" width="46.899" height="4.832"/>
		<polygon opacity="0.8" fill="#929292" stroke="#817BDF" stroke-width="1.6108" stroke-miterlimit="10" points="183.452,195.888 
			182.349,195.396 178.062,205.001 173.888,203.022 173.37,204.114 178.631,206.607 178.888,206.066 178.906,206.074 		"/>
	</g>
	<path fill="#89725F" d="M203.881,213.266c0.004-0.439-0.041-0.867-0.118-1.283l0.004-0.007l-0.009-0.042
		c-0.003-0.017-0.007-0.033-0.011-0.05L174.335,73.329c-0.026-0.155-0.061-0.306-0.097-0.457l-0.078-0.367l-0.04-0.023
		c-0.833-2.728-3.329-4.736-6.333-4.761c-0.547-0.005-1.071,0.074-1.581,0.194l-0.015-0.008L63.305,89.516
		c-0.114,0.02-0.225,0.045-0.338,0.071l-0.35,0.074l-0.024,0.039c-2.773,0.805-4.824,3.324-4.849,6.36
		c-0.004,0.514,0.061,1.011,0.167,1.493l29.356,139.948c0.035,0.236,0.086,0.463,0.145,0.69l0.074,0.35l0.038,0.021
		c0.866,2.674,3.337,4.63,6.301,4.655c0.632,0.005,1.232-0.105,1.814-0.264l0.037,0.02l102.781-23.174l0.001-0.001
		C201.526,219.201,203.854,216.513,203.881,213.266z"/>
	<path fill="#FFFFFF" d="M195.323,206.253c0.003-0.389-0.037-0.768-0.105-1.137l0.004-0.006l-0.008-0.038
		c-0.003-0.015-0.006-0.029-0.009-0.044L169.14,82.25c-0.023-0.138-0.054-0.271-0.086-0.405l-0.069-0.325l-0.035-0.02
		c-0.739-2.418-2.95-4.197-5.612-4.219c-0.485-0.004-0.949,0.066-1.401,0.172l-0.013-0.008l-91.17,19.149
		c-0.101,0.018-0.2,0.04-0.299,0.063l-0.31,0.065l-0.021,0.035c-2.458,0.714-4.275,2.945-4.297,5.636
		c-0.004,0.456,0.054,0.896,0.148,1.323l26.014,124.012c0.031,0.209,0.076,0.411,0.128,0.612l0.065,0.311l0.034,0.018
		c0.767,2.369,2.957,4.103,5.584,4.125c0.56,0.005,1.092-0.093,1.607-0.234l0.033,0.018l91.078-20.535l0-0.001
		C193.235,211.511,195.298,209.13,195.323,206.253z"/>
	
		<rect x="83.618" y="115.975" transform="matrix(0.9765 -0.2157 0.2157 0.9765 -23.8386 21.7513)" opacity="0.8" fill="none" stroke="#817BDF" stroke-width="2.4162" stroke-miterlimit="10" width="8.202" height="8.202"/>
	
		<rect x="88.451" y="138.526" transform="matrix(0.9765 -0.2157 0.2157 0.9765 -28.5897 23.3248)" opacity="0.8" fill="none" stroke="#817BDF" stroke-width="2.4162" stroke-miterlimit="10" width="8.202" height="8.202"/>
	
		<rect x="93.283" y="162.687" transform="matrix(0.9765 -0.2157 0.2157 0.9765 -33.6884 24.9362)" opacity="0.8" fill="none" stroke="#817BDF" stroke-width="2.4162" stroke-miterlimit="10" width="8.202" height="8.202"/>
	<path fill="#BBB9BC" d="M145.728,86.83c-1.531-7.626-8.402-12.678-15.346-11.283l-7.334,1.473
		c-1.409-3.729-5.001-6.385-9.222-6.385c-5.449,0-9.866,4.417-9.866,9.866c0,0.118,0.014,0.232,0.018,0.348l-5.729,1.15
		c-6.944,1.394-11.332,8.707-9.801,16.333c0.236,1.177,0.613,2.283,1.084,3.323l56.485-11.491
		C146.037,89.07,145.954,87.955,145.728,86.83z M114.228,84.729c-2.78,0-5.034-2.254-5.034-5.034c0-2.78,2.254-5.034,5.034-5.034
		c2.78,0,5.034,2.254,5.034,5.034C119.262,82.475,117.008,84.729,114.228,84.729z"/>
	<path fill="#A7A9A7" d="M137.357,86.472c-0.176-0.872-1.025-1.437-1.897-1.261l-39.475,7.957c-0.872,0.176-1.437,1.025-1.261,1.897
		l0,0c0.176,0.872,1.025,1.437,1.897,1.261l39.475-7.957C136.968,88.193,137.533,87.344,137.357,86.472L137.357,86.472z"/>
	
		<rect x="95.906" y="106.877" transform="matrix(0.9752 -0.2213 0.2213 0.9752 -20.9526 31.6029)" fill="#F5F5F5" width="69.263" height="4.832"/>
	
		<rect x="100.848" y="130.404" transform="matrix(0.9752 -0.2213 0.2213 0.9752 -26.1467 32.304)" fill="#F5F5F5" width="60.441" height="4.832"/>
	
		<rect x="163.996" y="187.333" transform="matrix(0.9765 -0.2157 0.2157 0.9765 -38.3936 42.0833)" opacity="0.8" fill="none" stroke="#817BDF" stroke-width="3.2215" stroke-miterlimit="10" width="19.166" height="19.166"/>
	
		<rect x="138.224" y="193.776" transform="matrix(0.9765 -0.2157 0.2157 0.9765 -40.3905 36.6751)" fill="none" stroke="#F5F5F5" stroke-width="2.344" stroke-miterlimit="10" width="19.166" height="19.166"/>
	
		<rect x="107.459" y="156.064" transform="matrix(0.9752 -0.2213 0.2213 0.9752 -31.8302 32.905)" fill="#F5F5F5" width="46.899" height="4.832"/>
	<polygon opacity="0.8" fill="none" stroke="#817BDF" stroke-width="1.6108" stroke-miterlimit="10" points="178.215,191.96 
		177.111,191.467 172.825,201.073 168.65,199.094 168.132,200.185 173.394,202.679 173.65,202.137 173.669,202.146 	"/>
</g>
<g id="Pencil">
	<g opacity="0.3">
		
			<rect x="222.847" y="91.974" transform="matrix(0.9543 0.2989 -0.2989 0.9543 48.1798 -62.9967)" fill="#939292" width="14.403" height="68.089"/>
		<path fill="#939292" d="M213.001,156.355l6.847,2.144c0,0-0.244-2.621-2.698-3.389S213.001,156.355,213.001,156.355"/>
		<path fill="#939292" d="M226.746,160.66c0,0-0.407-2.672-2.75-3.405c-2.343-0.734-4.149,1.245-4.149,1.245"/>
		<polygon fill="#939292" points="213.001,156.355 216.219,170.176 226.746,160.66 		"/>
		<polygon fill="#939292" points="216.239,170.209 215.395,166.709 218.852,167.792 		"/>
		
			<rect x="229.59" y="92.004" transform="matrix(0.9543 0.2989 -0.2989 0.9543 48.002 -63.0837)" fill="#939292" width="1.309" height="66.78"/>
		<path fill="#939292" d="M219.847,158.499c0,0,0.75-0.799,0.951-0.755l0.091-0.291l-1.25-0.391l-0.097,0.31
			c0,0,0.396,0.813,0.292,1.166"/>
	</g>
	
		<rect x="221.538" y="89.355" transform="matrix(0.9543 0.2989 -0.2989 0.9543 47.3372 -62.725)" fill="#F8B731" width="14.403" height="68.089"/>
	<ellipse display="none" fill="#F4E4C6" cx="216" cy="137.75" rx="3" ry="2.75"/>
	<polyline display="none" fill="#F4E4C6" points="208,138 207.984,137.547 208.484,138 208,138 	"/>
	<path fill="#F4E4C6" d="M211.692,153.736l6.847,2.144c0,0-0.244-2.621-2.698-3.389
		C213.387,151.723,211.692,153.736,211.692,153.736"/>
	<path fill="#F4E4C6" d="M225.437,158.041c0,0-0.407-2.672-2.75-3.405c-2.343-0.734-4.149,1.245-4.149,1.245"/>
	<polygon fill="#F4E4C6" points="211.692,153.736 214.909,167.557 225.437,158.041 	"/>
	<polygon fill="#3A3A3A" points="214.93,167.59 214.086,164.091 217.543,165.173 	"/>
	
		<rect x="228.28" y="89.385" transform="matrix(0.9543 0.2989 -0.2989 0.9543 47.1595 -62.8121)" fill="#F7C161" width="1.309" height="66.78"/>
	<path fill="#F7C161" d="M218.538,155.88c0,0,0.75-0.799,0.951-0.755l0.091-0.291l-1.25-0.391l-0.097,0.31
		c0,0,0.396,0.813,0.292,1.166"/>
</g>
<g id="Layer_4" display="none">
</g>
</svg>
