<?xml version="1.0" encoding="utf-8"?>
<!-- Generator: Adobe Illustrator 17.0.2, SVG Export Plug-In . SVG Version: 6.00 Build 0)  -->
<!DOCTYPE svg PUBLIC "-//W3C//DTD SVG 1.1//EN" "http://www.w3.org/Graphics/SVG/1.1/DTD/svg11.dtd">
<svg version="1.1" xmlns="http://www.w3.org/2000/svg" xmlns:xlink="http://www.w3.org/1999/xlink" x="0px" y="0px" width="300px"
	 height="300px" viewBox="0 0 300 300" enable-background="new 0 0 300 300" xml:space="preserve">
<g id="Backdrop">
	<circle fill="#FFFFFF" cx="150.833" cy="148.833" r="147.833"/>
</g>
<g id="Stencil" display="none">
	<g id="SmeVGQ.tif" display="inline">
		
			<image overflow="visible" width="800" height="600" id="Layer_0_1_" xlink:href="24CF6A345058EA44.png"  transform="matrix(0.5448 0 0 0.5448 -67.9388 -22.4009)">
		</image>
	</g>
	<path fill="#525252" d="M182.917,257.167"/>
</g>
<g id="Shadow">
	
		<ellipse transform="matrix(0.9999 0.0172 -0.0172 0.9999 3.8526 -2.5569)" fill="#DDDDDD" cx="150.538" cy="222.645" rx="117.534" ry="5.573"/>
</g>
<g id="Laptop">
	<path fill="#999999" d="M75.921,182h51.824c0,0,1.687-1,0-2h-26.722l-6.883-29.389c0,0-0.54-3.088-3.374-3.088
		c-2.834,0-20.244,2.1-20.244,2.1s-1.754,0.803-1.754,3.368S75.921,182,75.921,182z"/>
	<path fill="#CCCCCC" d="M73.492,182h25.642l-0.54-2.453l0,0l-6.883-29.163c0,0-0.54-2.975-3.374-2.975
		c-2.834,0-20.244,2.156-20.244,2.156s-1.754,0.832-1.754,3.396C66.339,155.526,73.492,182,73.492,182z"/>
	
		<ellipse transform="matrix(0.9905 -0.1377 0.1377 0.9905 -21.9532 12.898)" fill="#FFFFFF" cx="82.264" cy="165.151" rx="1.754" ry="3.306"/>
	<path opacity="0.1" fill="#FFFFFF" d="M97.735,175.883l-6.023-25.51c0,0-0.54-2.969-3.374-2.969c-1.187,0-4.931,0.379-8.882,0.819
		L97.735,175.883z"/>
	<polygon opacity="0.1" fill="#FFFFFF" points="96.165,182 90.646,182 68.941,149.482 73.961,148.89 	"/>
</g>
<g id="Table">
	<path fill="#BF8462" d="M95.901,221c-1.643,0-2.901-0.138-2.901-0.773v-33.558c0-0.635,1.258-0.669,2.901-0.669h0.259
		c1.643,0,2.84,0.067,2.84,0.702v33.519c0,0.635-1.197,0.779-2.84,0.779H95.901z"/>
	<polyline opacity="0.2" points="93,187 99,187 99,190.051 93,193.998 93,187 	"/>
	<path fill="#BF8462" d="M116,221.311c0,1.071,0.457,1.689-0.296,1.689H75.902c-0.754,0-0.902-0.618-0.902-1.689v-0.169
		c0-1.071,0.188-2.142,0.942-2.142h39.755c0.754,0,0.303,1.071,0.303,2.142V221.311z"/>
	<path fill="#BF8462" d="M131,184.484v-0.202c0-1.286,0.055-2.281-1.23-2.281H61.953c-1.286,0-0.953,0.996-0.953,2.281v0.202
		c0,1.286-0.168,2.328,1.117,2.328c0,0,68.468,0.68,67.787,0C131.19,186.812,131,185.77,131,184.484z"/>
</g>
<g id="Chair">
	<polygon fill="#9A674F" points="208.991,224 214.591,224 214.389,208 208.721,208 	"/>
	<polygon fill="#BF8362" points="177.95,224 183.618,224 187.262,209 229.774,209 232.795,225 238.682,225 235.274,205.143 
		247.724,170.69 242.406,168 221.677,168 201.703,204.128 173.092,204.033 172.687,209 180.379,209 	"/>
	<polygon fill="#9A674F" points="180.563,209 181.746,203.549 173.952,204.263 172.687,209 	"/>
	<path fill="#9A674F" d="M192.829,218.493"/>
	<polygon fill="#9A674F" points="242.406,168 229.975,204.206 203.592,204.073 232.793,168 	"/>
</g>
<g id="Luckee">
	<path fill="#F7CCB9" d="M186.959,133.267c0,0,14.544-7.843,17.951-12.272s9.783-10.3,1.489-30.572"/>
	<path fill="#F7CCB9" d="M152.173,216.88c0,0,10.392,5.354,20.109-0.689l0.81-9.191h-21.054L152.173,216.88z"/>
	<path fill="#F7CCB9" d="M125.923,206.145c0,0,7.996,9.616,18.422,7.895l3.513-5.466l-16.873-9.211L125.923,206.145z"/>
	<path fill="#525252" d="M125.928,205.652c0,0,10.83,10.698,19.386,8.027l0.36,0.165l-4.785,9.092c0,0-15.115-5.285-33.602-17.088
		l1.203-2.265C108.489,203.584,116.014,202.613,125.928,205.652z"/>
	<path fill="#FFFEF3" d="M108.426,203.703c0,0,7.045,4.734,10.331,6.164c0,0,2.189-2.463,1.031-5.72l0,0
		c0,0-6.163-1.24-11.299-0.562"/>
	<path fill="#353535" d="M108.426,203.703l-1.139,2.146c18.487,11.803,33.602,17.088,33.602,17.088l1.131-2.149
		C141.837,220.724,126.801,215.434,108.426,203.703z"/>
	<path fill="#525252" d="M152.294,216.899c0,0,14.543,4.369,20.847-2.002l0.376-0.023l0.107,10.274c0,0-15.623,2.421-37.623,0.666
		v-2.564C136,223.251,142.113,218.865,152.294,216.899z"/>
	<path fill="#FFFEF3" d="M135.843,223.251c4.099-2.885,10.243-4.802,10.243-4.802l0,0c2.55,2.334,1.772,5.536,1.772,5.536
		c-3.573,0.278-12.015-0.599-12.015-0.599"/>
	<path fill="#353535" d="M136,223.386v2.429c22,1.754,37.613-0.666,37.613-0.666l0.03-2.428C173.452,222.75,158,225.13,136,223.386z
		"/>
	<path fill="#5F5E6E" d="M147.787,210.535l4.049-6.111l15.385-29.758c0,0-18.928,4.656-23.584,7.288
		c-4.656,2.632-15.142,19.637-15.142,19.637S134.628,210.066,147.787,210.535z"/>
	<path fill="#777589" d="M150.418,209.755c0,0,8.907,1.754,23.618,0c0,0-0.27-6.424,6.234-5.466l30.138-0.097
		c0,0,17.545,0.232,19.502-15.153c1.957-15.385-40.353-21.121-40.353-21.121s-5.274-0.737-5.398-0.704
		c-2.498,0.648-23.01,8.869-31.985,15.01C152.173,182.223,149.001,187.858,150.418,209.755z"/>
	<path fill="#525252" d="M186.465,170.776c0,0,30.218,3.889,43.579,19.544c0,0,2.564-6.208,1.687-6.208c0,0-5.711-9.304-39.632-16.9
		L186.465,170.776z"/>
	<path fill="#F7CCB9" d="M208.451,115.284c0,0,1.215,7.625,3.644,9.245c0,0-4.791,6.613-19.097,5.668
		C192.998,130.197,208.721,117.915,208.451,115.284z"/>
	<path opacity="0.1" d="M208.451,115.284c0.088,0.857-1.523,2.737-3.73,4.883c0.496,2.292,1.574,6.3,3.236,7.526
		c2.951-1.528,4.138-3.164,4.138-3.164C209.665,122.909,208.451,115.284,208.451,115.284z"/>
	<path fill="#F7CCB9" d="M141.174,129.12c0,0-17.342-28.142-4.656-44.742s37.12-2.024,38.737,5.263
		c1.616,7.288,6.61,47.641-17.413,46.966L141.174,129.12z"/>
	<circle fill="#F2BCA7" cx="163.071" cy="121.93" r="8.604"/>
	<path fill="#9E503C" d="M140.027,127.025c0,0,1.215,29.151,17.815,33.065c0,0,34.415-6.208,35.089-30.096
		c0,0,17.95-9.312,17.545-20.919s-2.024-19.974-12.551-27.802c-10.527-7.828-31.715-4.961-31.715-4.961s7.91,20.902,6.276,34.179
		c0,0-4.521,20.716-16.398,21.931c0,0-2.564-2.56-3.509-4.991s-3.644-3.376-6.748-2.566
		C142.726,125.675,140.027,127.025,140.027,127.025z"/>
	<path fill="#FFFFFF" d="M142.591,129.021l7.463-2.401C150.054,126.62,148.799,136.039,142.591,129.021z"/>
	<path fill="#F7CCB9" d="M148.754,155.83c0,0-29.916-7.076-36.934,3.99c0,0-3.408,9.076,1.856,10.695c0,0-0.911,7.693,1.417,7.693
		c2.328,0,6.276-8.199,6.276-9.717c0,0,5.58,0.724,6.029-0.12S148.754,155.83,148.754,155.83z"/>
	<path opacity="0.1" d="M148.754,155.83c0,0-29.916-7.076-36.934,3.99c0,0-3.408,9.076,1.856,10.695c0,0-0.911,7.693,1.417,7.693
		c2.328,0,6.276-8.199,6.276-9.717c0,0,5.58,0.724,6.029-0.12S148.754,155.83,148.754,155.83z"/>
	<path fill="#F7CCB9" d="M180.076,147.741c0,0,4.892,11.337,15.149,16.735c0,0-17.95,19.637-48.585,6.141
		c0,0-2.294,6.748-7.963,1.62c0,0-2.159,3.914-6.613,0c0,0-1.485,2.699-1.889,4.319c0,0-0.641,2.227-3.07,2.227
		s-2.48-2.682-2.497-2.699c0,0,3.375-18.323,19.738-20.345C153.354,154.624,162.731,163.143,180.076,147.741z"/>
	<path fill="#FFFFF4" d="M211.96,124.326c0,0,27.532,16.33,19.299,58.977c0,0-8.613-9.582-39.16-16.094l2.856-2.531
		c0,0-11.673-6.147-16.076-19.069l8.131-12.495l6.073-2.986C193.082,130.129,205.837,130.669,211.96,124.326z"/>
	<path fill="#E2E2E2" d="M216.007,127.432c0,0,10.259,25.235,0.671,47.199c0,0,7.564,2.599,14.582,8.672l0,0
		c0,0,4.875-16.226-1.147-34.077C227.643,141.907,223.364,134.11,216.007,127.432"/>
	<path fill="#E2E2E2" d="M192.099,167.209c0,0,6.636,1.544,6.708,1.562c0.072,0.018,3.537-7.619,3.689-10.453
		c0,0-3.998,5.668-6.276,7.035l-1.265-0.675L192.099,167.209"/>
	<path fill="#9E503C" d="M92.386,133.411"/>
	<path d="M207,92.88"/>
	<path fill="#9E503C" d="M163.644,92.071c0,0,0.472-11.944,1.552-12.011c1.08-0.067-8.907,0-8.907,0S157.841,89.102,163.644,92.071z
		"/>
	<path fill="#9E503C" d="M130.883,84.378c0,0-3.948,11.944,4.15,11.944s17.647-9.233,13.721-13.159
		C144.829,79.238,130.883,84.378,130.883,84.378z"/>
	<path fill="#538750" d="M203.246,84.553c-0.542,6.458-2.544,3.354-3.524,3.278l-58.1-4.472c-5.211-0.438-8.709,3.335-8.166-3.124
		l2.25-51.615c0.542-6.458,5.719-5.411,10.93-4.974l53.472,4.49c5.211,0.438,9.824,0.416,9.282,6.874L203.246,84.553z"/>
	<polyline fill="#525252" points="134.205,64.859 205.213,70.821 202.58,87.665 133.589,81.872 134.205,64.859 	"/>
	<path fill="#D89A38" d="M134.205,64.859l15.956,1.453l-0.809,7.466l-2.366-0.256c-0.674-0.073-1.294,0.553-1.386,1.398
		c-0.092,0.845,0.38,1.589,1.054,1.662l2.366,0.256l-0.517,4.776l2.81,0.304c0,0,0.951-11.071,1.637-15.118
		c0.556-3.275-2.481-3.528-2.481-3.528s-12.95-1.168-16.203-1.52L134.205,64.859"/>
	<path fill="#75B863" d="M224.736,89.931c-0.094,1.114-1.073,1.941-2.187,1.848l-111.354-9.35c-1.114-0.094-1.941-1.073-1.848-2.187
		l0,0c0.094-1.114,1.073-1.941,2.187-1.848l111.354,9.35C224.002,87.838,224.83,88.817,224.736,89.931L224.736,89.931z"/>
	<path fill="#9E503C" d="M137.597,98.009c0,0,2.294-3.779,13.496-4.319c0,0,2.733-0.304,1.991,1.923
		c-0.742,2.227-0.675,2.53-1.822,2.53c-1.147,0-6.647-0.067-11.843,2.261c0,0-1.721,0.574-1.822-0.371
		C137.496,99.089,137.597,98.009,137.597,98.009z"/>
	
		<ellipse transform="matrix(0.9891 -0.1471 0.1471 0.9891 -14.399 22.705)" fill="#584341" cx="146.268" cy="108.678" rx="2.908" ry="3.886"/>
	<path fill="#F2BCA7" d="M144.054,112.528c0,0,2.197-2.271,8.16-2.567c0,0,0.476,0.029,0.084,1.252
		c-0.187,0.582-0.253,0.976-0.863,0.976c-0.611,0-3.644,0.376-6.41,1.654c0,0-0.916,0.315-0.97-0.204
		C144,113.121,144.054,112.528,144.054,112.528z"/>
	<circle fill="#FFFFFF" cx="144.548" cy="109.582" r="1.113"/>
	<path opacity="0.1" d="M206.403,90.334l15.373,1.335c0,0,2.961,0.351,2.961-1.761c0,0,0.39-2.256-2.802-2.256
		c-3.192,0-18.867-1.52-18.867-1.52L205.213,71h-0.541l1.545-10.414c0,0-11.383,23.574-25.965,23.574c0,0-2.706,0.388-2.706,1.888
		c0,0.96,0,0,0,0s-0.607,0.658,2.362,3.964S199.824,120,187.571,133h0.096c0,0,7.299-3.084,14.308-8.997
		c7.009-5.913,8.715-11.826,8.506-12.047s1.478-12.339-3.988-21.247"/>
	<path fill="#F7CCB9" d="M178.422,91.396c0,0-0.675-1.822,2.632-1.417c0,0,11.202-1.08,11.472,8.502
		c0.27,9.582-10.054,10.122-10.054,10.054s-1.889,0.54-2.227-1.822C179.907,104.352,178.422,91.396,178.422,91.396z"/>
	<path opacity="0.1" d="M181.054,89.979c-0.53-0.065,2.508-0.028,2.163,0.005c2.852,0.024,6.662,0.801,6.879,8.498
		c0.212,7.51-6.083,9.465-8.816,9.927c0.586,0.266,1.191,0.089,1.191,0.127c0,0.067,10.324-0.472,10.054-10.054
		C192.256,88.899,181.054,89.979,181.054,89.979z"/>
	<path opacity="0.1" d="M178.687,94h4.122c0,0,2.885-0.155,2.885,1.515c0,1.67-0.658,1.998-2.126,3.06
		c-1.468,1.063-1.417,1.176-0.101,2.34c1.316,1.164,0.759,2.967-1.24,3.068c-1.999,0.101-2.392-0.353-2.392-0.353L178.687,94z"/>
</g>
</svg>
