<?xml version="1.0" encoding="utf-8"?>
<!-- Generator: Adobe Illustrator 17.0.2, SVG Export Plug-In . SVG Version: 6.00 Build 0)  -->
<!DOCTYPE svg PUBLIC "-//W3C//DTD SVG 1.1//EN" "http://www.w3.org/Graphics/SVG/1.1/DTD/svg11.dtd">
<svg version="1.1" xmlns="http://www.w3.org/2000/svg" xmlns:xlink="http://www.w3.org/1999/xlink" x="0px" y="0px" width="300px"
	 height="300px" viewBox="0 0 300 300" enable-background="new 0 0 300 300" xml:space="preserve">
<g id="Layer_1" display="none">
	<g id="EYBtmI.tif" display="inline">
		
			<image overflow="visible" width="364" height="349" id="Layer_0_1_" xlink:href="6A667B82C7879E61.png"  transform="matrix(1 0 0 1 -32 -24)">
		</image>
	</g>
</g>
<g id="Layer_3">
	<g>
		<defs>
			<circle id="SVGID_1_" cx="150.062" cy="150.062" r="147.062"/>
		</defs>
		<clipPath id="SVGID_2_">
			<use xlink:href="#SVGID_1_"  overflow="visible"/>
		</clipPath>
		<circle clip-path="url(#SVGID_2_)" fill="#C0BDEF" cx="143.75" cy="155.75" r="175.75"/>
		<path clip-path="url(#SVGID_2_)" fill="#F7CCB9" d="M152.99,257.284l67.542-54.173l25.03,1.797l5.68,52.29l-48.885,15.388
			C202.357,272.586,176.646,275.234,152.99,257.284"/>
		<path clip-path="url(#SVGID_2_)" fill="#F7CCB9" d="M206.42,158.278l-23.738-37.064l-0.071,0.008
			c-2.301-3.728-6.454-6.222-11.174-6.222c-7.225,0-13.097,5.826-13.097,13.012c0,3.275,1.218,6.259,3.226,8.546l18.244,28.398
			l15.326,75.385L223,243.353L215.5,196L206.42,158.278z"/>
		<path clip-path="url(#SVGID_2_)" fill="#F7CCB9" d="M103.76,157.985l4.362-22.138l-15.173-4.841l-0.002,0.007
			c-1.089-0.382-2.253-0.599-3.468-0.599c-5.939,0-10.753,4.954-10.753,11.065c0,4.763,2.931,8.812,7.034,10.371l-0.004,0.012
			l0.371,0.126c0.077,0.026,0.152,0.054,0.229,0.078L103.76,157.985z"/>
		<polygon clip-path="url(#SVGID_2_)" fill="#F7CCB9" points="248.187,218.648 184.576,266.893 216.661,285.46 276.64,274.145 
			270.844,220.794 		"/>
		<path display="none" opacity="0.8" clip-path="url(#SVGID_2_)" fill="#F2BEAA" d="M113.76,186.985l0.545-2.766l-2.567-1.669
			l-0.002,0.003c-1.824-1.203-4.01-1.907-6.363-1.907c-2.093,0-5.22,1.166-6.912,2.135L113.76,186.985z"/>
		<path opacity="0.8" clip-path="url(#SVGID_2_)" fill="#F2BEAA" d="M198.811,146.957l24.895,89.805c0,0,3.794,11.238-11.706,15.988
			s-46.075,12.419-46.075,12.419s-17.237-8.669-13.091-10.336C156.267,253.453,198.811,146.957,198.811,146.957z"/>
		<g clip-path="url(#SVGID_2_)">
			<path fill="#FFFFFF" d="M95.277,109.743c-0.125-0.604-0.986-0.936-1.743-0.779l-0.073,0.015
				c-0.757,0.157-1.343,0.788-1.218,1.391l3.012,14.573c0.125,0.604,0.84,0.966,1.597,0.81l0.146-0.03
				c0.757-0.157,1.416-0.803,1.292-1.407L95.277,109.743z"/>
			<path fill="#FFFFFF" d="M99.245,128.939c-0.125-0.604-0.986-0.936-1.743-0.779l-0.073,0.015
				c-0.757,0.157-1.343,0.788-1.218,1.391l3.012,14.573c0.125,0.604,0.84,0.966,1.597,0.81l0.146-0.03
				c0.757-0.157,1.416-0.803,1.292-1.407L99.245,128.939z"/>
			<path fill="#FFFFFF" d="M187.845,90.611c-0.125-0.604-0.65-1.005-1.407-0.849l0.138-0.029c-0.757,0.157-1.132,0.744-1.007,1.348
				l3.012,14.573c0.125,0.604,0.796,0.975,1.554,0.819l-0.211,0.044c0.757-0.157,1.059-0.729,0.934-1.333L187.845,90.611z"/>
			<path fill="#FFFFFF" d="M215.625,228.845c2.656,12.852,2.218,15.828-11.681,18.701l-61.604,12.733
				c-13.57,2.805-18.099,1.078-20.8-11.987L87.654,84.342c-1.882-9.108,1.947-13.328,15.01-16.027l61.604-12.733
				c12.744-2.634,15.545-0.007,17.472,9.314L215.625,228.845z"/>
			
				<rect x="107.406" y="85.993" transform="matrix(0.9793 -0.2024 0.2024 0.9793 -28.8287 34.1851)" fill="#444444" stroke="#7C7C7C" stroke-width="0.7748" stroke-miterlimit="10" width="90.65" height="144.11"/>
			<path fill="#9E9E9E" d="M143.408,74.662c0.115,0.558-0.244,1.104-0.802,1.22l-14.671,3.032c-0.558,0.115-1.105-0.244-1.22-0.802
				l-0.209-1.013c-0.115-0.558,0.244-1.105,0.802-1.22l14.671-3.032c0.558-0.115,1.105,0.244,1.22,0.802L143.408,74.662z"/>
			
				<ellipse transform="matrix(0.9793 -0.2024 0.2024 0.9793 -13.3527 26.169)" fill="#9E9E9E" cx="121.275" cy="78.372" rx="1.233" ry="1.253"/>
			<circle fill="#EFEFEF" stroke="#EDEDED" stroke-width="1.304" stroke-miterlimit="10" cx="169.021" cy="241.282" r="9.291"/>
			<path id="Glare" display="none" opacity="0.1" fill="#FFFFFF" d="M164.267,55.582l-59.611,12.321l111.826,172.719
				c1.003-2.684,0.302-6.168-0.857-11.776L181.739,64.896C179.813,55.575,177.011,52.948,164.267,55.582z"/>
		</g>
		<path clip-path="url(#SVGID_2_)" fill="#F7CCB9" d="M125.147,212.859l0.006-0.013l-9.867-5.225l-0.001,0.002
			c-1.636-0.952-3.516-1.496-5.516-1.496c-6.323,0-11.627,5.408-11.627,12.079c0,5.021,2.859,9.324,6.859,11.147v0.001l10.076,5.281
			l0.095-0.013c1.502,0.765,3.225,1.206,5.005,1.206c6.323,0,11.47-5.408,11.47-12.079C131.647,218.942,129,214.803,125.147,212.859
			z"/>
		<path display="none" clip-path="url(#SVGID_2_)" fill="#F2BEAA" d="M130.826,240.597L125.312,238l-1.062-0.312
			c-1.636-0.952-2.749-1.125-4.75-1.125c-1.667,0-3.812-0.062-5.315,1.074l5.862,3.04l0.042-0.012
			c1.514,0.726,3.224,1.145,5.017,1.145C126.701,241.809,129.444,241.179,130.826,240.597z"/>
		<path clip-path="url(#SVGID_2_)" fill="#F7CCB9" d="M120.089,188.986l0.006-0.012l-9.943-4.965l-0.001,0.002
			c-1.649-0.904-3.543-1.421-5.559-1.421c-6.372,0-11.61,5.138-11.61,11.476c0,4.771,3.02,8.859,7.02,10.591v0.001l10.047,5.018
			l0.042-0.012c1.514,0.726,3.224,1.145,5.017,1.145c6.372,0,11.546-5.138,11.546-11.476
			C126.653,194.766,123.972,190.833,120.089,188.986z"/>
		<path clip-path="url(#SVGID_2_)" fill="#F7CCB9" d="M114.855,162.083l0.003-0.004l-13.12-8.528l-0.002,0.003
			c-1.824-1.203-4.01-1.907-6.363-1.907c-6.372,0-11.537,5.138-11.537,11.476c0,4.043,2.107,7.59,5.283,9.635l-0.004,0.006
			l11.684,7.41c2.048,1.849,4.758,2.985,7.742,2.985c6.372,0,11.537-5.138,11.537-11.476
			C120.078,167.663,117.998,164.133,114.855,162.083z"/>
		<path clip-path="url(#SVGID_2_)" fill="#F4BDA8" d="M113.045,228.651c0,0,0.768-8.504,8.669-13.332
			c4.828,2.085,7.462,4.279,7.462,4.279s2.212,11.747-9.217,14.375C117.928,232.986,113.045,228.651,113.045,228.651z"/>
		<path clip-path="url(#SVGID_2_)" fill="#F4BDA8" d="M108.778,204.291c0,0,0.768-8.504,8.669-13.332
			c4.828,2.085,7.462,4.279,7.462,4.279s2.212,11.747-9.217,14.375C113.661,208.626,108.778,204.291,108.778,204.291z"/>
		<path clip-path="url(#SVGID_2_)" fill="#F4BDA8" d="M101.511,176.639c0,0,0.768-8.504,8.669-13.332
			c4.828,2.085,7.462,4.279,7.462,4.279s2.212,11.747-9.217,14.375C106.394,180.974,101.511,176.639,101.511,176.639z"/>
		<path clip-path="url(#SVGID_2_)" fill="#F7CCB9" d="M224.548,136.654l-22.866-33.439l-0.071,0.008
			c-2.301-3.728-7.019-8.462-11.174-6.222c-8.812,4.749-5.623,17.138-5.104,22.333c0.083,0.833,1.417,5.583,3.25,9.333
			l10.227,18.291l23.224,76.238L242,225.353v-56.011L224.548,136.654z"/>
		<path clip-path="url(#SVGID_2_)" fill="#F4BDA8" d="M192.73,96.424c0,0-2.229,5.928,2.545,11.853
			c4.773,5.925,7.944,6.503,12.889,4.417C204.915,108.332,199.333,96.5,192.73,96.424z"/>
		<path clip-path="url(#SVGID_2_)" fill="#F7CCB9" d="M242,169.342l9.493,24.927c0,0,5.325,11.902,5.23,17.699
			c-0.095,5.798-8.002,11.457-8.002,11.457l-19.772-23.629L242,169.342"/>
		<path clip-path="url(#SVGID_2_)" fill="#F7CCB9" d="M247.063,193.688l19.854,20.72c0,0,19.631,17.528,21.75,22.926
			c2.119,5.398-13.217,5.092-13.217,5.092L248.173,228.1l-2.08-34.17"/>
	</g>
</g>
<g id="Layer_4" display="none">
</g>
</svg>
