<?xml version="1.0" encoding="UTF-8" standalone="no"?>
<svg width="150px" height="150px" viewBox="0 0 150 150" version="1.1" xmlns="http://www.w3.org/2000/svg" xmlns:xlink="http://www.w3.org/1999/xlink" xmlns:sketch="http://www.bohemiancoding.com/sketch/ns">
    <!-- Generator: Sketch 3.2.2 (9983) - http://www.bohemiancoding.com/sketch -->
    <title>Oval 576 + Path 1477 + Path 1478 + Path 1479 + Group + Path 1476 + Oval 580</title>
    <desc>Created with Sketch.</desc>
    <defs></defs>
    <g id="Page-1" stroke="none" stroke-width="1" fill="none" fill-rule="evenodd" sketch:type="MSPage">
        <g id="Group" sketch:type="MSLayerGroup" transform="translate(-886.000000, -1279.000000)">
            <g id="Oval-576-+-Path-1477-+-Path-1478-+-Path-1479-+-Group-+-Path-1476-+-Oval-580" sketch:type="MSShapeGroup">
                <g transform="translate(886.000000, 1279.000000)">
                    <circle id="Oval-576" fill="#FFFFFF" cx="75" cy="75" r="75"></circle>
                    <g id="Path-1477-+-Path-1478-+-Path-1479-+-Group-+-Path-1476-+-Oval-577" transform="translate(12.857143, 13.355482)">
                        <g id="Path-1477-+-Path-1478-+-Path-1479" transform="translate(44.285714, 100.930233)" stroke="#CEC5C5">
                            <path d="M0.543387277,0.198102679 L0.543387277,10.4296875 L35.796596,10.0495257 L35.672433,0.345284598" id="Path-1477" stroke-width="4"></path>
                            <path d="M12.2119141,0.608956473 L12.2663225,10.3989955" id="Path-1478" stroke-width="3"></path>
                            <path d="M23.6404855,0.198102679 L23.694894,9.98814174" id="Path-1479" stroke-width="4"></path>
                        </g>
                        <g id="Group">
                            <path d="M4.31152344,82.8066276 L5.78613281,86.3236477 L7.38560268,89.1647471 L9.08551897,90.624708 L10.6773158,91.0592783 L12.5795201,91.0592783 L14.7736468,89.4441137 L15.8014788,87.5889937 L15.6229074,85.0736477 L14.7063337,82.5352828 L13.1696429,78.8320183 L11.7717634,74.4688765 L10.8994838,70.5333297 L10.1189314,65.914189 L10.0488281,61.9695741 L10.0571987,58.7162259 L10.405971,55.4252102 L10.7631138,52.9565997 L11.3065011,49.7583576 L11.9283622,47.0016611 L12.9052734,44.1919513 L13.8295201,41.7463598 L14.8151507,39.8441555 L16.2207031,37.2904446 L7.99944196,32.8415049 L6.76478795,35.123871 L4.80573382,39.3161143 L3.60491071,42.8798698 L2.54952567,45.7830506 L1.57226563,49.4817811 L1.01981027,52.8170908 L0.523158482,57.1955785 L0.344587054,61.0146355 L0.398995536,65.6414491 L0.574428013,69.1323112 L1.06654576,72.038631 L1.74176897,75.1908352 L2.65834263,78.3814044 L4.31152344,82.8066276 Z" id="Path-1480" fill="#D7D6DD"></path>
                            <path d="M7.9398019,33.0183324 L10.1719448,29.0705785 L13.2693917,24.7311533 L16.7163086,20.4768285 L21.0013253,15.8653609 L25.7407924,12.0030562 L29.96024,9.09185365 L33.4535435,7.04630399 L37.4557059,5.09387653 L42.9987444,3.13307854 L48.5030692,1.48373423 L53.331822,0.489733116 L57.9391044,0.0589992992 L62.5777762,0.0589992992 L62.4766323,9.1731176 L59.3171038,9.1731176 L54.9504743,9.45248423 L50.874721,10.2909329 L46.5000698,11.5601154 L41.5705218,13.4504614 L37.6266044,15.3408073 L33.7255859,17.4212342 L29.7509766,20.1772331 L26.4320592,23.0301907 L23.4047154,26.1939044 L20.8115932,29.3611059 L18.347168,33.4255241 L16.0119629,37.7555325 L7.9398019,33.0183324 Z" id="Path-1481" fill="#BCBBD0"></path>
                            <path d="M62.3913574,0.110791989 L66.3399833,0.166769947 L70.224435,0.376730884 L73.7925502,0.698647737 L78.7105887,1.81646303 L83.0350167,3.3730339 L87.6227679,5.22850265 L90.8415876,6.86284975 L94.300014,8.93560365 L98.3757673,11.7421745 L102.358747,15.0691137 L105.748117,18.0546048 L108.45738,21.1248475 L110.902972,24.2571717 L113.48005,28.1934162 L117.234235,34.3848224 L109.117606,38.5149842 L106.982771,34.4005172 L104.773996,30.8137426 L102.344099,27.6465412 L100.003488,25.0806232 L96.8516323,21.9402772 L93.5321917,19.3447136 L89.9532645,16.887787 L85.257394,14.351689 L80.0442941,12.2712621 L75.0254604,10.854549 L70.6623186,10.0199368 L67.6618304,9.4918955 L65.0270299,9.28891001 L62.3796735,9.27338965 L62.3913574,0.110791989 Z" id="Path-1482" fill="#8887A3"></path>
                            <path d="M109.074445,38.3803581 L117.016253,34.0057941 L119.327218,38.3800093 L120.782994,42.2151098 L122.141462,47.2688207 L123.131278,51.4453693 L123.659319,55.5368174 L123.760114,59.7056929 L123.763951,63.8947973 L123.480748,69.8075345 L122.781808,74.9815718 L121.543666,78.9408352 L119.746443,83.9558324 L117.759138,88.0434441 L116.120954,90.3219736 L114.855608,91.1834413 L113.124651,91.2845852 L111.156529,90.6013403 L109.425223,89.301117 L108.586775,87.6280562 L108.179408,85.6484245 L108.707101,83.8627102 L110.702427,80.1908352 L111.97161,75.8859385 L112.98863,72.2995127 L113.764997,68.2820043 L114.168527,63.7713319 L114.261649,59.8354362 L114.182129,56.1147331 L113.733956,53.1358687 L113.116629,49.8675233 L112.134835,46.7854223 L110.997489,43.6956483 L110.081264,41.0718341 L109.074445,38.3803581 Z" id="Path-1483" fill="#14112D"></path>
                        </g>
                        <g id="Path-1476-+-Oval-577" transform="translate(44.285714, 20.930233)">
                            <path d="M0.551757812,51.7822266 L6.25,57.7518136 L58.0078125,2.88155692 L58.6830357,1.15792411 L57.7901786,0.187639509 L56.688058,0.00906808036 L55.6005859,0.202985491 L0.551757812,51.7822266 Z" id="Path-1476" stroke="#003346" fill="#1A4C5B"></path>
                            <ellipse id="Oval-577" fill="#000000" cx="17.8571429" cy="40.7142857" rx="7.14285714" ry="7.14285714"></ellipse>
                        </g>
                    </g>
                </g>
            </g>
        </g>
    </g>
</svg>