<?xml version="1.0" encoding="UTF-8" standalone="no"?>
<svg width="150px" height="150px" viewBox="0 0 150 150" version="1.1" xmlns="http://www.w3.org/2000/svg" xmlns:xlink="http://www.w3.org/1999/xlink" xmlns:sketch="http://www.bohemiancoding.com/sketch/ns">
    <!-- Generator: Sketch 3.2.2 (9983) - http://www.bohemiancoding.com/sketch -->
    <title>Oval 573 + Path 1469 + Path 1470 + Group + Oval 577</title>
    <desc>Created with Sketch.</desc>
    <defs>
        <circle id="path-1" cx="75" cy="75" r="75"></circle>
    </defs>
    <g id="Page-1" stroke="none" stroke-width="1" fill="none" fill-rule="evenodd" sketch:type="MSPage">
        <g id="Group" sketch:type="MSLayerGroup" transform="translate(-207.000000, -1279.000000)">
            <g id="Oval-573-+-Path-1469-+-Path-1470-+-Group-+-Oval-577">
                <g transform="translate(207.000000, 1279.000000)">
                    <g id="Oval-573-+-Path-1469-+-Path-1470">
                        <mask id="mask-2" sketch:name="Mask" fill="white">
                            <use xlink:href="#path-1"></use>
                        </mask>
                        <use id="Mask" sketch:type="MSShapeGroup" xlink:href="#path-1"></use>
                        <g mask="url(#mask-2)" sketch:type="MSShapeGroup">
                            <ellipse id="Oval-573" fill="#8887A3" cx="75" cy="75" rx="75" ry="75"></ellipse>
                            <g id="Path-1469-+-Path-1470" transform="translate(0.714286, 86.428571)">
                                <path d="M3.30078125,6.33649554 L6.46763393,2.76646205 L10.0390625,1.77176339 L13.5016741,1.16629464 L17.9422433,1.41462054 L20.5970982,3.2156808 L22.4197824,4.69238281 L24.1503906,6.71805246 L25.3850446,9.49009487 L25.8816964,13.4179688 L27.7141462,11.6015625 L29.9421038,10.8482143 L32.7211217,10.8482143 L35.9123884,11.4076451 L38.054548,12.0905413 L110.470145,12.1449498 L112.69043,10.8405413 L115.127651,10.8328683 L118.101283,11.1279297 L120.244141,11.67899 L122.464425,12.9757254 L123.139648,10.3125 L124.878627,7.24609375 L126.48577,4.96372768 L128.503767,3.37262835 L130.770787,1.4780971 L133.263114,0.670340402 L135.558733,0.670340402 L137.282366,0.414341518 L139.253627,0.414341518 L141.870117,1.64899554 L144.191546,3.17871094 L146.838728,5.04185268 L149.25293,7.69670759 L133.796735,48.7255859 L93.8392857,65.7191685 L48.78976,66.2779018 L22.9415458,52.7001953 L0.304129464,13.7834821 L3.30078125,6.33649554 Z" id="Path-1469" fill="#BCBBD0"></path>
                                <path d="M38.1208147,53.3217076 L41.3351004,50.1695033 L44.4942801,48.1821987 L48.1277902,46.5206473 L52.8787667,45.4031808 L57.6374163,45.2008929 L61.8917411,45.7603237 L65.4861886,46.6531808 L67.8773717,47.7008929 L70.5015346,49.1531808 L72.9624721,51.3811384 L74.8179408,54.4942801 L75.8740234,51.4585658 L78.2024275,49.7586496 L80.8963449,48.0503627 L84.5528739,46.6915458 L87.5111607,45.5664062 L90.476423,45.3878348 L93.3719308,45.3878348 L96.0818917,45.6905692 L99.054827,46.0009766 L102.02846,46.8547712 L104.589844,47.8955078 L106.732701,49.1217913 L111.452985,53.1745257 L96.3769531,62.3423549 L69.8967634,64.2682757 L45.8461217,61.1083984 L38.1208147,53.3217076 Z" id="Path-1470" fill="#D7D6DD"></path>
                            </g>
                        </g>
                    </g>
                    <g id="Group-+-Oval-574" transform="translate(36.926910, 22.857143)" sketch:type="MSShapeGroup">
                        <g id="Group">
                            <path d="M32.8568509,87.0458984 L31.1876265,88.7841797 L30.6833018,91.1209542 L30.4963598,93.6600167 L30.7990942,97.1303013 L31.9095852,100.095564 L33.3772192,102.447684 L34.9606455,104.349888 L37.421583,105.878906 L39.2072973,106.12793 L41.1171745,105.094866 L42.5841109,102.952706 L44.75766,100.34389 L46.1785585,96.8896484 L46.7142727,94.0171596 L46.7142727,91.4236886 L45.5423977,89.4601004 L44.1291723,87.6199777 L32.8568509,87.0458984 Z" id="Path-1475" fill="#171525"></path>
                            <path d="M31.2804,89.2975725 L35.2396634,89.483817 L39.1291723,89.6700614 L43.6478665,89.483817 L47.164189,89.483817 L49.687208,88.9250837 L52.5052884,87.2712054 L54.7876544,84.6393694 L56.2859803,81.6741071 L57.194881,77.4895368 L57.6915328,74.578683 L58.4365105,68.8804408 L58.8634078,63.4458705 L59.4612035,57.9575893 L59.4612035,53.1905692 L59.4612035,48.6181641 L59.2749591,43.6104911 L58.5376544,38.1068638 L56.992593,31.9893973 L55.0129614,26.7333984 L53.1191276,21.9977679 L50.7746801,17.0528739 L48.421862,12.6123047 L46.5043118,9.58426339 L44.0433743,6.25418527 L41.4506009,2.9624721 L39.4242337,0.936104911 L38.2132962,0.392717634 L36.8391332,0.726143973 L35.5430953,2.17006138 L32.5848085,5.64034598 L28.6025261,12.2467913 L25.7530562,17.0758929 L23.7580785,21.8966239 L21.5845294,28.1075614 L19.5504893,34.1315569 L18.3472247,40.3808594 L17.7884915,44.4719587 L17.5401656,48.9515904 L17.72641,54.7739955 L18.0214714,61.0930525 L18.3939602,66.7606027 L18.6966946,72.6213728 L19.3098364,76.6350446 L19.9773866,80.1597377 L21.0257962,83.7311663 L22.2520797,85.9514509 L24.4186533,87.8062221 L27.1355897,88.6760603 L31.2804,89.2975725 Z" id="Path-1471" fill="#FFFFFF"></path>
                            <path d="M60.0973643,54.9211775 L62.1781399,56.09375 L64.6934859,58.2442801 L66.968179,60.899135 L68.9317672,63.3056641 L71.1680953,67.1875 L73.3416444,71.3406808 L75.3910305,76.5890067 L76.3229502,80.0125558 L76.5015216,83.203125 L76.1980897,86.6657366 L75.2822136,88.8776507 L73.8850317,89.8716518 L71.5949926,89.8793248 L69.0098922,89.266183 L66.859362,88.023856 L64.6934859,87.0305525 L61.7972805,85.9974888 L59.3984245,85.2601842 L57.5352828,85.1360212 L55.1985082,85.1360212 L50.5640216,84.6547154 L60.0973643,54.9211775 Z" id="Path-1472" fill="#171525"></path>
                            <path d="M17.4299535,54.2075893 L15.5898308,54.8828125 L13.9129335,56.4822824 L11.2657515,59.3310547 L8.64228613,62.4986049 L6.31318457,65.7045201 L4.55816225,68.8720703 L3.07587988,71.7208426 L1.95771582,74.508231 L1.08857519,77.3960658 L0.342899969,79.8723493 L0.0248196117,82.9234096 L0.20339104,85.2755301 L0.57587988,87.4337333 L2.09792229,89.2117746 L3.80551158,89.8325893 L6.07253167,89.281529 L8.78179506,88.4821429 L11.312487,87.4881417 L13.5174256,86.4557757 L16.1646076,85.5398996 L18.6646076,84.9881417 L20.5744848,84.9881417 L25.6205227,85.4694475 L17.4299535,54.2075893 Z" id="Path-1473" fill="#171525"></path>
                            <path d="M38.8494569,53.4619141 L36.8698252,53.8420759 L35.4182348,55.4568917 L34.4242337,57.336077 L33.5474201,59.9441964 L32.9259078,62.5446429 L32.5534189,65.2699498 L32.429256,67.9401507 L32.429256,70.9061105 L32.6155004,74.4768415 L32.9105618,78.288923 L33.3995406,81.6113281 L34.1375428,84.8953683 L34.9990105,88.0859375 L36.0083576,91.0672433 L37.6538654,92.8529576 L39.3154167,92.5502232 L41.12415,89.273856 L42.5994569,84.6470424 L43.4685975,80.7652065 L44.2679837,76.9921875 L44.4542281,73.8330078 L44.4542281,70.2615792 L44.4542281,66.7989676 L44.1361477,62.179827 L43.2900261,58.9892578 L42.171862,56.2646484 L41.0620685,55.1541574 L38.8494569,53.4619141 Z" id="Path-1474" fill="#171525"></path>
                        </g>
                        <ellipse id="Oval-574" stroke="#14112D" fill="#ADAAB4" cx="38.0730897" cy="29.6428571" rx="8.57142857" ry="8.92857143"></ellipse>
                    </g>
                </g>
            </g>
        </g>
    </g>
</svg>