<?xml version="1.0" encoding="utf-8"?>
<!-- Generator: Adobe Illustrator 17.0.2, SVG Export Plug-In . SVG Version: 6.00 Build 0)  -->
<!DOCTYPE svg PUBLIC "-//W3C//DTD SVG 1.1//EN" "http://www.w3.org/Graphics/SVG/1.1/DTD/svg11.dtd">
<svg version="1.1" id="Layer_1" xmlns="http://www.w3.org/2000/svg" xmlns:xlink="http://www.w3.org/1999/xlink" x="0px" y="0px"
	 width="1920px" height="600px" viewBox="0 0 1920 600" enable-background="new 0 0 1920 600" xml:space="preserve">
<polygon fill="#777589" points="1324.614,373 589.951,373 957.28,57.725 "/>
<polygon fill="#777589" points="1029.525,599 240.229,599 634.874,232.98 "/>
<polygon fill="#777589" points="1660.465,599 871.17,599 1265.815,227.513 "/>
<polygon fill="#777589" points="624.12,332 1237.759,332 930.942,595.339 "/>
<polygon fill="#575469" points="1633.178,586 536.951,586 1085.061,323.467 "/>
<polygon fill="#575469" points="960.136,404.876 947.382,349.491 933.9,404.876 "/>
<polygon fill="#575469" points="991.624,416.003 976.944,352.25 961.425,416.003 "/>
<polygon fill="#777589" points="740.525,599 0.229,599 370.374,327.98 "/>
<polygon fill="#777589" points="1851.525,566 1111.229,566 1481.374,294.98 "/>
<polygon fill="#575469" points="861.463,462.366 846.783,398.613 831.265,462.366 "/>
<polygon fill="#575469" points="837.032,486.331 822.352,422.579 806.833,486.331 "/>
<polygon fill="#575469" points="755.579,525.12 740.899,461.368 725.38,525.12 "/>
<polygon fill="#575469" points="1191.5,400.693 1178.746,345.307 1165.264,400.693 "/>
<polygon fill="#575469" points="1124.004,351.16 1111.251,295.774 1097.769,351.16 "/>
<polygon fill="#575469" points="1214.487,412.819 1201.734,357.434 1188.252,412.819 "/>
<polygon fill="#575469" points="983.178,599 69.652,599 526.412,416.467 "/>
<polygon fill="#575469" points="454.468,493.052 439.788,429.299 424.269,493.052 "/>
<polygon fill="#575469" points="467.943,495.546 453.263,431.793 437.744,495.546 "/>
<polygon fill="#575469" points="559.736,476.572 545.056,412.819 529.537,476.572 "/>
<polygon fill="#575469" points="575.408,476.572 560.728,412.819 545.209,476.572 "/>
<polygon fill="#575469" points="632.486,498.584 617.806,434.832 602.287,498.584 "/>
<linearGradient id="SVGID_1_" gradientUnits="userSpaceOnUse" x1="1470.201" y1="470.2672" x2="1470.201" y2="225.6196">
	<stop  offset="0" style="stop-color:#192028"/>
	<stop  offset="0.9946" style="stop-color:#313540"/>
</linearGradient>
<polygon fill="url(#SVGID_1_)" points="1528.144,470.267 1471.811,225.62 1412.258,470.267 "/>
<linearGradient id="SVGID_2_" gradientUnits="userSpaceOnUse" x1="1584.8052" y1="397.2608" x2="1584.8052" y2="152.6133">
	<stop  offset="0" style="stop-color:#192028"/>
	<stop  offset="0.9946" style="stop-color:#313540"/>
</linearGradient>
<polygon fill="url(#SVGID_2_)" points="1642.748,397.261 1586.415,152.613 1526.862,397.261 "/>
<linearGradient id="SVGID_3_" gradientUnits="userSpaceOnUse" x1="1734.5076" y1="425.2672" x2="1734.5076" y2="180.6196">
	<stop  offset="0" style="stop-color:#192028"/>
	<stop  offset="0.9946" style="stop-color:#313540"/>
</linearGradient>
<polygon fill="url(#SVGID_3_)" points="1792.45,425.267 1736.117,180.62 1676.565,425.267 "/>
<linearGradient id="SVGID_4_" gradientUnits="userSpaceOnUse" x1="182.7008" y1="547.5909" x2="182.7008" y2="302.9434">
	<stop  offset="0" style="stop-color:#192028"/>
	<stop  offset="0.9946" style="stop-color:#313540"/>
</linearGradient>
<polygon fill="url(#SVGID_4_)" points="240.644,547.591 184.31,302.943 124.758,547.591 "/>
<linearGradient id="SVGID_5_" gradientUnits="userSpaceOnUse" x1="324.6317" y1="592.5909" x2="324.6317" y2="347.9434">
	<stop  offset="0" style="stop-color:#192028"/>
	<stop  offset="0.9946" style="stop-color:#313540"/>
</linearGradient>
<polygon fill="url(#SVGID_5_)" points="382.575,592.591 326.241,347.943 266.689,592.591 "/>
<linearGradient id="SVGID_6_" gradientUnits="userSpaceOnUse" x1="960.0217" y1="599" x2="960.0217" y2="309.9101">
	<stop  offset="0" style="stop-color:#292536"/>
	<stop  offset="0.9946" style="stop-color:#353142"/>
</linearGradient>
<path fill="url(#SVGID_6_)" d="M1586.096,310.503c-2.65,1.867-12.856,1.411-27.07,1.12c-3.697-0.076-7.665-2.006-11.842-1.675
	c-3.316,0.263-6.765,3.609-10.312,4.07c-3.147,0.408-6.374,3.86-9.658,4.365c-2.825,0.435-5.693,3.881-8.59,4.34
	c-4.289,0.68-8.64-0.579-13.008,0.235c-5.928,1.105-11.888,10.152-17.767,11.111c-4.847,0.79-9.639,2.85-14.312,1.992
	c-3.28-0.602-9.644-4.055-9.644-4.055s-15.028,4.459-21.481,5.573c-1.024,0.177-3.995,5.863-8.487,8.418
	c-4.454,2.532-10.403,2.919-17.434,5.535c-7.03,2.616-15.143,7.462-23.921,10.914c-17.154,6.747-36.855,7.943-56.01,16.769
	c-11.426,5.265-22.659,13.533-33.041,19.181c-1.897,1.032-3.767,0.044-5.604,1.025c-1.367,0.729-2.716,5.39-4.045,5.964
	c-2.586,1.117-5.098,3.932-7.523,3.533c-2.599-0.428-5.098-1.101-7.481-0.682c-3.092,0.543-5.992,2.121-8.668,3.238
	c-5.296,2.213-7.712,4.059-10.993,4.432c-3.283,0.372-7.432-0.729-8.192-0.413c-2.231,0.927-4.473-1.142-6.724-0.206
	c-2.615,1.086-5.244,5.177-7.885,6.272c-2.498,1.036-5.006,2.791-7.525,2.482c-2.52-0.311-5.049-2.686-7.588-1.909
	c-1.638,0.501-3.279,3.064-4.924,3.748c-1.758,0.73-3.521-0.864-5.287-1.714c-2.734-1.314-5.479,2.766-8.232,4.208
	c-2.652,1.39-5.313,4.788-7.982,7.504c-5.463,5.558-10.959,8.441-16.483,10.714c-11.949,4.916-24.027,4.897-36.17,9.918
	c-7.767,3.212-14.562,2.451-22.371,5.712c-4.202,1.754-15.735,6.514-23.125,8.28c-2.061,0.492-5.799,3.985-6.966,4.478
	c-1.896,0.801-7.789-1.108-9.681,1.488c-4.336,5.956-2.661,7.571-6.973,9.392c-2.004,0.847-11.044,2.603-13.001,3.536
	c-2.811,1.34-17.624,14.137-28.208,18.602c-10.769,4.543-21.361,8.356-31.717,10.99c-1.934,0.491-3.858-3.884-5.774-3.063
	c-3.151,1.349-6.279-0.423-9.383,2.092c-6.203,5.026-12.307,15.195-18.297,17.762c-25.027,10.724-48.066,20.609-68.123,29.225
	c-3.094-0.567-6.559-0.768-10.571-0.768c-6.611,0-12.773-2.36-15.059-3.176c-4.799-1.711-5.512-2.646-14.326,3.176
	c-4.671,3.085-52.66,9.676-77.779,13.742c-15.125,2.449-88.295-3.498-100.143-10.466c-11.85-6.968-46.968-17.579-58.188-12.37
	c-29.827,13.85-75.892,6.977-80.667,7.507c-4.774,0.529-19.835-0.529-19.835-0.529s-2.204,0.264-3.673,1.588
	c-1.47,1.323-8.814,2.646-12.488,1.323c-3.673-1.323-12.857-8.997-16.897-12.438c-4.04-3.44-10.652-3.705-11.753-0.528
	c-1.103,3.175-1.47,4.763-5.51,7.145c-4.041,2.381-16.529,3.97-16.529,3.97s-3.46,4.627-11.473,7.017v0.106
	c-1.839,0.626-3.806,1.008-5.009,0.287c-2.205-1.324-5.51,1.586-8.816,1.586c-3.306,0-6.35-6.455-10.846-7.58
	c-4.497-1.124-4.947,3.875-9.723,4.141c-4.775,0.264-15.427-0.266-19.835-2.117c-4.408-1.852-9.55-2.382-16.161-2.382
	c-6.611,0-12.773-2.36-15.06-3.176c-4.797-1.711-5.511-2.646-14.326,3.176c-4.67,3.085-46.574-3.243-89.074,10.923
	c-14.537,4.845-39.513,3.091-51.362-3.877c-11.848-6.969-32.565-8.633-38.074-10.751c-5.51-2.116-9.917-1.851-14.325-1.587
	c-4.409,0.265-12.856-1.059-17.998-3.439c-5.143-2.382-9.55-1.588-13.223,0.529c-3.672,2.117-16.896,6.086-21.671,6.615
	c-4.774,0.529-19.835-0.529-19.835-0.529s-2.204,0.264-3.672,1.588c-1.47,1.323-8.815,2.646-12.488,1.323
	c-3.674-1.323-12.856-8.997-16.896-12.438c-4.041-3.44-10.652-3.705-11.754-0.528c-1.102,3.175-1.469,4.763-5.509,7.145
	c-4.041,2.381-16.53,3.97-16.53,3.97s-3.46,4.627-11.473,7.017V599h443.661h0.308h375.569h0.568h219.239H1920V313.244
	c-5.998-0.577-20,2.9-26.107,2.9c-2.631,0-2.224,0.189-11.297,1.276c-2.934,0.352-8.682-2.684-12.3-3.752
	c-1.213-0.357-7.452,0.305-8.717-0.006c-1.959-0.481-8.907,2.058-10.82,1.629c-3.967-0.889-11.584,0.263-14.548-0.482
	c-2.84-0.714-7.02-3.272-8.25-3.601c-4.702-1.254-5.564,2.357-7.396,4.955c-0.808,1.146-1.805,1.289-3.402,2.097
	c-1.18,0.596-5.534,1.009-7.16,1.105c-2.119,0.124-1.455,0.717-4.998,0.63c-0.829-0.021-1.89,0.867-3.271,0.622
	c-1.357-0.24-3.025-3.505-5.088-3.792c-0.828-0.115-6.7-0.234-7.618-0.357c-1.61-0.215-4.354-2.42-6.243-2.609
	c-0.888-0.089-4.803,0.823-5.745,0.737c-3.408-0.312-7.176-2.555-11.347-2.699c-3.784-0.131-28.595,5.731-32.39,5.589
	c-2.548-0.096-5.088-2.184-7.609-2.262c-2.256-0.07-7.485,2.856-9.678,2.779c-3.314-0.115-6.545-3.216-9.656-3.299
	c-2.407-0.064-4.743,2.873-6.992,2.809c-3.729-0.107-9.199,3.751-12.332,3.565c-8.964-0.529-15.173-5.154-16.801-5.884
	c-8.143-3.65-17.641-4.692-29.854-4.692"/>
<linearGradient id="SVGID_7_" gradientUnits="userSpaceOnUse" x1="466.9502" y1="599" x2="466.9502" y2="454.795">
	<stop  offset="0" style="stop-color:#292536"/>
	<stop  offset="0.9946" style="stop-color:#363243"/>
</linearGradient>
<path fill="url(#SVGID_7_)" d="M28.486,464.961c2.871,0,2.426,0.132,12.327,0.896c3.201,0.247,9.473-1.886,13.42-2.637
	c1.324-0.251,8.131,0.215,9.511-0.004c2.138-0.338,9.719,1.446,11.806,1.145c4.329-0.624,12.64,0.185,15.874-0.339
	c3.099-0.502,7.659-2.3,9.002-2.53c5.131-0.881,6.072,1.656,8.071,3.482c0.881,0.805,1.969,0.905,3.712,1.474
	c1.288,0.418,6.039,0.708,7.813,0.776c2.312,0.087,1.587,0.504,5.454,0.442c0.904-0.014,2.062,0.609,3.568,0.438
	c1.481-0.169,3.301-2.463,5.551-2.665c0.904-0.081,7.311-0.164,8.312-0.251c1.757-0.151,4.751-1.7,6.812-1.834
	c0.969-0.062,5.241,0.579,6.269,0.518c3.719-0.219,7.83-1.795,12.38-1.896c4.129-0.093,31.201,4.027,35.341,3.927
	c2.78-0.067,5.552-1.534,8.303-1.589c2.461-0.05,8.167,2.007,10.56,1.953c3.617-0.081,7.142-2.26,10.536-2.318
	c2.627-0.045,5.176,2.019,7.629,1.974c4.069-0.075,10.038,2.636,13.456,2.506c9.781-0.372,16.556-3.622,18.332-4.135
	c8.885-2.565,19.249-3.298,32.574-3.298c13.328,0,25.748-3.269,30.355-4.398c9.671-2.369,11.107-3.663,28.876,4.398
	c2.892,1.312,14.028,0.992,29.537,0.787c4.034-0.054,8.364-1.409,12.921-1.177c3.619,0.185,7.381,2.536,11.252,2.86
	c3.434,0.287,6.955,2.713,10.538,3.067c3.082,0.306,6.212,2.727,9.372,3.05c4.68,0.477,9.427-0.407,14.193,0.165
	c6.468,0.777,12.971,7.135,19.386,7.809c5.288,0.556,10.517,2.003,15.616,1.4c3.579-0.423,7.094-2.925,10.522-2.85
	c8.466,0.186,16.398,3.134,23.439,3.917c1.118,0.124,4.359,4.12,9.261,5.915c4.86,1.779,11.351,2.052,19.022,3.89
	c7.671,1.839,16.523,5.244,26.101,7.67c18.718,4.741,40.214,5.582,61.114,11.784c16.444,4.879,32.519,14.479,46.58,18.391
	c9.765,2.715,18.558,2.323,25.83,4.279c11.558,3.109,19.272,2.379,20.934,2.824c5.262,1.408,10.577,2.83,15.939,4.263
	c7.207,1.925,14.498,2.47,21.863,4.441c13.597,3.641,27.441,9.439,41.447,13.149c13.038,3.455,26.217,3.442,39.466,6.97
	c8.475,2.258,15.89,1.723,24.41,4.014c5.864,1.577,24.811,3.161,30.651,4.75C910.536,574.219,933.9,599,933.9,599H0V462.923
	C6.544,462.517,21.823,464.961,28.486,464.961z"/>
<path fill="#24222D" d="M1547.184,309.948c0,0,49.733,26.802,81.483,47.052c0,0-7.417-32.5-6.023-46.542L1547.184,309.948"/>
<path fill="#24222D" d="M1443.671,337.271"/>
<path fill="#24222D" d="M1497.06,328.276c-7.034,6.109-7.716,5.349-7.716,5.349l-9.235,2.165l-1.734,0.295l26.257,16.165
	C1504.633,352.25,1492.63,338.711,1497.06,328.276z"/>
<path fill="#24222D" d="M1716.354,318.004L1716.354,318.004c0,0,0.681,0.128,5.882-1.917c0.378-0.136,0,0,0,0
	s2.31-0.948,3.732-0.846l0,0c0,0,1.32-0.034,3.934,1.284c2.614,1.318,0,0,0,0s2.432,1.357,5.531,0.783
	c3.099-0.574,7.157-1.233,10.466-1.893c3.309-0.66,12.637-2.49,12.637-2.49s5.826-1.295,7.819-0.987
	c-2.703,16.337-2.703,36.005-2.703,36.005l-47.636-29.939"/>
<path fill="#24222D" d="M283.635,462.073c0,0,9.109-0.82,11.359-0.897c0,0-10.41,9.908-10.16,10.991
	C285.083,473.25,283.635,462.073,283.635,462.073z"/>
<path fill="#24222D" d="M144.937,464.695l4.783-1.34l6.269,0.518l11.388-1.85c0,0,7.75,0.079,35.124,3.841
	c0,0,2.776,0.14,9.512-1.549c0,0,4.433,0.532,9.897,1.921c0,0-56.514,18.181-87.911,34.264L144.937,464.695z"/>
</svg>
