<?xml version="1.0" encoding="utf-8"?>
<!-- Generator: Adobe Illustrator 17.0.2, SVG Export Plug-In . SVG Version: 6.00 Build 0)  -->
<!DOCTYPE svg PUBLIC "-//W3C//DTD SVG 1.1//EN" "http://www.w3.org/Graphics/SVG/1.1/DTD/svg11.dtd">
<svg version="1.1" id="Layer_1" xmlns="http://www.w3.org/2000/svg" xmlns:xlink="http://www.w3.org/1999/xlink" x="0px" y="0px"
	 width="750px" height="1334px" viewBox="0 0 750 1334" enable-background="new 0 0 750 1334" xml:space="preserve">
<rect y="-0.926" fill="#3F454E" width="750" height="1334.851"/>
<circle opacity="0.1" fill="none" stroke="#DEDEE2" stroke-width="11.1269" stroke-miterlimit="10" cx="489.46" cy="657.498" r="34.627"/>
<circle opacity="0.1" fill="none" stroke="#DEDEE2" stroke-width="11.1269" stroke-miterlimit="10" cx="667.026" cy="456.339" r="34.627"/>
<circle opacity="0.1" fill="none" stroke="#DEDEE2" stroke-width="11.1269" stroke-miterlimit="10" cx="248.566" cy="1172.812" r="34.627"/>
<circle opacity="0.1" fill="none" stroke="#DEDEE2" stroke-width="11.1269" stroke-miterlimit="10" cx="439.791" cy="288.706" r="34.627"/>
<circle opacity="0.1" fill="none" stroke="#DEDEE2" stroke-width="11.1269" stroke-miterlimit="10" cx="621.082" cy="75.13" r="34.627"/>
<circle opacity="0.1" fill="none" stroke="#DEDEE2" stroke-width="11.1269" stroke-miterlimit="10" cx="71" cy="746.902" r="34.627"/>
<rect x="40.064" y="1055.783" transform="matrix(0.7071 0.7071 -0.7071 0.7071 785.2752 269.7232)" opacity="0.1" fill="none" stroke="#DEDEE2" stroke-width="9.1661" stroke-miterlimit="10" width="53.978" height="53.978"/>
<rect x="78.557" y="395.187" transform="matrix(0.7071 0.7071 -0.7071 0.7071 329.4378 49.0202)" opacity="0.1" fill="none" stroke="#DEDEE2" stroke-width="9.1661" stroke-miterlimit="10" width="53.978" height="53.978"/>
<rect x="586.421" y="703.134" transform="matrix(0.7071 0.7071 -0.7071 0.7071 695.9392 -219.8985)" opacity="0.1" fill="none" stroke="#DEDEE2" stroke-width="9.1661" stroke-miterlimit="10" width="53.978" height="53.978"/>
<rect x="316.968" y="85.999" transform="matrix(0.7071 0.7071 -0.7071 0.7071 180.6372 -210.1208)" opacity="0.1" fill="none" stroke="#DEDEE2" stroke-width="9.1661" stroke-miterlimit="10" width="53.978" height="53.978"/>
<circle opacity="0.1" fill="none" stroke="#DEDEE2" stroke-width="11.1269" stroke-miterlimit="10" cx="179.029" cy="219.17" r="34.627"/>
<circle opacity="0.1" fill="none" stroke="#DEDEE2" stroke-width="11.1269" stroke-miterlimit="10" cx="227.457" cy="657.498" r="34.627"/>
<circle opacity="0.1" fill="none" stroke="#DEDEE2" stroke-width="11.1269" stroke-miterlimit="10" cx="340.453" cy="835.064" r="34.627"/>
<circle opacity="0.1" fill="none" stroke="#DEDEE2" stroke-width="11.1269" stroke-miterlimit="10" cx="305.685" cy="456.339" r="34.627"/>
<circle opacity="0.1" fill="none" stroke="#DEDEE2" stroke-width="11.1269" stroke-miterlimit="10" cx="439.791" cy="1207.581" r="34.627"/>
<circle opacity="0.1" fill="none" stroke="#DEDEE2" stroke-width="11.1269" stroke-miterlimit="10" cx="595.006" cy="954.269" r="34.627"/>
<rect x="256.123" y="961.413" transform="matrix(0.7071 0.7071 -0.7071 0.7071 781.8274 89.3054)" opacity="0.1" fill="none" stroke="#DEDEE2" stroke-width="9.1661" stroke-miterlimit="10" width="53.978" height="53.978"/>
<rect x="605.047" y="1148.913" transform="matrix(0.7071 0.7071 -0.7071 0.7071 1016.6072 -102.5035)" opacity="0.1" fill="none" stroke="#DEDEE2" stroke-width="9.1661" stroke-miterlimit="10" width="53.978" height="53.978"/>
<rect x="606.289" y="262.323" transform="matrix(0.7071 0.7071 -0.7071 0.7071 390.0576 -363.0576)" opacity="0.1" fill="none" stroke="#DEDEE2" stroke-width="9.1661" stroke-miterlimit="10" width="53.978" height="53.978"/>
<rect x="447.349" y="429.956" transform="matrix(0.7071 0.7071 -0.7071 0.7071 462.0391 -201.5713)" opacity="0.1" fill="none" stroke="#DEDEE2" stroke-width="9.1661" stroke-miterlimit="10" width="53.978" height="53.978"/>
<rect x="43.789" y="48.747" transform="matrix(0.7071 0.7071 -0.7071 0.7071 74.284 -27.865)" opacity="0.1" fill="none" stroke="#DEDEE2" stroke-width="9.1661" stroke-miterlimit="10" width="53.978" height="53.978"/>
</svg>
