<?xml version="1.0" encoding="utf-8"?>
<!-- Generator: Adobe Illustrator 17.0.2, SVG Export Plug-In . SVG Version: 6.00 Build 0)  -->
<!DOCTYPE svg PUBLIC "-//W3C//DTD SVG 1.1//EN" "http://www.w3.org/Graphics/SVG/1.1/DTD/svg11.dtd">
<svg version="1.1" id="Layer_1" xmlns="http://www.w3.org/2000/svg" xmlns:xlink="http://www.w3.org/1999/xlink" x="0px" y="0px"
	 width="300px" height="300px" viewBox="0 0 300 300" enable-background="new 0 0 300 300" xml:space="preserve">
<circle fill="#777589" cx="150.025" cy="149.025" r="147.025"/>
<path id="Shadow" opacity="0.2" d="M199.5,48.505l82.213,165.97c0,0-44.838,96.4-157.72,79.278L102.5,251.389L199.5,48.505z"/>
<g>
	<path fill="#FFFFFF" d="M101,86.862c0-0.66-0.672-1.196-1.5-1.196l0,0c-0.828,0-1.5,0.535-1.5,1.196v15.942
		c0,0.66,0.672,1.196,1.5,1.196l0,0c0.828,0,1.5-0.535,1.5-1.196V86.862z"/>
	<path fill="#FFFFFF" d="M101,107.862c0-0.66-0.672-1.196-1.5-1.196l0,0c-0.828,0-1.5,0.535-1.5,1.196v15.942
		c0,0.66,0.672,1.196,1.5,1.196l0,0c0.828,0,1.5-0.535,1.5-1.196V107.862z"/>
	<path fill="#FFFFFF" d="M203,86.862c0-0.66-0.672-1.196-1.5-1.196l0,0c-0.828,0-1.5,0.535-1.5,1.196v15.942
		c0,0.66,0.672,1.196,1.5,1.196l0,0c0.828,0,1.5-0.535,1.5-1.196V86.862z"/>
	<path fill="#FFFFFF" d="M202,237.913c0,14.06-1.351,17.087-16.556,17.087h-67.392C103.208,255,99,252.206,99,237.913V58.56
		C99,48.597,103.763,45,118.053,45h67.392C199.386,45,202,48.364,202,58.56V237.913z"/>
	<rect x="102.5" y="72.5" fill="#444444" stroke="#7C7C7C" stroke-miterlimit="10" width="97" height="155"/>
	<path fill="#9E9E9E" d="M159,59.894c0,0.611-0.495,1.106-1.106,1.106h-15.788c-0.611,0-1.106-0.495-1.106-1.106v-0.788
		c0-0.611,0.495-1.106,1.106-1.106h15.788c0.611,0,1.106,0.495,1.106,1.106V59.894z"/>
	<ellipse fill="#9E9E9E" cx="135.398" cy="59.587" rx="1.321" ry="1.342"/>
	<circle fill="#EFEFEF" stroke="#EDEDED" stroke-width="1.397" stroke-miterlimit="10" cx="150.164" cy="240.856" r="9.953"/>
	<path id="Glare" display="none" opacity="0.1" fill="#FFFFFF" d="M185.444,45h-65.212l79.991,205.454
		c1.635-2.599,1.777-6.405,1.777-12.541V58.56C202,48.364,199.386,45,185.444,45z"/>
</g>
</svg>
