<?xml version="1.0" encoding="UTF-8" standalone="no"?>
<svg width="750px" height="3054px" viewBox="0 0 750 3054" version="1.1" xmlns="http://www.w3.org/2000/svg" xmlns:xlink="http://www.w3.org/1999/xlink" xmlns:sketch="http://www.bohemiancoding.com/sketch/ns">
    <!-- Generator: Sketch 3.2.2 (9983) - http://www.bohemiancoding.com/sketch -->
    <title>mobile_home 2</title>
    <desc>Created with Sketch.</desc>
    <defs></defs>
    <g id="Page-1" stroke="none" stroke-width="1" fill="none" fill-rule="evenodd" sketch:type="MSPage">
        <g id="mobile_home-2" sketch:type="MSArtboardGroup">
            <g id="sun_rays" sketch:type="MSLayerGroup" transform="translate(309.048886, 1259.240168) rotate(9.000000) translate(-309.048886, -1259.240168) translate(-3078.951114, -1694.259832)">
                <g transform="translate(3388.209667, 2953.577725) rotate(13.000000) translate(-3388.209667, -2953.577725) translate(455.209667, 600.077725)" sketch:type="MSShapeGroup">
                    <path d="M3813.8876,4706.93844 L1612.07437,1439.53927 L4090.96695,4488.45211 L3813.8876,4706.93844 Z" id="Path-214" fill-opacity="0.0900000036" fill="#89C4F4"></path>
                    <path d="M3968.61518,4142.62156 L1652.3428,1400.79451 L4322.02406,3993.27545 L3968.61518,4142.62156 Z" id="Path-215" fill-opacity="0.0900000036" fill="#89C4F4"></path>
                    <path d="M2370.31473,3161.07016 L1574.03406,1461.12156 L3267.6851,4258.75034 L2900.52932,4358.88755 L2370.31473,3161.07016 Z" id="Path-216" fill-opacity="0.0500000045" fill="#89C4F4"></path>
                    <path d="M2937.7729,2538.16882 L1709.13994,1370.85778 L4341.95572,3414.67795 L4089.7851,3599.96291 L2937.7729,2538.16882 Z" id="Path-217" fill-opacity="0.0900000036" fill="#89C4F4"></path>
                    <path d="M1508.49995,1496.35366 L2399.25344,4110.32196 L2645.84698,4072.42108 L1508.49995,1496.35366 Z" id="Path-218" stroke="#979797"></path>
                    <path d="M1767.63855,1342.98856 L4530.18568,3418.44378 L4755.26761,3228.12717 L1767.63855,1342.98856 Z" id="Path-219" fill-opacity="0.0897168815" fill="#89C4F4"></path>
                    <path d="M1809.18985,1300.39359 L4860.31394,3127.39924 L5150.51137,2941.89277 L1809.18985,1300.39359 Z" id="Path-220" fill-opacity="0.0900000036" fill="#89C4F4"></path>
                    <path d="M1865.41982,1261.03702 L5275.77294,2872.29356 L5571.66899,2672.58876 L1865.41982,1261.03702 Z" id="Path-221" fill-opacity="0.0900000036" fill="#89C4F4"></path>
                    <path d="M1914.70882,1219.87665 L5528.64577,2530.32072 L5704.54673,2289.88804 L1914.70882,1219.87665 Z" id="Path-222" fill-opacity="0.0900000036" fill="#89C4F4"></path>
                    <path d="M1953.38381,1179.72894 L5719.81956,2180.32044 L5865.97157,1925.79492 L1953.38381,1179.72894 Z" id="Path-223" fill-opacity="0.0900000036" fill="#89C4F4"></path>
                    <path d="M2014.54268,1137.70359 L5518.30183,1754.98255 L5566.87512,1511.50135 L2014.54268,1137.70359 Z" id="Path-224" fill-opacity="0.0900000036" fill="#89C4F4"></path>
                    <path d="M2072.87925,1086.16346 L5445.86726,1442.23969 L5523.25774,1184.42303 L2072.87925,1086.16346 Z" id="Path-225" fill-opacity="0.0900000036" fill="#89C4F4"></path>
                    <path d="M2126.47597,1031.69912 L5495.37232,1142.8701 L5534.31738,917.458527 L2126.47597,1031.69912 Z" id="Path-226" fill-opacity="0.0900000036" fill="#89C4F4"></path>
                    <path d="M2188.5531,979.220178 L5505.1626,858.766497 L5529.07789,597.658697 L2188.5531,979.220178 Z" id="Path-227" stroke="#979797"></path>
                    <path d="M2191.44292,908.038688 L5135.91372,575.80214 L5096.82012,372.943331 L2191.44292,908.038688 Z" id="Path-228" stroke="#979797"></path>
                    <path d="M2090.46124,873.755961 L3803.61182,568.165003 L3745.00517,479.757761 L2090.46124,873.755961 Z" id="Path-229" stroke="#979797"></path>
                    <path d="M1969.16979,848.165223 L3660.67372,452.764069 L3593.49214,349.926435 L1969.16979,848.165223 Z" id="Path-230" stroke="#979797"></path>
                    <path d="M1908.61859,835.601922 L3574.11413,316.466493 L3507.83731,226.424228 L1908.61859,835.601922 Z" id="Path-231" stroke="#979797"></path>
                    <path d="M1869.2279,808.840298 L3435.9834,206.592989 L3403.07455,113.8503 L1869.2279,808.840298 Z" id="Path-232" stroke="#979797"></path>
                    <path d="M1440.77822,1520.15942 L1979.56774,4133.33658 L2319.49979,4221.66998 L1440.77822,1520.15942 Z" id="Path-235" stroke="#979797"></path>
                    <path d="M897.55767,1501.24498 C1022.69674,1653.36965 1410.81429,1629.72159 1764.44247,1448.42555 C2118.07065,1267.12951 2303.29766,996.838626 2178.15859,844.713955 C2053.01952,692.589283 1664.90198,716.237347 1311.2738,897.533384 C957.645616,1078.82942 772.418598,1349.12031 897.55767,1501.24498 L897.55767,1501.24498 Z" id="Oval-88" stroke="#979797" fill-opacity="0.81677423" fill="#E4D94C"></path>
                </g>
            </g>
            <g id="curve_up_dollar-4" sketch:type="MSLayerGroup" transform="translate(512.926257, 992.088636) rotate(59.000000) translate(-512.926257, -992.088636) translate(461.064515, 969.499147)">
                <g id="Path-441-+-Path-442" sketch:type="MSShapeGroup">
                    <path d="M8.66541,0.094468961 L17.1812014,2.98846971 L24.8253512,4.88800689 L35.2578474,6.49296343 L45.9680448,7.2954417 L56.6397041,7.02422436 L65.3062476,6.49296343 L75.4485744,5.60007938 L84.897215,3.51973064 L96.0619356,0.648077388 L103.642611,37.7967266 L90.8513548,41.0076554 L81.2768986,42.7141915 L69.1668606,43.7096709 L59.3906459,44.8961198 L49.0204907,44.6249024 L39.4709709,44.8961198 L30.4394487,43.5512068 L20.0568254,42.3525684 L9.08252849,39.9441178 L0.0498728633,37.3558714 L8.66541,0.094468961 Z" id="Path-441" fill="#239C6F"></path>
                    <path d="M7.21569654,26.5142884 L9.81361933,14.6894155 L13.2197092,14.6894155 L17.4464344,13.7965315 L20.8649925,11.625777 L23.4130424,7.98516669 L32.6848611,9.87353012 L40.367549,10.3936173 L50.2197064,10.6414713 L58.7604342,10.5632551 L66.404584,9.7485873 L74.5531298,9.02534106 L80.469865,7.9404717 L82.2743558,10.7328929 L84.8099375,13.0834432 L88.9856564,14.0565751 L93.9684088,14.0108643 L96.8066281,25.7788526 L94.1951036,26.4127089 L91.1273558,28.3218961 L88.2761015,30.8771291 L86.1474371,33.5801604 L85.0491006,38.0791176 L76.7860739,40.0243656 L66.9214482,41.2788728 L54.8238785,42.0925248 L45.6914771,41.3804523 L34.0348288,40.6683798 L24.2960188,39.9227861 L19.3767409,39.2208715 L17.899824,34.857015 L15.0117319,30.9116662 L11.1760553,28.1304187 L7.21569654,26.5142884 Z" id="Path-442" fill="#62C29C"></path>
                </g>
                <ellipse id="Oval-103" fill="#239C6F" sketch:type="MSShapeGroup" cx="51.7831634" cy="25.3429816" rx="13.5940626" ry="12.5965116"></ellipse>
                <text id="$-2" sketch:type="MSTextLayer" transform="translate(52.945777, 24.098675) rotate(-3.000000) translate(-52.945777, -24.098675) " font-family="Myriad Web Pro" font-size="20.195122" font-weight="normal" fill="#62C29C">
                    <tspan x="46.0606696" y="30.5986752">$</tspan>
                </text>
                <ellipse id="Oval-102" fill="#239C6F" sketch:type="MSShapeGroup" cx="23.4949406" cy="23.54348" rx="5.26475258" ry="5.09858802"></ellipse>
                <ellipse id="Oval-101" fill="#239C6F" sketch:type="MSShapeGroup" cx="80.0713862" cy="22.6437291" rx="5.26475258" ry="5.09858802"></ellipse>
            </g>
            <g id="curve_down_dollar-3" sketch:type="MSLayerGroup" transform="translate(31.575774, 834.251140) rotate(80.000000) translate(-31.575774, -834.251140) translate(-25.368226, 778.564016)">
                <g id="Path-439-+-Path-440" transform="translate(56.967868, 55.668185) rotate(28.000000) translate(-56.967868, -55.668185) translate(11.871590, 17.804565)" sketch:type="MSShapeGroup">
                    <path d="M0.0467843763,38.0930884 L9.47780847,28.7675763 L19.2822248,21.0050151 L30.7276253,13.1579957 L41.9364557,7.93012893 L54.0703809,3.78977996 L68.1577745,0.0717219101 L90.1049434,30.5307595 L78.3947257,33.815139 L66.7136379,37.1849257 L55.1702551,42.2011724 L44.904174,47.9044723 L36.9367065,52.7945063 L28.7044217,58.7189158 L21.6408636,64.7923133 L10.2740256,75.7225309 L8.4564967,68.6470228 L5.73505836,60.4726093 L3.76128731,52.4671122 L2.11059328,46.4990502 L0.0467843763,38.0930884 Z" id="Path-439" fill="#239C6F"></path>
                    <path d="M6.01841279,48.4634147 L9.48575298,60.2078471 L12.0597764,58.4551026 L16.1467889,58.4551026 L18.9564997,58.6875998 L21.8447728,60.8626353 L29.9402354,53.5963846 L36.9932008,48.7803701 L43.6251068,44.8098865 L51.2191821,40.6163953 L59.2157796,37.2475576 L67.7234743,33.7098035 L72.0364641,32.3470849 L71.8104868,28.4392332 L73.4611808,24.9754987 L77.056516,22.356346 L79.1591648,20.8351497 L72.9597935,11.108224 L69.0793385,10.9393076 L64.3241038,10.6859331 L59.8548718,9.42854998 L55.7281367,6.07015094 L45.6589031,10.1896226 L37.4557482,13.9067317 L29.733678,17.9626225 L23.476047,21.8382093 L16.834431,26.9075983 L11.9909239,30.2659973 L11.6863841,34.3750303 L10.6156398,39.5601935 L8.50328108,44.2917497 L6.01841279,48.4634147 Z" id="Path-440" fill="#62C29C"></path>
                </g>
                <ellipse id="Oval-104" fill="#239C6F" sketch:type="MSShapeGroup" cx="54.7250798" cy="46.0301643" rx="11.2903851" ry="11.6717216"></ellipse>
                <text id="$" sketch:type="MSTextLayer" transform="translate(56.775698, 45.399135) rotate(3.000000) translate(-56.775698, -45.399135) " font-family="Myriad Web Pro" font-size="19.3170732" font-weight="normal" fill="#62C29C">
                    <tspan x="50.3629538" y="51.3991353">$</tspan>
                </text>
                <ellipse id="Oval-99" fill="#239C6F" sketch:type="MSShapeGroup" cx="31.8832602" cy="49.2259929" rx="4.37257689" ry="4.72426827"></ellipse>
                <ellipse id="Oval-100" fill="#239C6F" sketch:type="MSShapeGroup" cx="77.9584734" cy="47.9754513" rx="4.37257689" ry="4.72426827"></ellipse>
            </g>
            <g id="curve_down_dollar-5" sketch:type="MSLayerGroup" transform="translate(743.155875, 700.552891) rotate(215.000000) translate(-743.155875, -700.552891) translate(679.785907, 641.704999)">
                <g id="Path-439-+-Path-440" transform="translate(63.396530, 58.827878) rotate(28.000000) translate(-63.396530, -58.827878) translate(13.211265, 18.815141)" sketch:type="MSShapeGroup">
                    <path d="M0.0520638602,40.2552291 L10.5473522,30.4004065 L21.4581691,22.197247 L34.1951505,13.9048355 L46.6688655,8.38023826 L60.1720697,4.00488558 L75.8491856,0.0757928023 L100.27303,32.2636669 L87.2413477,35.7344658 L74.2420823,39.2955196 L61.3960616,44.5964855 L49.9714824,50.6235012 L41.1049088,55.7910905 L31.9436341,62.0517659 L24.0829735,68.4698858 L11.4334202,80.020496 L9.41078832,72.5433863 L6.38224339,63.9049981 L4.18573789,55.4451138 L2.34876773,49.1383081 L0.0520638602,40.2552291 Z" id="Path-439" fill="#239C6F"></path>
                    <path d="M6.69757357,51.2141688 L10.5561932,63.6252081 L13.4206879,61.7729789 L17.9689081,61.7729789 L21.0956868,62.0186725 L24.3098934,64.3171617 L33.3189059,56.6384829 L41.1677784,51.5491144 L48.5480762,47.3532685 L56.9991212,42.9217573 L65.898112,39.3617064 L75.3658759,35.6231516 L80.1655744,34.1830859 L79.9140961,30.0534269 L81.7510663,26.3930929 L85.7521248,23.6252787 L88.0920515,22.0177402 L81.1930989,11.7387201 L76.8747455,11.5602161 L71.5828961,11.2924602 L66.609324,9.96370878 L62.0168986,6.41468904 L50.8113806,10.7679794 L41.682523,14.6960694 L33.089039,18.9821701 L26.1252521,23.0777328 L18.7341486,28.4348573 L13.3440656,31.983877 L13.0051593,36.3261363 L11.8135846,41.8056061 L9.46285218,46.8057227 L6.69757357,51.2141688 Z" id="Path-440" fill="#62C29C"></path>
                </g>
                <ellipse id="Oval-104" fill="#239C6F" sketch:type="MSShapeGroup" cx="60.9006495" cy="48.6428086" rx="12.564473" ry="12.3342015"></ellipse>
                <text id="$" sketch:type="MSTextLayer" transform="translate(63.182674, 47.851609) rotate(3.000000) translate(-63.182674, -47.851609) " font-family="Myriad Web Pro" font-size="20.195122" font-weight="normal" fill="#62C29C">
                    <tspan x="56.04627" y="54.3516094">$</tspan>
                </text>
                <ellipse id="Oval-100" fill="#239C6F" sketch:type="MSShapeGroup" cx="86.7558655" cy="50.6985089" rx="4.86600976" ry="4.99241488"></ellipse>
            </g>
            <g id="curve_up_dollar-5" sketch:type="MSLayerGroup" transform="translate(332.796386, 962.911364) rotate(-59.000000) translate(-332.796386, -962.911364) translate(290.796386, 938.911364)">
                <g id="Path-441-+-Path-442" transform="translate(-0.000000, 0.000000)" sketch:type="MSShapeGroup">
                    <path d="M7.00614507,0.100067427 L13.8913207,3.16557386 L20.0717579,5.17768233 L28.5066251,6.87775259 L37.1660188,7.72778772 L45.7942537,7.44049736 L52.8013152,6.87775259 L61.001575,5.93195401 L68.6409766,3.72831863 L77.6678607,0.686484066 L83.7969775,40.0366546 L73.4550093,43.4378711 L65.7138834,45.2455407 L55.9226925,46.3000147 L48.0184412,47.5567755 L39.633978,47.2694851 L31.9130137,47.5567755 L24.6108602,46.1321596 L16.2163162,44.8624869 L7.34339313,42.3113055 L0.0403231371,39.5696732 L7.00614507,0.100067427 Z" id="Path-441" fill="#239C6F"></path>
                    <path d="M5.83402479,28.0855911 L7.93449366,15.5599468 L10.6883806,15.5599468 L14.1057665,14.6141483 L16.8697343,12.3147494 L18.92988,8.45838753 L26.4263178,10.4586601 L32.6379137,11.0095689 L40.6035662,11.2721114 L47.5089034,11.1892599 L53.6893406,10.3263128 L60.2775914,9.56020521 L65.0613817,8.4110438 L66.5203461,11.3689508 L68.5704111,13.8588006 L71.9465574,14.8896027 L75.9752053,14.841183 L78.2699584,27.3065715 L76.1584923,27.9779917 L73.6781612,30.0003221 L71.3728691,32.7069846 L69.6518043,35.5702042 L68.7637788,40.3357809 L62.0829682,42.396309 L54.1072349,43.7251614 L44.3261249,44.5870325 L36.9424086,43.8327608 L27.5177918,43.0784891 L19.6437828,42.2887097 L15.6664552,41.5451979 L14.4723405,36.9227284 L12.1372643,32.7435684 L9.03604845,29.7974972 L5.83402479,28.0855911 Z" id="Path-442" fill="#62C29C"></path>
                </g>
                <ellipse id="Oval-103" fill="#239C6F" sketch:type="MSShapeGroup" cx="41.8676502" cy="26.8448697" rx="10.9910523" ry="13.3430122"></ellipse>
                <text id="$-2" sketch:type="MSTextLayer" transform="translate(42.807645, 25.845304) rotate(-3.000000) translate(-42.807645, -25.845304) " font-family="Myriad Web Pro" font-size="21.9512195" font-weight="normal" fill="#62C29C">
                    <tspan x="37.2409076" y="32.345304">$</tspan>
                </text>
                <ellipse id="Oval-102" fill="#239C6F" sketch:type="MSShapeGroup" cx="18.9960962" cy="24.9387251" rx="4.25665033" ry="5.40074302"></ellipse>
                <ellipse id="Oval-101" fill="#239C6F" sketch:type="MSShapeGroup" cx="64.7392042" cy="23.9856528" rx="4.25665033" ry="5.40074302"></ellipse>
            </g>
        </g>
    </g>
</svg>