<?xml version="1.0" encoding="UTF-8" standalone="no"?>
<svg width="750px" height="3054px" viewBox="0 0 750 3054" version="1.1" xmlns="http://www.w3.org/2000/svg" xmlns:xlink="http://www.w3.org/1999/xlink" xmlns:sketch="http://www.bohemiancoding.com/sketch/ns">
    <!-- Generator: Sketch 3.2.2 (9983) - http://www.bohemiancoding.com/sketch -->
    <title>mobile_home 5</title>
    <desc>Created with Sketch.</desc>
    <defs></defs>
    <g id="Page-1" stroke="none" stroke-width="1" fill="none" fill-rule="evenodd" sketch:type="MSPage">
        <g id="mobile_home-5" sketch:type="MSArtboardGroup">
            <g id="sun_rays" sketch:type="MSLayerGroup" transform="translate(309.048886, 1259.240168) rotate(9.000000) translate(-309.048886, -1259.240168) translate(-3078.951114, -1694.259832)">
                <g transform="translate(3388.209667, 2953.577725) rotate(13.000000) translate(-3388.209667, -2953.577725) translate(455.209667, 600.077725)" sketch:type="MSShapeGroup">
                    <path d="M3813.8876,4706.93844 L1612.07437,1439.53927 L4090.96695,4488.45211 L3813.8876,4706.93844 Z" id="Path-214" fill-opacity="0.210000038" fill="#89C4F4"></path>
                    <path d="M3968.61518,4142.62156 L1652.3428,1400.79451 L4322.02406,3993.27545 L3968.61518,4142.62156 Z" id="Path-215" fill-opacity="0.210000038" fill="#89C4F4"></path>
                    <path d="M2370.31473,3161.07016 L1574.03406,1461.12156 L3267.6851,4258.75034 L2900.52932,4358.88755 L2370.31473,3161.07016 Z" id="Path-216" fill-opacity="0.0500000045" fill="#89C4F4"></path>
                    <path d="M2937.7729,2538.16882 L1709.13994,1370.85778 L4341.95572,3414.67795 L4089.7851,3599.96291 L2937.7729,2538.16882 Z" id="Path-217" fill-opacity="0.210000038" fill="#89C4F4"></path>
                    <path d="M1508.49995,1496.35366 L2399.25344,4110.32196 L2645.84698,4072.42108 L1508.49995,1496.35366 Z" id="Path-218" stroke="#979797"></path>
                    <path d="M1767.63855,1342.98856 L4530.18568,3418.44378 L4755.26761,3228.12717 L1767.63855,1342.98856 Z" id="Path-219" fill-opacity="0.209716916" fill="#89C4F4"></path>
                    <path d="M1809.18985,1300.39359 L4860.31394,3127.39924 L5150.51137,2941.89277 L1809.18985,1300.39359 Z" id="Path-220" fill-opacity="0.210000038" fill="#89C4F4"></path>
                    <path d="M1865.41982,1261.03702 L5275.77294,2872.29356 L5571.66899,2672.58876 L1865.41982,1261.03702 Z" id="Path-221" fill-opacity="0.210000038" fill="#89C4F4"></path>
                    <path d="M1914.70882,1219.87665 L5528.64577,2530.32072 L5704.54673,2289.88804 L1914.70882,1219.87665 Z" id="Path-222" fill-opacity="0.210000038" fill="#89C4F4"></path>
                    <path d="M1953.38381,1179.72894 L5719.81956,2180.32044 L5865.97157,1925.79492 L1953.38381,1179.72894 Z" id="Path-223" fill-opacity="0.210000038" fill="#89C4F4"></path>
                    <path d="M2014.54268,1137.70359 L5518.30183,1754.98255 L5566.87512,1511.50135 L2014.54268,1137.70359 Z" id="Path-224" fill-opacity="0.210000038" fill="#89C4F4"></path>
                    <path d="M2072.87925,1086.16346 L5445.86726,1442.23969 L5523.25774,1184.42303 L2072.87925,1086.16346 Z" id="Path-225" fill-opacity="0.210000038" fill="#89C4F4"></path>
                    <path d="M2126.47597,1031.69912 L5495.37232,1142.8701 L5534.31738,917.458527 L2126.47597,1031.69912 Z" id="Path-226" fill-opacity="0.210000038" fill="#89C4F4"></path>
                    <path d="M2188.5531,979.220178 L5505.1626,858.766497 L5529.07789,597.658697 L2188.5531,979.220178 Z" id="Path-227" stroke="#979797"></path>
                    <path d="M2191.44292,908.038688 L5135.91372,575.80214 L5096.82012,372.943331 L2191.44292,908.038688 Z" id="Path-228" stroke="#979797"></path>
                    <path d="M2090.46124,873.755961 L3803.61182,568.165003 L3745.00517,479.757761 L2090.46124,873.755961 Z" id="Path-229" stroke="#979797"></path>
                    <path d="M1969.16979,848.165223 L3660.67372,452.764069 L3593.49214,349.926435 L1969.16979,848.165223 Z" id="Path-230" stroke="#979797"></path>
                    <path d="M1908.61859,835.601922 L3574.11413,316.466493 L3507.83731,226.424228 L1908.61859,835.601922 Z" id="Path-231" stroke="#979797"></path>
                    <path d="M1869.2279,808.840298 L3435.9834,206.592989 L3403.07455,113.8503 L1869.2279,808.840298 Z" id="Path-232" stroke="#979797"></path>
                    <path d="M1440.77822,1520.15942 L1979.56774,4133.33658 L2319.49979,4221.66998 L1440.77822,1520.15942 Z" id="Path-235" stroke="#979797"></path>
                    <path d="M897.55767,1501.24498 C1022.69674,1653.36965 1410.81429,1629.72159 1764.44247,1448.42555 C2118.07065,1267.12951 2303.29766,996.838626 2178.15859,844.713955 C2053.01952,692.589283 1664.90198,716.237347 1311.2738,897.533384 C957.645616,1078.82942 772.418598,1349.12031 897.55767,1501.24498 L897.55767,1501.24498 Z" id="Oval-88" stroke="#979797" fill-opacity="0.81677423" fill="#E4D94C"></path>
                </g>
            </g>
        </g>
    </g>
</svg>