<?xml version="1.0" encoding="utf-8"?>
<!-- Generator: Adobe Illustrator 17.0.2, SVG Export Plug-In . SVG Version: 6.00 Build 0)  -->
<!DOCTYPE svg PUBLIC "-//W3C//DTD SVG 1.1//EN" "http://www.w3.org/Graphics/SVG/1.1/DTD/svg11.dtd">
<svg version="1.1" id="Layer_1" xmlns:sketch="http://www.bohemiancoding.com/sketch/ns"
	 xmlns="http://www.w3.org/2000/svg" xmlns:xlink="http://www.w3.org/1999/xlink" x="0px" y="0px" width="173px" height="182px"
	 viewBox="0 0 173 182" enable-background="new 0 0 173 182" xml:space="preserve">
<title>Group</title>
<desc>Created with Sketch.</desc>
<g id="Page-1" sketch:type="MSPage">
	<g id="Group" transform="translate(0.367635, 0.000000)" sketch:type="MSLayerGroup">
		
			<ellipse id="Oval-308" sketch:type="MSShapeGroup" fill="none" stroke="#171525" stroke-width="3" cx="87.591" cy="90.276" rx="33.774" ry="35.106">
		</ellipse>
		
			<ellipse id="Oval-309" sketch:type="MSShapeGroup" fill="none" stroke="#171525" stroke-width="3" cx="85.933" cy="90.276" rx="63.381" ry="65.824">
		</ellipse>
		<path id="Path-744" sketch:type="MSShapeGroup" fill="#171525" stroke="#171525" d="M117.951,71.81l2.908,7.278l43.21-16.159
			l-2.05-16.063L117.951,71.81z"/>
		<path id="Path-745" sketch:type="MSShapeGroup" fill="#171525" stroke="#171525" stroke-width="1.0595" d="M110.597,62.597
			l5.588,6.256l37.547-32.077l-7.94-15.405L110.597,62.597L110.597,62.597z"/>
		<path id="Path-747" sketch:type="MSShapeGroup" fill="#171525" stroke="#171525" d="M87.878,54.918l7.789,1.404l8.385-48.935
			l-13.629-6.6L87.878,54.918L87.878,54.918z"/>
		<path id="Path-748" sketch:type="MSShapeGroup" fill="#171525" stroke="#171525" d="M76.631,57.534l7.347-1.888L75.253,5.845
			l-15.111-0.78L76.631,57.534L76.631,57.534z"/>
		<path id="Path-749" sketch:type="MSShapeGroup" fill="#171525" stroke="#171525" d="M66.532,63.183l6.259-4.289L47.803,14.942
			L33.1,19.521L66.532,63.183L66.532,63.183z"/>
		<path id="Path-750" sketch:type="MSShapeGroup" fill="#171525" stroke="#171525" d="M58.541,72.266l4.522-6.093L24.937,32.499
			l-12.021,9.993L58.541,72.266L58.541,72.266z"/>
		<path id="Path-751" sketch:type="MSShapeGroup" fill="#171525" stroke="#171525" d="M54.909,84.561l2.039-7.31L9.622,58.931
			L1.57,72.46L54.909,84.561L54.909,84.561z"/>
		<path id="Path-752" sketch:type="MSShapeGroup" fill="#171525" stroke="#171525" d="M54.451,96.269l-0.715-7.556L2.991,88.578
			L0.32,104.096L54.451,96.269L54.451,96.269z"/>
		<path id="Path-753" sketch:type="MSShapeGroup" fill="#171525" stroke="#171525" d="M58.062,108.199l-3.255-6.855L7.077,118.58
			l2.795,15.496L58.062,108.199L58.062,108.199z"/>
		<path id="Path-754" sketch:type="MSShapeGroup" fill="#171525" stroke="#171525" d="M64.915,117.369l-4.649-5.435l-39.232,33.406
			l7.976,14.341L64.915,117.369L64.915,117.369z"/>
		<path id="Path-755" sketch:type="MSShapeGroup" fill="#171525" stroke="#171525" d="M75.515,124.52l-6.164-3.624l-25.044,44.53
			l11.49,10.063L75.515,124.52L75.515,124.52z"/>
		<path id="Path-756" sketch:type="MSShapeGroup" fill="#171525" stroke="#171525" d="M87.022,126.338l-7.031-1.296l-8.311,50.414
			l13.763,5.39L87.022,126.338L87.022,126.338z"/>
		<path id="Path-757" sketch:type="MSShapeGroup" fill="#171525" stroke="#171525" d="M98.926,125.08l-7.07,1.064l8.366,50.075
			l14.573-0.674L98.926,125.08L98.926,125.08z"/>
		<path id="Path-758" sketch:type="MSShapeGroup" fill="#171525" stroke="#171525" d="M109.104,119.193l-5.895,4.096l23.02,43.19
			l13.475-5.878L109.104,119.193L109.104,119.193z"/>
		<path id="Path-759" sketch:type="MSShapeGroup" fill="#171525" stroke="#171525" d="M116.638,110.111l-4.036,5.937l34.942,31.524
			l11.442-10.417L116.638,110.111L116.638,110.111z"/>
		<path id="Path-760" sketch:type="MSShapeGroup" fill="#171525" stroke="#171525" d="M119.681,97.797l-1.763,6.96l43.611,17.666
			l7.191-13.704L119.681,97.797L119.681,97.797z"/>
		<path id="Path-761" sketch:type="MSShapeGroup" fill="#171525" stroke="#171525" d="M121.921,85.663l0.847,7.13l47.043,0.857
			l1.804-15.372L121.921,85.663L121.921,85.663z"/>
		<path id="Path-746" sketch:type="MSShapeGroup" fill="#171525" stroke="#171525" d="M100.211,57.61l6.974,3.744l22.777-43.155
			L119.021,7.985L100.211,57.61L100.211,57.61z"/>
		<path id="Path-763" sketch:type="MSShapeGroup" fill="none" stroke="#171525" stroke-width="3" d="M68.288,117.644L88.243,91.04
			l22.224,27.043"/>
		<path id="Path-764" sketch:type="MSShapeGroup" fill="none" stroke="#171525" stroke-width="3" d="M65.925,64.799l21.481,26.193
			l21.748-28.616"/>
	</g>
</g>
</svg>
