<?xml version="1.0" encoding="utf-8"?>
<!-- Generator: Adobe Illustrator 17.0.2, SVG Export Plug-In . SVG Version: 6.00 Build 0)  -->
<!DOCTYPE svg PUBLIC "-//W3C//DTD SVG 1.1//EN" "http://www.w3.org/Graphics/SVG/1.1/DTD/svg11.dtd">
<svg version="1.1" xmlns="http://www.w3.org/2000/svg" xmlns:xlink="http://www.w3.org/1999/xlink" x="0px" y="0px" width="300px"
	 height="300px" viewBox="0 0 300 300" enable-background="new 0 0 300 300" xml:space="preserve">
<g id="Layer_1">
	<circle fill="#575469" cx="150.653" cy="150.653" r="147.653"/>
	<path fill="#777589" d="M296.815,163l-81.326-74.984l-16.292,15.022l-47.495-51.675l-49.984,54.384L83.793,89.12L4.144,163H3.518
		c6.274,75.768,69.747,135.306,147.135,135.306S291.513,238.768,297.788,163H296.815z"/>
	
		<image display="none" overflow="visible" width="1440" height="900" xlink:href="../../../../../Desktop/Screen Shot 2016-05-24 at 8.25.00 PM.png"  transform="matrix(1 0 0 1 -617.4977 -332)">
	</image>
	<g id="Moon">
		
			<image overflow="visible" opacity="0.41" width="44" height="44" xlink:href="9559BA81658ACB5A.png"  transform="matrix(1 0 0 1 182.8728 29.8728)">
		</image>
		<g>
			<path fill="#FFFFFF" d="M193.71,56.5c1.38,2.326,3.567,4.187,6.331,5.119c6.136,2.069,12.788-1.228,14.859-7.365
				c1.879-5.573-0.669-11.574-5.748-14.178c1.685,2.838,2.17,6.367,1.032,9.74c-2.07,6.136-8.72,9.435-14.857,7.365
				C194.764,56.991,194.224,56.764,193.71,56.5z"/>
		</g>
	</g>
	<circle display="none" opacity="0.1" fill="#FFFFFF" cx="206.51" cy="53.338" r="31.671"/>
	<circle display="none" opacity="0.1" fill="#FFFFFF" cx="206.63" cy="52.704" r="17.79"/>
</g>
<g id="Envelope">
	<path fill="#FFFFFF" d="M145.03,169.64c0-0.586-0.197-1.122-0.52-1.56l0.001-0.134L116.633,129h-0.008
		c-0.466,0-1.289-1.036-2.235-1.036c-0.753,0-1.427,0.036-1.908,1.036h-0.004L47,176.441v0.002c-1,0.473-1.215,1.28-1.215,2.197
		c0,0.576,0.172,1.105,0.485,1.539l-0.01-0.103L74.275,219h0.012c0.482,1,1.095,1.169,1.957,1.169c0.748,0,1.756-0.259,1.756-0.76
		v0.028l65.682-47.602c0.038-0.025,0.145-0.046,0.182-0.072l0.161-0.087l0.02-0.012C144.631,171.18,145.03,170.459,145.03,169.64z"
		/>
	<path fill="#E3E8FB" d="M58,180h42l12.25-43.25c0,0-1.375,22.625-2.125,25.875c0.118-0.646,0.118-0.646,0.118-0.646
		S129,168,130,168.375S109.246,167,109.246,167s-3.371,16.375-4.996,18.375c0,0-11,0.5-18.125,0C86,186,79.5,204.75,79.5,204.75
		L80.625,185C80.625,185,62.624,182.386,58,180z"/>
</g>
<g id="Bird">
	<path fill="#FFFFFF" d="M204.84,218.201c-11.691,6.442-26.85,1.961-33.358-9.851l-30.205-54.816
		c-6.509-11.812-2.051-26.75,9.64-33.193l0.387-0.213c11.691-6.442,26.445-2.09,32.954,9.722l30.205,54.816
		c6.509,11.812,2.456,26.879-9.236,33.321L204.84,218.201z"/>
	<path fill="#B2BDEF" d="M282.215,200.136c0.872-3.361-2.324-5.927-2.324-5.927l-45.138-34.841l-0.057,0.168
		c-0.645-0.426-1.321-0.81-2.032-1.141c-12.063-5.619-28.914,5.008-37.637,23.735c-8.723,18.728-5.922,38.508,6.141,44.128
		c3.255,1.516,6.882,1.85,10.654,1.194l-0.002,0.004c0,0-0.079-0.049-0.069-0.052c1.81-0.34,3.594-0.941,5.42-1.752
		c15.267-4.834,57.266-18.18,59.871-19.312C280.231,204.953,281.343,203.498,282.215,200.136z"/>
	<path fill="#B2BEEF" d="M240.425,119.731c-2.674-1.015-6.128,2.385-6.128,2.385l-47.54,48.041l0.129,0.065
		c-0.616,0.689-1.205,1.411-1.76,2.172c-9.418,12.918-6.124,31.357,7.357,41.185c13.481,9.828,32.118,7.223,41.535-5.695
		c2.542-3.486,4.166-7.398,4.963-11.49l0.003,0.002c0,0-0.072,0.084-0.072,0.073c0.36-1.964,0.478-3.905,0.424-5.895
		c1.283-16.603,4.773-62.281,4.718-65.121C243.988,121.978,243.099,120.745,240.425,119.731z"/>
	<path fill="#E3E7FC" d="M298.167,179c-1-3.5-7.333-4.5-7.333-4.5l-88.5-12.833l0.031,0.181c-1.217-0.117-2.449-0.181-3.697-0.181
		c-21.171,0-38.333,17.162-38.333,38.333c0,21.171,16.829,38.333,38,38.333c5.713,0,10.667-1.259,15.667-3.501v0.004
		c0,0,0.354-0.012,0.366-0.019c2.382-1.099,4.802-2.43,6.889-3.972c18.769-11.096,70.497-41.666,73.494-43.846
		C298.416,184.333,299.167,182.5,298.167,179z"/>
	<path fill="#FFFFFF" d="M278.353,131.997c-2.339-2.108-7.443,0.063-7.443,0.063l-70.798,31.178l0.105,0.119
		c-0.946,0.473-1.88,0.991-2.795,1.563c-15.528,9.71-20.245,30.17-10.534,45.698c9.71,15.528,30.292,20.168,45.82,10.458
		c4.191-2.62,7.613-6.045,10.252-9.983l0.002,0.003c0,0-0.113,0.059-0.107,0.048c1.243-1.899,2.224-3.87,3.048-5.959
		c8.677-16.747,32.506-62.837,33.704-65.811C281.074,135.737,280.692,134.106,278.353,131.997z"/>
	<circle fill="#EFEDEF" cx="158.429" cy="144.429" r="4.096"/>
	<circle fill="#B94748" cx="159.429" cy="145.429" r="4.096"/>
	<circle fill="#FFFFFF" cx="158.471" cy="143.471" r="1.138"/>
	<path fill="#ED8686" d="M149.875,155l-16.125,7.5l8.062-8.625C141.812,153.875,145.75,150.875,149.875,155"/>
	<path fill="#ED8686" d="M149.875,155l-16.125,7.5l8.062-8.625C141.812,153.875,145.75,150.875,149.875,155"/>
	<path fill="#DA4A49" d="M149.918,155.014l-15.915,7.936l11.77-0.93C145.773,162.02,150.573,160.81,149.918,155.014"/>
</g>
<g id="Roof">
	<path fill="#E3E7FC" d="M118.65,243.726l-35.908,38.067c0,0,39.883,23.832,85.781,15.513L118.65,243.726z"/>
	<path fill="#7070BA" d="M135.833,227l-17.478,17.405l50.168,52.829c0,0,9.914-0.859,25.972-5.547L135.833,227z"/>
	<path fill="#817BDF" d="M24.345,227c24.405,40,58.397,54.793,58.397,54.793L135.833,227H24.345z"/>
</g>
</svg>
