<?xml version="1.0" encoding="utf-8"?>
<!-- Generator: Adobe Illustrator 17.0.2, SVG Export Plug-In . SVG Version: 6.00 Build 0)  -->
<!DOCTYPE svg PUBLIC "-//W3C//DTD SVG 1.1//EN" "http://www.w3.org/Graphics/SVG/1.1/DTD/svg11.dtd">
<svg version="1.1" id="Layer_1" xmlns="http://www.w3.org/2000/svg" xmlns:xlink="http://www.w3.org/1999/xlink" x="0px" y="0px"
	 width="100px" height="100px" viewBox="0 0 100 100" enable-background="new 0 0 100 100" xml:space="preserve">
<circle fill="#C0BDEF" cx="50.218" cy="49.782" r="49.218"/>
<polygon display="none" fill="#FFFFFF" points="74.318,23.389 42.693,61.111 30.207,49.1 21.888,57.749 40.979,76.112 
	43.531,78.656 44.169,77.992 44.187,78.007 44.422,77.727 44.422,77.727 83.514,31.099 "/>
<circle fill="#FFFFFF" cx="50.211" cy="74.316" r="5.861"/>
<g>
	<path fill="#FFFFFF" d="M31.316,32.178c0.982-2.523,2.355-4.71,4.121-6.562c1.766-1.848,3.899-3.293,6.394-4.33
		c2.495-1.037,5.285-1.558,8.369-1.558c3.984,0,7.305,0.548,9.971,1.64c2.663,1.095,4.806,2.454,6.435,4.08
		c1.626,1.629,2.79,3.379,3.492,5.258c0.698,1.879,1.051,3.632,1.051,5.258c0,2.694-0.353,4.909-1.051,6.648
		c-0.702,1.739-1.571,3.225-2.608,4.457c-1.041,1.236-2.187,2.287-3.45,3.156c-1.26,0.869-2.454,1.739-3.574,2.608
		c-1.123,0.869-2.119,1.862-2.988,2.985c-0.869,1.123-1.417,2.523-1.64,4.207v3.197H44.481v-3.786
		c0.168-2.41,0.633-4.429,1.39-6.059c0.757-1.626,1.64-3.012,2.649-4.162c1.01-1.15,2.074-2.146,3.197-2.988
		c1.119-0.839,2.157-1.681,3.112-2.523c0.952-0.842,1.725-1.766,2.314-2.776s0.856-2.27,0.798-3.786c0-2.578-0.63-4.484-1.893-5.72
		c-1.26-1.232-3.012-1.852-5.258-1.852c-1.513,0-2.817,0.294-3.909,0.883c-1.095,0.589-1.992,1.376-2.694,2.359
		c-0.702,0.979-1.219,2.129-1.554,3.447c-0.339,1.318-0.507,2.735-0.507,4.248H29.759C29.817,37.477,30.334,34.701,31.316,32.178z"
		/>
</g>
</svg>
