<?xml version="1.0" encoding="utf-8"?>
<!-- Generator: Adobe Illustrator 17.0.2, SVG Export Plug-In . SVG Version: 6.00 Build 0)  -->
<!DOCTYPE svg PUBLIC "-//W3C//DTD SVG 1.1//EN" "http://www.w3.org/Graphics/SVG/1.1/DTD/svg11.dtd">
<svg version="1.1" id="Layer_1" xmlns:sketch="http://www.bohemiancoding.com/sketch/ns"
	 xmlns="http://www.w3.org/2000/svg" xmlns:xlink="http://www.w3.org/1999/xlink" x="0px" y="0px" width="220px" height="344px"
	 viewBox="0 0 220 344" enable-background="new 0 0 220 344" xml:space="preserve">
<title>Group</title>
<desc>Created with Sketch.</desc>
<g id="Page-1" sketch:type="MSPage">
	<g id="Group" sketch:type="MSLayerGroup">
		<path id="Path-736" sketch:type="MSShapeGroup" fill="none" stroke="#171525" stroke-width="3" d="M178.962,30.479L218,336.342"/>
		<path id="Path-737" sketch:type="MSShapeGroup" fill="none" stroke="#171525" stroke-width="3" d="M179.322,30.539l17.829,298.93"
			/>
		<path id="Path-738" sketch:type="MSShapeGroup" fill="none" stroke="#171525" stroke-width="3.0889" d="M178.391,32.235
			l-21.226,306.793"/>
		<path id="Path-739" sketch:type="MSShapeGroup" fill="none" stroke="#171525" stroke-width="3" d="M176.769,32.235
			l-41.767,300.595"/>
		<path id="Path-740" sketch:type="MSShapeGroup" display="none" fill="none" stroke="#171525" stroke-width="3" d="
			M165.317,123.677l19.117-1.959l5.921,3.466l-18.811,1.352L165.317,123.677z"/>
		<path id="Path-741" sketch:type="MSShapeGroup" fill="none" stroke="#171525" stroke-width="3.3641" d="M153.136,202.083
			l37.399-2.322l10.586,4.108l-36.834,0.93L153.136,202.083z"/>
		<path id="Path-742" sketch:type="MSShapeGroup" fill="none" stroke="#171525" stroke-width="3.119" d="M144.237,271.578
			l51.545-1.903l13.461,3.897l-47.124,0.695L144.237,271.578z"/>
		<path id="Path-743" sketch:type="MSShapeGroup" fill="#171525" stroke="#171525" d="M136.969,92.76l0.091,2.485l20.694,4.903
			l57.692-0.41l0.024-2.041l-19.369-7.135L136.969,92.76z"/>
		<path id="Path-762" sketch:type="MSShapeGroup" fill="#171525" d="M6.294,1l3.458,54.192l79.372-15.483l4.127-17.349L83.774,2.259
			L6.294,1z"/>
		<path id="Path-765" sketch:type="MSShapeGroup" fill="none" stroke="#171525" stroke-width="8.5431" d="M178.272,1.488
			l0.009,32.144"/>
		<path id="Path-766" sketch:type="MSShapeGroup" fill="none" stroke="#171525" stroke-width="2.8477" d="M177.526,2.866
			l-95.971,6.22l7.358,26.068l56.149-9.688L177.526,2.866z"/>
	</g>
</g>
<path id="Path-741_1_" sketch:type="MSShapeGroup" fill="none" stroke="#171525" stroke-width="2.1167" d="M162.136,125.09
	l23.532-1.461l6.661,2.585l-23.176,0.585L162.136,125.09z"/>
</svg>
