<?xml version="1.0" encoding="utf-8"?>
<!-- Generator: Adobe Illustrator 17.0.2, SVG Export Plug-In . SVG Version: 6.00 Build 0)  -->
<!DOCTYPE svg PUBLIC "-//W3C//DTD SVG 1.1//EN" "http://www.w3.org/Graphics/SVG/1.1/DTD/svg11.dtd">
<svg version="1.1" id="Layer_1" xmlns="http://www.w3.org/2000/svg" xmlns:xlink="http://www.w3.org/1999/xlink" x="0px" y="0px"
	 width="300px" height="300px" viewBox="0 0 300 300" enable-background="new 0 0 300 300" xml:space="preserve">
<path fill="none" stroke="#FFFFFF" stroke-width="16" stroke-miterlimit="10" d="M206,46v37.166C206,89.216,200.051,97,194.704,97
	h-86.216C103.141,97,96,89.216,96,83.166V46"/>
<path fill="none" stroke="#FFFFFF" stroke-width="16" stroke-miterlimit="10" d="M233.882,44H169.48
	c0.099,0.803,0.166,1.616,0.166,2.446c0,10.955-8.881,19.835-19.835,19.835s-19.835-8.881-19.835-19.835
	c0-0.83,0.067-1.643,0.166-2.446H70.14C63.441,44,57,48.742,57,55.826v220.175C57,283.084,63.441,289,70.14,289h163.742
	c6.699,0,11.118-5.916,11.118-12.999V55.826C245,48.742,240.58,44,233.882,44z"/>
<polygon fill="#FFFFFF" points="183.561,137.889 137.917,192.333 119.895,174.998 107.888,187.48 135.442,213.984 139.126,217.656 
	140.046,216.697 140.073,216.719 140.411,216.316 140.412,216.315 196.833,149.017 "/>
<circle fill="none" stroke="#FFFFFF" stroke-width="16" stroke-miterlimit="10" cx="149.81" cy="46.446" r="19.835"/>
</svg>
