<?xml version="1.0" encoding="utf-8"?>
<!-- Generator: Adobe Illustrator 17.0.2, SVG Export Plug-In . SVG Version: 6.00 Build 0)  -->
<!DOCTYPE svg PUBLIC "-//W3C//DTD SVG 1.1//EN" "http://www.w3.org/Graphics/SVG/1.1/DTD/svg11.dtd">
<svg version="1.1" id="Layer_1" xmlns="http://www.w3.org/2000/svg" xmlns:xlink="http://www.w3.org/1999/xlink" x="0px" y="0px"
	 width="300px" height="300px" viewBox="0 0 300 300" enable-background="new 0 0 300 300" xml:space="preserve">
<path fill="none" stroke="#FFFFFF" stroke-width="10" stroke-miterlimit="10" d="M206,69.5v37.166
	c0,6.05-5.949,13.834-11.296,13.834h-86.216c-2.68,0-12.488-10.451-12.488-13.834V69.5"/>
<path fill="none" stroke="#FFFFFF" stroke-width="9.5725" stroke-miterlimit="10" d="M233.882,67.5H169.48
	c0.099,0.736,0.166,1.481,0.166,2.241c0,10.038-8.881,18.175-19.835,18.175s-19.835-8.138-19.835-18.175
	c0-0.761,0.067-1.506,0.166-2.241H70.14C63.441,67.5,57,71.845,58,77.42v201.752C57,286.579,63.441,292,70.14,292h163.742
	c6.699,0,11.118-5.421,11.118-11.911V78.336C245,71.845,240.58,67.5,233.882,67.5z"/>
<path fill="none" stroke="#FFFFFF" stroke-width="10" stroke-miterlimit="10" d="M149.81,49.111
	c13.621,0,19.835,6.214,19.835,19.835c0,10.955-8.88,19.835-19.835,19.835s-19.835-8.88-19.835-19.835S138.855,49.111,149.81,49.111
	z"/>
<path fill="#FFFFFF" stroke="#FFFFFF" stroke-width="0.7809" stroke-miterlimit="10" d="M185.433,170.063l-0.002-0.002
	c0.781-1.087,1.244-2.411,1.244-3.843c0-3.689-3.045-6.68-6.802-6.68c-2.352,0-4.425,1.173-5.647,2.956L138.737,204.8
	l-14.073-13.537l-0.011,0.011c-1.238-1.268-2.976-2.062-4.907-2.062c-3.756,0-6.802,2.991-6.802,6.68
	c0,1.831,0.751,3.488,1.966,4.695l0,0l0.008,0.008c0.017,0.017,0.035,0.033,0.052,0.05l19.286,18.492
	c0.181,0.194,0.372,0.379,0.575,0.551l0.043,0.041l0.003,0c1.185,0.986,2.716,1.583,4.391,1.583c2.225,0,4.194-1.054,5.435-2.676
	l0.009-0.001l40.115-47.85c0.205-0.214,0.396-0.441,0.571-0.681L185.433,170.063z"/>
</svg>
