<?xml version="1.0" encoding="UTF-8" standalone="no"?>
<svg width="639px" height="373px" viewBox="0 0 639 373" version="1.1" xmlns="http://www.w3.org/2000/svg" xmlns:xlink="http://www.w3.org/1999/xlink" xmlns:sketch="http://www.bohemiancoding.com/sketch/ns">
    <!-- Generator: Sketch 3.2.2 (9983) - http://www.bohemiancoding.com/sketch -->
    <title>Group</title>
    <desc>Created with Sketch.</desc>
    <defs>
        <linearGradient x1="50%" y1="14.9797336%" x2="50%" y2="50%" id="linearGradient-1">
            <stop stop-color="#80B0B1" stop-opacity="0.946133379" offset="0%"></stop>
            <stop stop-color="#F3FAF5" stop-opacity="0.672044837" offset="100%"></stop>
        </linearGradient>
        <path id="path-2" d="M255.273381,231.329275 L311.714836,213.513838 L301.326571,205.244867 L361.77443,191 L336.503866,205.007007 L353.212166,216.368156 L331.484757,233.948406 L527.088908,262.978001 L524.471379,371.455467 L207.302759,369.46172 L255.273381,231.329275 Z"></path>
    </defs>
    <g id="Page-1" stroke="none" stroke-width="1" fill="none" fill-rule="evenodd" sketch:type="MSPage">
        <g id="bottom_part" sketch:type="MSLayerGroup" transform="translate(31.000000, -15.242276)">
            <g id="Group" transform="translate(-31.000000, 16.000000)">
                <g id="mountains-+-Path-248" sketch:type="MSShapeGroup">
                    <g id="mountains">
                        <path d="M8.21513457,148.573566 L20.2169461,124.803297 L28.9564046,105.296459 L39.2737712,79.5328357 L50.0107178,104.088186 L57.4521176,117.876601 L113.547093,63.2279567 L114.984203,61.519139 L117.594684,61.7255733 L119.366274,63.2279567 L125.42459,68.4117528 C126.580276,69.1192757 129.087722,69.1192757 129.087722,69.1192757 L132.502493,68.4320434 L134.547049,66.7920371 L173.339801,19.9826054 L174.897631,18.4899262 L177.678813,19.0395356 C179.29585,19.5009252 181.058982,19.8943856 181.058982,19.8943856 L182.530694,20.5225106 L184.644453,20.2869638 L186.270718,18.7448815 L200.944789,2.58389435 L202.786337,1.2297202 C204.412601,0.767448395 206.372577,0.767448395 206.372577,0.767448395 L209.35906,1.63200254 L210.787712,2.5838943 L278.294988,88.0971214 L281.11846,91.7494216 L283.960386,94.0466654 L286.920726,94.9694447 L290.702271,94.4401258 L316.751722,71.3088914 L319.336829,70.5219707 L322.606274,70.5219707 L325.446662,73.1544498 L328.168636,75.6475417 L351.702183,104.573053 L354.679439,104.573053 L358.205703,104.573053 L360.652404,107.242585 L363.921849,109.894472 L365.804164,112.426381 L369.467296,115.962231 L371.5849,117.511371 L388.190468,97.7702275 L392.178271,92.7083657 L395.24533,97.702776 L414.208019,124.803297 L427.7852,141.900009 L438.043395,129.548887 L452.960004,110.714923 L474.444782,84.3054339 L502.656934,130.885926 L536.004584,43.8944508 L541.711949,63.2279591 L545.714994,76.0043718 L549.446388,88.5158791 L560.260797,121.026048 L570.324414,115.390566 L574.842584,120.574363 L598.153144,96.7356053 L620.642498,108.006568 L639.331852,91.8658717 L661,109.058614 L661,307.039284 L0.324483975,307.746807 L0,152.18705 L8.21513457,148.573566 Z" id="Path-207" fill="#7D8DB5"></path>
                        <path d="M209.772108,1.07322862 L189.241374,249.312806 L156.887088,193.984573 L112.210775,348.427567 L495.498969,348.427567 L209.772108,1.07322862 Z" id="Path-245" opacity="0.740000248" fill="#415CA4"></path>
                        <path d="M205.766374,0.193361022 L209.687834,0.956312649 L213.456882,4.92845766 L218.167296,10.0337882 L224.713821,18.5716516 L239.219816,35.8572276 L255.206893,55.5380819 L244.649254,47.7646691 L244.649254,59.9449145 L232.915356,44.0293538 L233.874653,55.7059613 L226.888824,54.9385129 L218.407568,61.8455484 L211.104365,44.1282827 L206.713118,57.7414982 L197.613251,36.8225338 L193.162834,45.2644661 L186.159074,30.616994 L175.642676,32.6855072 L170.055447,38.4893357 L162.451006,34.7540205 L164.626009,29.2829528 L174.803516,16.9048496 L183.265047,20.4063329 L196.24603,7.76816662 L200.944789,1.13918121 L205.766374,0.193361022 Z" id="Path-246" fill="#DBDAD8"></path>
                        <path d="M241.063996,38.4855884 L231.664685,27.15823 C231.664685,27.15823 224.910462,18.5274334 221.320422,14.1400868 C217.453203,8.23732941 209.897624,1.25909502 209.897624,1.25909502 L204.41529,64.33376 L211.450429,44.5329919 L218.429085,62.2989725 L226.655724,55.1753426 L234.209062,56.4104549 L233.330902,44.5329919 L244.965284,61.4498328 L244.905216,48.2773006 L254.199632,54.7503981 L241.063996,38.4855884 Z" id="Path-247" fill-opacity="0.699162138" fill="#A6A29B"></path>
                        <path d="M427.847061,142.054398 L396.969374,181.744371 L392.425268,93.0508696 L427.847061,142.054398 Z" id="Path-252" opacity="0.740000248" fill="#415CA4"></path>
                        <path d="M0.363098145,174.293227 L27.9989014,124.956188 L33.2077908,129.962589 L39.2961846,79.5193454 L57.1265449,117.987696 L0.363098145,174.293227 Z" id="Path-253" opacity="0.740000248" fill="#415CA4"></path>
                    </g>
                    <path d="M503.090858,131.434531 L487.892735,172.993661 L481.466347,144.034475 L452.94566,220.00587 L474.525345,84.0505885 L503.090858,131.434531 Z" id="Path-248" opacity="0.740000248" fill="#415CA4"></path>
                </g>
                <path d="M536.241271,44.6289229 L515.559918,245.39762 L502.612107,209.693283 L468.982943,343.954782 L628.163376,344.284545 L536.241271,44.6289229 Z" id="Path-249" opacity="0.740000248" fill="#415CA4" sketch:type="MSShapeGroup"></path>
                <path d="M536.164168,42.5619086 L520.567086,84.2694312 L522.214027,92.3441275 L527.272298,82.8514504 L531.403548,89.8918901 L536.164168,42.5619086 Z" id="Path-250" fill="#DBDAD8" sketch:type="MSShapeGroup"></path>
                <path d="M535.983964,42.4285045 L550.95078,92.3411297 L546.371261,96.1783717 L543.193538,83.6998406 L537.430977,98.2963494 L531.274447,90.1886768 L535.983964,42.4285045 Z" id="Path-251" fill-opacity="0.7" fill="#A5A29B" sketch:type="MSShapeGroup"></path>
                <g id="river">
                    <use fill-opacity="0.700000286" fill="#80B0B1" sketch:type="MSShapeGroup" xlink:href="#path-2"></use>
                    <use fill="url(#linearGradient-1)" xlink:href="#path-2"></use>
                </g>
            </g>
        </g>
    </g>
</svg>