<?xml version="1.0" encoding="UTF-8" standalone="no"?>
<svg width="1440px" height="1024px" viewBox="0 0 1440 1024" version="1.1" xmlns="http://www.w3.org/2000/svg" xmlns:xlink="http://www.w3.org/1999/xlink" xmlns:sketch="http://www.bohemiancoding.com/sketch/ns">
    <!-- Generator: Sketch 3.2.2 (9983) - http://www.bohemiancoding.com/sketch -->
    <title>background_kinda</title>
    <desc>Created with Sketch.</desc>
    <defs></defs>
    <g id="Welcome" stroke="none" stroke-width="1" fill="none" fill-rule="evenodd" sketch:type="MSPage">
        <g id="background_kinda" sketch:type="MSArtboardGroup">
            <path d="M1466.08227,700 L1585,700 L1322.5,176 L1250.9936,318.740393 L1118,83 L542,1104 L1694,1104 L1466.08227,700 Z" id="Triangle-2" stroke="#979797" fill="#ADBAC0" sketch:type="MSShapeGroup"></path>
            <polygon id="Polygon-1" stroke="#979797" fill="#D8D8D8" sketch:type="MSShapeGroup" points="1118 83 1176.01445 186.647451 1139.30469 168.132812 1118 197.605469 1104.875 174.914062 1074.66016 238.515625 1059.98555 186.647451 "></polygon>
            <polygon id="Polygon-2" stroke="#979797" fill="#D8D8D8" sketch:type="MSShapeGroup" points="1323.5 174 1356.31145 238.606911 1341.84766 262.902344 1317.10937 231.472656 1283.85156 254.164062 "></polygon>
            <ellipse id="Oval-2" stroke="#979797" fill="#8599A4" sketch:type="MSShapeGroup" cx="1460.5" cy="967" rx="815.5" ry="286"></ellipse>
            <ellipse id="Oval-1" stroke="#979797" fill="#315565" sketch:type="MSShapeGroup" cx="-31.5" cy="1344" rx="1441.5" ry="620"></ellipse>
            <path d="M105.210937,617.039063 C105.210937,522.970042 57.0378437,363.629976 57.0378437,363.629976 C55.7915613,359.394483 58.357345,355.960938 62.7750702,355.960938 L249.115559,355.960937 C253.530424,355.960937 256.202929,359.416615 255.094248,363.703904 C255.094248,363.703904 215.109375,513.842438 215.109375,586.117188 C215.109375,736.178396 267.463237,998.189237 267.463237,998.189237 C268.311968,1002.52458 265.41823,1006.03906 260.997564,1006.03906 L54.0024365,1006.03906 C49.5828129,1006.03906 46.7839846,1002.5465 47.7400042,998.238735 C47.7400042,998.238735 105.210937,745.306 105.210937,617.039063 Z" id="Rectangle-1" fill="#315565" sketch:type="MSShapeGroup"></path>
            <path d="M-32.4218778,387.859375 C-11.1231944,406.826498 32.5312549,390.866069 32.5312549,399.773438 C32.5312549,430 62.9557496,442.658493 80.3515674,447.507812 C109.507233,455.635349 125.260111,430 157.581893,430 C217.360107,430 260.062505,433.59375 294.585942,368.125 C306.772582,345.014784 324.23438,398.820312 385.445317,355.171875 C409.419098,338.076596 415.34522,304.655225 426.054692,280.046875 C438.354053,251.785261 481.26563,280.921875 481.26563,219.882812 C481.26563,158.84375 453.789067,158.266852 453.789067,149.015625 C453.789067,129.364726 466.142932,82.5528093 461.789067,65.0234375 C434.817614,-43.5680584 299.724669,-82 157.581893,-82 C-7.50626826,-82 -141.336665,32.6151041 -141.336665,174 C-141.336665,242.547899 -83.3988636,342.462824 -32.4218778,387.859375 Z" id="Oval-3" fill="#315565" sketch:type="MSShapeGroup"></path>
            <path d="M404.694907,608.208955 C425.521708,624.897071 439,651.514067 439,681.5 C439,732.034055 400.720346,773 353.5,773 C306.279654,773 268,732.034055 268,681.5 C268,651.514067 281.478292,624.897071 302.305093,608.208955 C281.478292,606.364964 268,603.42386 268,600.110497 C268,594.526624 306.279654,590 353.5,590 C400.720346,590 439,594.526624 439,600.110497 C439,603.42386 425.521708,606.364964 404.694907,608.208955 Z" id="Oval-4" fill="#315565" sketch:type="MSShapeGroup"></path>
        </g>
    </g>
</svg>