<?xml version="1.0" encoding="UTF-8" standalone="no"?>
<svg width="1453px" height="1024px" viewBox="0 0 1453 1024" version="1.1" xmlns="http://www.w3.org/2000/svg" xmlns:xlink="http://www.w3.org/1999/xlink" xmlns:sketch="http://www.bohemiancoding.com/sketch/ns">
    <!-- Generator: Sketch 3.2.2 (9983) - http://www.bohemiancoding.com/sketch -->
    <title>background_adjusted</title>
    <desc>Created with Sketch.</desc>
    <defs></defs>
    <g id="Welcome" stroke="none" stroke-width="1" fill="none" fill-rule="evenodd" sketch:type="MSPage">
        <g id="background_adjusted" sketch:type="MSArtboardGroup">
            <path d="M1466.08227,700 L1585,700 L1322.5,176 L1250.9936,318.740393 L1118,83 L542,1104 L1694,1104 L1466.08227,700 Z" id="Triangle-2" stroke="#979797" fill="#ADBAC0" sketch:type="MSShapeGroup"></path>
            <polygon id="Polygon-1" stroke="#979797" fill="#D8D8D8" sketch:type="MSShapeGroup" points="1118 83 1176.01445 186.647451 1139.30469 168.132812 1118 197.605469 1104.875 174.914062 1074.66016 238.515625 1059.98555 186.647451 "></polygon>
            <polygon id="Polygon-2" stroke="#979797" fill="#D8D8D8" sketch:type="MSShapeGroup" points="1323.5 174 1354.78711 241.419922 1341.84766 262.902344 1317.10937 231.472656 1283.85156 254.164062 "></polygon>
            <ellipse id="Oval-2" stroke="#979797" fill="#8599A4" sketch:type="MSShapeGroup" cx="1460.5" cy="967" rx="815.5" ry="286"></ellipse>
            <ellipse id="Oval-1" stroke="#979797" fill="#315565" sketch:type="MSShapeGroup" cx="143" cy="1373" rx="1642" ry="620"></ellipse>
            <path d="M105.210937,617.039063 C105.210937,522.970042 57.0378437,363.629976 57.0378437,363.629976 C55.7915613,359.394483 58.357345,355.960938 62.7750702,355.960938 L249.115559,355.960937 C253.530424,355.960937 256.202929,359.416615 255.094248,363.703904 C255.094248,363.703904 215.109375,513.842438 215.109375,586.117188 C215.109375,736.178396 267.463237,998.189237 267.463237,998.189237 C268.311968,1002.52458 265.41823,1006.03906 260.997564,1006.03906 L54.0024365,1006.03906 C49.5828129,1006.03906 46.7839846,1002.5465 47.7400042,998.238735 C47.7400042,998.238735 105.210937,745.306 105.210937,617.039063 Z" id="Rectangle-1" fill="#315565" sketch:type="MSShapeGroup"></path>
            <path d="M-32.4218778,387.859375 C-11.1231944,406.826498 32.5312549,390.866069 32.5312549,399.773438 C32.5312549,430 62.9557496,442.658493 80.3515674,447.507812 C109.507233,455.635349 125.260111,430 157.581893,430 C217.360107,430 260.062505,433.59375 294.585942,368.125 C306.772582,345.014784 324.23438,398.820312 385.445317,355.171875 C409.419098,338.076596 415.34522,304.655225 426.054692,280.046875 C438.354053,251.785261 481.26563,280.921875 481.26563,219.882812 C481.26563,158.84375 453.789067,158.266852 453.789067,149.015625 C453.789067,129.364726 466.142932,82.5528093 461.789067,65.0234375 C434.817614,-43.5680584 299.724669,-82 157.581893,-82 C-7.50626826,-82 -141.336665,32.6151041 -141.336665,174 C-141.336665,242.547899 -83.3988636,342.462824 -32.4218778,387.859375 Z" id="Oval-3" fill="#315565" sketch:type="MSShapeGroup"></path>
            <ellipse id="Oval-9" fill="#315565" sketch:type="MSShapeGroup" cx="278" cy="621.5" rx="12" ry="5.5"></ellipse>
            <ellipse id="Oval-10" fill="#315565" sketch:type="MSShapeGroup" cx="290" cy="616.5" rx="12" ry="5.5"></ellipse>
            <ellipse id="Oval-12" fill="#315565" sketch:type="MSShapeGroup" cx="302" cy="618.5" rx="12" ry="5.5"></ellipse>
            <ellipse id="Oval-13" fill="#315565" sketch:type="MSShapeGroup" cx="335" cy="619.5" rx="12" ry="5.5"></ellipse>
            <ellipse id="Oval-11" fill="#315565" sketch:type="MSShapeGroup" cx="323" cy="619.5" rx="12" ry="5.5"></ellipse>
            <ellipse id="Oval-14" fill="#315565" sketch:type="MSShapeGroup" cx="311" cy="613.5" rx="12" ry="5.5"></ellipse>
            <ellipse id="Oval-16" fill="#315565" sketch:type="MSShapeGroup" cx="350" cy="619.5" rx="12" ry="5.5"></ellipse>
            <ellipse id="Oval-17" fill="#315565" sketch:type="MSShapeGroup" cx="342" cy="614.5" rx="12" ry="5.5"></ellipse>
            <ellipse id="Oval-15" fill="#315565" sketch:type="MSShapeGroup" cx="326" cy="614.5" rx="12" ry="5.5"></ellipse>
            <path d="M359.713344,636.522388 C376.886321,650.748323 388,673.438221 388,699 C388,742.07821 356.436075,777 317.5,777 C278.563925,777 247,742.07821 247,699 C247,673.438221 258.113679,650.748323 275.286656,636.522388 C258.113679,634.950462 247,632.443291 247,629.618785 C247,624.858761 278.563925,621 317.5,621 C356.436075,621 388,624.858761 388,629.618785 C388,632.443291 376.886321,634.950462 359.713344,636.522388 Z" id="Oval-4" fill="#315565" sketch:type="MSShapeGroup"></path>
            <g id="Group" sketch:type="MSLayerGroup" transform="translate(857.000000, 143.000000)"></g>
            <g id="Group" sketch:type="MSLayerGroup" transform="translate(289.596553, 443.000000)">
                <path d="M92.6251256,171.702318 L91.6988294,178.691057 L91.0232177,184.303559 L89.8597267,189.73449 L89.6596287,196.183143 L89.1593838,202.528867 L88.8592368,208.706898 L88.0712106,215.180994 L87.9835272,220.817783 L88.0712106,226.970371 L88.3218951,234.971049 L88.82214,243.877268 L89.7102153,253.080707 L90.8107541,263.223226 L92.2001985,274.961717 L93.5008353,285.219886 L95.2904755,291.526289 L98.6808996,298.631834 L103.096545,305.286344 L107.888779,310.228075 L113.869235,314.553391 L120.611862,318.736457 L127.79403,321.31083 L136.751225,322.648902 L145.834324,323.047895 L156.731794,321.825473 L165.551843,320.576451 L175.523017,317.7835 L184.8568,313.497505 L194.252412,308.477132 L202.621678,302.531557 L210.91675,295.323083 L218.999359,287.395265 L225.667793,279.775076 L230.971513,271.666844 L233.849327,267.599428 L235.538918,265.269077 L237.439849,265.989578 L239.51727,269.4267 L242.79528,272.69613 L246.646604,277.240025 L251.237616,280.045698 L256.329996,282.710277 L262.372281,285.864057 L267.727712,287.884465 L273.006701,290.034402 L277.774204,291.668538 L281.652507,292.183181 L282.916047,294.062497 L282.303388,296.16039 L279.925819,297.770241 L277.235738,300.523871 L274.559146,303.793301 L273.269751,305.196137 L273.945363,307.024566 L275.747369,309.250832 L278.625182,308.954767 L281.314139,309.23811 L284.091904,309.23811 L286.857303,310.254675 L288.633453,312.610469 L290.410728,315.558391 L292.687123,317.990514 L295.064692,320.719858 L297.816601,323.267631 L300.906878,325.919489 L303.747595,326.948775 L306.249943,329.31729 L307.801265,330.669241 L310.665589,327.502739 L313.831183,324.850881 L316.296435,320.371751 L313.23089,317.205249 L311.954984,312.713397 L314.344918,307.77051 L318.297415,304.076644 L324.603874,301.953307 L331.121672,298.774084 L336.438882,296.289919 L342.406972,292.081409 L348.41216,286.353257 L352.527658,281.321319 L356.744329,275.748138 L357.707722,269.286763 L357.51999,262.915596 L356.042862,256.042508 L353.5911,249.362555 L350.125358,245.243096 L346.972129,242.630559 L343.119681,240.905059 L339.340302,240.596273 L335.88805,240.596273 L333.322749,241.600116 L330.720351,242.746209 L329.119568,244.573482 L328.117954,247.22534 L327.592978,249.902641 L327.592978,252.554499 L328.7812,254.768043 L330.232472,256.917979 L331.421818,254.716 L331.621916,251.639706 L332.409943,248.06149 L334.586289,246.620489 L337.039176,246.504839 L338.790595,248.229183 L340.566745,251.138941 L341.192895,254.729878 L341.780823,258.61688 L341.780823,262.503882 L341.192895,266.596741 L339.691036,270.046585 L337.114493,273.405066 L334.024216,276.405031 L330.646158,279.37724 L326.380024,281.552619 L323.11438,283.213355 L319.223711,284.332849 L315.645555,284.461221 L312.192179,285.903378 L309.602147,283.88297 L307.625898,280.857562 L304.509766,276.983281 L302.133321,275.632488 L298.642848,275.811745 L296.865574,277.640174 L294.989374,279.673304 L293.212099,281.938891 L291.411218,282.234955 L287.93311,276.636331 L284.292002,271.912022 L280.275428,267.79372 L284.504465,265.540855 L288.921234,264.099854 L292.286927,263.493847 L295.965133,264.40864 L299.83107,265.334998 L302.908982,266.969134 L306.837872,267.67807 L309.777513,268.694635 L314.482064,269.196556 L318.448051,268.88777 L321.650742,267.342684 L321.85084,263.533168 L322.438769,259.530516 L322.438769,255.656236 L320.561445,255.34745 L317.872488,254.549464 L314.719259,253.544464 L313.931232,249.657462 L314.13133,247.418475 L314.719259,243.737331 L316.307677,240.725801 L318.948296,236.992614 L321.512472,233.246705 L324.590384,228.433346 L327.068001,223.954215 L329.532129,219.359434 L331.909698,213.219568 L332.71009,206.24355 L333.49924,200.090962 L333.023726,193.707073 L330.05823,186.731056 L324.653336,181.105832 L318.134414,175.906201 L312.680058,174.090494 L306.224088,174.090494 L300.106486,175.828715 L296.453012,178.260838 L294.951153,180.410775 L294.663372,184.194848 L294.663372,188.596493 L296.716062,191.403322 L298.692311,193.127666 L302.195149,194.247159 L301.031658,190.398322 L299.843436,186.794663 L300.243632,183.628162 L302.308688,181.981304 L304.985279,182.277368 L307.875458,184.220291 L310.640857,186.588806 L313.318573,190.874801 L314.819308,194.259881 L316.421216,199.666526 L316.445947,206.01225 L314.443843,212.652882 L311.766127,217.441955 L309.277268,220.929964 L306.011625,224.405251 L303.49691,227.879381 L301.482441,229.025474 L298.592262,228.317696 L294.914056,226.902138 L290.935704,226.257966 L287.582377,225.138473 L285.105883,225.331608 L283.942392,227.944146 L283.942392,232.024283 L283.942392,235.602499 L283.36683,237.765157 L281.701969,237.057378 L278.411594,235.538891 L274.12073,233.697741 L266.40122,229.527396 L255.065332,225.57563 L243.581058,221.598421 L231.507731,218.637777 L223.463343,217.029084 L216.594811,216.488998 L211.414747,217.093848 L207.023833,220.260349 L202.957797,224.160072 L198.991811,227.712845 L193.395812,223.038266 L189.830022,220.219872 L186.677916,218.764993 L186.051767,215.984763 L190.430316,213.642847 L196.110625,209.626317 L202.942059,202.843436 L210.635714,195.50659 L216.416072,184.746499 L220.995843,174.706909 L222.508943,168.052399 L222.221162,164.165397 L224.110851,161.128424 L225.374391,155.38755 L224.886512,149.466262 L223.422874,144.382281 L221.733282,140.263979 L219.66935,136.956385 L217.992125,134.626034 L215.364996,135.140677 L212.688404,136.595556 L210.086007,138.744336 L207.433022,140.161051 L205.130771,141.807909 L202.491277,143.533409 L200.001294,143.533409 L197.712533,143.842195 L198.025045,146.364525 L198.337558,148.810526 L199.037901,150.663241 L200.639809,153.006314 L202.70374,154.730657 L204.693479,156.160093 L204.642892,158.386359 L202.803789,159.171623 L199.550511,158.463844 L196.373675,157.061008 L192.294149,153.829743 L188.366384,150.27697 L184.312714,146.081182 L181.710316,143.841039 L179.457527,141.795187 L176.568472,139.966758 L174.090855,138.422829 L171.325456,137.509193 L168.422911,135.668042 L166.020611,135.153399 L163.644167,134.844613 L161.754478,134.844613 L158.90252,133.84077 L157.312977,132.721276 L159.702911,131.266397 L162.392993,129.130339 L164.106191,124.740259 L164.452428,121.187486 L164.565967,116.965099 L163.964549,113.193747 L160.712394,110.362631 L157.646849,108.947073 L155.081548,108.947073 L152.917567,109.346066 L150.740096,110.169496 L148.676164,110.774346 L146.41101,109.97636 L145.723033,107.414709 L143.946883,104.30025 L142.144877,101.957178 L139.84375,100.014255 L138.066475,99.3064764 L136.990668,97.4780474 L138.966916,96.0370465 L142.932903,94.4017533 L145.823082,93.5783242 L151.578709,90.901023 L156.557551,89.2541648 L160.423489,85.9847349 L161.862396,80.8105469 L160.798954,75.0696731 L157.40853,69.9984137 L154.142886,65.6349333 L150.652413,62.7644965 L148.200651,61.1558028 L146.010814,62.2880178 L143.62088,63.6399681 L141.757046,65.1457332 L138.028254,67.990727 L133.461974,70.9502145 L128.307765,74.3618941 L124.441827,76.2146097 L119.975595,78.8410247 L117.122513,80.6682972 L114.36948,81.2731475 L113.935559,79.6528888 L114.529671,78.0887204 L115.66843,75.3986978 L116.769531,73.2944432 L118.120193,70.2117883 L118.721049,68.1011729 L119.753014,67.0262047 L120.641652,64.9797752 L121.829874,62.7465707 L123.112524,64.0273962 L124.495224,65.2689006 L126.021252,66.1316508 L127.05378,66.9874619 L128.642198,67.0903906 L130.281203,67.0903906 L132.571088,66.9874619 L134.241007,65.8165041 L136.837222,64.7866394 L138.770191,63.7631356 L140.196732,62.6887456 L141.685101,61.472106 L142.786202,59.3614906 L143.387058,57.0508005 L142.9863,55.1975067 L141.898127,53.4598631 L141.216332,51.4070728 L142.310688,50.9566155 L144.225109,50.8085833 L145.413331,51.1110084 L146.889897,51.6129301 L148.128705,51.921716 L149.817735,51.3105049 L151.769252,49.8689257 L153.552147,48.3371394 L153.852294,45.2093809 L153.996185,42.2360154 L153.552147,39.4627247 L152.74501,36.4957199 L151.763069,34.0051938 L150.430394,32.1582608 L148.353534,31.3920785 L145.857931,31.5534105 L143.668094,31.9200215 L142.285957,33.5547364 L140.803209,34.9251908 L139.201863,36.36677 L137.650541,38.2142812 L136.499416,40.0161107 L135.322997,40.0224714 L134.728886,38.4843243 L134.979009,36.5986485 L135.723755,34.5649405 L136.842843,32.7654241 L137.780942,30.0626799 L138.481847,27.9063828 L138.481847,24.7855633 L136.911415,22.5974623 L133.796407,21.6959694 L129.917542,21.7023301 L126.427069,22.1209837 L123.693708,22.6292661 L120.453357,23.9679167 L118.11963,25.1909171 L116.330552,27.0829537 L115.373904,29.746955 L115.430111,32.8105277 L116.024223,35.1530216 L117.688521,36.9808723 L118.876743,37.7915799 L120.121734,38.4542553 L120.371857,39.8767522 L117.494605,40.2115594 L115.12322,39.8125664 L113.040177,39.5552448 L110.656988,39.3557483 L108.617787,39.7096377 L106.984965,40.069888 L106.490903,41.4085385 L106.490903,43.0432535 L106.253146,45.5788832 L106.003024,48.4232988 L106.434696,51.1133214 L108.016931,54.331287 L109.218081,56.4933667 L111.251099,57.0536917 L113.747265,57.4654063 L116.180479,57.471767 L118.638986,56.7188845 L121.015992,54.6273514 L123.593659,52.2461147 L123.530707,53.7004154 L122.842729,55.0263445 L121.691604,56.6095951 L120.103186,58.9069855 L118.958243,61.8543297 L117.463129,64.4992488 L116.287273,66.3334603 L114.548219,69.4484972 L113.196996,72.3119951 L111.851955,75.2275356 L110.794696,77.6278546 L110.319182,79.6812231 L110.312999,81.3286596 L108.598677,81.6565278 L108.148456,78.8381335 L108.448603,75.922593 L108.05459,73.1683845 L107.610553,69.6156117 L107.600997,62.5933342 L106.534745,57.2977136 L103.444468,45.9067514 L102.005561,37.0641404 L99.7662624,25.7697461 L97.1700475,13.9994514 L94.1736366,6.9072056 L90.9456516,2.04238176 L88.3623643,0.0919418744 L85.6222587,0.0919418744 L81.4438084,1.28256024 L76.0136216,3.45157892 L71.3096331,5.55583352 L65.8861912,8.48409548 L55.8048508,13.9023053 L41.4933493,21.9087657 L26.0666951,30.6993341 L11.0784578,40.9841025 L1.75816419,49.6335777 L0.591862817,50.9473635 L0.341740354,52.3698604 L0.641887309,53.8178003 L1.3922547,56.0249836 L2.52483169,57.8140915 L4.11999472,59.6101384 L12.1924864,69.4675795 L21.7376093,79.5198911 L30.9454883,87.949631 L39.1910985,94.952248 L48.9374435,102.134123 L53.9039201,105.72506 L57.0818805,108.364197 L57.740068,110.097793 L57.2898475,111.687404 L55.313037,112.903465 L52.6358835,113.360283 L48.7508353,113.900948 L43.8152727,114.415591 L37.7415124,114.898431 L32.3804606,115.902274 L29.1086339,117.286028 L27.2195068,118.315893 L26.8125659,121.141226 L26.6624925,124.371913 L26.7625414,127.138843 L27.0694333,129.931794 L28.1576065,132.43562 L29.8781118,135.286397 L31.3546775,137.223537 L33.2938291,138.84553 L34.5135274,139.874817 L37.0467902,140.184181 L40.280958,140.184181 L43.5089429,139.057748 L46.4744398,137.725458 L50.890647,136.129486 L54.1186319,134.913425 L56.9582245,133.896282 L58.503363,133.593857 L59.9484526,134.778114 L60.0985261,135.968733 L58.7287543,136.129486 L57.6967883,136.554501 L56.9020172,137.776923 L55.9138929,139.031727 L55.1691463,141.284592 L55.4130859,143.897129 L55.5569766,146.761205 L56.1954915,148.273331 L57.5461528,149.341938 L58.4909974,150.409968 L61.3997249,150.674228 L64.4776364,150.629125 L66.4668126,150.474732 L67.6432313,150.93155 L67.7933047,152.366768 L66.0227749,153.576469 L65.52253,155.365577 L65.52253,158.139446 L65.7664697,160.803447 L66.9046674,163.51313 L68.9000264,166.389928 L71.2399361,168.506904 L74.167212,170.03869 L77.4952459,171.84052 L80.7294137,171.84052 L84.4014363,171.988552 L87.1853836,171.679766 L89.2307671,171.280773 L91.5639319,170.006308 L92.6251256,171.702318 Z" id="body" fill="#315565" sketch:type="MSShapeGroup"></path>
                <path d="M267.182501,252.721035 L269.483628,255.295408 L272.086025,257.855902 L274.300593,261.125332 L276.290331,263.390918 L278.078847,264.138019 L278.354263,261.215539 L279.242338,258.242174 L279.930316,255.590315 L280.419319,250.416127 L276.352159,250.519056 L273.263006,251.034856 L270.997852,251.33092 L267.182501,252.721035 Z" id="foot_cutout" fill="#AADDD6" sketch:type="MSShapeGroup"></path>
                <path d="M227.463054,108.443995 L224.423363,108.160652 L221.54555,108.469438 L219.269154,108.469438 L217.179367,108.469438 L215.127801,109.280146 L213.462941,109.872275 L211.68679,110.88884 L210.272615,112.253511 L209.072027,114.38957 L208.571782,117.066871 L208.859563,119.821658 L209.359808,122.16473 L209.860053,124.532089 L212.011669,126.360518 L214.764702,127.377082 L217.254685,128.985776 L221.145354,129.28184 L225.33617,129.577905 L230.565697,128.973055 L235.921128,126.836996 L239.011405,124.275345 L240.675141,120.709851 L240.675141,116.501342 L238.698892,111.995612 L236.446104,110.695704 L233.994342,109.383075 L231.755043,108.572367 L227.463054,108.443995 Z M221.707427,124.493924 L225.185534,125.317353 L228.876105,124.699781 L232.629628,121.868665 L235.069025,119.24225 L234.781244,116.075749 L231.816871,115.059184 L228.751325,114.544541 L225.573365,114.840605 L223.095747,115.445456 L220.443887,116.359092 L218.378831,117.479742 L216.60268,118.8953 L216.539728,121.340144 L217.61666,123.168573 L221.707427,124.493924 Z" id="inside_1" stroke="#979797" fill="#315565" sketch:type="MSShapeGroup"></path>
                <path d="M237.074501,101.086332 L239.352021,102.205826 L241.303538,103.841119 L243.092054,104.651827 L245.806867,105.578184 L248.884778,105.578184 L252.162788,104.960613 L255.840993,103.043133 L259.006588,100.725504 L262.672428,98.5767239 L265.637925,96.040516 L268.0391,92.5918283 L269.741057,87.9831696 L269.953521,83.7873819 L269.453276,79.5141086 L267.864858,76.4378145 L264.486799,74.984092 L260.494957,74.2751565 L256.704337,72.8341556 L252.413472,72.5253697 L247.708922,72.5253697 L244.130765,72.8341556 L240.152413,72.3322339 L236.686671,72.6282983 L233.696443,73.5546561 L230.919803,74.3780852 L227.253963,75.3055994 L224.525661,76.5153001 L221.298238,79.5534297 L218.933035,82.4874741 L216.618418,85.3706325 L214.666901,87.894119 L213.966558,91.4723348 L214.166656,94.3288937 L216.744323,96.6719658 L219.296134,97.7787378 L220.772138,99.74826 L223.662317,100.752103 L226.652545,100.546246 L229.555089,100.546246 L233.283881,100.533525 L237.074501,101.086332 Z M238.060377,95.7560166 L241.02475,97.2883812 L243.914929,97.2883812 L247.105255,96.9795953 L250.495679,95.9491524 L254.236837,93.7228869 L256.777407,91.8054073 L257.853214,88.4712132 L257.853214,85.1890618 L256.839235,82.3313464 L254.275058,81.0962028 L251.197146,80.0657599 L247.306477,79.2550523 L243.816004,79.2550523 L239.862383,79.2550523 L236.184178,79.4609095 L232.918534,79.6667668 L228.38935,81.1089243 L226.011782,81.4304317 L224.511047,83.3224683 L223.421749,85.7557476 L222.93387,87.891806 L222.733772,90.0799069 L224.423363,91.7915292 L226.775077,92.2946074 L229.402206,93.1180365 L232.067556,94.0443943 L235.045418,94.546316 L238.060377,95.7560166 Z" id="inside_2" stroke="#979797" fill="#315565" sketch:type="MSShapeGroup"></path>
                <path d="M163.963424,147.079243 L163.46318,144.748892 L162.675153,142.818691 L165.651892,142.097034 L168.02946,142.097034 L170.894908,143.603956 L173.271352,145.495992 L176.224484,147.734979 L178.826882,151.184824 L180.915545,153.424967 L182.817599,156.294248 L185.107485,158.341255 L188.171906,160.773378 L191.425185,163.798786 L195.091024,165.934845 L198.15657,167.364281 L201.120943,168.18771 L203.47378,167.878924 L204.849735,170.607111 L205.475884,172.332611 L206.927157,175.499113 L204.437173,177.313663 L200.671285,179.875314 L196.942493,182.616223 L192.663993,185.795446 L188.935201,188.048311 L186.070878,190.622684 L182.930014,192.823506 L178.676246,193.441078 L173.997551,192.63037 L169.230048,190.906026 L164.051108,188.26689 L159.158825,186.143553 L154.880326,184.62391 L152.390342,183.208352 L150.113947,182.191787 L152.690489,180.852558 L154.755545,179.668301 L153.478516,175.279377 L157.870554,175.768577 L160.347047,176.386149 L164.23884,175.163727 L167.51685,172.306012 L168.41729,168.56126 L168.729803,165.690823 L170.231662,162.202814 L172.20791,158.958827 L172.508057,154.672832 L170.731907,152.432689 L169.117633,150.605416 L166.653506,149.20258 L163.963424,147.079243 Z" id="chin_cutout" fill="#AADDD6" sketch:type="MSShapeGroup"></path>
            </g>
        </g>
    </g>
</svg>