<?xml version="1.0" encoding="UTF-8" standalone="no"?>
<svg width="153px" height="153px" viewBox="0 0 153 153" version="1.1" xmlns="http://www.w3.org/2000/svg" xmlns:xlink="http://www.w3.org/1999/xlink" xmlns:sketch="http://www.bohemiancoding.com/sketch/ns">
    <!-- Generator: Sketch 3.2.2 (9983) - http://www.bohemiancoding.com/sketch -->
    <title>Oval 19 + Path 165 + Path 166 + Path 177</title>
    <desc>Created with Sketch.</desc>
    <defs></defs>
    <g id="Page-1" stroke="none" stroke-width="1" fill="none" fill-rule="evenodd" sketch:type="MSPage">
        <g id="Oval-19-+-Path-165-+-Path-166-+-Path-177" sketch:type="MSLayerGroup">
            <circle id="Oval-19" fill="#FFFFFF" sketch:type="MSShapeGroup" cx="76.5" cy="76.5" r="76.5"></circle>
            <g id="Path-165-+-Path-166-+-Path-169" transform="translate(22.000000, 30.000000)" fill="#979797" sketch:type="MSShapeGroup">
                <path d="M43.4331342,92.8454853 L43.5751379,61.4295546 L64.5193015,61.3413095 L64.5461857,92.9141585 L90.0130974,92.9254896 L89.9555377,53.1403555 L55.7099035,20.7691805 L55.1384421,20.4405792 L54.4977022,20.2915584 L53.8300781,20.2036567 L53.1627987,20.2953354 L52.4376149,20.5054754 L51.7127757,21.2354716 L18.0255055,53.2625938 L17.9183134,92.8018778 L43.4331342,92.8454853 Z" id="Path-165"></path>
                <path d="M0.971966912,48.5141851 L49.9573759,1.9159824 L50.7821691,1.21688918 L51.660386,0.639690897 L52.6461397,0.334095138 L53.5860524,0.185074285 L54.7751608,0.123955134 L55.9604779,0.536681091 L57.1075368,1.22444323 L58.0857077,2.04611812 L59.1483226,3.13905216 L107.156595,48.7912815 L107.647748,49.697081 L107.985179,50.7021134 L107.659122,51.6419062 L107.175896,52.6280534 L102.03171,57.4774117 L101.222426,57.8671321 L100.619945,57.9588108 L99.7992877,57.9588108 L99.2236903,57.7792304 L98.4912684,57.2634947 L55.8394991,17.027521 L55.2139246,16.4812256 L54.4584099,16.1752865 L53.7680377,16.2364057 L53.1004136,16.3243074 L52.2832031,16.6645831 L9.41119026,57.2501034 L8.73115809,57.7514178 L8.05974265,57.8774331 L7.4576057,57.9996714 L6.7400046,58.0570135 L6.14165901,57.8163139 L0.510454963,52.3135301 L0.241957721,51.4956322 L0.0616957721,50.7350765 L0.0579044118,50.0092007 L0.364659926,49.3441008 L0.971966912,48.5141851 Z" id="Path-166"></path>
                <path d="M72.9947151,12.3203162 L89.7807904,28.2652041 L89.9159007,7.51731229 L89.6053539,6.72619698 L89.3675322,6.01165229 L88.8188189,5.35032934 L88.3662684,5.04473358 L87.7296645,4.73913782 L86.9238281,4.43319869 L76.4941406,4.37585657 L75.6117877,4.43697572 L74.7756204,4.94172377 L74.1655561,5.45745953 L73.5058594,6.06144037 L73.0722656,6.76808764 L72.9947151,12.3203162 Z" id="Path-167"></path>
            </g>
        </g>
    </g>
</svg>