<?xml version="1.0" encoding="UTF-8" standalone="no"?>
<svg width="313px" height="517px" viewBox="0 0 313 517" version="1.1" xmlns="http://www.w3.org/2000/svg" xmlns:xlink="http://www.w3.org/1999/xlink" xmlns:sketch="http://www.bohemiancoding.com/sketch/ns">
    <!-- Generator: Sketch 3.2.2 (9983) - http://www.bohemiancoding.com/sketch -->
    <title>balloon_part + hand_of_money + my_leprechaun + basket_part + big_dollar</title>
    <desc>Created with Sketch.</desc>
    <defs>
        <filter x="-50%" y="-50%" width="200%" height="200%" filterUnits="objectBoundingBox" id="filter-1">
            <feOffset dx="0" dy="1" in="SourceAlpha" result="shadowOffsetInner1"></feOffset>
            <feGaussianBlur stdDeviation="1.5" in="shadowOffsetInner1" result="shadowBlurInner1"></feGaussianBlur>
            <feComposite in="shadowBlurInner1" in2="SourceAlpha" operator="arithmetic" k2="-1" k3="1" result="shadowInnerInner1"></feComposite>
            <feColorMatrix values="0 0 0 0 0   0 0 0 0 0   0 0 0 0 0  0 0 0 0.35 0" in="shadowInnerInner1" type="matrix" result="shadowMatrixInner1"></feColorMatrix>
            <feMerge>
                <feMergeNode in="SourceGraphic"></feMergeNode>
                <feMergeNode in="shadowMatrixInner1"></feMergeNode>
            </feMerge>
        </filter>
    </defs>
    <g id="Page-1" stroke="none" stroke-width="1" fill="none" fill-rule="evenodd" sketch:type="MSPage">
        <g id="home_screen" sketch:type="MSArtboardGroup" transform="translate(-826.000000, -52.000000)">
            <g id="sun_rays-+-Oval-37-+-Group" sketch:type="MSLayerGroup" transform="translate(-1399.000000, -1072.000000)">
                <g id="Group" transform="translate(1399.000000, 968.000000)">
                    <g id="balloon_part-+-hand_of_money-+-my_leprechaun-+-basket_part-+-big_dollar" transform="translate(826.000000, 156.000000)">
                        <g id="balloon_part-+-hand_of_money-+-my_leprechaun-+-basket_part" sketch:type="MSShapeGroup">
                            <g id="balloon_part">
                                <path d="M25.6197282,38.3918457 L19.9662568,42.6623034 L14.5177292,48.8524777 L9.79964239,55.5963527 L6.45660593,61.6290373 L3.50331304,69.8765245 L1.37855368,77.2288071 L0.238225287,85.9462768 L0.179544793,95.0143682 L0.520241986,102.459487 L1.44599246,109.433794 L3.02511081,115.913252 L5.12096783,125.322848 L8.14257533,133.993899 L12.5970379,145.912554 L17.782817,157.093495 L26.8292471,173.925828 L36.0604769,188.907244 L44.7662098,201.60423 L55.760482,216.539227 L69.856062,234.501343 L87.7343442,255.233619 L109.93046,280.189106 L111.626063,277.394078 L114.248293,276.166488 L105.36827,266.240492 L97.4341422,256.683353 L89.7627625,246.803775 L81.1945346,234.644741 L72.5877703,221.978424 L64.7123226,210.059769 L55.2560049,194.439277 L46.9890619,178.810496 L41.1989613,167.322865 L35.2328192,153.5019 L31.3818024,143.841979 L27.6779247,133.601833 L23.7682273,121.847298 L21.2826267,112.998864 L18.8933672,102.093945 L17.3343929,93.3930531 L16.456813,84.0945294 L16.3201838,72.0822093 L16.7195615,63.2801926 L18.8548308,52.6620708 L22.4614915,44.2032159" id="Path-254" fill="#663399"></path>
                                <path d="M157.126217,0.308348265 L163.442691,0.400355409 L170.123071,1.56163476 L174.767588,3.32386168 L179.865346,5.75459095 L183.983929,8.66027602 L187.595407,12.3687441 L189.598426,15.2292545 L191.450365,19.6480841 L192.995764,24.5058126 L194.448325,31.3006645 L195.432756,39.336784 L195.959566,42.7223982 L196.622568,47.9071251 L197.056103,55.9005565 L197.270681,64.0191508 L197.324107,71.4087336 L197.431396,82.9448545 L197.105588,92.2317738 L196.471926,104.529233 L195.263283,120.470921 L193.221289,138.762522 L190.477757,159.737249 L187.689996,177.861413 L184.263756,198.919445 L181.003485,217.547576 L177.192318,237.50235 L173.040455,256.452506 L170.613097,268.847361 L167.620829,268.404732 L163.063895,268.003547 L158.813938,267.77726 L156.099309,267.77726 L153.233599,267.744933 L150.899078,267.85559 L147.633991,268.081878 L144.6172,268.487621 L141.409917,268.810475 L139.81153,260.6695 L138.017834,251.568253 L135.756446,239.653328 L133.475789,227.798083 L131.701361,218.692277 L129.376913,205.015125 L126.949555,191.458163 L124.702617,176.84892 L122.719304,163.628074 L121.68101,154.940859 L120.764893,148.999353 L119.868045,138.667199 L118.620428,130.127941 L117.660082,117.285899 L116.646311,107.621834 L115.939955,94.5075 L115.476642,82.6568141 L115.437668,70.7510069 L115.564663,61.2663966 L116.22241,51.86509 L116.63186,46.5502269 L117.528708,38.7772811 L118.976014,29.7953945 L120.223631,24.1813009 L122.285331,18.1709964 L124.064138,14.2917763 L127.324847,10.0988201 L131.481966,6.87898456 L137.06756,4.08395673 L142.029128,2.05441176 L146.234855,1.09040899 L149.276169,0.352279604 L151.985981,0.0663114549" id="Path-255" fill="#FDEBD6"></path>
                                <path d="M179.450642,5.43049371 L183.461935,4.17596387 L187.511765,3.59076529 L191.347017,3.18958098 L196.83014,3.01427007 L201.903813,2.98194324 L206.372726,3.20781663 L212.260044,3.95050493 L217.70901,5.20047585 L222.792317,7.09615457 L228.523737,9.74363941 L233.828191,12.8304376 L239.627925,17.6044479 L243.980354,22.609305 L247.640878,27.5412195 L251.198493,33.8234009 L254.547222,42.1081883 L257.159818,50.2044025 L258.909723,60.0155967 L259.79212,70.1459148 L259.953272,80.0176182 L259.807009,86.1211732 L258.95439,94.6040661 L257.433514,102.8242 L255.299121,113.286075 L252.915992,123.310295 L249.937738,133.31545 L246.706807,143.869747 L242.179213,156.785561 L237.69541,168.207294 L232.115071,182.101616 L226.032443,195.964026 L218.541484,212.13739 L211.567264,225.810398 L204.836524,238.754394 L198.505599,250.388738 L191.487587,262.465712 L185.736461,272.844698 L183.138754,271.820601 L180.033943,271.022791 L176.783307,270.146236 L173.722725,269.177675 L170.813223,268.817521 L172.182581,261.520359 L173.50333,254.609877 L175.438034,246.329648 L177.007519,237.998857 L179.11301,228.177716 L180.701762,219.68985 L182.529616,208.904707 L184.425346,198.516188 L185.93615,189.719145 L187.369005,180.110615 L188.529039,171.304454 L190.376161,160.334467 L191.657936,150.7765 L193.032548,141.333748 L194.045882,131.881879 L194.82099,123.849904 L195.5326,115.007272 L196.205236,105.38921 L197.140621,94.7056055 L197.213752,84.8566967 L197.238276,75.6858224 L197.423513,67.0412954 L197.228642,60.3794809 L197.053038,52.9894836 L196.47324,46.0147619 L195.707766,40.2995434 L194.777198,33.384502 L193.636432,26.4097803 L191.784493,20.878576 L190.1664,16.3022568 L188.304827,13.1752572 L185.90681,10.2185952 L183.07044,7.8106605 L179.450642,5.43049371 Z" id="Path-256" fill="#663399"></path>
                                <path d="M228.107281,9.33831064 L234.652783,9.76726287 L240.41836,10.3619937 L247.568184,11.6442915 L254.410593,13.5034989 L261.58494,16.1418659 L268.422531,19.7023766 L271.887746,21.9117914 L276.361914,25.0947412 L280.177898,28.9229844 L284.086282,33.5171249 L287.191093,38.5725444 L290.192994,43.872073 L292.030482,48.0579836 L293.536469,52.5410524 L294.652712,56.6602371 L295.369139,61.49973 L296.041775,66.3479262 L296.275621,70.0754589 L296.480565,73.8995576 L296.548442,78.0606014 L296.460859,82.1619649 L296.041775,87.503767 L295.500951,93.3992698 L294.3361,100.899924 L292.893611,107.95795 L290.549456,116.717693 L288.292885,124.343096 L286.250891,130.898398 L284.466829,136.327648 L281.557328,143.865603 L278.00453,152.431799 L274.612447,160.006225 L269.022474,172.087758 L262.55492,185.040457 L255.463338,198.030457 L248.830253,208.469952 L242.376712,218.688133 L234.973774,229.348943 L226.868859,240.973341 L222.166975,247.173876 L214.60814,256.833797 L206.702914,266.843511 L200.351845,274.22895 L196.90152,277.983421 L193.879912,276.447482 L190.073563,275.169743 L185.872214,272.978564 L187.812174,269.379925 L191.516052,262.460739 L196.463168,254.249723 L200.015965,247.611532 L203.471545,241.352145 L207.34621,233.975824 L211.060159,226.880913 L214.476765,220.011875 L218.2148,212.742068 L221.758402,205.222763 L225.228433,197.50038 L228.767217,189.593568 L232.56875,180.999603 L235.834275,172.667983 L239.114252,164.724285 L242.955197,154.787928 L245.747775,146.383366 L247.429366,141.502014 L250.143995,132.548724 L252.761408,123.987086 L254.004646,118.939956 L256.051457,109.867305 L257.406363,102.606201 L258.5953,96.0098689 L259.62396,89.3575867 L259.935755,82.1748128 L259.930938,73.9683558 L259.633595,67.5742737 L259.053796,61.9332411 L258.35182,55.9685258 L257.235577,50.2346571 L255.296055,44.062304 L252.951463,37.6918454 L250.178591,31.6533586 L246.489164,25.6426396 L242.88732,21.0339935 L238.769176,16.6698709 L235.089383,13.7032622 L231.687229,11.4063991 L228.107281,9.33831064 Z" id="Path-257" fill="#FDEBD6"></path>
                                <path d="M287.028627,37.9844447 L289.309721,39.875979 L292.852885,42.8508766 L295.504017,45.42459 L298.686777,49.3639048 L301.469721,52.9430656 L303.370268,55.6552041 L304.80794,58.4183196 L306.416399,61.9004998 L307.863705,64.9263744 L309.194088,68.856157 L310.354123,73.1643294 L311.163388,76.1989073 L311.870182,79.93017 L312.191611,83.0712607 L312.440346,87.2965438 L312.825272,92.5135975 L312.927744,97.2283419 L312.113662,104.692111 L310.953627,112.464642 L309.213794,120.251265 L306.81096,129.057426 L304.423014,136.401419 L301.688678,142.444465 L298.038226,151.071171 L294.163562,159.3887 L288.23727,170.031274 L283.96279,177.698536 L279.624813,184.848568 L275.202318,191.938092 L269.002767,200.564383 L264.22381,207.206719 L257.502704,216.358529 L249.644335,226.173867 L243.96021,233.158121 L237.453682,241.372867 L229.534005,250.496494 L220.628145,260.303959 L214.448301,267.162635 L208.755855,273.320483 L204.301393,277.692894 L201.372185,281.015098 L200.065887,279.848017 L198.662372,278.893546 L197.180471,277.952338 L202.317642,271.965242 L207.996074,265.285607 L211.890007,260.271632 L216.588387,254.071925 L222.558909,246.834444 L227.272178,240.450309 L232.039312,233.779791 L236.869504,226.546869 L242.879438,218.201987 L248.207101,209.640349 L253.510241,201.161601 L258.731054,192.428797 L262.912696,184.393506 L267.266,175.66982 L270.911635,168.123576 L274.100088,161.267386 L277.405026,153.794085 L280.310148,146.902667 L282.956463,140.425696 L284.740525,135.81332 L286.290303,130.835816 L287.889128,125.632854 L289.829088,119.566599 L291.564541,113.241729 L293.138843,106.723728 L294.250269,101.451138 L295.244772,96.6675957 L295.829387,91.2706721 L296.311968,84.6183899 L296.706967,80.1713779 L296.692078,73.9994392 L296.350943,68.2978975 L295.731732,63.3755153 L294.952245,58.7768159 L294.425872,55.4736765 L293.650764,52.249282 L292.783256,49.4911399 L291.735328,46.7421157 L290.721557,44.9156496 L289.747198,43.0013207 L288.708903,41.3083064 L287.028627,37.9844447 Z" id="Path-258" fill="#663399"></path>
                                <path d="M134.561378,5.0976931 L128.380658,4.04582764 L120.866051,2.95749089 L115.729319,2.77264771 L111.332661,2.79171225 L106.985049,2.74529423 L102.267838,3.53854501 L96.6625375,5.08857527 L90.7752199,7.0439343 L85.0245316,9.66406566 L79.2738432,13.1785728 L74.399859,16.6839621 L69.6765172,21.6100743 L65.9630054,26.213747 L63.4467508,30.6334055 L60.6300871,36.325415 L58.6804934,41.3990702 L56.9262094,47.5983624 L55.2008277,54.1573941 L53.6602458,62.4139992 L52.9587074,68.1060087 L53.027022,74.9883088 L53.4167655,82.9415389 L54.0604993,90.3593041 L54.9958839,97.1131258 L56.1169441,104.217569 L57.4718504,112.622546 L59.7525072,122.522846 L62.2486177,132.440553 L66.3124608,145.033928 L69.1203662,152.782421 L75.026952,168.190717 L81.5974156,183.875033 L88.6346957,199.753311 L94.5710596,212.272085 L101.959547,226.508326 L110.069716,242.229114 L116.718129,254.103009 L126.757748,272.433153 L131.270891,270.661808 L134.994037,269.480635 L141.183515,268.604495 L139.731392,258.881578 L137.733628,248.511295 L135.130666,236.425204 L133.239753,225.778071 L131.260381,214.670073 L129.232839,203.847215 L126.981084,191.207423 L125.295115,179.121331 L123.355155,166.416885 L121.600871,153.888165 L120.109336,141.091712 L118.793842,128.618527 L117.614101,116.190931 L116.766299,106.227635 L116.074395,93.7909219 L115.518244,81.8979624 L115.255496,69.4711958 L115.976302,56.8139968 L116.512309,46.2605288 L118.150108,35.7427031 L119.632009,27.0882293 L121.679696,19.873543 L124.350096,13.8590941 L128.151191,9.22806785 L131.719315,6.44215785 L134.561378,5.0976931 Z" id="Path-259" fill="#663399"></path>
                                <path d="M86.1219444,9.1120228 L78.8893546,8.93629745 L72.8452638,9.83150209 L66.0707322,11.159389 L60.6029364,12.4508046 L55.495106,14.3879279 L50.2804245,16.389705 L45.4747549,19.1946795 L40.1821247,22.4787543 L35.3957233,26.8238124 L31.4869018,30.3383195 L28.6019235,33.6688124 L25.6880428,38.2998386 L22.4220793,44.3142876 L20.7361099,48.7057637 L19.1666256,52.8104427 L18.1821947,56.952422 L17.6365537,61.5743304 L16.7589737,67.3127579 L16.1835546,73.8626719 L16.7291956,79.4262029 L16.8272883,85.8294028 L17.5778732,92.8128279 L18.435309,98.810699 L20.0047933,106.836043 L21.8562942,114.04244 L24.1763633,122.651325 L26.7302785,130.014383 L29.9664639,138.807282 L32.9004886,147.415338 L37.1114708,156.825762 L40.8643949,165.397346 L46.1868033,177.049098 L51.3042678,186.524176 L56.7247689,195.981018 L63.4703981,207.006127 L70.4402394,218.935557 L76.2601182,226.749533 L81.2899999,234.287488 L87.4698441,242.71899 L93.0847791,250.689627 L99.7130473,259.674829 L105.463736,266.502422 L111.157495,272.499464 L114.539944,276.069507 L117.6395,274.316398 L120.573525,273.145172 L123.624035,272.415746 L126.499379,271.678031 L123.458503,265.857543 L120.718912,261.123734 L117.940785,256.178557 L115.357968,251.362688 L112.774274,246.685244 L109.781569,241.896728 L106.808132,235.788614 L103.659529,229.7178 L100.355029,223.535915 L97.1083341,216.79204 L93.8817828,210.647454 L90.5772827,204.162194 L87.0293025,196.615122 L83.4033735,187.859523 L79.6206712,178.670413 L75.5270499,168.688052 L70.457756,156.970818 L67.2215706,147.523094 L64.1412826,137.698223 L61.0907727,127.917283 L59.0728644,119.420299 L57.2502658,111.02444 L56.0994275,102.546521 L54.8329798,93.1452141 L53.5463881,83.9096862 L53.0874541,74.4337793 L53.195181,66.0669315 L54.6473042,57.6901369 L56.1388398,49.7824959 L58.7023891,41.6734339 L61.1004069,34.9569124 L64.2297412,28.9971704 L67.5044631,23.2405072 L71.7443477,18.9783384 L75.858113,15.4356489 L79.8247392,12.059567 L83.1879197,10.2053329 L86.1219444,9.1120228 Z" id="Path-260" fill="#FDEBD6"></path>
                                <path d="M109.427734,278.889402 L115.33432,275.494255 L124.360606,271.822258 L133.348356,269.166485 L143.310026,267.394311 L154.108989,266.620125 L165.94318,267.192061 L175.41789,269.221191 L184.482713,271.842152 L193.099111,275.605327 L202.554553,280.882061 L198.396121,285.444289 L194.331402,291.330259 L191.583053,296.625229 L189.11672,301.366498 L187.440385,305.748856 L187.440385,309.134056 L185.821854,311.643116 L182.800247,313.423578 L178.404465,315.499127 L172.877113,316.763189 L168.734445,317.306943 L162.213904,317.611976 L156.901129,317.907062 L152.076191,317.83329 L147.027042,317.326008 L142.144299,316.439921 L137.709105,316.071063 L132.367428,314.382608 L128.721355,312.796106 L126.850586,310.258864 L125.709382,306.744357 L124.462202,303.137014 L122.444294,298.719013 L120.591917,294.917709 L117.775254,290.009833 L114.529434,286.274011 L109.427734,278.889402 Z" id="Path-261" fill="#F1B437"></path>
                                <ellipse id="Oval-88" fill="#CD992C" cx="156.948424" cy="309.382724" rx="27.8022923" ry="6.36589967"></ellipse>
                                <path d="M143.5,392.503932 L130.715616,270.126343" id="Path" stroke="#8A97AA" stroke-width="7" fill="#CD992C"></path>
                                <path d="M168.5,392.503927 L184.974928,272.248309" id="Path-2" stroke="#8A97AA" stroke-width="7" fill="#CD992C"></path>
                                <path d="M197.116236,453.920441 L188.136227,394.190784 L186.503873,390.481148 L185.134969,387.427485 L183.778463,384.909155 L181.582018,383.063385 L179.488886,381.603658 L177.028992,380.831572 L174.568064,379.908687 L171.727976,379.640266 L168.244245,379.640266 L162.564068,379.640266 L157.792018,379.640266 L141.878639,380.177107 L137.096257,380.16052 L134.47416,380.949194 L131.622708,383.129736 L129.058467,385.363057 L127.137869,387.879879 L125.137719,393.049241 L123.125172,401.255679 L120.997947,414.061462 L119.215789,426.295719 L116.755895,441.450938 L115.122508,454.709115 L120.04333,463 L127.586249,404.277675 L129.242365,398.016534 L131.345827,394.291818 L133.461688,390.196139 L136.658208,387.628046 L140.79798,386.822784 L145.351006,386.822784 L155.124463,386.319118 L164.001159,386.30253 L170.428292,387.225415 L174.79742,387.493836 L177.258348,388.567519 L179.983758,391.538243 L181.903323,394.96287 L183.157549,400.70225 L185.352961,412.248867 L187.296288,426.279132 L188.871819,437.557329 L190.803781,452.510478 L192.689253,462.647132 L197.116236,453.920441 Z" id="Path-264" fill="#8A97AA"></path>
                            </g>
                            <g id="hand_of_money-+-my_leprechaun" transform="translate(68.000000, 333.000000)">
                                <g id="hand_of_money" transform="translate(23.500000, 82.500000) rotate(-10.000000) translate(-23.500000, -82.500000) translate(4.000000, 59.000000)">
                                    <path d="M9.46062155,22.1670329 L8.60032744,20.9794108 L0.139648438,6.72297363 L5.21777344,4.55197754 L5.0516142,3.61564941 L7.33303653,3.61564941 L15.8064108,0.291072591 L15.7522691,2.12548014 L21.7862764,0.699568685 L21.8818647,2.40240072 L27.6081974,2.18935547 L27.0264534,5.21176758 L32.1960593,5.58201497 L30.4836857,9.11963704 L38.653866,18.8764974 L26.5358169,23.4479818 L22.6547852,25.0785238 L25.6758961,42.4506999 L23.631204,42.3527832 L24.1300551,45.515568 L23.0703699,45.3453613 L23.269761,46.8990234 L7.374483,45.1323161 L9.53978056,38.8492025 L12.9846909,27.3600586 L9.46062155,22.1670329 Z" id="Path-431" stroke="#239C6F" fill="#239C6F"></path>
                                    <path d="M29.8492934,11.2562093 L35.8956227,18.1352376 L25.0078987,22.5583171 L29.8492934,11.2562093 Z" id="Path-432" fill="#62C29C"></path>
                                    <path d="M21.6003274,29.2208577 L23.4329331,40.7868815 L12.3081055,40.8633789 L14.7724897,30.5618571 L21.6003274,29.2208577 Z" id="Path-433" fill="#62C29C"></path>
                                    <path d="M18.4545037,27.011613 L15.1962891,6.2509847 L29.5416188,6.82548014 L21.7041303,26.4493571 L18.4545037,27.011613 Z" id="Path-434" fill="#62C29C"></path>
                                    <path d="M14.9225931,14.1608154 L12.433565,4.40013021 L25.6068187,3.75296224 L25.6068187,5.13641764 L13.5305894,4.87250163 L14.9225931,14.1608154 Z" id="Path-435" fill="#62C29C"></path>
                                    <path d="M11.0206514,4.59596354 L7.24304917,5.04270833 L15.0973403,25.8205485 L16.2940602,25.6201253 L11.0206514,4.59596354 Z" id="Path-436" fill="#62C29C"></path>
                                    <path d="M5.9567153,5.99624837 L2.31652114,7.48641764 L13.2998334,25.7436686 L13.7859892,25.4671305 L5.9567153,5.99624837 Z" id="Path-437" fill="#62C29C"></path>
                                    <path d="M10.8563591,43.0098958 L22.3549517,43.6907227 L22.3549517,42.3413086 L10.8686811,42.3458984 L10.8563591,43.0098958 Z" id="Path-438" fill="#62C29C"></path>
                                </g>
                                <g id="my_leprechaun" transform="translate(9.500000, 0.272727)">
                                    <path d="M63.5992073,88.6529976 L55.4539985,128.392639 L93.4632842,128.4575 L92.8732437,87.9690501 L63.5992073,88.6529976 Z" id="Path-373" stroke="#979797" fill="#FFFFFF"></path>
                                    <g transform="translate(0.159722, 0.000000)">
                                        <path d="M53.7178471,60.2179829 L50.0747173,60.7368648 L45.5726382,60.5503005 L41.7120431,60.0962789 L39.2224931,59.5773971 L36.1086071,58.5308883 L34.3299117,56.6171473 L33.5060375,54.232623 L33.0983873,51.9042137 L34.477227,49.9984891 L36.7415171,49.1064788 L39.2918638,48.4083204 L42.0503226,48.0351919 L45.5554904,47.7189072 L50.3779217,47.4514499 L54.9150759,47.5163101 L59.7640083,47.3865897 L63.5723806,46.6971765 L68.6037034,45.86201 L73.7916947,45.0180983 L79.1527231,43.9395237 L82.995391,42.9010313 L87.79288,41.3524024 L92.9629442,39.4787435 L97.2483373,38.5051113 L102.045047,36.7699181 L106.886185,36.1125706 L111.674321,35.3663136 L115.266007,36.1286035 L118.015892,37.6050846 L118.301948,40.0624855 L116.323715,41.6038268 L113.713351,43.1444394 L110.407721,44.3775124 L106.417738,45.7483224 L103.389591,46.8429298 L100.527466,47.3537952 L53.7178471,60.2179829 Z" id="Path-332" stroke="#007413" fill="#1DA84B"></path>
                                        <path d="M60.8848514,50.9670199 L64.3292225,49.4664895 L68.5538188,47.981992 L71.5983342,47.0090886 L75.6927631,45.9705962 L79.7443225,44.9976928 L83.448249,44.1049537 L86.7359515,43.545261 L89.980005,43.1480832 L93.1468934,42.6452343 L96.2085565,43.0263792 L98.2039379,44.4380001 L99.6529276,47.0899817 L99.8696136,49.8068235 L100.407431,53.286684 L102.211848,54.2435545 L104.077062,55.4598659 L105.447328,57.2038044 L105.65544,59.5234684 L105.455902,62.9953124 L104.84014,66.2230196 L103.599262,69.0615655 L101.968661,72.0225441 L100.181392,74.5448053 L98.0129736,75.3151115 L95.9567955,75.3151115 L93.8406001,74.1636603 L92.4867028,74.1636603 L91.0470663,74.6825421 L89.6152244,75.8259769 L87.5512518,76.8076255 L85.8419271,77.018239 L83.7771752,76.8885186 L80.7848826,76.5073737 L76.6382309,75.5505031 L73.0730457,73.9603344 L69.4556376,71.9008401 L66.4711396,68.9967052 L65.5778947,65.9635787 L65.1702445,62.800003 L65.3089859,60.2128816 L63.660458,58.4689431 L61.7087256,55.8410108 L60.4514795,53.2619059 L60.8848514,50.9670199 Z" id="Path-323" stroke="#C4482F" fill="#FCCEAD"></path>
                                        <path d="M104.794152,67.6011172 L106.737311,68.7693301 L108.055354,70.3995809 L108.680469,73.302987 L108.289967,75.5089634 L106.250937,77.4474826 L107.630556,78.6725392 L107.795019,81.1299401 L107.179256,83.3927604 L105.530729,84.6666444 L102.529862,85.826112 L103.431681,87.8703023 L103.839331,89.7519776 L103.093401,91.6168913 L101.792506,93.0853559 L99.6404565,94.1879798 L97.5156872,94.3016674 L98.6341919,96.2321701 L99.1985107,98.2435658 L98.3044864,100.044348 L96.3613279,100.700967 L93.5506463,100.368649 L90.0719796,98.5358012 L88.9098259,99.6712196 L86.9923892,100.830687 L84.5807838,101.017251 L82.0304371,100.765827 L79.844871,99.9955207 L77.1550035,96.7670847 L75.3685136,96.9623942 L73.1564464,96.9055504 L70.8750085,96.6373643 L68.8624794,95.4210529 L67.5693788,91.471138 L65.2972942,91.471138 L62.824892,90.8954124 L61.0376228,89.232367 L60.552028,86.7181223 L60.9596782,84.2767542 L58.6868142,83.628152 L56.8216003,81.8434026 L55.7896141,79.9857766 L54.9743137,77.6661125 L55.1738519,75.2087116 L56.5355437,73.4975677 L54.826219,73.0996611 L53.0654509,71.8184895 L51.964094,69.8231265 L51.208811,67.5683227 L51.5556644,65.7194419 L52.9009879,64.0563966 L53.0397292,62.4341621 L53.6383436,60.3338568 L56.1107457,54.2989407 L57.142732,52.8632706 L58.5823684,52.0929643 L60.0227843,51.1280773 L60.6299726,52.2715121 L60.976826,54.0154505 L61.9487949,55.7025452 L63.0852269,56.9596675 L64.5427906,58.3785761 L65.2279235,60.1633255 L65.1671267,62.3124581 L65.1671267,64.6401386 L65.9387781,67.5194954 L67.2490265,69.952847 L69.2358339,71.8184895 L72.2632015,73.2301103 L75.4378843,74.7867558 L79.4286469,76.084689 L83.843428,77.115165 L86.0383475,76.7252749 L87.8864135,76.8389625 L89.5949588,75.6794948 L91.130467,74.5520929 L92.6316797,73.9756385 L94.0019454,74.2919232 L95.719844,75.0629583 L97.6630025,75.719577 L99.5890131,74.7707229 L100.69037,73.1725378 L102.54701,71.2340187 L104.794152,67.6011172 Z" id="Path-324" stroke="#C4482F" fill="#D38442"></path>
                                        <path d="M102.359164,53.9746396 L102.359164,51.5981318 L101.960087,49.5539415 L101.344325,47.5097512 L101.621808,45.896262 L102.731739,44.1523236 L103.27813,42.2866811 L103.418105,39.3790245 C103.440818,38.9072289 103.486242,37.9636377 103.486242,37.9636377 L101.725474,40.4618496 L100.710636,42.3114592 L99.4783318,43.5926308 L98.1774367,44.7448108 L99.0192382,46.4231603 L99.6435743,48.0133289 L100.285058,50.2273218 L100.259336,52.3443888 L100.328707,53.6984371 L102.359164,53.9746396 Z" id="Path-325" stroke="#C4482F" fill="#FCCEAD"></path>
                                        <path d="M76.9157136,56.5777939 L77.6709966,55.2157291 L79.2065049,55.0204197 L81.3055525,55.3935482" id="Path-326" stroke="#C4482F"></path>
                                        <path d="M90.6136944,53.982656 L91.1515121,52.7095008 L92.4524071,52.2547505 L93.9099708,52.2547505 L95.202292,52.0681862" id="Path-327" stroke="#C4482F"></path>
                                        <path d="M47.7597632,49.620988 L47.9593014,51.6243674 L48.2975808,53.3194785 L49.3124193,54.5438063 L50.3615534,56.0202874 L52.079452,57.3583029 L53.7451277,58.5024664 L54.9680782,59.7348107 L55.3936556,61.1624644 L55.6711383,63.0361233 L55.8706764,64.7880782 L56.4864386,66.0772663 L57.6571663,66.799474 L59.3407692,67.1886353 L60.8583502,66.4992221 L62.0906541,65.2909271 L62.5068782,63.4981613 L62.5068782,61.6893627 L62.30734,59.8324654 L61.6136332,58.1694201 L60.5114968,57.0748127 L58.4467449,55.8577725 L56.6166061,55.1523264 L54.8293368,54.3251763 L53.215884,53.8055658 L51.5938572,53.1729964 L49.8673847,51.8838083 L47.7597632,49.620988 Z" id="Path-322" stroke="#C4482F" fill="#FCCEAD"></path>
                                        <path d="M89.6237983,57.1294702 L92.0182558,56.9348895 L94.6465471,56.4888843 L96.927985,56.4888843 L99.1314784,56.8700293 L101.326398,57.3160344 L101.872789,58.7349429 L100.979544,60.0008105 L99.2616458,61.3468424 L97.1360971,62.4990224 L94.5943243,63.5287695 L92.2606635,63.9747747 L89.7796874,64.1693554 L87.6463442,63.8530707 L85.3384051,63.3341889 L83.7163784,62.4421786 L82.5620191,61.6711435 L82.9790226,59.9599996" id="Path-328" stroke="#C4482F"></path>
                                        <path d="M78.3740567,63.8290214 L79.1114125,66.043743 L80.2735662,67.5683227 L81.7046287,69.0039929 L82.9540804,70.2851646 L84.5332376,71.5830978 L85.972874,72.8730147 L87.8817368,73.0027352 L89.7290234,73.1324556 L91.2302361,72.8730147 L92.8779846,72.4831246 L94.6566799,71.9642428 L96.5741166,71.1859201 L98.1267727,70.6101945 L99.7659473,69.2226229 L99.5664091,68.0872045 L99.3582971,66.5546084 L99.7659473,63.8049721 L98.3520326,64.8186864 L96.417448,65.6618693 L94.2926787,66.0517595 L92.1585561,66.424888 L90.2325454,66.424888 L88.0984228,66.4329044 L86.0250969,66.2463401 L84.4895886,66.1246361 L82.9112108,65.7515076 L81.470795,65.0620944 L78.3740567,63.8290214 Z" id="Path-329" stroke="#000000" fill="#000000"></path>
                                        <path d="M73.0356323,55.3279592 L71.7604589,54.6378172 L71.7604589,53.0972046 L73.1392986,52.1155561 L74.6405112,51.41011 L76.2103151,50.445223 L77.9975844,50.445223 L79.7240569,50.4372066 L81.1636933,50.6317873 L82.5861819,51.5478469 L82.5861819,53.146032 L81.0686009,53.3406127 L78.5876249,53.3406127 L76.722411,53.3406127 L75.1611811,53.6568974 L73.0356323,55.3279592 Z" id="Path-330" stroke="#C4482F"></path>
                                        <path d="M87.9129147,51.6615345 L87.5052645,49.552484 L89.0836423,47.963044 L90.7664658,47.135894 L92.9005885,47.135894 L94.8265991,47.719636 L96.0931986,49.2041335 L94.5491164,49.4468128 L93.2474419,49.4468128 L91.9379729,49.6333771 L90.8358365,50.1449712 L89.6822567,51.2315622 L87.9129147,51.6615345 Z" id="Path-331" stroke="#C4482F"></path>
                                        <path d="M98.4463455,36.2976773 L97.8305833,33.6048848 L97.0059296,30.1898846 L96.7978176,27.9438259 L96.7892437,24.7962831 L97.1360971,21.771173 L97.6824886,18.4130165 L98.8711435,15.1853093 L99.9553526,12.6302537 L101.161155,9.79170784 L101.378621,6.5712883 L99.5742036,4.64151438 L96.468112,2.90559238 L92.20922,1.29137439 L87.5076029,0.391347656 L83.0055238,0.00218629976 L77.9476999,0.00218629976 L72.6388944,0.505035244 L67.1219769,1.41307841 L60.7546839,2.9704526 L55.5058958,4.91698815 L49.9889783,6.96919486 L43.4307211,10.0671816 L37.7579144,14.5199454 L34.8599349,17.7483814 L34.1662281,20.3923466 L34.851361,22.6231011 L36.2746291,25.1854444 L38.7556051,27.253684 L41.6528052,29.7198301 L44.3418933,32.3069515 L45.8602538,35.2023411 L48.0543937,38.2361964 L49.9024598,42.3639304 L50.9437994,45.9735113 L98.4463455,36.2976773 Z" id="Path-337" stroke="#007413" fill="#1DA84B"></path>
                                        <path d="M52.6024601,45.7927772 L48.1931351,46.654908 L48.1931351,44.9197148 L47.4557794,43.0540723 L46.7012758,41.3261668 L47.1782966,40.2395758 L48.8268246,38.9015603 L51.7240247,37.360219 L55.4108034,36.1679569 L59.3407692,34.9589331 L62.7672131,33.8074819 L65.6558393,33.1020358 L67.7205912,32.7128745 L90.6822857,29.3547181 L92.677667,29.3547181 L95.0721245,29.6790192 L99.0013109,30.1330408 L99.3481643,33.2157234 L99.4869057,35.4216999 L97.8064205,37.360219 L52.6024601,45.7927772 Z" id="Path-336" stroke="#000000" fill="#000000"></path>
                                        <path d="M33.5247442,51.7825097 L33.2558354,49.9897439 L33.4553735,48.0111426 L34.6175272,46.3969247 L36.7516499,45.293572 L39.224052,44.3935453 L41.7034692,43.9475402 L45.9989951,43.7449431 L49.1736779,43.8010581 L52.4964555,43.8579019 L56.5129398,43.9147457 L61.2059831,43.598461 L66.4454179,42.8201383 L71.9280398,42.0250539 L76.8720646,41.060167 L81.304773,39.7053899 L86.5535612,38.1647773 L90.4827475,36.623436 L95.9396477,34.7577935 L100.693488,33.2091645 L105.290659,31.9760915 L111.128708,31.5789137 L115.371232,32.7791922 L117.435984,35.0988563 L118.329229,37.8324597 L116.915314,36.8748605 L115.214563,36.1854473 L113.523166,35.8123188 L111.753045,35.4311738 L108.986012,35.8203352 L106.505036,36.3399458 L104.292969,36.4776827 L101.656103,37.1831287 L97.3099135,38.6676263 L93.354226,39.7134063 L89.1467774,41.0681834 L84.5231048,42.3573715 L80.4715454,43.7041321 L76.4644145,44.3527344 L72.248392,45.0749421 L67.0869018,46.0558619 L61.7601691,46.9646338 L58.0998915,47.2240747 L54.1613517,47.3537952 L50.3529795,47.5483759 L46.3544224,47.872677 L43.1789601,48.0023974 L39.4836075,48.3194109 L37.3580587,48.9680132 L35.5972906,49.8031797 L33.5247442,51.7825097 Z" id="Path-333" stroke="#007413" fill="#4DE869"></path>
                                        <path d="M70.7557533,44.6682903 L70.7557533,42.3406098 L70.7557533,39.8183487 L70.0620465,37.304104 L69.2467462,34.359887 L68.0931663,30.506898 L71.6583515,29.1528497 L75.6054652,28.3256996 L80.0724692,27.4249441 L84.2799177,27.1815361 L89.7968352,27.1735197 L90.7773781,29.8174848 L91.7228459,32.5430719 L92.1390699,35.2599137 L92.347182,37.9767555 L92.6948148,39.720694 L70.7557533,44.6682903 Z" id="Path-335" stroke="#FAA010" fill="#FEE100"></path>
                                        <path d="M72.8384325,32.6567595 L76.2734502,32.1458941 L80.9142707,31.4564809 L86.7873949,30.7510348 L87.4288788,33.4030164 L87.7149354,36.2984061 L87.7149354,38.821396 L74.23442,42.4542974 L74.442532,40.0697732 L74.23442,37.2552766 L72.8384325,32.6567595 Z" id="Path-334" stroke="#000000" fill="#000000"></path>
                                        <path d="M79.5919408,65.2891052 L82.4914793,66.5243646 L84.8033156,66.8486657 L87.0500682,67.1973805 L89.2578484,67.1325203 L91.7820837,67.0392382 L93.777465,66.7593918 L95.4322285,66.4288962 L96.8808286,65.8892445 L98.4163368,65.2891052 L99.4268883,64.3810621 L98.9798762,66.1366608 L98.2362849,66.5403975 L96.375358,67.4163749 L94.5970523,68.0653415 L91.8343066,68.6490836 L89.0454495,68.8436643 L85.86609,68.8436643 L83.6279113,68.7463739 L82.0990283,68.4887549 L80.9711702,67.4426105 L79.5919408,65.2891052 Z" id="Path-338" stroke="#FFFFFF" fill="#FFFFFF"></path>
                                        <path d="M87.4941574,72.6509231 L86.7558274,72.0495085 L87.9920284,71.9237962 L89.2282295,71.8261415 L90.2648924,71.8261415 L91.838009,71.627006 L92.9635287,71.4019994 L93.9524506,71.0673133 L95.2385362,70.5380466 L96.7132477,69.9257004 L97.4564493,69.4295926 L98.2499252,68.9427765 L99.0437907,68.399481 L99.4440362,68.9959765 L98.9621438,69.6926773 L98.3680112,70.0940455 L97.7259427,70.5766712 L96.4248528,71.030875 L95.0520538,71.5743526 L93.8051354,71.977725 L91.9529772,72.5049876 L90.4977519,72.8516983 L88.7909604,72.8719216 L87.4941574,72.6509231 Z" id="Path-339" stroke="#FFFFFF" fill="#FFFFFF"></path>
                                        <path d="M140.123703,108.445205 L139.399598,107.666518 L138.909327,106.145946 L138.7359,104.900849 L138.631844,102.897469 L138.527788,101.352484 L138.527788,99.7018278 L138.627557,98.314985 L138.766298,96.6643286 L139.009096,95.3868008 L139.638109,94.6449164 L140.314667,94.4864097 L141.004477,95.0624997 L141.693897,95.8696087 L142.075825,97.216005 L142.418392,98.8542722 L142.526735,100.561408 L142.526735,102.276925 L142.457364,104.312734 L142.158057,106.121533 L141.819777,107.755792 L141.303784,108.351923" id="Path-343" stroke="#397AC2" fill="#C3C6C0"></path>
                                        <path d="M139.331397,94.6649575 L138.537531,94.4703768 L137.643896,94.4703768 L137.028134,94.8599026 L136.408085,95.0869134 L135.436506,95.0869134 L134.365158,95.0869134 L133.259124,95.0869134 L132.508518,95.0869134 L131.870931,94.5800562 L131.086029,94.2553907 L130.508849,93.9350978 L129.611317,93.8418157 L128.956193,93.8418157 L128.205977,94.4459632 L127.633084,95.2774858 L126.813497,96.5954602 L126.40156,97.7633087 L126.301791,99.2802363 L126.301791,100.86166 L126.306077,102.743335 L126.548875,104.442454 L127.03447,106.097119 L127.516167,107.508375 L128.166615,108.830358 L128.895396,109.426489 L129.580529,110.059423 L130.639017,109.929702 L131.766875,109.475316 L132.976965,109.118585 L134.187054,108.928013 L135.38857,108.741449 L136.494604,108.741449 L137.99075,108.806309 L139.231238,108.806309 L140.580459,108.806309 L139.344257,108.169367 L138.962329,107.403069 L138.585077,106.368949 L138.476734,105.472566 L138.476734,104.649424 L138.476734,103.485584 L138.203538,102.370207 L138.203538,101.177944 L138.203538,100.273545 L138.34228,99.3082938 L138.34228,98.5620368 L138.546105,97.6864238 L138.645874,96.8468847 L138.858273,95.784343 L139.331397,94.6649575 Z" id="Path-344" stroke="#397AC2" fill="#FFFFFF"></path>
                                        <path d="M139.119387,96.4209206 L143.74306,96.428937 L144.44612,95.2774858 L145.860035,94.4583522 L147.221727,94.7177931 L148.731513,94.1500839 L150.249094,92.7384631 L151.203915,91.4004476 L151.680936,89.6565092 L152.704349,88.3097485 L153.918725,88.5691894 L154.812749,89.8430734 L155.162721,91.9561321 L154.951491,93.2332956 L153.710613,94.9692176 L152.626404,96.3640768 L150.94358,96.931786 L151.021525,98.4891602 L152.244475,99.7623154 L153.77141,101.643991 L155.69742,102.463124 L158.013154,102.463124 L160.363963,102.463124 L162.689049,102.463124 L164.545689,102.974719 L165.76864,104.40966 L165.438934,105.488963 L164.138039,105.894157 L165.144304,107.029576 L164.874226,108.125276 L164.015666,108.421156 L162.892095,108.834731 L162.957179,109.816379 L162.85741,110.724787 L162.275943,111.264074 L161.425958,111.645219 L160.406832,111.929074 L158.858073,111.929074 L157.17525,111.868222 L155.305749,111.422216 L153.249961,110.911351 L151.046467,110.270401 L148.183952,109.094536 L146.453193,107.999564 L144.679174,106.908601 L142.774988,105.71233 L142.258995,104.528084 L138.658735,104.499663 L138.558966,100.647038 L138.558966,98.8746777 L138.558966,97.7880867 L139.119387,96.4209206 Z" id="Path-340" stroke="#954739" fill="#FCCEAD"></path>
                                        <path d="M127.907449,94.7305465 L126.623702,94.9375162 L125.760465,95.0023765 L124.498543,95.456398 L123.331712,96.0000579 L122.203854,96.6326273 L120.893995,97.5694567 L119.657794,98.380574 L118.105138,99.2565514 L116.612889,100.026858 L115.025548,100.829958 L113.359872,101.616662 L112.080412,101.936955 L110.14154,102.127527 L108.315299,102.22919 L107.309034,101.815251 L106.31602,101.215112 L105.209987,100.598575 L103.865443,99.6336881 L102.156508,98.4694835 L100.148265,96.9893585 L98.7557855,96.032488 L99.133427,97.1679064 L99.1634357,98.1411741 L98.9942959,98.8590092 L98.8208692,99.5564388 L98.0445412,100.05528 L97.3983806,100.367556 L98.0184297,101.231509 L98.5001273,102.26162 L98.8165823,104.013575 L99.1634357,105.400418 L99.5800494,106.823699 L99.6798185,108.011953 L99.7838745,109.269076 L99.7881615,110.822441 L99.7881615,111.876967 L100.850936,112.067539 L102.36462,112.675695 L103.570422,113.349075 L105.157764,114.086951 L106.298483,114.508907 L107.703824,114.922482 L109.182822,115.113055 L110.666497,115.113055 L112.0543,114.975318 L113.737124,114.5898 L115.667421,113.63293 L117.840516,112.493139 L120.112991,111.232008 L122.455225,110.36842 L123.882391,109.691031 L125.877382,109.265067 L128.115561,108.904328 L127.573456,107.56194 L127.404317,106.584664 L126.99238,105.611396 L126.623702,104.556871 L126.419877,103.316146 L126.315431,102.123519 L126.315431,101.158632 L126.315431,100.06366 L126.315431,98.8429764 L126.489247,97.877725 L126.658387,96.8964408 L127.269862,96.032488 L127.907449,94.7305465 Z" id="Path-347" stroke="#007413" fill="#1DA84B"></path>
                                        <path d="M99.8208982,112.136772 L100.168141,113.81585 L100.580078,115.466507 L100.684134,117.465513 L100.762079,119.436463 L101.009553,122.802635 L101.287036,126.460315 L101.330295,130.316948 L101.278462,133.974992 L101.109322,135.005103 L99.9120934,136.035215 L97.7693968,137.721945 L94.9934005,139.469892 L91.3241593,141.396386 L89.2679812,142.272363 L87.6588153,142.458563 L87.667779,139.583579 L87.8412057,137.142211 L88.1619476,134.567114 L88.2313183,132.308302 L88.296402,130.134392 L88.4916532,127.162117 L88.4959402,124.355637 L88.5999962,121.638431 L88.7258767,118.751058 L88.7995343,115.356827 L88.8427935,112.550347 L88.7780995,109.679371 L88.6042831,106.796006 L88.4787923,103.328535 L88.2356052,100.295408 L89.3763242,99.1964282 L90.0661338,98.5474615 L90.8599993,99.1231871 L92.0178661,99.6628388 L93.2540672,100.214151 L94.2517578,100.441161 L95.5226442,100.534444 L96.5203349,100.534444 L97.4050059,100.185729 L97.9167121,100.891539 L98.6108086,102.663535 L99.0621077,104.833073 L99.4565073,107.031398 L99.6778699,108.977933 L99.8208982,112.136772 Z" id="Path-348" stroke="#007413" fill="#1DA84B"></path>
                                        <path d="M88.3501838,100.550476 L88.9312606,99.9543454 L89.3693092,99.3866362 L89.8552937,98.8105462 L90.8529843,99.2933541 L91.9590179,99.6460771 L93.0256895,100.100463 L94.1274362,100.420756 L95.1294138,100.485616 L95.8016858,100.590923 L94.6609669,102.241579 L93.3986544,103.782556 L92.4056404,105.116928 L91.8935445,105.984525 L91.9933136,106.665921 L92.7049476,107.051074 L93.6936746,107.566312 L94.5569109,108.020334 L94.8909034,108.912709 L94.54405,109.743867 L93.7154991,110.891674 L92.7700313,112.594802 L91.1476148,115.295611 L89.4951897,117.887105 L88.8100568,118.528055 L88.8100568,117.242511 L88.8100568,115.660723 L88.8404552,113.564061 L88.8404552,111.787693 L88.8404552,110.048127 L88.8404552,107.915027 L88.7360095,106.231941 L88.5321844,104.881536 L88.5321844,103.267683 L88.3501838,100.550476 Z" id="Path-349" stroke="#007413" fill="#4DE869"></path>
                                        <path d="M90.2715177,121.419436 L90.2715177,120.454185 L90.6924185,119.140219 L91.7548031,118.442425 L92.9563189,118.377565 L94.4138825,118.600567 L95.3418128,119.245526 L95.6586575,120.437788 L95.636833,121.698918 L95.1512383,122.82632 L94.183946,123.734728 L92.6788361,124.059393 L91.6289226,123.576585 L90.5969364,122.907578 L90.2715177,121.419436 Z" id="Path-350" stroke="#FAA010" fill="#FEE100"></path>
                                        <path d="M89.9332382,133.398173 L90.0330073,132.120645 L90.6097972,131.030046 L91.6117748,130.393104 L92.8175775,130.166093 L93.8760649,130.709388 L94.7739865,131.998941 L94.9906725,133.515869 L94.3445119,135.194582 L93.3857935,135.624555 L92.1063332,135.859946 L90.7575022,135.344708 L90.0372943,134.217306 L89.9332382,133.398173 Z" id="Path-351" stroke="#FAA010" fill="#FEE100"></path>
                                        <path d="M63.4102559,122.253874 L64.0264078,121.454782 L65.2626089,120.96833 L66.8760617,120.805815 L68.9447109,120.935535 L71.9159584,121.511625 L73.6424309,121.511625 L75.2601707,121.511625 L76.8171137,121.511625 L78.2528529,121.511625 L79.6016839,121.511625 L80.5300039,122.189014 L81.2502118,123.579865 L81.3542678,126.657811 L81.3932401,130.506427 L81.3975271,133.438255 L80.8468486,134.423912 L80.0876684,135.19021 L79.0814038,135.713464 L77.1121339,135.86359 L74.1973963,135.83116 L70.6626095,135.737878 L67.3359347,135.275475 L64.3385758,134.49278 L63.0548286,133.487082 L62.8163181,132.517823 L62.9203742,131.09855 L63.0244302,129.516762 L63.0244302,127.975785 L63.0634025,126.134556 L63.0634025,124.488272 L63.2282553,123.137868 L63.4102559,122.253874 Z" id="Path-353" fill="#FEE100"></path>
                                        <path d="M66.6675599,124.204418 L68.1075861,124.204418 L70.4108485,124.23284 L72.6229157,124.042267 L74.4187589,124.107128 L77.3985803,124.115144 L77.4722379,126.013217 L77.467951,128.722406 L77.572007,132.558634 L75.5380431,132.623494 L72.0461258,132.50179 L68.4419684,132.217935 L66.8413764,131.719095 L66.910747,130.007951 L66.910747,128.454585 L66.7762926,126.678216 L66.6675599,124.204418 Z" id="Path-352" fill="#000000"></path>
                                        <path d="M71.8594486,121.185138 L71.8594486,119.964454 L71.9331062,118.200474 L71.9373931,116.655489 L72.1112096,114.984427 L72.3582939,113.500294 L72.3582939,111.979358 L72.3582939,110.560086 L72.6704619,109.262517 L72.9483344,106.869612" id="Path-354" stroke="#000000"></path>
                                        <path d="M69.6388074,103.402504 L70.4845061,104.160786 L71.2826586,104.842183 L72.2105889,105.68573 L72.8961115,106.030437 L73.8287184,106.127727 L74.8911031,105.6533 L75.9971367,105.01235 L76.964429,104.623189 L77.6195532,104.111959" id="Path-355" stroke="#000000"></path>
                                        <path d="M73.7028379,110.925198 L73.7028379,109.870672 L74.1541371,109.031133 L74.8088715,109.031133 L75.3946251,109.449081 L75.5376534,110.186957 L75.3685136,110.868354 L74.7698992,111.200671 L73.7028379,110.925198 Z" id="Path-356" stroke="#000000" fill="#000000"></path>
                                        <path d="M73.4121046,116.541802 L73.0652512,115.819594 L73.1650203,114.951997 L73.9199136,114.655754 L74.7870471,114.858715 L75.2340592,115.560153 L74.9955488,116.375278 L74.4140822,116.594273 L73.4121046,116.541802 Z" id="Path-357" stroke="#000000" fill="#000000"></path>
                                        <path d="M72.8789637,121.347289 L72.9440474,120.515766 L73.594495,120.227903 L74.4187589,120.227903 L74.8957797,120.787596 L74.934752,121.428182 L72.8789637,121.347289 Z" id="Path-358" stroke="#000000" fill="#000000"></path>
                                        <path d="M81.2716466,123.687358 L82.7896173,123.687358 L84.6895165,123.464355 L86.7885641,123.054424 L88.4413789,122.567973 L88.545435,123.792665 L88.4109806,125.625513 L88.3544707,128.099675 L88.3848691,131.469492 L87.2398632,131.947927 L85.5437891,132.434743 L84.203532,132.726614 L83.0974984,133.026866 L81.4969064,132.933584 L81.5795277,130.131112 L81.4189618,127.994004 L81.4232488,125.374088 L81.2716466,123.687358 Z" id="Path-359" stroke="#000000" fill="#000000"></path>
                                        <path d="M59.0948541,121.48539 L60.6389362,121.874551 L62.3564451,122.203225 L63.5318494,122.361367 L63.0895139,124.38916 L63.0895139,126.684411 L63.0895139,128.882371 L62.9897448,131.01547 L62.8899758,132.438752 L61.3373197,131.696867 L60.1268403,131.27892 L58.851667,130.735624 L58.4093315,128.772691 L58.6174435,126.445011 L58.9300013,124.831157 L59.1381133,123.01835 L59.0948541,121.48539 Z" id="Path-360" stroke="#000000" stroke-width="3" fill="#000000"></path>
                                        <path d="M68.6274765,94.7968643 L67.6301755,94.5414316 L66.7669393,94.5414316 L65.6651926,94.6103 L64.7021873,94.8657327 L63.8783131,95.1251736 L63.9301462,96.0091675 L64.4422421,97.5016815 L65.0969766,98.3248233 L65.4091447,99.4197951 L65.3050886,100.579627 L64.9800597,102.124977 L66.1032412,102.737141 L67.4520722,103.191527 L69.0830625,103.256387 L71.1345639,102.834431 L72.830638,102.14939 L74.8127688,102.112588 L75.6109213,102.854836 L76.6736957,103.524209 L78.2914355,104.083537 L80.1087134,104.578369 L82.25141,104.412211 L83.70001,103.540241 L83.9778825,102.578998 L84.0472531,101.228594 L82.919395,101.04203 L81.6181102,100.855465 L79.9613981,100.340592 L78.9375961,99.1279241 L77.7750526,97.9272811 L77.133179,96.9623942 L75.6584675,97.0596845 L73.827939,97.0961229 L71.8286604,96.8406902 L70.1368733,96.2401865 L69.109174,95.5791952 L68.6274765,94.7968643 Z" id="Path-361" stroke="#007413" fill="#1DA84B"></path>
                                        <path d="M157.806796,105.024739 L158.995256,105.124216 L160.131493,105.217498 L161.222522,105.300577 L162.018336,105.430298 L162.796808,105.576233 L164.2912,105.706136" id="Path-341" stroke="#954739" filter="url(#filter-1)"></path>
                                        <path d="M156.791957,108.12309 L157.409863,108.12309 L158.513753,108.171735 L160.174947,108.22038 L161.213753,108.285241 L161.923049,108.573286 L162.974716,108.668572" id="Path-342" stroke="#954739"></path>
                                        <path d="M67.0510473,91.8439021 L66.4695807,93.7459829 L64.5786451,98.7784805 L63.3381571,102.566245 L62.1627528,106.901313 L61.2387198,110.916088 L60.2457058,114.833573 L59.7986936,118.751058 L59.1653939,122.230554 L58.7491698,125.977871 L58.5063725,130.17083 L58.4759741,133.224726 L58.69266,140.63774 L55.890942,140.025576 L52.7158695,138.955018 L49.5236491,137.494934 L46.8602827,136.002785 L45.7109899,134.915829 L45.8844166,132.892044 L46.370401,130.499504 L47.4156379,126.363025 L48.6646998,121.744102 L50.2695788,116.601925 L52.1433665,111.159496 L54.0128673,105.745489 L56.5067042,100.177712 L58.6318633,95.7289567 L60.9916355,91.4827982 L61.8197967,90.197254 L62.5746899,90.7409138 L63.4983332,91.1625053 L64.6741273,91.357086 L65.9446239,91.369475 L67.0510473,91.8439021 Z" id="Path-362" stroke="#007413" fill="#1DA84B"></path>
                                        <ellipse id="Oval-92" stroke="#007413" cx="73.62957" cy="99.5320252" rx="2.19491943" ry="2.51861732"></ellipse>
                                        <path d="M63.6078454,95.35182 L62.7188874,95.9967785 L61.8946235,96.7995149 L60.6194501,98.1907303 L59.5219904,99.151609 L58.7024031,100.027586 L58.5332634,101.041301 L58.5722356,102.594667 L58.7631999,104.837082 L59.1186272,107.096258 L59.3224522,108.770964 L59.5609627,109.999664 L60.0426602,110.733896 L60.9273312,111.269175 L61.768743,108.332975 L62.5322101,105.421188 L63.3997333,102.472963 L64.1935989,100.076414 L64.8787318,97.9677277 L64.4017109,97.1117913 L63.6078454,95.35182 Z" id="Path-363" stroke="#007413" fill="#4DE869"></path>
                                        <path d="M61.1303768,89.6911256 L59.8162312,89.9181364 L58.9576716,90.5951605 L56.9318919,92.1160964 L53.6745878,94.8941546 L50.4258577,97.5217225 L47.2336373,100.117225 L45.3380251,101.082476 L44.0238794,101.731443 L42.8484751,101.731443 L41.7077561,100.96478 L40.3632121,100.092811 L39.0576404,98.519404 L37.5396696,97.0757174 L35.861133,95.3117379 L34.8938408,95.757743 L33.0718862,96.8527148 L30.747189,98.4341383 L28.5959185,99.9510659 L26.0455718,102.071777 L27.6110888,103.722433 L30.2701682,106.79637 L33.4666755,109.8663 L37.066546,112.319692 L40.6710932,114.63134 L42.5144826,115.406019 L45.025857,115.414035 L47.5500923,115.251885 L49.5236491,114.542066 L51.3323531,113.613253 L52.6075265,109.444344 L54.3729713,105.332278 L55.6220332,102.364012 L57.0491985,99.1195433 L58.4023165,96.2321701 L59.6556653,93.8720595 L61.1350535,91.3538065 L61.9632147,90.2952731 L61.1303768,89.6911256 Z" id="Path-364" stroke="#007413" fill="#1DA84B"></path>
                                        <path d="M20.8817433,88.0911185 L21.7017203,87.3244561 L22.6947342,86.7811606 L24.0088799,86.0429201 L25.1020527,85.5564684 L26.1301417,85.3290932 L27.5093711,85.2318028 L28.7455721,85.1020824 L29.9946341,85.1020824 L30.9443888,85.3535069 L31.3263173,86.3836184 L31.3263173,87.3488698 L31.2959189,88.3101129 L31.2959189,89.1777095 L32.0851078,89.6845667 L33.2909105,90.5485195 L34.2496288,91.6679049 L35.3860608,92.8925972 L35.902054,93.594035 L35.8022849,94.4255577 L35.1518373,95.1718147 L34.2539158,95.7879868 L33.1478821,96.6235177 L31.4389472,97.6576375 L30.2027461,98.6064916 L28.8843135,99.5148991 L27.4746857,100.650317 L26.3990505,101.554717 L25.4185077,102.27656 L24.4820035,102.27656 L23.6230542,102.085988 L22.6861603,101.550709 L22.5170206,100.398893 L22.1393791,99.5312964 L21.3155049,98.6957655 L20.4522686,97.8886565 L19.4198926,97.2400543 L18.318146,96.7248163 L17.3683912,95.9056826 L16.7308045,95.2647324 L16.7308045,94.3282674 L16.9346296,92.9815067 L17.5503918,91.9841896 L18.1361454,91.1730724 L18.7390467,90.3819963 L19.3894942,89.4939942 L20.8817433,88.0911185 Z" id="Path-367" stroke="#397AC2" fill="#FFFFFF"></path>
                                        <path d="M27.3355547,85.0288413 L26.5506527,84.2989816 L25.5486751,83.3985905 L25.0712645,82.2023201 L24.8674395,80.8519157 L24.6982997,78.751246 L23.6012297,78.8161062 L22.5731407,78.751246 L21.3369396,77.9845835 L19.8969135,77.258732 L18.7647684,76.3951436 L18.0492371,75.7582016 L17.5371412,76.0828671 L16.505155,76.6017489 L15.7070025,76.9909103 L14.2365779,77.3480059 L12.8312371,77.7980193 L11.6340083,77.8913014 L10.2329545,77.9885917 L7.9082573,77.5425866 L7.9865916,79.2701278 L8.57195541,80.4623899 L9.53067377,81.4600714 L10.818708,82.0117477 L12.8616355,82.0197641 L14.479765,81.9224738 L16.1193293,81.6061891 L15.7416878,82.9565936 L14.6746265,83.893423 L13.2607117,84.5988691 L11.8292595,85.2154056 L10.6238465,85.2518439 L9.35724708,85.0572632 L8.33344499,84.6801265 L7.27067062,84.6801265 L6.23400767,84.5824718 L6.50759316,83.6460068 L6.23400767,82.38852 L5.71801454,81.8412163 L4.69849941,81.4884933 L3.66651314,81.3952112 L2.49110884,81.2979208 L1.48913124,81.2006305 L0.00584584365,81.0096936 L0.0662528948,82.0682271 L0.0662528948,83.2320673 L0.812572268,84.0431845 L1.81454987,84.4611322 L5.77881132,84.4611322 L3.31965975,85.5193013 L3.41942882,86.3468157 L3.82707898,86.7848044 L4.59483311,87.2348178 L5.65760749,87.8433379 L5.61395852,88.609636 L5.77881132,89.5668709 L6.29519417,90.3007388 L6.97175314,90.9456973 L8.00412913,91.5294393 L9.38764547,91.9513951 L10.4589937,91.9513951 L11.5650274,91.9513951 L12.7014594,91.9513951 L13.8293175,91.4729599 L14.0288556,92.2352497 L14.6489048,92.6488248 L15.5425394,92.6488248 L16.3360152,92.6488248 L17.0647971,92.6488248 L17.3726782,92.0446773 L17.8804871,91.3188257 L18.6782499,90.2522758 L19.7495982,89.2790081 L20.4740931,88.3461868 L21.9184062,87.251215 L23.1284958,86.3792458 L24.3775578,85.6734354 L25.7786116,85.284274" id="Path-368" stroke="#954739" fill="#FCCEAD"></path>
                                        <path d="M16.2837924,81.4076002 L16.8262867,80.936817 L17.5546788,80.4623899 L17.3508537,81.4884933 L17.3508537,82.7984512 L17.4506228,83.8690093 L18.1404323,84.6112581 L19.0122425,85.2518439 L19.8883396,85.6289806" id="Path-369" stroke="#954739"></path>
                                        <path d="M11.1226919,85.6005587 L12.0116498,85.9776954 L12.2244385,86.7888127 L11.7037687,87.7985188 L10.8233847,88.1148035 L9.51352597,88.2813266 L8.82800337,88.1840363 L7.85642415,88.1840363 L6.89809551,88.0863816 L6.2429713,88.0863816 L5.69229283,87.7336585 L4.96779794,87.4093574 L4.31306345,87.0606426 L3.77056916,86.3588404 L3.77056916,85.556104 L4.27837811,85.1097344 L5.27996599,84.8178634 L6.2429713,84.7245813 L7.34900492,84.7245813 L8.23406565,84.8178634 L9.47884063,85.3003069 L11.1226919,85.6005587 Z" id="Path-370" stroke="#954739"></path>
                                        <path d="M11.1429575,88.0863816 L12.1577959,88.3782526 L13.0210322,88.8002084 L13.5978221,89.6073174 L13.8756945,90.3736155 L13.7759254,91.1078478 L13.2334311,91.7200118" id="Path-371" stroke="#954739"></path>
                                        <path d="M94.1048323,140.260603 L94.2825459,142.308802 L94.6640847,145.48003 L95.3581812,150.127374 L96.0133054,155.679118 L96.6204937,159.714299 L96.863291,162.127245 L97.1929966,165.525483 L98.2857797,166.23931 L98.680569,167.301852 L98.0648068,168.789993 L96.759235,169.60111 L94.338666,170.643247 L91.4675773,171.746599 L88.7609517,172.395202 L86.6443666,172.918456 L84.6361244,172.922464 L83.1528391,172.500873 L82.944727,171.620523 L83.1528391,170.343359 L83.2222097,169.081864 L83.2222097,167.249016 L82.9010781,165.217215 L82.5238263,163.651824 L81.556534,161.20244 L80.4505004,158.753055 L79.2446977,156.043866 L77.7006155,153.23775 L76.2173301,150.394831 L75.0072405,148.456312 L73.1463136,144.984833 L72.39181,146.432528 L70.5180223,149.352695 L68.8917086,152.941506 L67.0611801,156.603558 L65.3565321,161.047941 L63.9773027,164.844087 L63.0318349,167.982884 L62.6935554,169.341305 L63.339716,169.568316 L63.6129118,170.622841 L63.3744013,171.750243 L62.3463123,172.046122 L61.2359917,172.374796 L58.7550157,172.504517 L55.3024604,172.22467 L50.878326,171.340676 L47.8377078,170.172463 L47.3564,169.377743 L47.4561691,167.869197 L48.0633574,166.648513 L48.9959643,166.648513 L48.961279,164.851739 L48.961279,162.690217 L48.961279,160.621977 L49.1000203,158.326727 L49.3385307,155.593488 L49.8245152,152.750569 L50.1019979,150.06215 L50.5879824,148.119622 L51.1776331,145.471284 L51.9757857,142.71764 L52.5525756,140.722641 L52.934504,139.039555 L55.6754253,139.947962 L57.4280092,140.430406 L58.8072386,140.718269 L58.6988956,139.152878 L58.6988956,137.762027 L58.6642103,136.152182 L58.6642103,134.923117 L58.5644412,133.629556 L58.5644412,132.307574 L58.625238,130.989599 L58.625238,130.178482 L59.3407692,130.656917 L60.0305788,130.847854 L60.9674727,131.200577 L61.9215143,131.581722 L62.815149,131.902015 L62.8888066,132.729529 L63.2617714,133.552671 L63.951581,134.388202 L65.0011048,134.676065 L66.6582066,135.12207 L68.6574851,135.377503 L70.8913768,135.535645 L73.0340734,135.600505 L75.2375667,135.79545 L77.3712997,135.79545 L79.0630868,135.515604 L80.5159738,134.870646 L81.175385,134.221679 L81.5483498,133.175535 L82.7108933,133.272825 L83.916696,133.049822 L85.4346667,132.627866 L86.8485814,132.18587 L88.2800337,131.768286 L88.2843206,132.745562 L88.2539222,134.643635 L87.9156427,136.582154 L87.8462721,138.333744 L87.7507899,140.280644 L87.6771323,142.368925 L89.0216764,142.275643 L90.6741015,141.663479 L92.6737698,140.694219 L94.1048323,140.260603 Z" id="Path-372" stroke="#007413" fill="#1DA84B"></path>
                                        <path d="M30.3457744,94.4328454 L29.8597899,93.4716022 L29.8597899,92.2144799 L30.3414875,91.14793 L31.0223334,91.1519382 L31.5691146,91.439801 L32.3972758,92.2509182 L32.6704716,93.3498982 L32.6837222,94.14061 L32.0328849,94.6518397 L31.2047237,94.6882781 L30.3457744,94.4328454 Z" id="Path-366" stroke="#FAA010" fill="#FEE100"></path>
                                        <path d="M27.1317296,89.7406817 L26.550263,89.0392439 L26.446207,87.8914365 L26.9929882,86.893755 L27.9298821,86.893755 L28.966545,87.5347053 L29.4868251,88.5768415 L29.4607137,89.485249 L29.1485456,90.1910595 L28.1812534,90.3572182 L27.1317296,89.7406817 Z" id="Path-365" stroke="#FAA010" fill="#FEE100"></path>
                                        <path d="M129.499857,98.3878616 L130.328408,98.5179465 L131.104736,98.0635605 L131.404043,97.3296925 L131.360784,96.3644412 L130.783604,95.8900142 L130.133156,95.601787 L129.343578,95.5085048 L128.758214,95.8331704 L128.107766,96.2223317 L127.93395,96.9605723 L128.202859,97.6335882 L128.714955,98.0799577" id="Path-345" stroke="#FAA010" fill="#FEE100"></path>
                                        <path d="M133.906649,98.3111589 L133.507572,97.763673 L133.5596,97.1715502 L133.973876,96.7357478 L134.268701,96.1882619 L134.904144,96.0909715 L135.713209,96.0909715 L136.387625,96.3341974 L136.849446,96.7073259 L137.144466,97.2912501 L137.248522,97.9380304 L136.9081,98.4206561 L136.407111,98.8222065 L135.700153,98.8546366 L134.852116,98.7775696 L133.906649,98.3111589 Z" id="Path-346" stroke="#FAA010" fill="#FEE100"></path>
                                    </g>
                                </g>
                            </g>
                            <g id="basket_part" transform="translate(101.520774, 451.007407)">
                                <path d="M92.5192161,14.2464365 L93.4212918,15.7273024 L93.9698674,17.1865751 L94.3514466,19.0854424 L94.4989354,20.5193898 L94.7791345,22.1650037 L95.0486932,24.0073555 L95.2688919,25.4034482 L95.4403218,26.7843456 L95.7066292,29.0422996 L95.7754967,31.2453375 L95.8907685,33.6277855 L95.8940198,37.04564 L95.8807192,42.371159 L95.7689942,46.6671364 L95.4072181,53.5801543 L94.6210053,62.9585274 L97.2438821,62.2027659 L99.5496137,61.0191395 L101.944311,59.2626273 L103.809646,57.3874859 L105.342465,55.0407599 L106.207595,52.023579 L106.65479,48.7267529 L106.924644,44.6912267 L106.934398,40.8313784 L106.934398,29.6871627 L106.723953,22.6312565 L106.335576,15.7827516 L105.92444,13.4656163 L105.217144,11.5312935 L104.532902,9.66201689 L103.802848,8.10437522 L102.940969,6.63577211 L101.70697,4.95123716 L101.170513,5.88880789 L100.341738,6.65709871 L99.0917777,8.27098929 L97.7824083,9.67134728 L96.5259457,11.1607438 L95.1154917,12.3950209 L93.8250387,13.3949719 L92.5192161,14.2464365 Z" id="Path-268" fill="#B79355"></path>
                                <path d="M15.9911544,14.0025135 L15.4913477,15.0467172 L14.9746936,16.6408807 L14.6950856,18.6645086 L14.2907476,20.394096 L13.8036503,22.3068256 L13.5142886,24.4104283 L13.3035481,26.5140309 L13.1129062,29.4400407 L13.0307381,32.0645456 L12.94857,34.8295395 L12.9190132,36.9717967 L13.0833494,40.5024156 L13.1064037,45.9793535 L13.5210866,51.8063142 L14.0572483,58.9504592 L14.6259225,62.9825198 L12.0964454,62.5106687 L9.94825196,61.5224473 L8.18193329,60.4307919 L6.34645154,58.9888471 L4.71816347,56.8556537 L3.45165151,54.7461862 L2.87588364,53.3221024 L2.4812994,50.8151604 L2.16888326,48.4713669 L1.90553153,46.1302392 L1.82986594,42.9763014 L1.70158912,39.7570508 L1.62592353,35.804965 L1.8331172,30.7964126 L1.88572843,25.8710339 L2.07016331,22.1857971 L2.30691385,17.0586155 L2.4614963,14.7646729 L3.22790598,12.3942211 L4.38594423,9.71506681 L5.49107567,7.5373542 L7.13266434,4.63293763 L7.73769351,5.5347863 L8.33651573,6.62350931 L9.09967416,7.35341226 L9.80697011,7.96468598 L10.905599,8.75083783 L11.9779224,9.86648568 L13.6062104,11.6080693 L14.6259225,12.7205181 L15.9911544,14.0025135 Z" id="Path-269" fill="#B79355"></path>
                                <path d="M5.88028027,2.64236595 L8.2404559,6.65923137 L12.3855116,10.4095143 L15.2146954,13.5893106 L18.8726539,15.5716182 L27.4902555,16.8053621 L42.9768741,17.5773851 L54.8067165,17.4824817 L69.8724453,17.3044046 L82.241405,16.8298877 L89.4911146,16.0695944 L92.4125158,14.3847928 L95.8600294,11.8682538 L98.1619185,9.31759227 L100.570212,6.57605763 L102.556434,3.96461525 L101.740665,1.24653987 L99.6249837,0.12689328 L97.5063471,0.547027333 L95.7276146,3.46717227 L93.7869104,5.69260315 L91.9254186,7.64345404 L89.4379122,9.34105153 L87.6621354,10.6814284 L83.5040746,10.6814284 L75.8452979,11.6901767 L69.1217007,11.8799835 L60.5301092,12.0708565 L52.7075875,12.0356677 L43.6744163,11.8927794 L36.5299292,11.8927794 L28.7801173,11.4299922 L22.2929751,10.8712352 L18.3583643,8.70018715 L15.5291805,6.24336264 L13.3325138,3.58500174 L10.7273711,0.417468228 L7.98390225,0.453190286 L5.88028027,2.64236595 Z" id="Path-265" fill="#AC8750"></path>
                                <path d="M15.8729269,13.8284351 L17.7051574,14.8726388 L19.1327543,15.6233352 L21.4056778,15.8576613 L23.8662874,16.142638 L27.8204057,16.7832358 L32.9420205,17.0682125 L38.4026526,17.3025385 L43.6395391,17.4923453 L49.6395841,17.4894129 L61.9999724,17.4035733 L72.9055715,17.1780445 L80.8022809,16.887203 L86.871489,16.3708326 L89.6016573,15.8992481 L91.0061998,15.2405227 L92.6445373,14.2080486 L93.3550845,15.1722776 L93.8548912,16.6587417 L94.2234654,18.1510707 L94.5621871,20.5215225 L94.8976576,22.55688 L95.1347037,24.4912028 L95.4240655,26.5028345 L95.6345104,28.5885761 L95.8189453,31.2647981 L95.878059,34.029792 L95.9537246,37.0323109 L95.9011134,43.4913388 L95.6114561,51.2651517 L94.9538157,59.541206 L94.6706608,62.8017769 L93.60484,63.2200448 L91.1870879,63.614587 L87.4534638,64.0715094 L83.877969,64.4633857 L79.2496585,64.6411962 L73.5162164,65.0181439 L67.9172582,65.1397056 L60.8141507,65.3087189 L53.9486805,65.3532382 L45.5397504,65.2495376 L38.3048193,65.1101149 L28.724846,64.5404281 L20.1347323,63.7334828 L14.4367585,62.9827864 L14.0241446,60.0194551 L13.8630596,57.9099876 L13.5881807,53.7257083 L13.2855184,49.0642464 L13.0585216,44.3606644 L12.9991123,40.6964876 L12.9266979,37.7264918 L12.9234467,33.7122922 L13.0517235,30.8049432 L13.1309359,27.7488412 L13.4202977,25.2922833 L13.7622707,22.5627448 L14.3708467,19.6521969 L14.7970568,17.13939 L15.4168644,15.1069649 L15.8729269,13.8284351 Z" id="Path-270" fill="#C49E5D"></path>
                                <path d="M1.17252111,20.2125533 L0.38305706,18.5658731 L0.146306516,17.3849125 L0.376554549,16.5393128 L1.15951609,16.1359734 L1.88986639,16.0885217 L2.75499603,16.3465736 L3.54446008,17.3108026 L4.09362676,18.5064252 L4.4589497,19.5954148 L5.1496938,20.9987052 L6.1957115,22.7016343 L7.57069718,24.4818724 L8.78134665,25.6151147 L10.1991898,26.893911 L12.5279757,28.1964332 L15.574107,28.7511915 L20.357,29.4840268 L26.2222656,30.148617 L33.2254709,30.8220045 L39.0907366,31.3679655 L44.3964906,31.7446466 L51.8637388,31.6526756 L62.759584,31.6468108 L72.0436931,31.293589 L82.6989454,30.2285918 L91.9597045,29.1246736 L94.5057335,28.6261643 L96.4204276,27.9378482 L98.3351218,27.2258063 L99.6938512,26.181336 L101.798892,24.2678066 L103.726591,21.7072815 L104.812215,19.0846427 L105.341874,17.3875783 L106.33528,16.3255136 L107.042281,15.8565949 L107.894405,16.0226758 L108.578647,16.5539748 L108.818649,17.5211362 L108.664066,18.7226236 L107.874602,20.4108907 L107.167306,21.873629 L105.858232,24.146245 L104.289058,26.3239576 L102.736436,27.9852999 L100.956816,29.269961 L98.486453,30.5962091 L95.6215054,31.400222 L91.5293565,32.0469512 L87.8548462,32.5188022 L83.6675241,33.0261088 L77.1082631,33.5925966 L69.1536221,34.1356252 L62.8928855,34.3731502 L56.533429,34.4176695 L51.1540783,34.3878123 L46.1403461,34.3403606 L40.7810941,34.2038703 L34.7772067,33.7975986 L29.9606188,33.4027899 L23.3487466,32.7709893 L17.9859477,32.070677 L13.8110396,31.3290444 L10.6691441,30.4626512 L8.38617128,29.3115479 L6.8589677,28.0591432 L5.41777463,27.0058757 L3.81254091,24.8577537 L2.09173983,22.0034547 L1.17252111,20.2125533 Z" id="Path-266" fill="#AC8750"></path>
                                <path d="M1.63685957,38.1181015 L0.406702558,36.1805797 L0.0413796207,34.700247 L0.0413796207,33.8991665 L0.48236815,33.1306091 L1.32444343,32.8488314 L2.13371059,32.9853216 L2.88681968,33.3116186 L3.23559077,33.7685411 L3.67953499,34.9465692 L4.22899724,36.2696183 L4.72584825,37.3287507 L5.54161792,38.5630277 L6.59088687,39.7706465 L7.77168391,41.3520141 L8.82449969,42.6545363 L10.1303223,43.5681146 L11.8047191,44.5206139 L14.0250313,45.2326558 L16.6996326,45.754891 L20.1864568,46.4935911 L25.0284636,47.2027006 L29.3213037,47.7100072 L35.0293268,48.261833 L42.1288874,48.4665684 L49.5999779,48.6563751 L57.3149127,48.7155565 L64.6544751,48.5998596 L73.3660675,48.0984179 L81.7714508,47.3597177 L88.9002727,46.4133498 L95.0554913,45.3009009 L97.5131452,44.5944573 L99.1281327,43.6422245 L101.467264,41.3960002 L103.664817,38.9154498 L104.888767,36.5775211 L105.743847,34.3667523 L106.29331,33.3995909 L107.076271,32.921875 L107.964455,32.921875 L108.724362,33.1831259 L108.862393,34.0079322 L108.813033,35.0641321 L108.477562,36.1824458 L107.957657,37.1973255 L107.234105,38.7874902 L105.974095,40.876964 L104.681573,42.805422 L103.131907,44.4888906 L101.247065,46.1800901 L99.7239992,46.9307865 L96.8061448,47.9275385 L95.443573,48.4292468 L93.1606002,48.877372 L87.8971125,49.5478271 L80.843365,50.3667686 L73.1751301,50.8415521 L64.5560507,51.4378972 L58.5388627,51.5623912 L51.9754637,51.6010457 L45.6095047,51.3755168 L39.5689667,51.1857101 L33.3906938,50.8682103 L27.400107,50.3193169 L20.9389748,49.6400646 L16.0963769,48.8923007 L13.500988,48.3404748 L11.6779201,47.7292011 L9.6908116,46.8894662 L7.80567431,45.6551891 L5.65748086,43.8898797 L4.41668337,42.5838919 L3.04465338,40.7532697 L1.63685957,38.1181015 Z" id="Path-267" fill="#AC8750"></path>
                            </g>
                        </g>
                        <g id="big_dollar" transform="translate(231.739613, 438.871998) rotate(-85.000000) translate(-231.739613, -438.871998) translate(214.423671, 423.060628)">
                            <path d="M10.4819139,0.0101412721 L34.5949212,21.388788 L24.0945255,31.5999222 L0.0357517008,10.3249418 L10.4819139,0.0101412721 Z" id="Path-426" fill="#239C6F" sketch:type="MSShapeGroup"></path>
                            <path d="M13.2370672,3.6769154 L30.5928516,19.0612252 L30.3922785,19.3591251 L30.1241407,19.8105525 L29.9623491,20.3732523 L29.8594872,20.8984857 L29.8493374,21.4987926 L29.9067522,22.1493834 L30.0635446,22.7702546 L30.3283496,23.3957739 L30.7161646,23.9445294 L26.7540884,27.8997664 L26.209481,27.6521503 L25.6986558,27.4765091 L25.0580035,27.2649509 L24.4138669,27.2038216 L23.6062724,27.2069203 L22.9083568,27.3605888 L22.3604165,27.5360891 L21.8512577,27.7759584 L21.3352819,28.0189263 L3.98434527,12.6357434 L4.1579531,12.3409422 L4.39912559,11.9945896 L4.60303148,11.5071043 L4.6571135,11.0603249 L4.76497456,10.560163 L4.79360622,10.0476062 L4.72452666,9.49744219 L4.57606621,8.91107947 L4.30807995,8.39852267 L4.06857385,8.00033689 L3.90844865,7.70257787 L7.94808786,3.74593239 L8.26500548,4.0155212 L8.66297038,4.18961304 L9.19576162,4.36356403 L10.0000234,4.47807589 L10.7705028,4.45455378 L11.4887182,4.35567637 L12.1175542,4.18172539 L12.7886561,3.90903785 L13.2370672,3.6769154 Z" id="Path-427" fill="#62C29C" sketch:type="MSShapeGroup"></path>
                            <ellipse id="Oval-96" fill="#239C6F" sketch:type="MSShapeGroup" cx="17.2965517" cy="15.829399" rx="6.24382246" ry="5.76925703"></ellipse>
                            <ellipse id="Oval-94" fill="#239C6F" sketch:type="MSShapeGroup" cx="9.19121691" cy="8.70797232" rx="2.09420132" ry="1.96515317"></ellipse>
                            <ellipse id="Oval-95" fill="#239C6F" sketch:type="MSShapeGroup" cx="25.3631049" cy="22.9508256" rx="2.09420132" ry="1.96515317"></ellipse>
                            <text id="$" sketch:type="MSTextLayer" transform="translate(17.529241, 15.451968) rotate(42.000000) translate(-17.529241, -15.451968) " font-family="Myriad Web Pro" font-size="9.62917933" font-weight="normal" fill="#62C29C">
                                <tspan x="14.3491572" y="18.9519684">$</tspan>
                            </text>
                        </g>
                    </g>
                </g>
            </g>
        </g>
    </g>
</svg>