<?xml version="1.0" encoding="UTF-8" standalone="no"?>
<svg width="1440px" height="2050px" viewBox="0 0 1440 2050" version="1.1" xmlns="http://www.w3.org/2000/svg" xmlns:xlink="http://www.w3.org/1999/xlink" xmlns:sketch="http://www.bohemiancoding.com/sketch/ns">
    <!-- Generator: Sketch 3.2.2 (9983) - http://www.bohemiancoding.com/sketch -->
    <title>background</title>
    <desc>Created with Sketch.</desc>
    <defs></defs>
    <g id="Page-1" stroke="none" stroke-width="1" fill="none" fill-rule="evenodd" sketch:type="MSPage">
        <g id="home_screen" sketch:type="MSArtboardGroup" transform="translate(0.000000, -1250.000000)">
            <g id="sun_rays-+-Oval-37-+-Group" sketch:type="MSLayerGroup" transform="translate(-1399.000000, -1072.000000)">
                <g id="Group" transform="translate(1399.000000, 968.000000)" sketch:type="MSShapeGroup">
                    <g id="bottom_part" transform="translate(0.000000, 665.000000)">
                        <g id="background" transform="translate(0.000000, 689.000000)">
                            <rect id="bottom_background_rectangle" fill="#10162C" x="0" y="0.898876404" width="1440" height="2053.10112"></rect>
                            <ellipse id="Oval-89" fill="#BAB0D1" cx="69" cy="239.5" rx="4" ry="4.5"></ellipse>
                            <ellipse id="Oval-37" fill="#BAB0D1" cx="978" cy="590.5" rx="4" ry="4.5"></ellipse>
                            <ellipse id="Oval-87" fill="#BAB0D1" cx="485" cy="1360.5" rx="4" ry="4.5"></ellipse>
                            <ellipse id="Oval-86" fill="#BAB0D1" cx="1019" cy="1224.5" rx="4" ry="4.5"></ellipse>
                            <ellipse id="Oval-85" fill="#BAB0D1" cx="1279" cy="1175.5" rx="4" ry="4.5"></ellipse>
                            <ellipse id="Oval-84" fill="#BAB0D1" cx="1260" cy="1365.5" rx="4" ry="4.5"></ellipse>
                            <ellipse id="Oval-83" fill="#BAB0D1" cx="1071" cy="1455.5" rx="4" ry="4.5"></ellipse>
                            <ellipse id="Oval-82" fill="#BAB0D1" cx="1285" cy="1567.5" rx="4" ry="4.5"></ellipse>
                            <ellipse id="Oval-81" fill="#BAB0D1" cx="816" cy="1959.5" rx="4" ry="4.5"></ellipse>
                            <ellipse id="Oval-80" fill="#BAB0D1" cx="1022" cy="1997.5" rx="4" ry="4.5"></ellipse>
                            <ellipse id="Oval-79" fill="#BAB0D1" cx="1197" cy="1906.5" rx="4" ry="4.5"></ellipse>
                            <ellipse id="Oval-78" fill="#BAB0D1" cx="1007" cy="1864.5" rx="4" ry="4.5"></ellipse>
                            <ellipse id="Oval-77" fill="#BAB0D1" cx="1183" cy="1652.5" rx="4" ry="4.5"></ellipse>
                            <ellipse id="Oval-76" fill="#BAB0D1" cx="1027" cy="1691.5" rx="4" ry="4.5"></ellipse>
                            <ellipse id="Oval-75" fill="#BAB0D1" cx="1317" cy="1775.5" rx="4" ry="4.5"></ellipse>
                            <ellipse id="Oval-74" fill="#BAB0D1" cx="1372" cy="1969.5" rx="4" ry="4.5"></ellipse>
                            <ellipse id="Oval-73" fill="#BAB0D1" cx="628" cy="1939.5" rx="4" ry="4.5"></ellipse>
                            <ellipse id="Oval-72" fill="#BAB0D1" cx="610" cy="1988.5" rx="4" ry="4.5"></ellipse>
                            <ellipse id="Oval-71" fill="#BAB0D1" cx="520" cy="1897.5" rx="4" ry="4.5"></ellipse>
                            <ellipse id="Oval-70" fill="#BAB0D1" cx="337" cy="1939.5" rx="4" ry="4.5"></ellipse>
                            <ellipse id="Oval-69" fill="#BAB0D1" cx="409" cy="1778.5" rx="4" ry="4.5"></ellipse>
                            <ellipse id="Oval-68" fill="#BAB0D1" cx="191" cy="1834.5" rx="4" ry="4.5"></ellipse>
                            <ellipse id="Oval-67" fill="#BAB0D1" cx="246" cy="1689.5" rx="4" ry="4.5"></ellipse>
                            <ellipse id="Oval-66" fill="#BAB0D1" cx="72" cy="1700.5" rx="4" ry="4.5"></ellipse>
                            <ellipse id="Oval-65" fill="#BAB0D1" cx="78" cy="1961.5" rx="4" ry="4.5"></ellipse>
                            <ellipse id="Oval-64" fill="#BAB0D1" cx="155" cy="1584.5" rx="4" ry="4.5"></ellipse>
                            <ellipse id="Oval-63" fill="#BAB0D1" cx="376" cy="1485.5" rx="4" ry="4.5"></ellipse>
                            <ellipse id="Oval-62" fill="#BAB0D1" cx="165" cy="1371.5" rx="4" ry="4.5"></ellipse>
                            <ellipse id="Oval-61" fill="#BAB0D1" cx="113" cy="1160.5" rx="4" ry="4.5"></ellipse>
                            <ellipse id="Oval-60" fill="#BAB0D1" cx="338" cy="1281.5" rx="4" ry="4.5"></ellipse>
                            <ellipse id="Oval-59" fill="#BAB0D1" cx="495" cy="1129.5" rx="4" ry="4.5"></ellipse>
                            <ellipse id="Oval-58" fill="#BAB0D1" cx="288" cy="1075.5" rx="4" ry="4.5"></ellipse>
                            <ellipse id="Oval-57" fill="#BAB0D1" cx="176" cy="959.5" rx="4" ry="4.5"></ellipse>
                            <ellipse id="Oval-56" fill="#BAB0D1" cx="101" cy="656.5" rx="4" ry="4.5"></ellipse>
                            <ellipse id="Oval-55" fill="#BAB0D1" cx="280" cy="751.5" rx="4" ry="4.5"></ellipse>
                            <ellipse id="Oval-54" fill="#BAB0D1" cx="392" cy="920.5" rx="4" ry="4.5"></ellipse>
                            <ellipse id="Oval-53" fill="#BAB0D1" cx="485" cy="679.5" rx="4" ry="4.5"></ellipse>
                            <ellipse id="Oval-52" fill="#BAB0D1" cx="391" cy="534.5" rx="4" ry="4.5"></ellipse>
                            <ellipse id="Oval-51" fill="#BAB0D1" cx="152" cy="445.5" rx="4" ry="4.5"></ellipse>
                            <ellipse id="Oval-50" fill="#BAB0D1" cx="369" cy="380.5" rx="4" ry="4.5"></ellipse>
                            <ellipse id="Oval-49" fill="#BAB0D1" cx="475" cy="238.5" rx="4" ry="4.5"></ellipse>
                            <ellipse id="Oval-48" fill="#BAB0D1" cx="262" cy="262.5" rx="4" ry="4.5"></ellipse>
                            <ellipse id="Oval-47" fill="#BAB0D1" cx="1119" cy="808.5" rx="4" ry="4.5"></ellipse>
                            <ellipse id="Oval-46" fill="#BAB0D1" cx="1272" cy="688.5" rx="4" ry="4.5"></ellipse>
                            <ellipse id="Oval-45" fill="#BAB0D1" cx="1156" cy="180.5" rx="4" ry="4.5"></ellipse>
                            <ellipse id="Oval-44" fill="#BAB0D1" cx="1148" cy="440.5" rx="4" ry="4.5"></ellipse>
                            <ellipse id="Oval-43" fill="#BAB0D1" cx="970" cy="189.5" rx="4" ry="4.5"></ellipse>
                            <ellipse id="Oval-42" fill="#BAB0D1" cx="1325" cy="271.5" rx="4" ry="4.5"></ellipse>
                            <ellipse id="Oval-41" fill="#BAB0D1" cx="1156" cy="581.5" rx="4" ry="4.5"></ellipse>
                            <ellipse id="Oval-40" fill="#BAB0D1" cx="1007" cy="349.5" rx="4" ry="4.5"></ellipse>
                            <ellipse id="Oval-39" fill="#BAB0D1" cx="1172" cy="1028.5" rx="4" ry="4.5"></ellipse>
                            <ellipse id="Oval-38" fill="#BAB0D1" cx="1264" cy="449.5" rx="4" ry="4.5"></ellipse>
                        </g>
                    </g>
                </g>
            </g>
        </g>
    </g>
</svg>