<?xml version="1.0" encoding="UTF-8" standalone="no"?>
<svg width="1440px" height="492px" viewBox="0 0 1440 492" version="1.1" xmlns="http://www.w3.org/2000/svg" xmlns:xlink="http://www.w3.org/1999/xlink" xmlns:sketch="http://www.bohemiancoding.com/sketch/ns">
    <!-- Generator: Sketch 3.2.2 (9983) - http://www.bohemiancoding.com/sketch -->
    <title>mountain_range + river</title>
    <desc>Created with Sketch.</desc>
    <defs>
        <linearGradient x1="50%" y1="14.9797336%" x2="50%" y2="50%" id="linearGradient-1">
            <stop stop-color="#80B0B1" stop-opacity="0.946133379" offset="0%"></stop>
            <stop stop-color="#F3FAF5" stop-opacity="0.672044837" offset="100%"></stop>
        </linearGradient>
        <path id="path-2" d="M529.958984,286.613281 L656.556641,260.574219 L633.255859,248.488281 L768.839844,227.667969 L712.158203,248.140625 L749.634766,264.746094 L700.900391,290.441406 L1139.63867,332.871094 L1133.76758,491.421875 L422.361328,488.507812 L529.958984,286.613281 Z"></path>
    </defs>
    <g id="Page-1" stroke="none" stroke-width="1" fill="none" fill-rule="evenodd" sketch:type="MSPage">
        <g id="home_screen" sketch:type="MSArtboardGroup" transform="translate(0.000000, -669.000000)">
            <g id="sun_rays-+-Oval-37-+-Group" sketch:type="MSLayerGroup" transform="translate(-1399.000000, -1072.000000)">
                <g id="Group" transform="translate(1399.000000, 968.000000)">
                    <g id="bottom_part" transform="translate(0.000000, 665.000000)">
                        <g id="mountain_range-+-river" transform="translate(0.000000, 108.000000)">
                            <g id="mountain_range" sketch:type="MSShapeGroup">
                                <g id="mountains-+-Path-248">
                                    <g id="mountains">
                                        <path d="M17.8968136,193.59421 L44.0429688,162.621094 L63.0820312,137.203308 L85.5585938,103.632812 L108.949219,135.628906 L125.160438,153.595475 L247.364317,82.387242 L250.495086,80.1606197 L256.182065,80.4296076 L260.041505,82.387242 L273.239652,89.1418279 C275.757333,90.0637438 281.219848,90.0637438 281.219848,90.0637438 L288.658986,89.1682669 L293.113088,87.0313072 L377.623772,26.0377187 L381.017533,24.092729 L387.076385,24.8088806 C390.599129,25.4100802 394.440143,25.9227666 394.440143,25.9227666 L397.646292,26.7412256 L402.251154,26.4343034 L405.793999,24.4249406 L437.761719,3.36686397 L441.773563,1.60234905 C445.316409,1 449.586249,1 449.586249,1 L456.092354,2.12653066 L459.204698,3.36686391 L606.270473,114.792241 L612.421456,119.551259 L618.612641,122.544611 L625.061793,123.747011 L633.299955,123.057298 L690.049136,92.9168551 L695.680837,91.8914823 L702.80338,91.8914823 L708.991215,95.3216532 L714.921084,98.5701998 L766.189324,136.260697 L772.675328,136.260697 L780.357356,136.260697 L785.687537,139.739148 L792.81008,143.194608 L796.910736,146.493734 L804.890932,151.101014 L809.504169,153.119573 L845.679688,127.396484 L854.367187,120.800781 L861.048828,127.308594 L902.359375,162.621094 L931.9375,184.898438 L954.285156,168.804688 L986.78125,144.263672 L1033.58621,109.8516 L1095.04688,170.546875 L1167.69531,57.1953125 L1180.12891,82.3872452 L1188.84961,99.0351562 L1196.97852,115.337891 L1220.53789,157.699265 L1242.46166,150.356125 L1252.30457,157.11071 L1303.08703,126.048352 L1352.08048,140.734633 L1392.79556,119.702995 L1440,142.105469 L1440,400.078084 L0.706893985,401 L0,198.302649 L17.8968136,193.59421 Z" id="Path-207" fill="#7D8DB5"></path>
                                        <path d="M456.992188,1.3984375 L412.265625,324.859375 L341.78125,252.765625 L244.453125,454.007812 L1079.45312,454.007812 L456.992188,1.3984375 Z" id="Path-245" opacity="0.740000248" fill="#415CA4"></path>
                                        <path d="M448.265625,0.251953125 L456.808594,1.24609375 L465.019531,6.421875 L475.28125,13.0742188 L489.542969,24.1992188 L521.144531,46.7226562 L555.972656,72.3671875 L532.972656,62.2382812 L532.972656,78.109375 L507.410156,57.3710937 L509.5,72.5859375 L494.28125,71.5859375 L475.804688,80.5859375 L459.894531,57.5 L450.328125,75.2382812 L430.503906,47.9804688 L420.808594,58.9804688 L405.550781,39.8945312 L382.640625,42.5898437 L370.46875,50.1523437 L353.902344,45.2851562 L358.640625,38.15625 L380.8125,22.0273437 L399.246094,26.5898438 L427.525391,10.1220703 L437.761719,1.484375 L448.265625,0.251953125 Z" id="Path-246" fill="#DBDAD8"></path>
                                        <path d="M525.162109,50.1474609 L504.685547,35.3876953 C504.685547,35.3876953 489.971354,24.1416016 482.150391,18.4248047 C473.725586,10.7333984 457.265625,1.640625 457.265625,1.640625 L445.322266,83.828125 L460.648438,58.0273438 L475.851562,81.1767578 L493.773438,71.8945312 L510.228516,73.5039062 L508.31543,58.0273438 L533.661133,80.0703125 L533.530273,62.90625 L553.77832,71.3408203 L525.162109,50.1474609 Z" id="Path-247" fill-opacity="0.699162138" fill="#A6A29B"></path>
                                        <path d="M932.072266,185.099609 L864.804688,236.816406 L854.905273,121.24707 L932.072266,185.099609 Z" id="Path-252" opacity="0.740000248" fill="#415CA4"></path>
                                        <path d="M0.791015625,227.107422 L60.9960938,162.820312 L72.34375,169.34375 L85.6074219,103.615234 L124.451172,153.740234 L0.791015625,227.107422 Z" id="Path-253" opacity="0.740000248" fill="#415CA4"></path>
                                    </g>
                                    <path d="M1095.99219,171.261719 L1062.88281,225.414062 L1048.88281,187.679688 L986.75,286.671875 L1033.76172,109.519531 L1095.99219,171.261719 Z" id="Path-248" opacity="0.740000248" fill="#415CA4"></path>
                                </g>
                                <path d="M1168.21094,58.1523438 L1123.15625,319.757812 L1094.94922,273.234375 L1021.6875,448.179688 L1368.46484,448.609375 L1168.21094,58.1523438 Z" id="Path-249" opacity="0.740000248" fill="#415CA4"></path>
                                <path d="M1168.04297,55.4589844 L1134.06445,109.804688 L1137.65234,120.326172 L1148.67188,107.957031 L1157.67188,117.130859 L1168.04297,55.4589844 Z" id="Path-250" fill="#DBDAD8"></path>
                                <path d="M1167.65039,55.2851562 L1200.25586,120.322266 L1190.2793,125.322266 L1183.35657,109.0625 L1170.80273,128.082031 L1157.39062,117.517578 L1167.65039,55.2851562 Z" id="Path-251" fill-opacity="0.7" fill="#A5A29B"></path>
                            </g>
                            <g id="river">
                                <use fill-opacity="0.700000286" fill="#80B0B1" sketch:type="MSShapeGroup" xlink:href="#path-2"></use>
                                <use fill="url(#linearGradient-1)" xlink:href="#path-2"></use>
                            </g>
                        </g>
                    </g>
                </g>
            </g>
        </g>
    </g>
</svg>