<?xml version="1.0" encoding="UTF-8" standalone="no"?>
<svg width="1440px" height="3300px" viewBox="0 0 1440 3300" version="1.1" xmlns="http://www.w3.org/2000/svg" xmlns:xlink="http://www.w3.org/1999/xlink" xmlns:sketch="http://www.bohemiancoding.com/sketch/ns">
    <!-- Generator: Sketch 3.2.2 (9983) - http://www.bohemiancoding.com/sketch -->
    <title>home_screen</title>
    <desc>Created with Sketch.</desc>
    <defs></defs>
    <g id="Page-1" stroke="none" stroke-width="1" fill="none" fill-rule="evenodd" sketch:type="MSPage">
        <g id="home_screen" sketch:type="MSArtboardGroup">
            <g id="sun_rays-+-Oval-37-+-Group" sketch:type="MSLayerGroup" transform="translate(-1399.000000, -1072.000000)">
                <g id="sun_rays" transform="translate(1971.000000, 1647.500000) rotate(13.000000) translate(-1971.000000, -1647.500000) translate(247.000000, 355.000000)" sketch:type="MSShapeGroup">
                    <path d="M2011.20899,2488.36531 L947.487275,853.520674 L2211.81162,2434.2839 L2011.20899,2488.36531 Z" id="Path-214" fill-opacity="0.0900000036" fill="#89C4F4"></path>
                    <path d="M2332.53035,2456.21167 L971.154814,830.548428 L2540.24435,2367.66251 L2332.53035,2456.21167 Z" id="Path-215" fill-opacity="0.0900000036" fill="#89C4F4"></path>
                    <path d="M1393.13861,1874.23768 L925.129309,866.317085 L1920.56279,2525.06586 L1704.76913,2584.43846 L1393.13861,1874.23768 Z" id="Path-216" fill-opacity="0.0900000036" fill="#89C4F4"></path>
                    <path d="M1726.65883,1504.91175 L1004.537,812.798569 L2551.95906,2024.60488 L2403.74726,2134.46263 L1726.65883,1504.91175 Z" id="Path-217" fill-opacity="0.0900000036" fill="#89C4F4"></path>
                    <path d="M886.612018,887.206631 L1410.14717,2437.06083 L1555.08108,2414.58894 L886.612018,887.206631 Z" id="Path-218" fill-opacity="0.0900006592" fill="#89C4F4"></path>
                    <path d="M1038.91921,796.274562 L2662.59012,2026.83768 L2794.88071,1913.99661 L1038.91921,796.274562 Z" id="Path-219" fill-opacity="0.0897168815" fill="#89C4F4"></path>
                    <path d="M1063.34075,771.019477 L2856.62108,1854.27377 L3027.18291,1744.28469 L1063.34075,771.019477 Z" id="Path-220" fill-opacity="0.0900000036" fill="#89C4F4"></path>
                    <path d="M1096.38958,747.684478 L3100.80467,1703.01845 L3274.71584,1584.611 L1096.38958,747.684478 Z" id="Path-221" fill-opacity="0.0900000036" fill="#89C4F4"></path>
                    <path d="M1125.35891,723.279985 L3249.42919,1500.25851 L3352.81395,1357.703 L1125.35891,723.279985 Z" id="Path-222" fill-opacity="0.0900000036" fill="#89C4F4"></path>
                    <path d="M1148.0899,699.475909 L3361.79048,1292.73901 L3447.69046,1141.82768 L1148.0899,699.475909 Z" id="Path-223" fill-opacity="0.0900000036" fill="#89C4F4"></path>
                    <path d="M1184.03567,674.558559 L3243.34961,1040.55091 L3271.89828,896.187885 L1184.03567,674.558559 Z" id="Path-224" fill-opacity="0.0900000036" fill="#89C4F4"></path>
                    <path d="M1218.32265,643.99978 L3200.77661,855.121789 L3246.26241,702.259097 L1218.32265,643.99978 Z" id="Path-225" fill-opacity="0.0900000036" fill="#89C4F4"></path>
                    <path d="M1249.82381,611.707197 L3229.87292,677.621845 L3252.76265,543.972532 L1249.82381,611.707197 Z" id="Path-226" fill-opacity="0.0900000036" fill="#89C4F4"></path>
                    <path d="M1286.30928,580.591781 L3235.6271,509.1733 L3249.68317,354.359249 L1286.30928,580.591781 Z" id="Path-227" stroke="#979797"></path>
                    <path d="M1288.00775,538.387393 L3018.60323,341.400225 L2995.6262,221.122723 L1288.00775,538.387393 Z" id="Path-228" stroke="#979797"></path>
                    <path d="M846.808964,901.321363 L1163.47936,2450.70649 L1363.27243,2503.08046 L846.808964,901.321363 Z" id="Path-235" stroke="#979797"></path>
                    <path d="M817.307878,910.515264 L921.708548,2267.62901 L1056.68177,2260.24887 L817.307878,910.515264 Z" id="Path-236" stroke="#979797"></path>
                    <path d="M527.534268,890.106756 C601.084026,980.30336 829.197841,966.282129 1037.04073,858.789462 C1244.88363,751.296795 1353.74972,591.037977 1280.19997,500.841373 C1206.65021,410.64477 978.536393,424.666001 770.6935,532.158668 C562.850607,639.651335 453.984511,799.910153 527.534268,890.106756 L527.534268,890.106756 Z" id="Oval-88" stroke="#979797" fill-opacity="0.81677423" fill="#E4D94C"></path>
                </g>
                <g id="Group" transform="translate(1353.000000, 399.000000)"></g>
            </g>
        </g>
    </g>
</svg>