<?xml version="1.0" encoding="UTF-8" standalone="no"?>
<svg width="1440px" height="3300px" viewBox="0 0 1440 3300" version="1.1" xmlns="http://www.w3.org/2000/svg" xmlns:xlink="http://www.w3.org/1999/xlink" xmlns:sketch="http://www.bohemiancoding.com/sketch/ns">
    <!-- Generator: Sketch 3.2.2 (9983) - http://www.bohemiancoding.com/sketch -->
    <title>home_screen</title>
    <desc>Created with Sketch.</desc>
    <defs></defs>
    <g id="Page-1" stroke="none" stroke-width="1" fill="none" fill-rule="evenodd" sketch:type="MSPage">
        <g id="home_screen" sketch:type="MSArtboardGroup">
            <g id="sun_rays-+-Oval-37-+-Group" sketch:type="MSLayerGroup" transform="translate(-1399.000000, -1072.000000)">
                <g id="sun_rays" transform="translate(1971.000000, 1647.500000) rotate(13.000000) translate(-1971.000000, -1647.500000) translate(247.000000, 355.000000)" sketch:type="MSShapeGroup">
                    <path d="M2011.20899,2488.36531 L947.487275,853.520674 L2211.81162,2434.2839 L2011.20899,2488.36531 Z" id="Path-214" fill-opacity="0.0900000036" fill="#89C4F4"></path>
                    <path d="M2332.53035,2456.21167 L971.154814,830.548428 L2540.24435,2367.66251 L2332.53035,2456.21167 Z" id="Path-215" fill-opacity="0.0900000036" fill="#89C4F4"></path>
                    <path d="M1393.13861,1874.23768 L925.129309,866.317085 L1920.56279,2525.06586 L1704.76913,2584.43846 L1393.13861,1874.23768 Z" id="Path-216" fill-opacity="0.0900000036" fill="#89C4F4"></path>
                    <path d="M1726.65883,1504.91175 L1004.537,812.798569 L2551.95906,2024.60488 L2403.74726,2134.46263 L1726.65883,1504.91175 Z" id="Path-217" fill-opacity="0.0900000036" fill="#89C4F4"></path>
                    <path d="M886.612018,887.206631 L1410.14717,2437.06083 L1555.08108,2414.58894 L886.612018,887.206631 Z" id="Path-218" stroke="#979797"></path>
                    <path d="M1038.91921,796.274562 L2662.59012,2026.83768 L2794.88071,1913.99661 L1038.91921,796.274562 Z" id="Path-219" fill-opacity="0.0897168815" fill="#89C4F4"></path>
                    <path d="M1063.34075,771.019477 L2856.62108,1854.27377 L3027.18291,1744.28469 L1063.34075,771.019477 Z" id="Path-220" fill-opacity="0.0900000036" fill="#89C4F4"></path>
                    <path d="M1096.38958,747.684478 L3100.80467,1703.01845 L3274.71584,1584.611 L1096.38958,747.684478 Z" id="Path-221" fill-opacity="0.0900000036" fill="#89C4F4"></path>
                    <path d="M1125.35891,723.279985 L3249.42919,1500.25851 L3352.81395,1357.703 L1125.35891,723.279985 Z" id="Path-222" fill-opacity="0.0900000036" fill="#89C4F4"></path>
                    <path d="M1148.0899,699.475909 L3361.79048,1292.73901 L3447.69046,1141.82768 L1148.0899,699.475909 Z" id="Path-223" fill-opacity="0.0900000036" fill="#89C4F4"></path>
                    <path d="M1184.03567,674.558559 L3243.34961,1040.55091 L3271.89828,896.187885 L1184.03567,674.558559 Z" id="Path-224" fill-opacity="0.0900000036" fill="#89C4F4"></path>
                    <path d="M1218.32265,643.99978 L3200.77661,855.121789 L3246.26241,702.259097 L1218.32265,643.99978 Z" id="Path-225" fill-opacity="0.0900000036" fill="#89C4F4"></path>
                    <path d="M1249.82381,611.707197 L3229.87292,677.621845 L3252.76265,543.972532 L1249.82381,611.707197 Z" id="Path-226" fill-opacity="0.0900000036" fill="#89C4F4"></path>
                    <path d="M1286.30928,580.591781 L3235.6271,509.1733 L3249.68317,354.359249 L1286.30928,580.591781 Z" id="Path-227" stroke="#979797"></path>
                    <path d="M1288.00775,538.387393 L3018.60323,341.400225 L2995.6262,221.122723 L1288.00775,538.387393 Z" id="Path-228" stroke="#979797"></path>
                    <path d="M846.808964,901.321363 L1163.47936,2450.70649 L1363.27243,2503.08046 L846.808964,901.321363 Z" id="Path-235" stroke="#979797"></path>
                    <path d="M817.307878,910.515264 L921.708548,2267.62901 L1056.68177,2260.24887 L817.307878,910.515264 Z" id="Path-236" stroke="#979797"></path>
                    <path d="M527.534268,890.106756 C601.084026,980.30336 829.197841,966.282129 1037.04073,858.789462 C1244.88363,751.296795 1353.74972,591.037977 1280.19997,500.841373 C1206.65021,410.64477 978.536393,424.666001 770.6935,532.158668 C562.850607,639.651335 453.984511,799.910153 527.534268,890.106756 L527.534268,890.106756 Z" id="Oval-88" stroke="#979797" fill-opacity="0.81677423" fill="#E4D94C"></path>
                </g>
                <g id="Group" transform="translate(1353.000000, 399.000000)">
                    <g id="curve_down_dollar-2" transform="translate(1185.000000, 1275.231772) rotate(43.000000) translate(-1185.000000, -1275.231772) translate(1121.157017, 1213.803362)">
                        <g id="Path-439-+-Path-440" transform="translate(63.869744, 61.407518) rotate(28.000000) translate(-63.869744, -61.407518) translate(13.309879, 19.640197)" sketch:type="MSShapeGroup">
                            <path d="M0.052452483,42.0204465 L10.6260813,31.7334837 L21.6183403,23.1706104 L34.450395,14.5145714 L47.0172182,8.74771704 L60.621215,4.18050236 L76.4153504,0.079116365 L101.021503,33.6784493 L87.8925474,37.3014449 L74.7962511,41.0186531 L61.8543432,46.5520697 L50.344487,52.8433739 L41.4117302,58.2375654 L32.1820725,64.7727754 L24.2627372,71.4723339 L11.5187632,83.5294457 L9.48103372,75.72446 L6.42988268,66.7072729 L4.2169817,57.8764173 L2.36629975,51.2930542 L0.052452483,42.0204465 Z" id="Path-439" fill="#239C6F"></path>
                            <path d="M6.74756659,53.4599427 L10.6349883,66.415214 L13.5208646,64.4817633 L18.1030343,64.4817633 L21.2531523,64.7382308 L24.4913509,67.1375102 L33.5676098,59.1221165 L41.475069,53.8095759 L48.9104559,49.4297395 L57.4245825,44.8039037 L66.3899984,41.0877423 L75.928433,37.1852494 L80.7639581,35.682036 L80.5106027,31.3712888 L82.3612847,27.5504468 L86.3922085,24.6612622 L88.7496012,22.9832321 L81.7991524,12.2534704 L77.4485653,12.0671389 L72.1172158,11.7876417 L67.1065191,10.4006237 L62.4798143,6.69597723 L51.1906544,11.2401622 L41.9936558,15.3405014 L33.3360271,19.8145503 L26.3202601,24.0897061 L18.8739869,29.6817439 L13.4436704,33.3863904 L13.1022344,37.9190605 L11.9017653,43.6388086 L9.5334862,48.8581834 L6.74756659,53.4599427 Z" id="Path-440" fill="#62C29C"></path>
                        </g>
                        <ellipse id="Oval-104" fill="#239C6F" sketch:type="MSShapeGroup" cx="61.3552331" cy="50.7758267" rx="12.6582586" ry="12.8750641"></ellipse>
                        <text id="$" sketch:type="MSTextLayer" transform="translate(63.654292, 50.445651) rotate(3.000000) translate(-63.654292, -50.445651) " font-family="Myriad Web Pro" font-size="21.9512195" font-weight="normal" fill="#62C29C">
                            <tspan x="56.4646188" y="56.9456506">$</tspan>
                        </text>
                        <ellipse id="Oval-99" fill="#239C6F" sketch:type="MSShapeGroup" cx="35.7460395" cy="54.3011419" rx="4.90233135" ry="5.21133545"></ellipse>
                        <ellipse id="Oval-100" fill="#239C6F" sketch:type="MSShapeGroup" cx="87.4034415" cy="52.9216707" rx="4.90233135" ry="5.21133545"></ellipse>
                    </g>
                    <g id="curve_up_dollar-2" transform="translate(1066.971328, 1384.903529) rotate(-65.000000) translate(-1066.971328, -1384.903529) translate(1017.963501, 1367.186941)">
                        <g id="Path-441-+-Path-442" sketch:type="MSShapeGroup">
                            <path d="M8.18855871,0.0740905516 L16.2357322,2.34381078 L23.4592299,3.83358854 L33.3176334,5.09233124 L43.4384563,5.7217026 L53.5228619,5.50899101 L61.7124917,5.09233124 L71.2966936,4.39205603 L80.2253823,2.76047055 L90.7757163,0.508277117 L97.9392324,29.6433907 L85.8518701,32.1616728 L76.8042892,33.5000827 L65.3606579,34.2808219 L56.1224213,35.2113355 L46.3229284,34.9986239 L37.2989117,35.2113355 L28.7643877,34.156541 L18.9531127,33.2164673 L8.58272348,31.3275566 L0.0471283955,29.2976348 L8.18855871,0.0740905516 Z" id="Path-441" fill="#239C6F"></path>
                            <path d="M6.81862195,20.7947481 L9.27358291,11.5206824 L12.4922381,11.5206824 L16.4863696,10.8204072 L19.7168069,9.11791788 L22.1246395,6.26264329 L30.8862366,7.74365765 L38.1461517,8.15155402 L47.456152,8.34594213 L55.5268898,8.28459834 L62.7503875,7.64566692 L70.4505246,7.07843603 L76.0416661,6.2275897 L77.7468571,8.41764267 L80.1429076,10.2611431 L84.0888396,11.0243554 L88.7973948,10.9885051 L91.4794289,20.2179572 L89.0116148,20.7150809 L86.1126829,22.212427 L83.4183311,24.216457 L81.4068055,26.3364027 L80.3689097,29.8648657 L72.5605914,31.3904937 L63.238809,32.3743844 L51.8069598,33.0125191 L43.177108,32.4540516 L32.1619166,31.8955841 L22.9590263,31.3108264 L18.3104527,30.7603257 L16.9148096,27.3378202 L14.185647,24.2435438 L10.561045,22.0622542 L6.81862195,20.7947481 Z" id="Path-442" fill="#62C29C"></path>
                        </g>
                        <ellipse id="Oval-103" fill="#239C6F" sketch:type="MSShapeGroup" cx="48.9335731" cy="19.8761103" rx="12.8459911" ry="9.87925008"></ellipse>
                        <text id="$-2" sketch:type="MSTextLayer" transform="translate(50.032209, 19.380947) rotate(-3.000000) translate(-50.032209, -19.380947) " font-family="Myriad Web Pro" font-size="16.6829268" font-weight="normal" fill="#62C29C">
                            <tspan x="43.525984" y="24.880947">$</tspan>
                        </text>
                        <ellipse id="Oval-102" fill="#239C6F" sketch:type="MSShapeGroup" cx="22.2020309" cy="18.4647888" rx="4.97503702" ry="3.99874408"></ellipse>
                        <ellipse id="Oval-101" fill="#239C6F" sketch:type="MSShapeGroup" cx="75.6651153" cy="17.7591281" rx="4.97503702" ry="3.99874408"></ellipse>
                    </g>
                    <g id="curvy_dollar" transform="translate(1323.190912, 984.998193) rotate(147.000000) translate(-1323.190912, -984.998193) translate(1250.690912, 948.498193)">
                        <g id="Path-428-+-Path-429-+-Path-430-+-$" transform="translate(1.000000, 1.000000)">
                            <g id="Path-428-+-Path-429-+-Path-430" transform="translate(0.000000, 0.000000)" sketch:type="MSShapeGroup">
                                <path d="M0.60162999,5.35301913 L8.55540129,8.42207032 L16.9002321,10.2168975 L23.3482572,10.8677743 L29.3623289,10.9277493 L36.4793888,10.883997 L44.3468151,10.3206248 L55.297595,8.84337047 L64.2067325,7.14194709 L73.4010871,5.22176225 L82.0060671,3.48150257 L92.1117798,1.74173448 L98.7519923,0.915848529 L106.501321,0.395737019 L116.377523,0.302824849 L123.838292,0.549115838 L131.271764,1.88429813 L138.165998,3.42152752 L143.36787,5.39087223 L143.423576,13.5430548 L143.169555,32.6932853 L143.156742,65.4072178 L138.02339,63.8041142 L132.245514,62.1464431 L125.754038,61.0137995 L119.765034,60.3299856 L114.532524,60.1933211 L110.571236,60.0674719 L106.720804,60.324578 L102.579585,60.6691888 L97.5392622,61.227645 L91.6432883,62.0205938 L82.3369636,63.5253777 L71.6602596,65.5556806 L60.8899686,67.9473087 L48.464081,69.9279602 L38.0837355,70.9730992 L25.4846007,71.0006287 L15.7058851,69.9338594 L4.77404539,67.269394 L0.526983306,65.6225381 L0.60162999,5.35301913 Z" id="Path-428" fill="#239C6F"></path>
                                <path d="M7.2540979,48.4146143 L7.44015755,27.5255989 L10.8583072,28.0167061 L13.3940662,28.065866 L15.7744041,27.5074098 L17.8890221,26.2602237 L19.9284364,24.5588003 L21.4536798,22.4960518 L22.3032036,20.2145419 L22.5945485,17.0412717 L29.1044078,17.3037855 L35.595327,17.3091931 L41.7146839,16.7841656 L50.8778428,15.651522 L58.9062608,14.3768063 L70.7489015,12.1719858 L79.0887187,10.5521678 L90.1442269,8.52776405 L95.5254729,7.65222662 L101.142914,6.83715585 L105.730343,6.5746421 L112.06027,6.27378364 L120.275305,6.26247687 L120.275305,8.35816247 L120.56665,10.2729397 L121.943157,13.2874235 L124.652163,16.6961694 L128.248574,19.1748105 L131.453925,21.3142483 L136.202902,22.2772904 L136.066421,43.4504499 L134.150675,42.8816701 L131.676751,42.7558208 L129.153804,43.0183345 L126.592977,43.8879728 L124.385886,45.0098012 L122.860643,46.4816479 L121.58385,48.2651683 L120.839612,50.4867032 L120.108186,54.0153993 L115.656681,53.7145408 L110.113886,53.7091332 L104.038537,54.2341607 L99.9463392,54.5404268 L93.6041564,55.3284596 L88.1727745,56.0727402 L84.5646658,56.8111215 L77.7250241,58.1900561 L64.5877648,60.9528413 L57.4005147,62.1071152 L49.383795,63.2943262 L42.024969,64.2573683 L35.1864414,64.8703919 L30.102668,64.9524889 L25.9547634,64.8212321 L22.7560973,64.601979 L22.5143312,62.5284153 L21.8257991,60.4877888 L21.0821176,58.5292593 L19.7551892,56.6307048 L18.1246605,54.83047 L16.1966592,52.8719405 L13.9956962,51.3179967 L11.3791628,50.0157516 L9.20939537,49.1461133 L7.2540979,48.4146143 Z" id="Path-429" fill="#62C29C"></path>
                                <g id="Path-430" transform="translate(43.627789, 9.101915)" fill="#239C6F">
                                    <path d="M7.40491744,37.4888683 L6.67349135,35.1527909 L6.23341015,32.6741499 L6.23341015,30.119311 L6.53088276,26.8088848 L7.52914289,23.8052162 L8.46501177,21.3816343 L9.80419556,19.2476039 L11.0876729,17.1194728 L13.1025763,14.5479196 L15.3592458,12.7860296 L17.8699369,11.0846062 L21.1744453,8.96188266 L24.4109918,7.88380653 L27.945011,6.79540683 L31.8879157,6.40655219 L35.2236197,6.66414995 L39.0612392,7.50085108 L42.9735053,9.07101758 L45.5337751,10.6416757 L47.6912871,13.5519405 L49.4332288,16.3260324 L50.320076,19.3459237 L50.3819101,23.8052162 L49.2538539,29.2816267 L47.2695891,33.1662402 L44.0642382,36.9466349 L38.9559539,41.2142039 L35.5829265,43.6761306 L31.3174813,45.3338017 L25.8186946,46.5593574 L20.715981,46.5593574 L15.9731312,45.6130298 L12.7555249,43.8732617 L10.0337063,41.2795865 L7.40491744,37.4888683 Z" transform="translate(28.307660, 26.482955) rotate(19.000000) translate(-28.307660, -26.482955) "></path>
                                </g>
                            </g>
                            <text id="$" sketch:type="MSTextLayer" transform="translate(76.847125, 34.924341) rotate(-7.000000) translate(-76.847125, -34.924341) " font-family="Myriad Web Pro" font-size="31.58463" font-weight="normal" fill="#62C29C">
                                <tspan x="63.1567" y="44.9243411">$</tspan>
                            </text>
                        </g>
                        <ellipse id="Oval-97" fill="#239C6F" sketch:type="MSShapeGroup" cx="29.8069352" cy="43.0336622" rx="8.27129824" ry="5.28567009"></ellipse>
                        <ellipse id="Oval-98" fill="#239C6F" sketch:type="MSShapeGroup" cx="116.512958" cy="32.462322" rx="8.27129824" ry="5.28567009"></ellipse>
                    </g>
                    <g id="curvy_dollar-2" transform="translate(775.432367, 1245.317126) rotate(126.000000) translate(-775.432367, -1245.317126) translate(720.432367, 1220.817126)">
                        <g id="Path-428-+-Path-429-+-Path-430-+-$" transform="translate(0.000000, 0.000000)">
                            <g id="Path-428-+-Path-429-+-Path-430" sketch:type="MSShapeGroup">
                                <path d="M0.452108351,3.58467345 L6.4291482,5.63987746 L12.7000585,6.84179157 L17.5455716,7.27765415 L22.0649806,7.31781671 L27.413255,7.2885178 L33.3254089,6.91125305 L41.5546181,5.92200301 L48.2495893,4.78263715 L55.1588933,3.49677669 L61.6252986,2.33140393 L69.219463,1.16636037 L74.2093996,0.613302107 L80.0328064,0.265007083 L87.4544999,0.202788029 L93.061062,0.367717903 L98.6471119,1.26182876 L103.827939,2.29124137 L107.737001,3.61002196 L107.778863,9.06916787 L107.587973,21.8932063 L107.578345,43.8002391 L103.720772,42.7267135 L99.3788576,41.6166465 L94.5006922,40.8581666 L90.000121,40.4002476 L86.0680342,40.3087296 L83.0912356,40.224454 L80.1977422,40.3966263 L77.0857297,40.6273965 L73.2980664,41.0013692 L68.8674046,41.532371 L61.8739582,42.5400563 L53.8507094,43.8996579 L45.7571327,45.5012224 L36.4194208,46.8275746 L28.6188772,47.5274567 L19.1509749,47.545892 L11.8025397,46.831525 L3.58756349,45.0472538 L0.396013426,43.9444292 L0.452108351,3.58467345 Z" id="Path-428" fill="#239C6F"></path>
                                <path d="M5.45125458,32.4210653 L5.59107327,18.4326418 L8.1597185,18.7615139 L10.0652715,18.794434 L11.8540298,18.4204613 L13.4431069,17.5852775 L14.9756705,16.4459116 L16.1218489,15.0645828 L16.7602426,13.5367593 L16.9791803,11.4117647 L21.8711601,11.5875582 L26.7489069,11.5911794 L31.3474349,11.2395923 L38.2332962,10.4811124 L44.266431,9.62749336 L53.165849,8.15102532 L59.4329917,7.06630689 L67.7409013,5.71065574 L71.7847593,5.12434815 L76.0061117,4.57853232 L79.4534379,4.4027388 L84.2102038,4.20126757 L90.3835759,4.19369594 L90.3835759,5.59708128 L90.6025136,6.87932052 L91.6369207,8.89798317 L93.6726642,11.1806653 L96.3752674,12.8404985 L98.7840002,14.2731827 L102.352726,14.9180882 L102.250164,29.0967901 L100.810534,28.7159042 L98.9514478,28.6316286 L97.055523,28.8074222 L95.1311322,29.3897793 L93.4725643,30.1410168 L92.326386,31.1266456 L91.3669116,32.3209881 L90.8076368,33.808649 L90.2579902,36.1716563 L86.9128071,35.970185 L82.7475496,35.9665638 L78.1820925,36.3181509 L75.1069184,36.5232433 L70.3409429,37.0509531 L66.2594092,37.5493639 L63.5480149,38.0438243 L58.4082128,38.9672341 L48.5359246,40.8173457 L43.1349043,41.5903104 L37.1105605,42.3853317 L31.5806056,43.0302371 L26.4416406,43.4407512 L22.6213251,43.4957278 L19.5042892,43.407831 L17.1005798,43.2610072 L16.9188992,41.872436 L16.4014863,40.5059212 L15.8426301,39.194383 L14.84548,37.9230074 L13.6201827,36.7174721 L12.1713429,35.4059339 L10.5173798,34.3653285 L8.55112712,33.4932741 L6.92060672,32.9109169 L5.45125458,32.4210653 Z" id="Path-429" fill="#62C29C"></path>
                                <g id="Path-430" transform="translate(37.293916, 10.113065)" fill="#239C6F">
                                    <path d="M1.05575672,21.086663 L0.506110182,19.5222982 L0.175401295,17.862465 L0.175401295,16.1516056 L0.398943758,13.9347638 L1.14910873,11.9233435 L1.85238838,10.3003809 L2.85874808,8.87131787 L3.8232459,7.44620524 L5.33739026,5.724153 L7.03321519,4.54429538 L8.91993032,3.40492952 L11.4031773,1.98343811 L13.8353528,1.26149956 L16.4910707,0.532647777 L19.4540549,0.272249513 L21.9607445,0.444751018 L24.8446097,1.00505171 L27.7845699,2.05652081 L29.7085421,3.10831911 L31.3298529,5.05719107 L32.638874,6.91487427 L33.3053152,8.93715813 L33.3517819,11.9233435 L32.5040787,15.5906465 L31.0129584,18.1919956 L28.6042256,20.7235539 L24.7654908,23.5813508 L22.2307537,25.2299911 L19.0253892,26.3400581 L14.8932026,27.160757 L11.058654,27.160757 L7.49453316,26.5270444 L5.07659072,25.3620009 L3.03121905,23.6251346 L1.05575672,21.086663 Z"></path>
                                </g>
                            </g>
                            <text id="$" sketch:type="MSTextLayer" transform="translate(58.554316, 23.161555) rotate(-8.000000) translate(-58.554316, -23.161555) " font-family="Myriad Web Pro" font-size="20.1790691" font-weight="normal" fill="#62C29C">
                                <tspan x="48.2663388" y="29.6615549">$</tspan>
                            </text>
                        </g>
                        <ellipse id="Oval-97" fill="#239C6F" sketch:type="MSShapeGroup" cx="21.6476176" cy="28.1480319" rx="6.21565259" ry="3.53957287"></ellipse>
                        <ellipse id="Oval-98" fill="#239C6F" sketch:type="MSShapeGroup" cx="86.8048034" cy="21.0688861" rx="6.21565259" ry="3.53957287"></ellipse>
                    </g>
                    <g id="curve_up_dollar-3" transform="translate(742.396062, 686.000000) rotate(65.000000) translate(-742.396062, -686.000000) translate(635.319567, 640.169174)">
                        <g id="Path-441-+-Path-442" sketch:type="MSShapeGroup">
                            <path d="M17.8910637,0.191663945 L35.473217,6.06317556 L51.2557329,9.9170635 L72.7952162,13.1732897 L94.9080562,14.8014028 L116.941328,14.2511417 L134.834732,13.1732897 L155.775117,11.3617562 L175.28328,7.14102764 L198.334552,1.31485588 L213.986015,76.6841263 L187.576512,83.1986395 L167.808583,86.660956 L142.805558,88.6806406 L122.621068,91.0877748 L101.210297,90.5375138 L81.4938538,91.0877748 L62.8468955,88.3591398 L41.4103823,85.9272746 L18.7522686,81.0408745 L0.102970151,75.7896946 L17.8910637,0.191663945 Z" id="Path-441" fill="#239C6F"></path>
                            <path d="M14.8979087,53.7936807 L20.2617174,29.8027131 L27.2941107,29.8027131 L36.020831,27.9911796 L43.0789668,23.5870307 L48.3398054,16.2007556 L67.4828926,20.0319737 L83.3449763,21.0871558 L103.686262,21.590016 L121.3199,21.4313265 L137.102416,19.7784826 L153.926334,18.3111199 L166.142339,16.1100759 L169.867986,21.7754973 L175.103082,26.544426 L183.724492,28.5187707 L194.012146,28.4260301 L199.872084,52.3015872 L194.480192,53.5875904 L188.146358,57.4610569 L182.259507,62.6452575 L177.864554,68.1293194 L175.596871,77.2570572 L158.536589,81.2036858 L138.169561,83.7489005 L113.192279,85.3996836 L94.3370399,83.9549908 L70.2701073,82.5102981 L50.1628451,80.9975955 L40.0062439,79.5735118 L36.9569233,70.7198741 L30.9940154,62.7153282 L23.0746747,57.0725768 L14.8979087,53.7936807 Z" id="Path-442" fill="#62C29C"></path>
                        </g>
                        <ellipse id="Oval-103" fill="#239C6F" sketch:type="MSShapeGroup" cx="106.914258" cy="51.4172676" rx="28.0670206" ry="25.5565117"></ellipse>
                        <text id="$-2" sketch:type="MSTextLayer" transform="translate(109.314651, 50.060901) rotate(-3.000000) translate(-109.314651, -50.060901) " font-family="Myriad Web Pro" font-size="43.0243902" font-weight="normal" fill="#62C29C">
                            <tspan x="95.0992941" y="63.5609014">$</tspan>
                        </text>
                        <ellipse id="Oval-101" fill="#239C6F" sketch:type="MSShapeGroup" cx="165.319618" cy="45.9408722" rx="10.8698866" ry="10.3443024"></ellipse>
                    </g>
                </g>
            </g>
        </g>
    </g>
</svg>